<svg xmlns="http://www.w3.org/2000/svg" width="60" height="60" viewBox="0 0 50 60">
	<style>
		.class-icon{fill:#5585c1}
	</style>
	<g id="despachos" transform="translate(-24 -339)">
		<!-- <rect id="Rectángulo_748" data-name="Rectángulo 748" width="60" height="60" transform="translate(24 339)" fill="#fff"/> -->
		<g id="Grupo_358" data-name="Grupo 358" transform="translate(-47.849 340.25)">
			<path class="class-icon" id="Trazado_3046" data-name="Trazado 3046" d="M106.785,139.046a7.628,7.628,0,0,1-7.614-7.221.184.184,0,0,0-.182-.163H80.223a.306.306,0,0,1-.306-.306V128.3a.306.306,0,0,1,.306-.306H96.912a.166.166,0,0,0,.12-.051.164.164,0,0,0,.045-.118V123.24H80.223a.306.306,0,0,1-.306-.306v-3.058a.306.306,0,0,1,.306-.306H97.077V100.557a1.854,1.854,0,0,1,1.835-1.837H117.2a1.82,1.82,0,0,1,1.758,1.3l4.512,14.629a1.761,1.761,0,0,1,.074.549v14.631a1.854,1.854,0,0,1-1.835,1.837h-7.135a.165.165,0,0,0-.165.158,7.62,7.62,0,0,1-7.21,7.215C107.063,139.043,106.923,139.046,106.785,139.046Zm-.007-11.548a3.948,3.948,0,1,0,3.948,3.947A3.952,3.952,0,0,0,106.778,127.5Zm12.939.5a.166.166,0,0,0,.165-.169V124.01a.289.289,0,0,1-.009-.073V117.2l.306-.024-.305.008a.166.166,0,0,0-.165-.161h-12.13a1.854,1.854,0,0,1-1.837-1.835V102.554a.164.164,0,0,0-.164-.16h-4.67a.167.167,0,0,0-.12.051.164.164,0,0,0-.045.118v23.722a.168.168,0,0,0,.1.163.389.389,0,0,0,.091.016.165.165,0,0,0,.123-.056A7.623,7.623,0,0,1,113.53,127.9a.2.2,0,0,0,.169.1h6.018Zm-10.137-25.6a.165.165,0,0,0-.161.169s0,10.62,0,10.623a.165.165,0,0,0,.165.166H119a.168.168,0,0,0,.139-.068l.008-.01a.165.165,0,0,0,.028-.152l-3.255-10.6a.2.2,0,0,0-.184-.129h-6.153Z" transform="translate(-0.061 -85.296)" fill="#5585c1"/>
			<path class="class-icon" id="Trazado_3047" data-name="Trazado 3047" d="M81,33.567a1.958,1.958,0,0,1-.481-.06l-.437-.113a.305.305,0,0,1-.229-.3v-4.19a.3.3,0,0,1,.01-.079L85.149,9.057a.169.169,0,0,0-.017-.134.164.164,0,0,0-.1-.075L80.083,7.524a.306.306,0,0,1-.227-.3V4.056a.306.306,0,0,1,.306-.306.3.3,0,0,1,.079.01L87.91,5.807a1.894,1.894,0,0,1,.772.425l7.092,6.544a1.794,1.794,0,0,1,.512,1.829L92.163,30.066a1.853,1.853,0,0,1-1.37,1.315L81.4,33.525A1.961,1.961,0,0,1,81,33.567Zm2.653-4.59a.187.187,0,0,0,.041.183.16.16,0,0,0,.077.04.235.235,0,0,0,.053.006.225.225,0,0,0,.05-.006l4.94-1.127a.186.186,0,0,0,.127-.134l3.5-13.118,0-.017a.211.211,0,0,0-.04-.167L88.675,11.2a.225.225,0,0,0-.083-.043l-.03-.01a.051.051,0,0,0-.036,0l-.023.008a.2.2,0,0,0-.134.131Z" fill="#5585c1"/>
		</g>
	</g>
</svg>
