<svg width="16" height="16" viewBox="0 0 16 16" fill="none" xmlns="http://www.w3.org/2000/svg">
    <defs>
        <style>
            .icon_permission{fill:#3D4550}
        </style>
    </defs>
    <path class="icon_permission" d="M15.9765 8.22205L14.2991 3.48226C14.2636 3.38055 14.1914 3.29155 14.0932 3.22849C13.995 3.16544 13.876 3.13171 13.754 3.13233H6.95439C6.80373 3.13319 6.65953 3.18572 6.55299 3.27855C6.44646 3.37137 6.38617 3.49701 6.38518 3.62828V9.88683H0.00378418V10.8787H6.38442V12.4573C6.38483 12.478 6.38046 12.4985 6.37158 12.5177C6.36269 12.5368 6.34948 12.5542 6.33271 12.5688C6.31594 12.5834 6.29597 12.595 6.27398 12.6027C6.252 12.6104 6.22846 12.6142 6.20475 12.6139H0.00378418V13.6058H6.98308C7.0285 13.6063 7.07207 13.6215 7.10529 13.6485C7.13851 13.6755 7.159 13.7124 7.16275 13.7518C7.19946 14.3587 7.50204 14.9303 8.00812 15.3486C8.51419 15.7669 9.18518 16.0001 9.88275 16.0001C10.5803 16.0001 11.2513 15.7669 11.7574 15.3486C12.2635 14.9303 12.566 14.3587 12.6027 13.7518C12.6055 13.712 12.6256 13.6747 12.6591 13.6475C12.6925 13.6203 12.7367 13.6054 12.7824 13.6058H15.4307C15.5814 13.6049 15.7256 13.5524 15.8321 13.4596C15.9386 13.3667 15.9989 13.2411 15.9999 13.1098V8.36807C16.001 8.31863 15.9931 8.26935 15.9765 8.22205ZM10.7464 4.28077C10.746 4.26011 10.7503 4.2396 10.7592 4.22045C10.7681 4.20129 10.7813 4.18389 10.7981 4.16928C10.8149 4.15467 10.8348 4.14316 10.8568 4.13542C10.8788 4.12768 10.9024 4.12387 10.9261 4.12423H13.209C13.2473 4.12482 13.2846 4.13567 13.3156 4.15532C13.3467 4.17497 13.3701 4.20246 13.3826 4.23407L14.5905 7.66887C14.5989 7.69271 14.6006 7.71798 14.5953 7.7425C14.59 7.76702 14.578 7.79006 14.5603 7.80963C14.544 7.82966 14.5225 7.84606 14.4976 7.85749C14.4727 7.86892 14.445 7.87506 14.4168 7.87541H10.9238C10.9001 7.87577 10.8765 7.87196 10.8546 7.86422C10.8326 7.85648 10.8126 7.84496 10.7958 7.83035C10.7791 7.81574 10.7659 7.79835 10.757 7.77919C10.7481 7.76004 10.7437 7.73952 10.7441 7.71886L10.7464 4.28077ZM9.87746 15.0134C9.56391 15.0134 9.25741 14.9324 8.9967 14.7806C8.73599 14.6288 8.53279 14.4131 8.4128 14.1607C8.29281 13.9083 8.26141 13.6306 8.32258 13.3626C8.38375 13.0947 8.53474 12.8486 8.75645 12.6554C8.97817 12.4622 9.26066 12.3306 9.56818 12.2774C9.87571 12.2241 10.1945 12.2514 10.4841 12.3559C10.7738 12.4605 11.0214 12.6375 11.1956 12.8647C11.3698 13.0918 11.4628 13.3589 11.4628 13.6321C11.4628 13.9984 11.2958 14.3498 10.9985 14.6088C10.7012 14.8679 10.2979 15.0134 9.87746 15.0134ZM14.86 11.203V12.4613C14.8604 12.4819 14.856 12.5025 14.8471 12.5216C14.8383 12.5408 14.825 12.5582 14.8083 12.5728C14.7915 12.5874 14.7715 12.5989 14.7495 12.6066C14.7276 12.6144 14.704 12.6182 14.6803 12.6178H12.4457C12.4128 12.6174 12.3805 12.6095 12.3522 12.5948C12.3238 12.5802 12.3004 12.5593 12.2842 12.5343C12.0797 12.193 11.7829 11.9003 11.4193 11.6815C11.0557 11.4627 10.6364 11.3244 10.1977 11.2787C9.75897 11.2329 9.31405 11.2811 8.90149 11.419C8.48894 11.5568 8.12119 11.7803 7.83011 12.0699C7.81311 12.087 7.79195 12.1005 7.76817 12.1095C7.7444 12.1185 7.71861 12.1227 7.69271 12.1219C7.67038 12.1209 7.64831 12.1174 7.62704 12.1114C7.59294 12.1004 7.56363 12.0804 7.54319 12.0543C7.52275 12.0281 7.51221 11.997 7.51304 11.9653V4.28077C7.51263 4.26011 7.517 4.2396 7.52589 4.22045C7.53477 4.20129 7.54799 4.18389 7.56475 4.16928C7.58152 4.15467 7.60148 4.14316 7.62347 4.13542C7.64545 4.12768 7.669 4.12387 7.69271 4.12423H9.41847C9.44217 4.12387 9.46572 4.12768 9.48771 4.13542C9.50969 4.14316 9.52967 4.15467 9.54643 4.16928C9.5632 4.18389 9.57642 4.20129 9.5853 4.22045C9.59418 4.2396 9.59855 4.26011 9.59814 4.28077V8.36807C9.59913 8.49934 9.65942 8.62498 9.76596 8.7178C9.87249 8.81062 10.0167 8.86315 10.1674 8.86401H14.6728C14.6965 8.86366 14.72 8.86746 14.742 8.87521C14.764 8.88295 14.7839 8.89447 14.8007 8.90908C14.8175 8.92369 14.8307 8.94108 14.8396 8.96024C14.8485 8.97939 14.8528 8.99991 14.8524 9.02057V11.2023L14.86 11.203Z"/>
    <path class="icon_permission" d="M5.7314 2.89413L3.09293 0.777467C3.02466 0.723233 2.94267 0.683799 2.85362 0.662363L0.00377832 0V1.02808L1.83674 1.45628C1.85986 1.46135 1.88157 1.47046 1.90055 1.48304C1.91953 1.49563 1.93539 1.51143 1.94717 1.5295C1.95895 1.54757 1.96642 1.56754 1.9691 1.58819C1.97179 1.60884 1.96965 1.62975 1.96281 1.64965L0 8.05489V9.41183L0.161558 9.44867C0.251754 9.46865 0.345984 9.47045 0.437098 9.45393L3.93014 8.75934C4.03111 8.73893 4.1239 8.69516 4.1987 8.63265C4.27351 8.57014 4.32756 8.4912 4.35517 8.40415L5.88918 3.39271C5.91949 3.3051 5.92076 3.2118 5.89284 3.12358C5.86492 3.03537 5.80896 2.95583 5.7314 2.89413ZM4.67451 3.50979L3.37452 7.7589C3.36636 7.78664 3.34979 7.81195 3.32654 7.8322C3.3033 7.85245 3.27424 7.86689 3.24241 7.874L1.4034 8.23971C1.37579 8.24495 1.34722 8.24495 1.31961 8.23971C1.28769 8.2332 1.25859 8.21882 1.23581 8.19828C1.21442 8.17836 1.19929 8.15397 1.19189 8.12747C1.18448 8.10097 1.18505 8.07325 1.19353 8.04699L2.94875 2.3153C2.95774 2.28936 2.97396 2.26575 2.99595 2.24659C3.01795 2.22743 3.04504 2.2133 3.07481 2.20546C3.10565 2.195 3.13986 2.195 3.17069 2.20546C3.19866 2.21273 3.22445 2.22531 3.24619 2.24229L4.63601 3.36048C4.65681 3.38098 4.67153 3.40561 4.67889 3.4322C4.68626 3.4588 4.68606 3.48657 4.67828 3.51308L4.67451 3.50979Z"/>
</svg>
