<svg width="16" height="16" viewBox="0 0 16 16" fill="none" xmlns="http://www.w3.org/2000/svg">
<g clip-path="url(#clip0_2171_934)">
<path d="M0.974402 15.9999C0.71604 15.9997 0.468319 15.9092 0.285629 15.7484C0.10294 15.5875 0.000211859 15.3694 0 15.1418V4.65224C0.000211859 4.42473 0.10294 4.20659 0.285629 4.04571C0.468319 3.88484 0.71604 3.79438 0.974402 3.79419H6.6464C6.93122 3.80028 7.21184 3.85607 7.472 3.95833C7.73736 4.0493 7.98003 4.18498 8.1864 4.35777L10.9528 6.79383C11.149 6.97556 11.3031 7.18926 11.4064 7.42293C11.5225 7.65203 11.5859 7.89914 11.5928 8.14995V15.1425C11.5926 15.3701 11.4899 15.5882 11.3072 15.7491C11.1245 15.91 10.8768 16.0004 10.6184 16.0006L0.974402 15.9999ZM10.2104 14.784V9.00729H6.6464C6.38804 9.0071 6.14032 8.91665 5.95763 8.75577C5.77494 8.5949 5.67221 8.37676 5.672 8.14925V5.01082H1.3816V14.784H10.2104ZM10.08 7.79137C10.054 7.74296 10.0207 7.69793 9.9808 7.65752L7.2056 5.2137C7.16028 5.17794 7.10902 5.14849 7.0536 5.12635V7.79137H10.08Z" fill="#3D4550"/>
<path d="M12.3984 12.2085C12.3656 12.2083 12.3342 12.1968 12.311 12.1763C12.2878 12.1559 12.2746 12.1282 12.2744 12.0993V11.1018C12.2746 11.0729 12.2878 11.0452 12.311 11.0248C12.3342 11.0044 12.3656 10.9928 12.3984 10.9926H14.6184V5.2131H11.0544C10.7961 5.21292 10.5483 5.12245 10.3657 4.96158C10.183 4.8007 10.0802 4.58257 10.08 4.35505V1.21944H5.78961V3.12152C5.7894 3.15042 5.77627 3.17809 5.75306 3.19853C5.72985 3.21897 5.69843 3.23053 5.66561 3.23071H4.53281C4.49999 3.23053 4.46857 3.21897 4.44536 3.19853C4.42215 3.17809 4.40902 3.15042 4.40881 3.12152V0.858048C4.40903 0.630536 4.51176 0.412398 4.69445 0.251523C4.87714 0.0906479 5.12485 0.000186561 5.38322 0H11.0552C11.34 0.0060862 11.6206 0.0618774 11.8808 0.164142C12.1462 0.255113 12.3888 0.390792 12.5952 0.563578L15.3616 2.99965C15.7468 3.37282 15.973 3.85211 16.0016 4.35576V11.3512C16.0014 11.5787 15.8987 11.7968 15.716 11.9577C15.5333 12.1186 15.2856 12.209 15.0272 12.2092L12.3984 12.2085ZM14.488 3.9993C14.4621 3.95089 14.4287 3.90586 14.3888 3.86545L11.6136 1.42163C11.5683 1.38586 11.517 1.35641 11.4616 1.33427V3.9993H14.488Z" fill="#3D4550"/>
</g>
<defs>
<clipPath id="clip0_2171_934">
<rect width="16" height="16" fill="white"/>
</clipPath>
</defs>
</svg>
