<svg xmlns="http://www.w3.org/2000/svg" width="20" height="20" viewBox="0 0 20 20">
    <defs>
        <style>
            .class-icon{fill:##efefef}
        </style>
    </defs>
    <g id="home-inactive" transform="translate(-20 -286)">
        <path id="path" d="M10.182 21.091a.909.909 0 0 1-.909.909h-5A2.27 2.27 0 0 1 2 19.724V12a4.241 4.241 0 0 1 1.359-2.939l8.052-6.845a.909.909 0 0 1 1.177 0l8.053 6.845A4.24 4.24 0 0 1 22 12v7.727A2.272 2.272 0 0 1 19.727 22h-5a.909.909 0 0 1-.909-.909v-5.455h-3.636zm9.545-.909a.454.454 0 0 0 .455-.458V12a2.461 2.461 0 0 0-.718-1.55L12 4.1l-7.464 6.346A2.469 2.469 0 0 0 3.818 12v7.727a.452.452 0 0 0 .452.458h4.094v-5.458a.909.909 0 0 1 .909-.909h5.455a.909.909 0 0 1 .909.909v5.455z" class="class-icon" transform="translate(18 284)"/>
    </g>
</svg>
