<svg width="16" height="16" viewBox="0 0 16 16" fill="none" xmlns="http://www.w3.org/2000/svg">
<path d="M6.54553 15.2728C6.54553 15.4657 6.46892 15.6506 6.33254 15.787C6.19617 15.9234 6.01121 16 5.81834 16H1.81839C1.5793 16.0003 1.34251 15.9534 1.12159 15.862C0.900677 15.7706 0.699988 15.6364 0.531042 15.4673C0.362095 15.2981 0.228216 15.0972 0.137088 14.8762C0.0459591 14.6552 -0.000625803 14.4183 6.34833e-06 14.1792V8.00009C0.0371783 7.10342 0.4281 6.258 1.08719 5.64891L7.52872 0.172972C7.66018 0.0613063 7.82704 0 7.99952 0C8.172 0 8.33886 0.0613063 8.47031 0.172972L14.9126 5.64891C15.5718 6.25795 15.9627 7.1034 15.9998 8.00009V14.1816C15.9999 14.4204 15.953 14.6569 15.8616 14.8776C15.7703 15.0983 15.6363 15.2988 15.4675 15.4676C15.2986 15.6365 15.0981 15.7705 14.8774 15.8618C14.6568 15.9531 14.4203 16.0001 14.1814 16H10.1815C9.98863 16 9.80367 15.9234 9.66729 15.787C9.53092 15.6506 9.4543 15.4657 9.4543 15.2728V10.9089H6.54553V15.2728ZM14.1814 14.5456C14.2295 14.5457 14.2771 14.5363 14.3214 14.5179C14.3658 14.4995 14.4061 14.4725 14.4399 14.4384C14.4738 14.4043 14.5005 14.3639 14.5186 14.3194C14.5368 14.2749 14.5459 14.2273 14.5454 14.1792V8.00009C14.5082 7.53143 14.3044 7.09159 13.9711 6.7601L7.99992 1.68015L2.02878 6.7569C1.69519 7.08954 1.49147 7.53045 1.45439 8.00009V14.1816C1.45375 14.2295 1.46264 14.277 1.48053 14.3215C1.49841 14.3659 1.52495 14.4063 1.55859 14.4404C1.59223 14.4745 1.6323 14.5016 1.67649 14.52C1.72068 14.5385 1.76809 14.548 1.81599 14.548H5.09115V10.1817C5.09115 9.9888 5.16776 9.80383 5.30414 9.66746C5.44051 9.53108 5.62548 9.45447 5.81834 9.45447H10.1823C10.3752 9.45447 10.5601 9.53108 10.6965 9.66746C10.8329 9.80383 10.9095 9.9888 10.9095 10.1817V14.5456H14.1814Z" fill="#333333"/>
</svg>
