<svg width="38" height="38" viewBox="0 0 38 38" fill="none" xmlns="http://www.w3.org/2000/svg">
<circle cx="19" cy="19" r="19" fill="#D2D2D2"/>
<path d="M33.6119 31.119C35.5624 28.7743 36.9189 25.9947 37.5668 23.0153C38.2147 20.0359 38.1349 16.9445 37.3341 14.0024C36.5333 11.0604 35.0352 8.35434 32.9664 6.11319C30.8976 3.87204 28.3189 2.16171 25.4487 1.12691C22.5784 0.0921014 19.5009 -0.236747 16.4766 0.168181C13.4522 0.573109 10.5699 1.6999 8.0736 3.45324C5.57725 5.20657 3.54026 7.53487 2.13494 10.2412C0.729629 12.9475 -0.00266542 15.9522 7.28987e-06 19.001C0.0010329 23.4333 1.56421 27.7235 4.41523 31.119L4.38807 31.1421C4.48314 31.2561 4.59179 31.3538 4.68957 31.4664C4.8118 31.6062 4.94354 31.7378 5.06984 31.8735C5.45011 32.2861 5.84125 32.6823 6.2514 33.0541C6.37635 33.1681 6.50537 33.274 6.63167 33.3825C7.06627 33.757 7.51309 34.1126 7.9762 34.4437C8.03596 34.4844 8.09029 34.5373 8.15004 34.5794V34.5631C11.3309 36.7997 15.1255 38 19.0149 38C25.6714 37.0467 26.699 36.7997 29.8798 34.5631V34.5794C29.9396 34.5373 29.9926 34.4844 30.0537 34.4437C30.5154 34.1112 30.9636 33.757 31.3982 33.3825C31.5245 33.274 31.6535 33.1668 31.7785 33.0541C32.1886 32.6809 32.5798 32.2861 32.96 31.8735C33.0863 31.7378 33.2167 31.6062 33.3403 31.4664C33.4367 31.3538 33.5468 31.2561 33.6418 31.1408L33.6119 31.119ZM19.0136 11.5996C20.2223 11.5996 21.4039 11.9577 22.409 12.6287C23.414 13.2997 24.1973 14.2534 24.6599 15.3692C25.1225 16.4851 25.2435 17.7129 25.0077 18.8974C24.7719 20.082 24.1898 21.17 23.3351 22.024C22.4804 22.878 21.3914 23.4596 20.2059 23.6953C19.0204 23.9309 17.7915 23.8099 16.6748 23.3478C15.5581 22.8856 14.6036 22.1029 13.9321 21.0987C13.2605 20.0945 12.9021 18.9138 12.9021 17.7061C12.9021 16.0866 13.546 14.5333 14.6921 13.3882C15.8382 12.243 17.3927 11.5996 19.0136 11.5996ZM7.27321 33.9135C7.29677 32.1317 8.90644 29.3637 10.1755 28.1117C11.4445 26.8597 13.1559 26.1572 14.9393 26.1563H23.0879C24.8713 26.1572 26.5827 26.8597 27.8517 28.1117C29.1207 29.3637 30.2482 32.5026 30.2717 34.2843C27.2932 36.9662 23.8459 37.3081 19.0149 38C15.0054 38 10.2518 36.5954 7.27321 33.9135Z" fill="#EFEFEF"/>
</svg>
