<svg xmlns="http://www.w3.org/2000/svg" width="16.293" height="22" viewBox="0 0 16.293 22">
    <defs>
        <style>
            .class-icon{fill:#efefef}
        </style>
    </defs>
    <path id="peru" d="M71.4 38.5a.978.978 0 0 1-.542-.164L66.5 35.52c-.021-.012-.041-.029-.062-.041l-1.72-1.116-.018-.013a1.459 1.459 0 0 1-.62-1.075l-.08-.829-2.381-3.957a1.117 1.117 0 0 1-.037-.07l-1.835-3.091-.25.025a.759.759 0 0 1-.094 0 .976.976 0 0 1-.821-.447l-.328-.5a.086.086 0 0 0-.016-.025.983.983 0 0 1-.1-.809 1.036 1.036 0 0 1 .185-.337l-.591-.833a.986.986 0 0 1 .025-1.153l.9-1.182a.984.984 0 0 1 .776-.386 1 1 0 0 1 .612.213c.029.021.657.579.743.657a.969.969 0 0 1 .345.71v.074l.152.037a.918.918 0 0 1 .218.082l.287-.657a1 1 0 0 1 .447-.48l1.6-.825 1.1-1.215-.107-.152a.979.979 0 0 1 .488-1.494c.033-.012.062-.021.09-.029a1.558 1.558 0 0 1 .5-.111c.312 0 .529.152.96.456.107.074.23.164.382.267.135.086.135.086.825 1.038l.681.936.226.021.218-.185a.974.974 0 0 1 .636-.234.952.952 0 0 1 .4.086l1.515.677a.97.97 0 0 1 .546.64.952.952 0 0 1-.053.657.99.99 0 0 1 .374.64l.115.562a.957.957 0 0 1-.2.788.978.978 0 0 1-.759.361h-.033l-.529-.016-1.88.493-1.01 2.036.649.776.841 1.014h.156l.254-.234a.976.976 0 0 1 1.644.73v.55a1.331 1.331 0 0 1 .981.538l.768 1.055a1.211 1.211 0 0 1-.062 1.51l-.172.2-.46 2.442.451.735a.984.984 0 0 1 .016 1L72.252 38a.993.993 0 0 1-.852.5zm-.213-1.859l.624-1.084-.386-.624a.982.982 0 0 1-.127-.694c.127-.669.222-1.19.3-1.588.283-1.51.283-1.51.451-1.7l.09-.107-.5-.694h-.39a.979.979 0 0 1-.977-.977v-.057h-.837a.981.981 0 0 1-.956-.768l-.8-.911s0-.008-.008-.008-.846-1.01-.846-1.014l-.037-.049s0-.008-.008-.012a.99.99 0 0 1-.066-.977l1.313-2.656a.983.983 0 0 1 .628-.513c.534-.14.936-.246 1.256-.332.189-.049.349-.094.48-.127-.021-.033-.037-.07-.053-.1a.965.965 0 0 1 .066-.932l-.456-.2a1.077 1.077 0 0 1-.78.328c-.123 0-.263-.016-.456-.033a9.873 9.873 0 0 0-.374-.037.98.98 0 0 1-.7-.4l-1.092-1.5a1.014 1.014 0 0 1-.086.111l-1.51 1.691c-.115.131-.115.131-1.01.591-.2.1-.456.234-.772.4l-.579 1.346a.974.974 0 0 1-.895.587h-.111l-.238-.025a.979.979 0 0 1-.837-.718c-.152-.037-.172-.045-.337-.09l-.226-.066-.07-.025.148.209a.021.021 0 0 1 .008.016c0 .008.008.012.012.021a.988.988 0 0 1 .115.788.982.982 0 0 1 .763.472l2.151 3.616.033.062 2.3 3.817a1.453 1.453 0 0 1 .193.6l.078.809 2.007 1.3a.5.5 0 0 1 .057.041z" class="class-icon" transform="translate(-57.557 -16.5)"/>
</svg>
