<svg width="12" height="16" viewBox="0 0 12 16" fill="none" xmlns="http://www.w3.org/2000/svg">
    <defs>
        <style>
            .icon_permission{fill:#3D4550}
        </style>
    </defs>
   <g clip-path="url(#clip0_1543_479)">
      <path class="icon_permission" d="M10.0677 16C9.92615 16 9.79077 15.9569 9.67385 15.8831L6.50461 13.8338C6.49231 13.8277 6.47385 13.8154 6.46154 13.8031L5.21231 12.9908L5.19385 12.9846C4.93538 12.8062 4.76923 12.5169 4.74462 12.2031L4.68923 11.6062L2.96 8.72615C2.95385 8.71385 2.94154 8.69538 2.93538 8.67692L1.6 6.43077L1.41538 6.44923C1.39077 6.44923 1.37231 6.44923 1.34769 6.44923C1.10769 6.44923 0.879999 6.32615 0.750769 6.12308L0.504615 5.76C0.504615 5.75385 0.498461 5.74769 0.492307 5.74154C0.387692 5.56308 0.363076 5.34769 0.424615 5.15077C0.455384 5.05846 0.498461 4.97846 0.559999 4.90462L0.12923 4.29538C-0.0430776 4.04308 -0.0369237 3.70462 0.147692 3.45846L0.806153 2.59692C0.941538 2.41846 1.15077 2.32 1.37231 2.31385C1.53231 2.31385 1.69231 2.36923 1.81538 2.46769C1.83385 2.48615 2.28923 2.89231 2.35077 2.95385C2.50461 3.07692 2.59692 3.26769 2.60308 3.46462V3.52L2.71385 3.54462C2.76923 3.55692 2.82462 3.58154 2.87385 3.60615L3.07692 3.13231C3.14461 2.98462 3.26154 2.86154 3.40308 2.78154L4.56615 2.17846L5.36615 1.29231L5.29231 1.18769C5.06462 0.867692 5.13846 0.424615 5.46461 0.196923C5.52 0.153846 5.58154 0.123077 5.64923 0.104615C5.67385 0.0984615 5.69231 0.0923077 5.71692 0.0861538C5.83385 0.0307692 5.95692 0.00615385 6.08 0C6.30769 0 6.46769 0.110769 6.78154 0.332308C6.86154 0.387692 6.94769 0.449231 7.05846 0.529231C7.15692 0.590769 7.15692 0.590769 7.65538 1.28615C7.78462 1.46462 7.94461 1.68615 8.15385 1.96923L8.32 1.98154L8.48 1.84615C8.60923 1.73538 8.77538 1.67385 8.94154 1.67385C9.04 1.67385 9.13846 1.69231 9.23077 1.73538L10.3323 2.22769C10.5292 2.31385 10.6769 2.48615 10.7262 2.69538C10.7692 2.85538 10.7569 3.02154 10.6892 3.17538C10.8369 3.29231 10.9354 3.45846 10.96 3.64308L11.0462 4.05538C11.0831 4.25846 11.0338 4.46769 10.8985 4.62769C10.7631 4.79385 10.56 4.89231 10.3446 4.89231H10.32L9.93231 4.88L8.56615 5.23077L7.83385 6.70769L8.30769 7.27385L8.91692 8.01231H9.02769L9.21231 7.84C9.50154 7.57538 9.94461 7.58769 10.2154 7.87692C10.3385 8.00615 10.4062 8.18462 10.4062 8.36308V8.76308C10.6892 8.78154 10.9477 8.92308 11.12 9.15692L11.68 9.92615C11.9262 10.2585 11.9077 10.7138 11.6369 11.0215L11.5138 11.1692L11.1815 12.9477L11.5077 13.4831C11.6431 13.7046 11.6492 13.9877 11.52 14.2092L10.6954 15.6431C10.56 15.8585 10.3262 16 10.0677 16ZM9.91385 14.6462L10.3692 13.8585L10.0862 13.4031C9.99384 13.2492 9.96308 13.0708 9.99384 12.8985C10.0862 12.4123 10.1538 12.0308 10.2092 11.7415C10.4123 10.6462 10.4123 10.6462 10.5354 10.5046L10.6031 10.4246L10.2338 9.92H9.95077C9.55692 9.92 9.24308 9.6 9.24308 9.21231V9.16923H8.63385C8.30154 9.16923 8.01231 8.93538 7.93846 8.60923L7.35385 7.94462C7.35385 7.94462 7.35385 7.93846 7.34769 7.93846C7.34154 7.93846 6.73231 7.20615 6.73231 7.2L6.70769 7.16308C6.70769 7.16308 6.70769 7.15692 6.70154 7.15692C6.56 6.94769 6.54154 6.67692 6.65231 6.44923L7.60615 4.51692C7.69846 4.33231 7.86462 4.19692 8.06154 4.14154C8.44923 4.03692 8.74461 3.96308 8.97231 3.90154C9.11385 3.87077 9.23077 3.83385 9.32923 3.81538C9.31692 3.79077 9.30462 3.76615 9.29231 3.74154C9.19385 3.52 9.20615 3.26769 9.34154 3.06462L9.00923 2.91692C8.86154 3.07077 8.65846 3.15692 8.44308 3.15692C8.35077 3.15692 8.25231 3.14462 8.11077 3.13231C8.03692 3.12615 7.94461 3.11385 7.84 3.10769C7.63692 3.08923 7.45231 2.98462 7.32923 2.81846L6.53538 1.72308C6.51692 1.75385 6.49846 1.77846 6.47385 1.80308L5.37231 3.03385C5.28615 3.13231 5.28615 3.13231 4.64 3.46462C4.49231 3.53846 4.30769 3.63692 4.08 3.75385L3.65538 4.73231C3.54462 4.99077 3.28615 5.15692 3.00308 5.15692C2.97846 5.15692 2.94769 5.15692 2.92308 5.15692L2.75692 5.14462C2.46154 5.11385 2.22154 4.90462 2.14769 4.62154C2.03692 4.59692 2.02461 4.59077 1.90154 4.55385C1.85846 4.54154 1.80308 4.52923 1.73538 4.50462C1.71692 4.49846 1.69846 4.49846 1.68615 4.49231L1.79077 4.64615C1.79692 4.64615 1.79692 4.65231 1.79692 4.65846C1.79692 4.66462 1.80308 4.66462 1.80308 4.67077C1.91385 4.83692 1.94461 5.04615 1.88923 5.24308C2.11692 5.26154 2.32615 5.39077 2.44308 5.58769L4.00615 8.21539C4.01231 8.22769 4.01846 8.24615 4.03077 8.25846L5.70462 11.0338C5.78462 11.1631 5.82769 11.3108 5.84615 11.4646L5.90154 12.0554L7.36 13.0031C7.37231 13.0092 7.39077 13.0215 7.40308 13.0338L9.91385 14.6462Z"/>
   </g>
   <defs>
      <clipPath id="clip0_1543_479">
         <rect width="11.8523" height="16" fill="white"/>
      </clipPath>
   </defs>
</svg>
