<svg xmlns="http://www.w3.org/2000/svg" width="60" height="60" viewBox="0 0 60 60">
	<defs>
        <style>
            .class-icon{fill:#efefef}
        </style>
    </defs>
	<g id="perfil" transform="translate(-26.12 -339)">
		<!-- <rect id="Rectángulo_751" data-name="Rectángulo 751" width="60" height="60" transform="translate(26.12 339)" fill="#fff"/> -->
		<g id="icon" transform="translate(31.12 344)">
			<g id="perfil-2" data-name="perfil" transform="translate(0 0)">
				<path class="class-icon" id="Trazado_2921" data-name="Trazado 2921" d="M54.1,75.3a24.99,24.99,0,1,1,17.681-7.319A24.874,24.874,0,0,1,54.1,75.3ZM41.636,62a9.649,9.649,0,0,0-.694,4.92.418.418,0,0,0,.153.276,21.263,21.263,0,0,0,25.97.01.4.4,0,0,0,.153-.276,10,10,0,0,0-.776-5.1c-.01-.031-.02-.051-.031-.082a7.1,7.1,0,0,0-1.735-2.164c-.01-.01-.031-.02-.041-.031a12.739,12.739,0,0,0-2.654-1.756c-.01,0-.02-.01-.031-.01l-.051-.02a.4.4,0,0,0-.306,0l-.051.02c-.01.01-.031.01-.041.02a15.833,15.833,0,0,1-14.884,0c-.01-.01-.031-.01-.041-.02l-.051-.02a.41.41,0,0,0-.153-.031.4.4,0,0,0-.184.041l-.163.082-.071.041c-.082.041-.153.082-.235.123a.141.141,0,0,1-.041.031,9.145,9.145,0,0,0-4.022,3.869A.315.315,0,0,1,41.636,62Zm27.756-1.644a13.208,13.208,0,0,1,.909,2.756.42.42,0,0,0,.306.316.282.282,0,0,0,.092.01.426.426,0,0,0,.327-.163,21.329,21.329,0,1,0-33.83-.01.411.411,0,0,0,.327.163.283.283,0,0,0,.092-.01.42.42,0,0,0,.306-.316,12.708,12.708,0,0,1,.858-2.624.053.053,0,0,0,.02-.041A12.588,12.588,0,0,1,44.28,55.1a.5.5,0,0,1,.071-.031,16.947,16.947,0,0,1,1.633-.735,1.5,1.5,0,0,1,.572-.1,1.607,1.607,0,0,1,.857.245,12.643,12.643,0,0,0,13.393,0,1.656,1.656,0,0,1,.847-.235,1.412,1.412,0,0,1,.561.1h.01a15.312,15.312,0,0,1,4.583,2.736,10.721,10.721,0,0,1,2.583,3.256Z" transform="translate(-29.1 -25.3)" fill="#5585c1"/>
				<path class="class-icon" id="Trazado_2922" data-name="Trazado 2922" d="M185.442,112.045a9.132,9.132,0,0,1-6.35-2.828l-.02-.02a12.725,12.725,0,0,1-3.675-8.769,9.527,9.527,0,0,1,3.011-7,10.452,10.452,0,0,1,14.067-.01,9.537,9.537,0,0,1,3.042,7.064,12.832,12.832,0,0,1-2.9,7.86,9.327,9.327,0,0,1-7.166,3.716h-.01Zm-4.093-5.1a5.909,5.909,0,0,0,4.053,1.9h.02a.283.283,0,0,0,.092-.01,6.432,6.432,0,0,0,4.777-2.807,9.63,9.63,0,0,0,1.991-5.574,6.313,6.313,0,0,0-1.991-4.665,7.235,7.235,0,0,0-4.757-1.858h-.092a7.254,7.254,0,0,0-4.869,1.878c-.01,0-.02.02-.02.02a6.24,6.24,0,0,0-1.94,4.614,9.613,9.613,0,0,0,2.736,6.5Z" transform="translate(-160.463 -84.024)" fill="#5585c1"/>
			</g>
		</g>
 	 </g>
</svg>
