<svg xmlns="http://www.w3.org/2000/svg" width="20" height="20" viewBox="0 0 20 20">
    <defs>
        <style>
            .class-icon{fill:##efefef}
        </style>
    </defs>
    <g id="perfil-inactive">
        <path id="Trazado_2885" d="M45.771 39.429A10 10 0 1 0 48.7 46.5a9.931 9.931 0 0 0-2.929-7.071zM33.384 53.264a3.959 3.959 0 0 1 .283-2.108v-.02a3.726 3.726 0 0 1 1.657-1.583c.041-.025.082-.041.123-.062l.045-.021.115-.053.111.057a6.327 6.327 0 0 0 5.947 0l.111-.057.115.053a4.973 4.973 0 0 1 1.079.714h.008l.008.008a2.889 2.889 0 0 1 .705.882v.016a4.019 4.019 0 0 1 .316 2.178 8.6 8.6 0 0 1-10.64-.008zm11.85-1.169a5.25 5.25 0 0 0-.435-1.542 4.245 4.245 0 0 0-1.025-1.3 6.1 6.1 0 0 0-1.829-1.1.659.659 0 0 0-.217-.041.617.617 0 0 0-.32.09 5.136 5.136 0 0 1-5.427 0 .6.6 0 0 0-.324-.09.568.568 0 0 0-.217.041 6.048 6.048 0 0 0-.652.3h-.008a5 5 0 0 0-2.2 2.137 5.1 5.1 0 0 0-.418 1.5 8.61 8.61 0 1 1 13.076 0z" class="class-icon" data-name="Trazado 2885" transform="translate(-28.7 -36.5)"/>
        <path id="Trazado_2886" d="M181.694 102.679a4.166 4.166 0 0 0-5.6 0 3.791 3.791 0 0 0-1.2 2.785 5.072 5.072 0 0 0 1.468 3.5 3.621 3.621 0 0 0 2.538 1.136 3.691 3.691 0 0 0 2.847-1.481 5.122 5.122 0 0 0 1.157-3.134 3.784 3.784 0 0 0-1.21-2.806zm-.82 5.066a2.6 2.6 0 0 1-1.981 1.144h-.012a2.408 2.408 0 0 1-1.661-.779 3.9 3.9 0 0 1-1.112-2.637 2.575 2.575 0 0 1 .8-1.887 2.953 2.953 0 0 1 1.981-.767h.037a2.936 2.936 0 0 1 1.936.755 2.583 2.583 0 0 1 .812 1.907 3.889 3.889 0 0 1-.8 2.263z" class="class-icon" data-name="Trazado 2886" transform="translate(-168.901 -98.93)"/>
    </g>
</svg>
