<svg xmlns="http://www.w3.org/2000/svg" id="programacion-2" width="20" height="19.627" viewBox="0 0 20 19.627">
    <defs>
        <style>
            .class-icon{fill:#efefef}
        </style>
    </defs>
    <path id="Trazado_2947" d="M31.049 39.945h-6.285a.783.783 0 0 1-.783-.783V30h14.136v1.062a.64.64 0 0 0 1.28 0V26.87a2.067 2.067 0 0 0-2.064-2.064h-3.076v-.666a.64.64 0 0 0-1.28 0v.667h-3.856v-.667a.64.64 0 0 0-1.28 0v.667h-3.077A2.067 2.067 0 0 0 22.7 26.87v12.292a2.067 2.067 0 0 0 2.064 2.064h6.285a.64.64 0 1 0 0-1.28zM23.98 26.87a.783.783 0 0 1 .783-.783h3.077v.667a.64.64 0 1 0 1.28 0v-.667h3.86v.667a.64.64 0 0 0 1.28 0v-.667h3.077a.783.783 0 0 1 .783.783v1.849H23.98z" class="class-icon" data-name="Trazado 2947" transform="translate(-22.7 -23.5)"/>
    <path id="Trazado_2948" d="M275.736 261.3a5.336 5.336 0 1 0 5.336 5.336 5.341 5.341 0 0 0-5.336-5.336zm0 9.5a4.169 4.169 0 1 1 4.169-4.169 4.173 4.173 0 0 1-4.169 4.169z" class="class-icon" data-name="Trazado 2948" transform="translate(-261.072 -252.345)"/>
    <path id="Trazado_2949" d="M399.161 318.325l-1.393-1.032v-2.61a.584.584 0 1 0-1.167 0v2.9a.587.587 0 0 0 .237.471l1.627 1.209a.569.569 0 0 0 .346.113.592.592 0 0 0 .471-.237.583.583 0 0 0-.121-.814z" class="class-icon" data-name="Trazado 2949" transform="translate(-382.52 -303.157)"/>
</svg>
