<svg xmlns="http://www.w3.org/2000/svg" width="60" height="60" viewBox="0 0 60 60">
	<defs>
        <style>
            .class-icon{fill:#efefef}
        </style>
    </defs>
	<g id="programacion" transform="translate(-18.277 -371)">
		<!-- <g id="Grupo_217" data-name="Grupo 217" transform="translate(74.277 20)">
			<rect id="Rectángulo_748" data-name="Rectángulo 748" width="60" height="60" transform="translate(-56 351)" fill="#fff"/>
		</g> -->
		<g id="Grupo_359" data-name="Grupo 359" transform="translate(-18.371 397.674)">
			<path class="class-icon" id="Trazado_3049" data-name="Trazado 3049" d="M46.982,22.69a5.351,5.351,0,0,1-5.334-5.333V-13.1a5.351,5.351,0,0,1,5.333-5.335h7.406v-1.431a1.808,1.808,0,0,1,1.806-1.806A1.808,1.808,0,0,1,58-19.868v1.431h9.115v-1.431a1.808,1.808,0,0,1,1.806-1.806,1.808,1.808,0,0,1,1.806,1.806v1.432h7.4A5.351,5.351,0,0,1,83.464-13.1V-2.72A1.808,1.808,0,0,1,81.658-.914,1.808,1.808,0,0,1,79.852-2.72V-5.128H45.26V17.356a1.722,1.722,0,0,0,1.72,1.721h15.8v.014a1.806,1.806,0,0,1-.218,3.6ZM79.858-8.741V-13.1a1.722,1.722,0,0,0-1.72-1.721h-7.4v1.431a1.808,1.808,0,0,1-1.806,1.806,1.808,1.808,0,0,1-1.806-1.806v-1.431H58v1.431a1.808,1.808,0,0,1-1.806,1.806,1.808,1.808,0,0,1-1.806-1.806v-1.431h-7.4l0-.22v.22A1.722,1.722,0,0,0,45.26-13.1v4.361Z" fill="#d2d2d2"/>
			<path class="class-icon" id="Trazado_3050" data-name="Trazado 3050" d="M286.059,226.938A13.443,13.443,0,1,1,299.5,213.5,13.458,13.458,0,0,1,286.059,226.938Zm0-23.553a10.11,10.11,0,1,0,10.11,10.11A10.121,10.121,0,0,0,286.059,203.386Z" transform="translate(-207.853 -199.537)" fill="#d2d2d2"/>
			<path class="class-icon" id="Trazado_3051" data-name="Trazado 3051" d="M395.961,262.8a1.641,1.641,0,0,1-.974-.323l-4.031-3a1.682,1.682,0,0,1-.677-1.343v-7.194a1.666,1.666,0,1,1,3.333,0V257.3l3.363,2.491a1.668,1.668,0,0,1,.345,2.332,1.7,1.7,0,0,1-1.342.676Z" transform="translate(-313.741 -243.836)" fill="#d2d2d2"/>
		</g>
  	</g>
</svg>
