<svg xmlns="http://www.w3.org/2000/svg" width="60" height="60" viewBox="0 0 60 60">
    <defs>
        <style>
            <!-- .class-icon{fill:#5585c1} -->
        </style>
    </defs>
	<g id="eventos" transform="translate(-25.77 -339)">
		<!-- <rect id="Rectángulo_750" data-name="Rectángulo 750" width="60" height="60" transform="translate(25.77 339)" fill="#fff"/> -->
		<path class="class-icon" id="eventos-2" data-name="eventos" d="M36.626,82.879A5.333,5.333,0,0,1,31.3,77.554V42.861a5.332,5.332,0,0,1,1.555-3.77,5.272,5.272,0,0,1,3.77-1.555H40.1a.462.462,0,0,0,.464-.464V34.754a1.854,1.854,0,0,1,3.708,0v2.318a.462.462,0,0,0,.464.464h4.625a.462.462,0,0,0,.464-.464V34.754a1.854,1.854,0,1,1,3.708,0v2.318a.462.462,0,0,0,.464.464h4.625a.462.462,0,0,0,.464-.464V34.754a1.854,1.854,0,0,1,3.708,0v2.318a.462.462,0,0,0,.464.464h4.625a.462.462,0,0,0,.464-.464V34.754a1.854,1.854,0,0,1,3.708,0v2.318a.462.462,0,0,0,.464.464h3.461A5.333,5.333,0,0,1,81.3,42.861V77.544a5.332,5.332,0,0,1-1.555,3.77,5.254,5.254,0,0,1-3.77,1.555H36.626Zm0-41.656A1.631,1.631,0,0,0,35,42.851V77.544a1.647,1.647,0,0,0,1.628,1.638H75.944a1.631,1.631,0,0,0,1.628-1.628V42.861a1.647,1.647,0,0,0-1.628-1.638l-3.471.01a.462.462,0,0,0-.464.464V44A1.854,1.854,0,1,1,68.3,44V41.687a.462.462,0,0,0-.464-.464H63.212a.462.462,0,0,0-.464.464V44a1.854,1.854,0,0,1-3.708,0V41.687a.462.462,0,0,0-.464-.464H53.951a.462.462,0,0,0-.464.464V44a1.854,1.854,0,1,1-3.708,0V41.687a.462.462,0,0,0-.464-.464H44.691a.462.462,0,0,0-.464.464V44a1.854,1.854,0,0,1-3.708,0V41.687a.462.462,0,0,0-.464-.464ZM42.4,72.455a1.854,1.854,0,0,1,0-3.708H58.6a1.854,1.854,0,0,1,0,3.708Zm0-8.1a1.854,1.854,0,0,1,0-3.708H70.165a1.854,1.854,0,1,1,0,3.708Zm0-8.1a1.854,1.854,0,1,1,0-3.708H66.693a1.854,1.854,0,0,1,0,3.708Z" transform="translate(-0.529 311.1)" fill="#5585c1"/>
	</g>
</svg>
