<svg xmlns="http://www.w3.org/2000/svg" width="18.927" height="20" viewBox="0 0 18.927 20">
    <defs>
        <style>
            .class-icon{fill:#efefef}
        </style>
    </defs>
    <g id="usuarios-active">
        <path id="Trazado_2910" d="M102.079 33.558a3.328 3.328 0 0 1-2.347-1.046 4.645 4.645 0 0 1-1.338-3.187 3.491 3.491 0 0 1 1.106-2.577 3.832 3.832 0 0 1 5.151-.008 3.5 3.5 0 0 1 1.12 2.6c.005 1.987-1.576 4.218-3.692 4.218zm0-6.328a2.347 2.347 0 0 0-1.581.609 2.005 2.005 0 0 0-.626 1.482 3.187 3.187 0 0 0 .906 2.145 1.865 1.865 0 0 0 1.3.609c1.19 0 2.211-1.511 2.211-2.746a2.022 2.022 0 0 0-.638-1.5 2.341 2.341 0 0 0-1.568-.599z" class="class-icon" data-name="Trazado 2910" transform="translate(-96.162 -25.75)"/>
        <path id="Trazado_2911" d="M240.412 254.151a.658.658 0 0 1-.618-.432l-.379-1.079c-.049-.021-.111-.041-.152-.058l-.992.519a.617.617 0 0 1-.3.07.652.652 0 0 1-.461-.194l-.848-.844a.657.657 0 0 1-.119-.758l.535-1.025c0-.016 0-.021-.016-.029a.181.181 0 0 1-.029-.078l-1.1-.383a.65.65 0 0 1-.432-.618v-1.219a.658.658 0 0 1 .432-.618l1.091-.383c.016-.029.025-.058.041-.091l-.519-.992a.651.651 0 0 1 .119-.758l.914-.914a.645.645 0 0 1 .461-.194.655.655 0 0 1 .3.07l.992.519c.029-.016.058-.025.091-.041l.383-1.091a.65.65 0 0 1 .618-.432h1.219a.644.644 0 0 1 .618.449l.379 1.128a.767.767 0 0 1 .152.058l.992-.519a.617.617 0 0 1 .3-.07.652.652 0 0 1 .461.194l.848.848a.657.657 0 0 1 .119.758l-.519.992c.016.029.025.058.041.091l1.091.383a.65.65 0 0 1 .432.618v1.219a.658.658 0 0 1-.432.618l-1.079.379c-.021.049-.041.1-.058.152l.519.992a.651.651 0 0 1-.119.758l-.844.84a.645.645 0 0 1-.461.194.655.655 0 0 1-.3-.07l-1.038-.552s-.021 0-.025.016a.178.178 0 0 1-.082.029l-.383 1.1a.65.65 0 0 1-.618.432l-1.223.012zm.753-1.3l.338-.963a.619.619 0 0 1 .453-.412 1.813 1.813 0 0 0 .239-.091 2.885 2.885 0 0 1 .432-.152.486.486 0 0 1 .152-.021.655.655 0 0 1 .3.07l.856.449.185-.185-.445-.861a.656.656 0 0 1 0-.618 1.453 1.453 0 0 0 .173-.473.64.64 0 0 1 .428-.49l.963-.338v-.3l-.963-.338a.619.619 0 0 1-.412-.453 2.055 2.055 0 0 0-.185-.453.624.624 0 0 1 0-.618l.449-.856-.185-.185-.852.449a.617.617 0 0 1-.3.07.662.662 0 0 1-.317-.082 1.453 1.453 0 0 0-.473-.173.647.647 0 0 1-.49-.432l-.342-1.017h-.292l-.338.963a.619.619 0 0 1-.453.412 2.056 2.056 0 0 0-.453.185.717.717 0 0 1-.313.078.655.655 0 0 1-.3-.07l-.856-.449-.239.239.449.856a.656.656 0 0 1 0 .618 2.054 2.054 0 0 0-.185.453.643.643 0 0 1-.412.453l-.963.338v.3l.963.338a.619.619 0 0 1 .412.453 1.806 1.806 0 0 0 .091.239 2.886 2.886 0 0 1 .152.432.637.637 0 0 1-.049.453l-.453.865.185.185.856-.449a.617.617 0 0 1 .3-.07.662.662 0 0 1 .317.082 1.452 1.452 0 0 0 .473.173.64.64 0 0 1 .49.428l.338.963h.28zm-.173-2.17a2.01 2.01 0 0 1-2.017-1.98v-.066a2.022 2.022 0 0 1 1.98-2.046h.091a2.01 2.01 0 0 1 2.017 1.98v.066a2.01 2.01 0 0 1-1.98 2.042h-.066s-.017.007-.025.007zm.054-1.075h.021a.957.957 0 0 0 .667-.292.974.974 0 0 0 .264-.675v-.049a.957.957 0 0 0-.292-.667.92.92 0 0 0-.659-.264h-.07a.957.957 0 0 0-.667.292.974.974 0 0 0-.264.675v.049a.957.957 0 0 0 .292.667.92.92 0 0 0 .659.264h.049z" class="class-icon" data-name="Trazado 2911" transform="translate(-227.624 -234.151)"/>
        <path id="Trazado_2912" d="M51.294 223.057a.65.65 0 0 1-.432-.618v-.8h-4.755a19.377 19.377 0 0 1-.375-2.289 3.232 3.232 0 0 1 .214-1.824 3.052 3.052 0 0 1 1.35-1.289c.045-.025.091-.045.14-.07a5.7 5.7 0 0 0 5.365 0 2.462 2.462 0 0 1 .589.362l.725-.725a1.576 1.576 0 0 1 .391-.288 4.433 4.433 0 0 0-1.478-.869.749.749 0 0 0-.655.062 4.241 4.241 0 0 1-4.488 0 .744.744 0 0 0-.659-.062 6.293 6.293 0 0 0-.589.268 4.529 4.529 0 0 0-2.013 1.948 4.693 4.693 0 0 0-.358 2.689 21.313 21.313 0 0 0 .548 3.014.74.74 0 0 0 .716.556h5.908l-.008-.021z" class="class-icon" data-name="Trazado 2912" transform="translate(-44.205 -206.824)"/>
    </g>
</svg>
