<svg xmlns="http://www.w3.org/2000/svg" width="50" height="37.069" viewBox="0 0 50 37.069">
    <defs>
        <style>
            .class-icon{fill:#5585c1}
        </style>
    </defs>
    <g id="icon" transform="translate(0 -7)">
        <g id="perfil">
            <g id="users_1_" transform="translate(0 7)">
                <path id="Trazado_3090" d="M141.3 82.617a6.4 6.4 0 0 1-4.483-2 8.681 8.681 0 0 1-2.52-6 6.63 6.63 0 0 1 2.124-4.933 7.29 7.29 0 0 1 9.776-.018l.018.018a6.68 6.68 0 0 1 2.106 4.933 7.848 7.848 0 0 1-6.985 7.993c0-.018-.018 0-.036 0zm.018-11.54a3.916 3.916 0 0 0-2.664 1.026 3.388 3.388 0 0 0-1.062 2.484 5.445 5.445 0 0 0 1.584 3.691 3.15 3.15 0 0 0 2.144 1.022 3.335 3.335 0 0 0 2.52-1.44.018.018 0 0 1 .018-.018 5.543 5.543 0 0 0 1.206-3.277 3.428 3.428 0 0 0-1.062-2.5 4.181 4.181 0 0 0-2.682-.988z" class="class-icon" data-name="Trazado 3090" transform="translate(-116.302 -61.715)"/>
                <path id="Trazado_3091" d="M130.925 166.349a2.206 2.206 0 0 1-.342-.036 1.644 1.644 0 0 1-1.044-.72 1.683 1.683 0 0 1-.234-1.242c.018-.036.018-.09.036-.126a33.776 33.776 0 0 0 .918-5.023v-.108a5.648 5.648 0 0 0-.414-3.223 4.135 4.135 0 0 0-.918-1.188.137.137 0 0 0-.072-.036 7.241 7.241 0 0 0-1.3-.9l-.108-.054a10.78 10.78 0 0 1-4.9 1.17 11.017 11.017 0 0 1-4.9-1.17.591.591 0 0 1-.108.054l-.036.018a5.159 5.159 0 0 0-2.268 2.16 5.538 5.538 0 0 0-.4 3.187v.126a36.262 36.262 0 0 0 .918 5.023 1.657 1.657 0 0 1-1.188 2.016 1.16 1.16 0 0 1-.36.054h-.072a1.653 1.653 0 0 1-1.584-1.224 38.236 38.236 0 0 1-1.008-5.491 8.853 8.853 0 0 1 .666-5.095c.018-.036.018-.054.036-.072 0-.018.018-.018.018-.036A8.628 8.628 0 0 1 116 150.83c.36-.18.738-.36 1.116-.5a1.586 1.586 0 0 1 .594-.108 1.614 1.614 0 0 1 .864.252 7.553 7.553 0 0 0 3.925 1.1 7.468 7.468 0 0 0 3.943-1.116 1.614 1.614 0 0 1 .864-.252 1.467 1.467 0 0 1 .558.108 9.984 9.984 0 0 1 3.115 1.872 7.217 7.217 0 0 1 1.764 2.268l.018.036a8.959 8.959 0 0 1 .72 5.113 38.182 38.182 0 0 1-.99 5.491 1.559 1.559 0 0 1-1.566 1.255z" class="class-icon" data-name="Trazado 3091" transform="translate(-97.554 -129.28)"/>
                <path id="Trazado_3092" d="M229.764 132.913a1.535 1.535 0 0 1-.414-.054 1.671 1.671 0 0 1-1.188-2.016 34.441 34.441 0 0 0 .918-5.041v-.108a5.648 5.648 0 0 0-.414-3.223 3.836 3.836 0 0 0-.918-1.17.137.137 0 0 0-.072-.036 7.241 7.241 0 0 0-1.3-.9l-.108-.054a10.78 10.78 0 0 1-4.9 1.17 10.89 10.89 0 0 1-5.671-1.6 1.662 1.662 0 0 1-.468-2.3 1.656 1.656 0 0 1 2.2-.522 7.521 7.521 0 0 0 7.885 0 1.614 1.614 0 0 1 .864-.252 1.467 1.467 0 0 1 .558.108 9.984 9.984 0 0 1 3.115 1.872 7.217 7.217 0 0 1 1.764 2.268l.018.036a8.793 8.793 0 0 1 .684 5.113 37.727 37.727 0 0 1-.99 5.491 1.6 1.6 0 0 1-1.566 1.224z" class="class-icon" data-name="Trazado 3092" transform="translate(-182.44 -101.893)"/>
                <path id="Trazado_3093" d="M218.7 48.835a6.4 6.4 0 0 1-4.483-2 8.681 8.681 0 0 1-2.52-6 6.629 6.629 0 0 1 2.124-4.933l.018-.018A7.175 7.175 0 0 1 218.72 34a7.278 7.278 0 0 1 4.879 1.872l.036.036a6.68 6.68 0 0 1 2.106 4.933 7.847 7.847 0 0 1-6.985 7.993zm.018-11.54a3.916 3.916 0 0 0-2.664 1.026 3.388 3.388 0 0 0-1.062 2.484 5.445 5.445 0 0 0 1.584 3.691 3.15 3.15 0 0 0 2.142 1.026 3.335 3.335 0 0 0 2.52-1.44.018.018 0 0 1 .018-.018 5.544 5.544 0 0 0 1.206-3.277 3.428 3.428 0 0 0-1.062-2.5 4.217 4.217 0 0 0-2.68-.992z" class="class-icon" data-name="Trazado 3093" transform="translate(-179.767 -34)"/>
                <path id="Trazado_3094" d="M37.012 132.913a1.534 1.534 0 0 0 .414-.054 1.671 1.671 0 0 0 1.188-2.016 34.446 34.446 0 0 1-.914-5.043v-.108a5.648 5.648 0 0 1 .414-3.223 3.835 3.835 0 0 1 .918-1.17.136.136 0 0 1 .072-.036 7.239 7.239 0 0 1 1.3-.9l.108-.054a10.78 10.78 0 0 0 4.9 1.17 10.89 10.89 0 0 0 5.671-1.6 1.662 1.662 0 0 0 .468-2.3 1.656 1.656 0 0 0-2.2-.522 7.522 7.522 0 0 1-7.885 0 1.614 1.614 0 0 0-.864-.252 1.467 1.467 0 0 0-.558.108 9.984 9.984 0 0 0-3.115 1.872 7.217 7.217 0 0 0-1.764 2.268l-.018.036a8.793 8.793 0 0 0-.684 5.113 37.741 37.741 0 0 0 .99 5.491 1.617 1.617 0 0 0 1.566 1.224z" class="class-icon" data-name="Trazado 3094" transform="translate(-34.336 -101.893)"/>
                <path id="Trazado_3095" d="M63.808 48.835h-.036a7.819 7.819 0 0 1-6.985-7.993 6.68 6.68 0 0 1 2.106-4.933l.036-.036a7.293 7.293 0 0 1 9.758 0l.018.018a6.658 6.658 0 0 1 2.124 4.933 8.681 8.681 0 0 1-2.52 6 6.49 6.49 0 0 1-4.5 2.016zM61.144 38.3a3.36 3.36 0 0 0-1.062 2.5 5.587 5.587 0 0 0 1.206 3.277.018.018 0 0 0 .018.018 3.478 3.478 0 0 0 2.52 1.44 3.005 3.005 0 0 0 2.142-1.026 5.565 5.565 0 0 0 1.584-3.691 3.388 3.388 0 0 0-1.062-2.484 3.983 3.983 0 0 0-2.664-1.026 3.928 3.928 0 0 0-2.682.992z" class="class-icon" data-name="Trazado 3095" transform="translate(-52.743 -34)"/>
            </g>
        </g>
    </g>
</svg>
