<svg width="16" height="16" viewBox="0 0 16 16" fill="none" xmlns="http://www.w3.org/2000/svg">
<path d="M11.1022 9.02221C10.7283 9.01289 10.36 8.93193 10.0183 8.78396C9.67668 8.63599 9.36845 8.42392 9.11134 8.15993C8.40737 7.47084 8.00618 6.54306 7.99235 5.57214C7.98809 5.17296 8.06981 4.77733 8.23226 4.41068C8.39471 4.04403 8.63431 3.71446 8.93563 3.44316C9.53004 2.91875 10.3037 2.62761 11.1065 2.62623C11.9093 2.62484 12.684 2.91331 13.2803 3.43566L13.288 3.44316C13.5869 3.71595 13.8243 4.04596 13.9853 4.41239C14.1464 4.77882 14.2275 5.17371 14.2236 5.57214C14.2451 6.42027 13.9383 7.24535 13.3638 7.88421C12.7894 8.52306 11.9892 8.92917 11.1215 9.02221C11.1215 9.0147 11.1138 9.02221 11.1051 9.02221H11.1022ZM11.1099 4.04179C10.672 4.03921 10.2493 4.19738 9.92622 4.48466C9.77599 4.62235 9.65654 4.78863 9.57532 4.97314C9.49409 5.15765 9.45283 5.35644 9.4541 5.55712C9.47024 6.15671 9.72212 6.72752 10.1579 7.15221C10.4034 7.41474 10.7446 7.57366 11.1089 7.59508C11.3316 7.58005 11.548 7.51629 11.7417 7.40856C11.9355 7.30084 12.1017 7.15194 12.228 6.97299C12.228 6.971 12.2288 6.9691 12.2302 6.96769C12.2317 6.96628 12.2336 6.96549 12.2357 6.96549C12.5663 6.56255 12.7543 6.06661 12.7715 5.55149C12.7727 5.34971 12.7315 5.1498 12.6503 4.96408C12.5691 4.77836 12.4497 4.61074 12.2994 4.47152C11.9673 4.19661 11.5462 4.04414 11.1099 4.04085V4.04179Z" fill="#5585c1"/>
<path d="M14.8202 15.9999C14.7693 15.9984 14.7186 15.9931 14.6686 15.9839C14.574 15.9645 14.4844 15.9271 14.4048 15.8738C14.3253 15.8205 14.2574 15.7524 14.2052 15.6733C14.1001 15.5147 14.0627 15.3226 14.1009 15.1376C14.1086 15.1216 14.1086 15.0991 14.1173 15.0832C14.3092 14.3714 14.4454 13.6465 14.5247 12.9148V12.8679C14.6049 12.3969 14.5411 11.9134 14.3413 11.4773C14.2389 11.2835 14.1008 11.1095 13.9339 10.9641C13.9251 10.9558 13.914 10.9502 13.902 10.9481C13.7241 10.7984 13.5298 10.6682 13.3227 10.5597L13.2744 10.5362C12.6005 10.869 11.8551 11.042 11.0992 11.041C10.3437 11.0382 9.59918 10.8655 8.92393 10.5362C8.90872 10.5456 8.89254 10.5535 8.87566 10.5597L8.85924 10.5672C8.43223 10.7691 8.08033 11.095 7.85224 11.4998C7.65466 11.9316 7.59318 12.4106 7.67556 12.8763V12.9307C7.75877 13.6619 7.89492 14.3865 8.08299 15.0991C8.13169 15.2826 8.10342 15.4774 8.00439 15.6407C7.90536 15.804 7.74368 15.9224 7.55487 15.9698C7.50305 15.9858 7.44896 15.9937 7.3946 15.9933H7.36274C7.20214 15.9921 7.04636 15.9398 6.91924 15.8444C6.79213 15.749 6.70068 15.6158 6.6589 15.465C6.45033 14.6867 6.30061 13.8945 6.21091 13.0949C6.08344 12.3496 6.18626 11.5842 6.50635 10.8956C6.51408 10.8796 6.51407 10.8721 6.52276 10.8646C6.53145 10.8571 6.53049 10.8571 6.53049 10.8487C6.90654 10.181 7.48408 9.64134 8.18534 9.30237C8.34561 9.22449 8.5136 9.14662 8.68063 9.0847C8.7646 9.05282 8.85407 9.03689 8.94421 9.03778C9.08099 9.03754 9.21498 9.0753 9.3304 9.14662C9.85566 9.45675 10.4585 9.62066 11.0731 9.62046C11.6917 9.62188 12.2983 9.45515 12.8245 9.13911C12.9399 9.0678 13.0739 9.03003 13.2107 9.03028C13.2958 9.03005 13.3801 9.04599 13.4588 9.07719C13.967 9.26198 14.4359 9.53579 14.8424 9.88505C15.1686 10.1569 15.4352 10.4897 15.6264 10.8637L15.6341 10.8796C15.9612 11.5688 16.0723 12.3363 15.9537 13.0865C15.8669 13.8859 15.7201 14.678 15.5144 15.4566C15.483 15.6121 15.3962 15.7519 15.2692 15.8513C15.1422 15.9506 14.9832 16.0033 14.8202 15.9999V15.9999Z" fill="#5585c1"/>
<path d="M1.18722 13.3886C1.24918 13.3889 1.31089 13.381 1.37066 13.3652C1.5585 13.3162 1.71905 13.1975 1.81781 13.0347C1.91657 12.8719 1.94564 12.6779 1.89878 12.4944C1.70757 11.78 1.57138 11.0527 1.49135 10.3186V10.2716C1.41118 9.80066 1.47496 9.31718 1.67479 8.88109C1.77542 8.68861 1.91384 8.51713 2.08223 8.3763C2.09096 8.36799 2.10206 8.36243 2.11409 8.36034C2.29198 8.21065 2.48624 8.08039 2.69338 7.9719L2.74165 7.94844C3.41556 8.28122 4.16098 8.45421 4.9169 8.45324C5.806 8.45214 6.67758 8.21286 7.43586 7.76172C7.59906 7.65654 7.7126 7.49269 7.75153 7.30619C7.79046 7.11968 7.75158 6.92579 7.64344 6.76713C7.54028 6.61678 7.38235 6.50998 7.20143 6.4682C7.02052 6.42642 6.83003 6.45277 6.6683 6.54195C6.14177 6.85687 5.53564 7.0236 4.91738 7.0236C4.29913 7.0236 3.693 6.85687 3.16647 6.54195C3.05105 6.47063 2.91705 6.43287 2.78027 6.43311C2.69521 6.43286 2.61091 6.44879 2.53214 6.48002C2.02399 6.66479 1.55504 6.93861 1.1486 7.28788C0.822418 7.55973 0.555809 7.89253 0.364621 8.26652L0.356898 8.28246C0.0307778 8.97199 -0.0751605 9.7407 0.0527665 10.4893C0.13882 11.2888 0.285655 12.081 0.492066 12.8594C0.530949 13.0101 0.620425 13.1438 0.746332 13.2395C0.87224 13.3352 1.02739 13.3873 1.18722 13.3877V13.3886Z" fill="#5585c1"/>
<path d="M4.91304 6.40319H4.89856C4.02996 6.31224 3.22846 5.90673 2.65361 5.2674C2.07876 4.62808 1.77273 3.80182 1.79645 2.95312C1.79256 2.55469 1.8737 2.15981 2.03472 1.79338C2.19574 1.42695 2.43316 1.09693 2.73201 0.824149L2.74842 0.8082C3.34323 0.287899 4.11518 0 4.91546 0C5.71574 0 6.48768 0.287899 7.0825 0.8082L7.09022 0.815705C7.39093 1.08748 7.63011 1.41713 7.79251 1.78367C7.95491 2.15022 8.03699 2.54561 8.0335 2.94467C8.02015 3.91717 7.61817 4.84651 6.91257 5.53622C6.39018 6.07066 5.67212 6.3835 4.91401 6.40694L4.91304 6.40319ZM3.73032 1.8572C3.57839 1.99525 3.45783 2.16263 3.37636 2.34861C3.29489 2.53459 3.25431 2.73506 3.25723 2.93717C3.27584 3.45203 3.46362 3.94756 3.79308 4.35116C3.79308 4.35315 3.79389 4.35506 3.79534 4.35647C3.79679 4.35788 3.79875 4.35867 3.8008 4.35867C3.93022 4.53456 4.0972 4.68121 4.29034 4.78857C4.48347 4.89594 4.69819 4.96149 4.9198 4.98075C5.10096 4.9736 5.27873 4.93064 5.44223 4.8545C5.60574 4.77835 5.75157 4.67062 5.87081 4.53788C6.30179 4.11002 6.5528 3.54116 6.57465 2.9428C6.57524 2.74336 6.53383 2.54591 6.45297 2.3626C6.37211 2.1793 6.2535 2.01401 6.10446 1.87691C5.7798 1.59215 5.3581 1.43437 4.92077 1.43404C4.48339 1.42505 4.05851 1.57609 3.73032 1.8572V1.8572Z" fill="#5585c1"/>
</svg>
