<svg width="8" height="16" viewBox="0 0 8 16" fill="none" xmlns="http://www.w3.org/2000/svg">
<path d="M7.71352 8.78035L1.68687 15.6591C1.59625 15.7658 1.48792 15.8509 1.36819 15.9094C1.24847 15.9679 1.11975 15.9987 0.989521 15.9998C0.859294 16.001 0.730165 15.9726 0.609652 15.9163C0.489138 15.8599 0.379653 15.7768 0.287565 15.6717C0.195478 15.5665 0.122629 15.4416 0.0732654 15.304C0.0239014 15.1665 -0.000995483 15.0191 2.86405e-05 14.8704C0.00105276 14.7218 0.0279788 14.5749 0.079232 14.4382C0.130485 14.3016 0.205044 14.1779 0.298569 14.0745L5.63206 7.98805L0.297572 1.90046C0.118228 1.68921 0.0188446 1.40595 0.0208712 1.11181C0.0228978 0.817661 0.126168 0.53622 0.3084 0.328222C0.490633 0.120223 0.73721 0.00234789 0.994918 3.47605e-05C1.25263 -0.00227837 1.5008 0.111156 1.68588 0.315858L7.71252 7.19461C7.89659 7.40476 8 7.68975 8 7.98691C8 8.28406 7.89659 8.56906 7.71252 8.77921L7.71352 8.78035Z" fill="#5585c1"/>
</svg>
