<svg width="8" height="4" viewBox="0 0 8 4" fill="none" xmlns="http://www.w3.org/2000/svg">
<path d="M4.39021 0.143239L7.82961 3.15656C7.88298 3.20188 7.92553 3.25604 7.95478 3.3159C7.98403 3.37576 7.9994 3.44012 7.99998 3.50524C8.00057 3.57035 7.98636 3.63492 7.95819 3.69517C7.93002 3.75543 7.88844 3.81017 7.83589 3.85622C7.78333 3.90226 7.72085 3.93868 7.65207 3.96337C7.5833 3.98805 7.5096 4.0005 7.43528 3.99998C7.36096 3.99947 7.2875 3.98601 7.21917 3.96038C7.15085 3.93476 7.08902 3.89748 7.0373 3.85071L3.99405 1.18397L0.950235 3.85121C0.844612 3.94089 0.702981 3.99058 0.555907 3.98956C0.408834 3.98855 0.268112 3.93692 0.164112 3.8458C0.0601121 3.75468 0.00117393 3.63139 1.73474e-05 3.50254C-0.00113924 3.37369 0.0555785 3.2496 0.15793 3.15706L3.59733 0.143738C3.70241 0.0517023 3.8449 -2.38419e-07 3.99348 -2.38419e-07C4.14206 -2.38419e-07 4.28456 0.0517023 4.38964 0.143738L4.39021 0.143239Z" fill="#5585c1"/>
</svg>
