<svg width="8" height="4" viewBox="0 0 8 4" fill="none" xmlns="http://www.w3.org/2000/svg">
<path d="M3.60979 3.85676L0.170392 0.843438C0.117017 0.798124 0.0744667 0.743959 0.0452165 0.684098C0.0159664 0.624237 0.000601744 0.559875 1.71445e-05 0.494761C-0.000567455 0.429648 0.0136399 0.365083 0.0418119 0.304826C0.069984 0.24457 0.111558 0.189827 0.164112 0.143783C0.216666 0.0977395 0.279151 0.0613152 0.347928 0.0366332C0.416704 0.0119512 0.490399 -0.000497203 0.56472 1.48535e-05C0.639041 0.00052691 0.712502 0.0139899 0.780827 0.0396165C0.849152 0.0652431 0.910976 0.102523 0.962697 0.149285L4.00595 2.81603L7.04976 0.148786C7.15539 0.0591141 7.29702 0.00942233 7.44409 0.0104356C7.59117 0.011449 7.73189 0.063084 7.83589 0.1542C7.93989 0.245317 7.99883 0.368605 7.99998 0.497459C8.00114 0.626313 7.94442 0.750401 7.84207 0.842939L4.40267 3.85626C4.29759 3.9483 4.1551 4 4.00652 4C3.85794 4 3.71544 3.9483 3.61036 3.85626L3.60979 3.85676Z" fill="#5585c1"/>
</svg>
