<svg width="15" height="7" viewBox="0 0 15 7" fill="none" xmlns="http://www.w3.org/2000/svg">
<path d="M6.31909 6.74933L0.30014 1.47602C0.206734 1.39672 0.13227 1.30193 0.0810826 1.19717C0.0298951 1.09242 0.00300717 0.979782 0.00198388 0.865833C0.000961542 0.751884 0.0258238 0.638896 0.075125 0.533447C0.124425 0.427998 0.19718 0.332198 0.28915 0.251621C0.38112 0.171045 0.490467 0.107302 0.610827 0.0641087C0.731186 0.0209153 0.860153 -0.000869531 0.990214 2.65624e-05C1.12027 0.000922655 1.24883 0.0244829 1.3684 0.0693295C1.48797 0.114176 1.59616 0.179415 1.68667 0.261249L7.01236 4.92805L12.339 0.260376C12.5239 0.10345 12.7717 0.0164891 13.0291 0.0182624C13.2865 0.0200357 13.5328 0.110397 13.7148 0.26985C13.8968 0.429304 13.9999 0.645059 14.0019 0.870553C14.0039 1.09605 13.9047 1.3132 13.7256 1.47514L7.70662 6.74846C7.52274 6.90952 7.27337 7 7.01336 7C6.75334 7 6.50397 6.90952 6.32009 6.74846L6.31909 6.74933Z" fill="#5585c1"/>
</svg>
