<svg width="32" height="24" viewBox="0 0 32 24" fill="none" xmlns="http://www.w3.org/2000/svg">
<path d="M1.94406 15.4925V15.4926L1.93834 15.4925C1.88178 15.4918 1.8251 15.5029 1.77133 15.5257C1.7175 15.5485 1.66695 15.583 1.62325 15.6283C1.57951 15.6736 1.54359 15.7289 1.51867 15.7914C1.49375 15.854 1.48064 15.9219 1.48065 15.991V18.9827C1.48065 19.1229 1.53388 19.2529 1.62188 19.3455C1.70893 19.437 1.82193 19.4842 1.93476 19.4848H4.7927H5.2927V19.9848C5.2927 20.9187 5.64704 21.81 6.27091 22.4636C6.89403 23.1165 7.73405 23.4786 8.60475 23.4786C9.47544 23.4786 10.3155 23.1165 10.9386 22.4636C11.5625 21.81 11.9168 20.9187 11.9168 19.9848V19.4848H12.4168H20.0409H20.5409V19.9848C20.5409 20.9187 20.8952 21.81 21.5191 22.4636C22.1422 23.1165 22.9823 23.4786 23.853 23.4786C24.7236 23.4786 25.5637 23.1165 26.1868 22.4636C26.8107 21.81 27.165 20.9187 27.165 19.9848V19.4848H27.665H30.5229C30.6358 19.4842 30.7488 19.437 30.8358 19.3455C30.9238 19.2529 30.9771 19.1229 30.9771 18.9827V16.9931V13.9977V11.1193L28.1608 5.22888C28.1606 5.22862 28.1605 5.22836 28.1604 5.22809C28.0402 4.9794 27.8917 4.81818 27.693 4.71043C27.4845 4.59734 27.1784 4.52039 26.7085 4.52039L22.8965 4.52039L22.8955 4.52039C22.7142 4.52004 22.534 4.55708 22.365 4.63005C22.1959 4.70304 22.0407 4.81088 21.9088 4.94859C21.7768 5.08634 21.6708 5.25123 21.598 5.43441C21.5253 5.61747 21.4874 5.81448 21.487 6.01404C21.487 6.0142 21.487 6.01437 21.487 6.01454L21.487 14.9925V15.4925H20.987H6.54804L6.54802 15.4868C6.31333 15.4884 6.04484 15.4903 5.7389 15.4925H5.73531H4.48641H4.20869H1.94406Z" fill="#3D4550" stroke="#3D4550"/>
<path d="M24.2537 11.689H28.3529C28.4933 11.689 28.5883 11.5481 28.5379 11.4171L27.0447 7.53885C26.9497 7.29208 26.7126 7.12927 26.4482 7.12927H24.2537C23.8149 7.1292 23.376 7.12934 23.376 7.69924V10.549C23.376 11.005 23.8149 11.689 24.2537 11.689Z" fill="white" stroke="white"/>
<path d="M10.0691 19.7838C10.0691 20.6781 9.38547 21.3599 8.59411 21.3599C7.80276 21.3599 7.11914 20.6781 7.11914 19.7838C7.11914 18.8894 7.80276 18.2076 8.59411 18.2076C9.38547 18.2076 10.0691 18.8894 10.0691 19.7838Z" fill="white" stroke="white"/>
<path d="M25.3484 19.7838C25.3484 20.6781 24.6648 21.3599 23.8734 21.3599C23.0821 21.3599 22.3984 20.6781 22.3984 19.7838C22.3984 18.8894 23.0821 18.2076 23.8734 18.2076C24.6648 18.2076 25.3484 18.8894 25.3484 19.7838Z" fill="white" stroke="white"/>
<path d="M5.60038 11.5219L13.6729 13.9581C13.7638 13.9843 13.8588 13.9867 13.9506 13.9652L17.4694 13.0577C17.5713 13.0312 17.6649 12.9741 17.7404 12.8924C17.8159 12.8107 17.8705 12.7075 17.8983 12.5936L19.4441 6.04469C19.4713 5.93115 19.4705 5.81135 19.4417 5.6983C19.413 5.58524 19.3574 5.48324 19.281 5.40336L16.627 2.63082C16.5581 2.56001 16.4754 2.50857 16.3856 2.48066L8.31025 0.04492C8.24755 0.0242573 8.18194 0.0172728 8.11692 0.0243382L3.05817 0.46031C2.93957 0.470767 2.8267 0.522209 2.73486 0.607652C2.64303 0.693095 2.57669 0.8084 2.54484 0.937915L0.999069 7.48686C0.96933 7.61628 0.975365 7.7529 1.01636 7.87833C1.05736 8.00377 1.13136 8.11202 1.22841 8.18853L5.41948 11.4298C5.47493 11.4714 5.53604 11.5026 5.60038 11.5219ZM16.4701 4.64555C16.4792 4.61178 16.4955 4.58106 16.5176 4.5561C16.5397 4.53113 16.5669 4.5127 16.5968 4.50241C16.6278 4.4888 16.6622 4.4888 16.6932 4.50241C16.7222 4.51109 16.7491 4.52709 16.7719 4.54919L18.1727 6.0096C18.1972 6.03517 18.2151 6.06765 18.2246 6.10369C18.2341 6.13972 18.235 6.17798 18.227 6.21449L16.9172 11.768C16.9089 11.8042 16.8922 11.8371 16.8688 11.8636C16.8455 11.89 16.8163 11.9088 16.7843 11.9182L14.9305 12.3958C14.9032 12.4023 14.875 12.4023 14.8477 12.3958C14.8161 12.3867 14.7874 12.3678 14.7649 12.341C14.7436 12.3148 14.7286 12.2829 14.7213 12.2482C14.7141 12.2136 14.7148 12.1774 14.7235 12.1432L16.4701 4.64555ZM8.52179 1.66344C8.5277 1.63716 8.53826 1.6125 8.55283 1.59094C8.56739 1.56938 8.58567 1.55138 8.60655 1.53801C8.62743 1.52463 8.65049 1.51617 8.67434 1.51313C8.69819 1.51009 8.72234 1.51253 8.74534 1.5203L15.3639 3.5196C15.3872 3.52629 15.409 3.53821 15.4281 3.55467C15.4472 3.57113 15.4631 3.59178 15.4749 3.61538C15.4868 3.63898 15.4943 3.66503 15.497 3.69198C15.4997 3.71893 15.4975 3.74622 15.4906 3.7722L13.4621 12.3494C13.4562 12.3757 13.4457 12.4004 13.4311 12.422C13.4165 12.4435 13.3983 12.4615 13.3774 12.4749C13.3565 12.4883 13.3334 12.4967 13.3096 12.4998C13.2857 12.5028 13.2616 12.5004 13.2386 12.4926L6.62083 10.4919C6.59756 10.4852 6.57574 10.4733 6.55666 10.4568C6.53758 10.4404 6.52165 10.4197 6.50982 10.3961C6.49798 10.3725 6.4905 10.3465 6.4878 10.3195C6.48511 10.2926 6.48727 10.2653 6.49415 10.2393L8.52179 1.66344ZM5.24436 9.71397C5.22526 9.7078 5.20701 9.69867 5.19013 9.68684L2.3213 7.47703C2.28977 7.45295 2.26579 7.41822 2.25278 7.37781C2.23977 7.3374 2.2384 7.29338 2.24885 7.25203L3.51727 1.86693C3.52726 1.82584 3.54834 1.7893 3.57758 1.76239C3.60681 1.73547 3.64274 1.71953 3.68037 1.71677L7.14657 1.41646C7.16691 1.41542 7.18728 1.41779 7.20701 1.42347C7.2426 1.43547 7.27418 1.45926 7.29767 1.49177C7.31538 1.51756 7.32782 1.54746 7.33412 1.57932C7.34042 1.61118 7.34041 1.64422 7.3341 1.67607L5.4675 9.56381C5.45979 9.59547 5.4453 9.6245 5.4253 9.64833C5.40529 9.67215 5.3804 9.69004 5.35283 9.7004C5.31896 9.71822 5.28086 9.72299 5.24436 9.71397Z" fill="#3D4550"/>
<path d="M2.03027 7.50842L5.52925 10.5033L13.9268 13.4982L17.4258 11.6264L18.4755 6.01097L16.0262 3.01607L8.32843 0.769897L3.42986 1.51862L2.03027 7.50842Z" fill="#3D4550" stroke="#3D4550"/>
<path d="M8.16384 0.999969L5.76953 10.0612" stroke="#3D4550" stroke-width="0.5" stroke-linecap="round"/>
<path d="M15.825 3.51697L13.4307 13.0816" stroke="#3D4550" stroke-width="0.5" stroke-linecap="round"/>
</svg>
