<svg xmlns="http://www.w3.org/2000/svg" width="22.014" height="22" viewBox="0 0 22.014 22">
    <defs>
        <style>
            .cls-2{fill:#3d4550}.cls-3{fill:#fff}
        </style>
    </defs>
    <g id="calendar" opacity="0.8">
        <path id="Trazado_3009" d="M31.291 49A2.292 2.292 0 0 1 29 46.709V31.344a2.29 2.29 0 0 1 2.291-2.291h1.538a.275.275 0 0 0 .274-.274v-1.026a.753.753 0 0 1 1.506 0v1.027a.275.275 0 0 0 .274.274h2.049a.275.275 0 0 0 .274-.274v-1.027a.753.753 0 1 1 1.506 0v1.027a.275.275 0 0 0 .274.274h2.049a.275.275 0 0 0 .274-.274v-1.027a.753.753 0 1 1 1.506 0v1.027a.275.275 0 0 0 .274.274h2.049a.275.275 0 0 0 .274-.274v-1.027a.753.753 0 1 1 1.506 0v1.027a.275.275 0 0 0 .274.274h1.533a2.292 2.292 0 0 1 2.291 2.291v15.364A2.29 2.29 0 0 1 48.723 49zm0-18.45a.79.79 0 0 0-.789.789v15.37a.8.8 0 0 0 .789.794h17.418a.79.79 0 0 0 .789-.789v-15.37a.8.8 0 0 0-.789-.794h-1.538a.275.275 0 0 0-.274.274v1.022a.753.753 0 1 1-1.506 0v-1.022a.275.275 0 0 0-.274-.274h-2.048a.275.275 0 0 0-.274.274v1.027a.753.753 0 0 1-1.506 0v-1.027a.275.275 0 0 0-.274-.274h-2.049a.275.275 0 0 0-.274.274v1.027a.753.753 0 0 1-1.506 0v-1.027a.275.275 0 0 0-.274-.274h-2.048a.275.275 0 0 0-.274.274v1.027a.753.753 0 1 1-1.506 0v-1.027a.275.275 0 0 0-.274-.274z" class="cls-2" transform="translate(-29 -27)"/>
        <path id="Trazado_3010" d="M105.553 219.306a.753.753 0 1 1 0-1.506h.812a.753.753 0 1 1 0 1.506z" class="cls-2" transform="translate(-101.341 -209.093)"/>
        <path id="Trazado_3011" d="M175.453 219.306a.753.753 0 1 1 0-1.506h.812a.753.753 0 1 1 0 1.506z" class="cls-2" transform="translate(-168.051 -209.093)"/>
        <path id="Trazado_3012" d="M245.353 219.306a.753.753 0 1 1 0-1.506h.817a.753.753 0 1 1 0 1.506z" class="cls-2" transform="translate(-234.761 -209.093)"/>
        <path id="Trazado_3013" d="M315.353 219.306a.753.753 0 1 1 0-1.506h.812a.753.753 0 0 1 0 1.506z" class="cls-2" transform="translate(-301.567 -209.093)"/>
        <path id="Trazado_3014" d="M385.253 219.306a.753.753 0 0 1 0-1.506h.812a.753.753 0 1 1 0 1.506z" class="cls-2" transform="translate(-368.277 -209.093)"/>
        <path id="Trazado_3015" d="M105.553 297.906a.753.753 0 1 1 0-1.506h.812a.753.753 0 1 1 0 1.506z" class="cls-2" transform="translate(-101.341 -284.106)"/>
        <path id="Trazado_3016" d="M105.553 376.506a.753.753 0 1 1 0-1.506h.812a.753.753 0 1 1 0 1.506z" class="cls-2" transform="translate(-101.341 -359.119)"/>
        <path id="Trazado_3017" d="M175.453 376.506a.753.753 0 1 1 0-1.506h.812a.753.753 0 1 1 0 1.506z" class="cls-2" transform="translate(-168.051 -359.119)"/>
        <path id="Trazado_3018" d="M175.453 297.906a.753.753 0 1 1 0-1.506h.812a.753.753 0 1 1 0 1.506z" class="cls-2" transform="translate(-168.051 -284.106)"/>
        <path id="Trazado_3019" d="M245.353 297.906a.753.753 0 1 1 0-1.506h.817a.753.753 0 1 1 0 1.506z" class="cls-2" transform="translate(-234.761 -284.106)"/>
        <path id="Trazado_3020" d="M315.353 297.906a.753.753 0 1 1 0-1.506h.812a.753.753 0 0 1 0 1.506z" class="cls-2" transform="translate(-301.567 -284.106)"/>
        <path id="Trazado_3021" d="M385.253 297.906a.753.753 0 0 1 0-1.506h.812a.753.753 0 1 1 0 1.506z" class="cls-2" transform="translate(-368.277 -284.106)"/>
    </g>
</svg>
