<svg width="20" height="20" viewBox="0 0 20 20" fill="none" xmlns="http://www.w3.org/2000/svg">
<path opacity="0.8" d="M2.07963 19.9999C1.52858 19.9997 1.00012 19.7805 0.610239 19.3905C0.220353 19.0005 0.000885344 18.4715 1.67996e-07 17.9196V3.94978C-0.000109634 3.67622 0.0536061 3.40533 0.158078 3.15258C0.26255 2.89983 0.41573 2.67017 0.608863 2.47674C0.801996 2.28331 1.0313 2.12989 1.28366 2.02526C1.53602 1.92063 1.80649 1.86683 2.07963 1.86694H3.47579C3.54227 1.86694 3.60602 1.84049 3.65303 1.79341C3.70004 1.74633 3.72645 1.68247 3.72645 1.61589V0.684517C3.72645 0.502972 3.79845 0.328861 3.92663 0.20049C4.0548 0.0721178 4.22864 0 4.40991 0C4.59117 0 4.76502 0.0721178 4.89319 0.20049C5.02136 0.328861 5.09337 0.502972 5.09337 0.684517V1.6184C5.09337 1.68499 5.11978 1.74884 5.16679 1.79592C5.21379 1.843 5.27755 1.86945 5.34403 1.86945H7.20391C7.27039 1.86945 7.33415 1.843 7.38115 1.79592C7.42816 1.74884 7.45457 1.68499 7.45457 1.6184V0.684517C7.45457 0.502972 7.52658 0.328861 7.65475 0.20049C7.78292 0.0721178 7.95677 0 8.13803 0C8.3193 0 8.49313 0.0721178 8.62131 0.20049C8.74948 0.328861 8.82149 0.502972 8.82149 0.684517V1.6184C8.82149 1.68499 8.8479 1.74884 8.8949 1.79592C8.94191 1.843 9.00567 1.86945 9.07215 1.86945H10.932C10.9985 1.86945 11.0623 1.843 11.1093 1.79592C11.1563 1.74884 11.1827 1.68499 11.1827 1.6184V0.684517C11.1827 0.502972 11.2547 0.328861 11.3829 0.20049C11.511 0.0721178 11.6849 0 11.8661 0C12.0474 0 12.2213 0.0721178 12.3494 0.20049C12.4776 0.328861 12.5496 0.502972 12.5496 0.684517V1.6184C12.5496 1.68499 12.576 1.74884 12.623 1.79592C12.67 1.843 12.7338 1.86945 12.8003 1.86945H14.6602C14.7266 1.86945 14.7904 1.843 14.8374 1.79592C14.8844 1.74884 14.9108 1.68499 14.9108 1.6184V0.684517C14.9108 0.502972 14.9828 0.328861 15.111 0.20049C15.2392 0.0721178 15.413 0 15.5943 0C15.7755 0 15.9494 0.0721178 16.0775 0.20049C16.2057 0.328861 16.2777 0.502972 16.2777 0.684517V1.6184C16.2777 1.68499 16.3041 1.74884 16.3511 1.79592C16.3982 1.843 16.4619 1.86945 16.5284 1.86945H17.9204C18.4719 1.86967 19.0007 2.08918 19.3906 2.47974C19.7806 2.8703 19.9998 3.39995 20 3.95229V17.9196C19.9998 18.1944 19.9453 18.4664 19.8396 18.7199C19.734 18.9735 19.5792 19.2036 19.3844 19.397C19.1895 19.5903 18.9583 19.7432 18.7042 19.8467C18.4501 19.9502 18.178 20.0022 17.9037 19.9999H2.07963ZM2.07963 3.22593C1.8895 3.22593 1.70716 3.30157 1.57271 3.43622C1.43827 3.57087 1.36274 3.7535 1.36274 3.94392V17.9188C1.36318 18.1094 1.43871 18.2922 1.57294 18.4275C1.70717 18.5627 1.88925 18.6394 2.07963 18.6409H17.892C18.0821 18.6409 18.2644 18.5653 18.3989 18.4306C18.5333 18.296 18.6088 18.1134 18.6088 17.9229V3.94978C18.6084 3.7591 18.5329 3.5763 18.3986 3.44108C18.2644 3.30586 18.0823 3.22915 17.892 3.2276H16.4958C16.4293 3.2276 16.3656 3.25405 16.3186 3.30113C16.2716 3.34821 16.2451 3.41207 16.2451 3.47865V4.41003C16.2451 4.59157 16.1731 4.76568 16.045 4.89405C15.9168 5.02242 15.7429 5.09454 15.5617 5.09454C15.3804 5.09454 15.2066 5.02242 15.0784 4.89405C14.9502 4.76568 14.8782 4.59157 14.8782 4.41003V3.47697C14.8782 3.41039 14.8518 3.34654 14.8048 3.29946C14.7578 3.25238 14.694 3.22593 14.6276 3.22593H12.771C12.7045 3.22593 12.6408 3.25238 12.5938 3.29946C12.5468 3.34654 12.5204 3.41039 12.5204 3.47697V4.41003C12.5204 4.59157 12.4484 4.76568 12.3202 4.89405C12.192 5.02242 12.0182 5.09454 11.8369 5.09454C11.6556 5.09454 11.4818 5.02242 11.3536 4.89405C11.2255 4.76568 11.1534 4.59157 11.1534 4.41003V3.47697C11.1534 3.41039 11.127 3.34654 11.08 3.29946C11.033 3.25238 10.9693 3.22593 10.9028 3.22593H9.04708C8.9806 3.22593 8.91685 3.25238 8.86984 3.29946C8.82283 3.34654 8.79642 3.41039 8.79642 3.47697V4.41003C8.79642 4.59157 8.72442 4.76568 8.59624 4.89405C8.46807 5.02242 8.29423 5.09454 8.11296 5.09454C7.9317 5.09454 7.75786 5.02242 7.62968 4.89405C7.50151 4.76568 7.4295 4.59157 7.4295 4.41003V3.47697C7.4295 3.41039 7.40309 3.34654 7.35609 3.29946C7.30908 3.25238 7.24532 3.22593 7.17884 3.22593H5.32314C5.25666 3.22593 5.1929 3.25238 5.1459 3.29946C5.09889 3.34654 5.07248 3.41039 5.07248 3.47697V4.41003C5.07248 4.59157 5.00047 4.76568 4.8723 4.89405C4.74413 5.02242 4.57028 5.09454 4.38902 5.09454C4.20775 5.09454 4.03392 5.02242 3.90574 4.89405C3.77757 4.76568 3.70556 4.59157 3.70556 4.41003V3.47697C3.70556 3.41039 3.67915 3.34654 3.63215 3.29946C3.58514 3.25238 3.52138 3.22593 3.4549 3.22593H2.07963Z" fill="#3D4550"/>
<path opacity="0.8" d="M3.8231 9.287C3.73335 9.287 3.64448 9.26929 3.56156 9.23489C3.47863 9.20049 3.40329 9.15007 3.33983 9.08651C3.27636 9.02294 3.22602 8.94748 3.19167 8.86443C3.15732 8.78138 3.13965 8.69237 3.13965 8.60248C3.13965 8.51259 3.15732 8.42358 3.19167 8.34053C3.22602 8.25748 3.27636 8.18202 3.33983 8.11845C3.40329 8.05489 3.47863 8.00447 3.56156 7.97007C3.64448 7.93567 3.73335 7.91797 3.8231 7.91797H4.56088C4.65063 7.91797 4.7395 7.93567 4.82242 7.97007C4.90535 8.00447 4.98069 8.05489 5.04416 8.11845C5.10762 8.18202 5.15797 8.25748 5.19231 8.34053C5.22666 8.42358 5.24434 8.51259 5.24434 8.60248C5.24434 8.69237 5.22666 8.78138 5.19231 8.86443C5.15797 8.94748 5.10762 9.02294 5.04416 9.08651C4.98069 9.15007 4.90535 9.20049 4.82242 9.23489C4.7395 9.26929 4.65063 9.287 4.56088 9.287H3.8231Z" fill="#3D4550"/>
<path opacity="0.8" d="M6.7196 9.287C6.62985 9.287 6.54097 9.26929 6.45805 9.23489C6.37513 9.20049 6.29978 9.15007 6.23632 9.08651C6.17285 9.02294 6.12251 8.94748 6.08816 8.86443C6.05381 8.78138 6.03613 8.69237 6.03613 8.60248C6.03613 8.51259 6.05381 8.42358 6.08816 8.34053C6.12251 8.25748 6.17285 8.18202 6.23632 8.11845C6.29978 8.05489 6.37513 8.00447 6.45805 7.97007C6.54097 7.93567 6.62985 7.91797 6.7196 7.91797H7.45737C7.54712 7.91797 7.63599 7.93567 7.71892 7.97007C7.80184 8.00447 7.87718 8.05489 7.94065 8.11845C8.00411 8.18202 8.05446 8.25748 8.08881 8.34053C8.12315 8.42358 8.14082 8.51259 8.14082 8.60248C8.14082 8.69237 8.12315 8.78138 8.08881 8.86443C8.05446 8.94748 8.00411 9.02294 7.94065 9.08651C7.87718 9.15007 7.80184 9.20049 7.71892 9.23489C7.63599 9.26929 7.54712 9.287 7.45737 9.287H6.7196Z" fill="#3D4550"/>
<path opacity="0.8" d="M9.6151 9.287C9.52534 9.287 9.43647 9.26929 9.35355 9.23489C9.27063 9.20049 9.19528 9.15007 9.13181 9.08651C9.06835 9.02294 9.018 8.94748 8.98366 8.86443C8.94931 8.78138 8.93164 8.69237 8.93164 8.60248C8.93164 8.51259 8.94931 8.42358 8.98366 8.34053C9.018 8.25748 9.06835 8.18202 9.13181 8.11845C9.19528 8.05489 9.27063 8.00447 9.35355 7.97007C9.43647 7.93567 9.52534 7.91797 9.6151 7.91797H10.3562C10.446 7.91797 10.5348 7.93567 10.6178 7.97007C10.7007 8.00447 10.776 8.05489 10.8395 8.11845C10.9029 8.18202 10.9533 8.25748 10.9876 8.34053C11.022 8.42358 11.0397 8.51259 11.0397 8.60248C11.0397 8.69237 11.022 8.78138 10.9876 8.86443C10.9533 8.94748 10.9029 9.02294 10.8395 9.08651C10.776 9.15007 10.7007 9.20049 10.6178 9.23489C10.5348 9.26929 10.446 9.287 10.3562 9.287H9.6151Z" fill="#3D4550"/>
<path opacity="0.8" d="M12.5135 9.287C12.4238 9.287 12.3349 9.26929 12.252 9.23489C12.1691 9.20049 12.0937 9.15007 12.0303 9.08651C11.9668 9.02294 11.9164 8.94748 11.8821 8.86443C11.8477 8.78138 11.8301 8.69237 11.8301 8.60248C11.8301 8.51259 11.8477 8.42358 11.8821 8.34053C11.9164 8.25748 11.9668 8.18202 12.0303 8.11845C12.0937 8.05489 12.1691 8.00447 12.252 7.97007C12.3349 7.93567 12.4238 7.91797 12.5135 7.91797H13.2513C13.4326 7.91797 13.6064 7.99008 13.7346 8.11845C13.8628 8.24682 13.9348 8.42093 13.9348 8.60248C13.9348 8.78402 13.8628 8.95813 13.7346 9.08651C13.6064 9.21488 13.4326 9.287 13.2513 9.287H12.5135Z" fill="#3D4550"/>
<path opacity="0.8" d="M15.41 9.287C15.2288 9.287 15.0549 9.21488 14.9267 9.08651C14.7986 8.95813 14.7266 8.78402 14.7266 8.60248C14.7266 8.42093 14.7986 8.24682 14.9267 8.11845C15.0549 7.99008 15.2288 7.91797 15.41 7.91797H16.1478C16.2375 7.91797 16.3264 7.93567 16.4093 7.97007C16.4923 8.00447 16.5676 8.05489 16.6311 8.11845C16.6945 8.18202 16.7449 8.25748 16.7792 8.34053C16.8136 8.42358 16.8313 8.51259 16.8313 8.60248C16.8313 8.69237 16.8136 8.78138 16.7792 8.86443C16.7449 8.94748 16.6945 9.02294 16.6311 9.08651C16.5676 9.15007 16.4923 9.20049 16.4093 9.23489C16.3264 9.26929 16.2375 9.287 16.1478 9.287H15.41Z" fill="#3D4550"/>
<path opacity="0.8" d="M3.8231 12.5448C3.64184 12.5448 3.468 12.4727 3.33983 12.3443C3.21166 12.216 3.13965 12.0418 3.13965 11.8603C3.13965 11.6787 3.21166 11.5046 3.33983 11.3763C3.468 11.2479 3.64184 11.1758 3.8231 11.1758H4.56088C4.74214 11.1758 4.91598 11.2479 5.04416 11.3763C5.17233 11.5046 5.24434 11.6787 5.24434 11.8603C5.24434 12.0418 5.17233 12.216 5.04416 12.3443C4.91598 12.4727 4.74214 12.5448 4.56088 12.5448H3.8231Z" fill="#3D4550"/>
<path opacity="0.8" d="M3.8231 15.8075C3.64184 15.8075 3.468 15.7354 3.33983 15.607C3.21166 15.4787 3.13965 15.3045 3.13965 15.123C3.13965 14.9414 3.21166 14.7673 3.33983 14.639C3.468 14.5106 3.64184 14.4385 3.8231 14.4385H4.56088C4.74214 14.4385 4.91598 14.5106 5.04416 14.639C5.17233 14.7673 5.24434 14.9414 5.24434 15.123C5.24434 15.3045 5.17233 15.4787 5.04416 15.607C4.91598 15.7354 4.74214 15.8075 4.56088 15.8075H3.8231Z" fill="#3D4550"/>
<path opacity="0.8" d="M6.7196 15.8075C6.53834 15.8075 6.36449 15.7354 6.23632 15.607C6.10815 15.4787 6.03613 15.3045 6.03613 15.123C6.03613 14.9414 6.10815 14.7673 6.23632 14.639C6.36449 14.5106 6.53834 14.4385 6.7196 14.4385H7.45737C7.63863 14.4385 7.81247 14.5106 7.94065 14.639C8.06882 14.7673 8.14082 14.9414 8.14082 15.123C8.14082 15.3045 8.06882 15.4787 7.94065 15.607C7.81247 15.7354 7.63863 15.8075 7.45737 15.8075H6.7196Z" fill="#3D4550"/>
<path opacity="0.8" d="M6.7196 12.5448C6.53834 12.5448 6.36449 12.4727 6.23632 12.3443C6.10815 12.216 6.03613 12.0418 6.03613 11.8603C6.03613 11.6787 6.10815 11.5046 6.23632 11.3763C6.36449 11.2479 6.53834 11.1758 6.7196 11.1758H7.45737C7.63863 11.1758 7.81247 11.2479 7.94065 11.3763C8.06882 11.5046 8.14082 11.6787 8.14082 11.8603C8.14082 12.0418 8.06882 12.216 7.94065 12.3443C7.81247 12.4727 7.63863 12.5448 7.45737 12.5448H6.7196Z" fill="#3D4550"/>
<path opacity="0.8" d="M9.6151 12.5448C9.43383 12.5448 9.25999 12.4727 9.13181 12.3443C9.00364 12.216 8.93164 12.0418 8.93164 11.8603C8.93164 11.6787 9.00364 11.5046 9.13181 11.3763C9.25999 11.2479 9.43383 11.1758 9.6151 11.1758H10.3562C10.5375 11.1758 10.7113 11.2479 10.8395 11.3763C10.9677 11.5046 11.0397 11.6787 11.0397 11.8603C11.0397 12.0418 10.9677 12.216 10.8395 12.3443C10.7113 12.4727 10.5375 12.5448 10.3562 12.5448H9.6151Z" fill="#3D4550"/>
<path opacity="0.8" d="M12.5135 12.5448C12.3323 12.5448 12.1584 12.4727 12.0303 12.3443C11.9021 12.216 11.8301 12.0418 11.8301 11.8603C11.8301 11.6787 11.9021 11.5046 12.0303 11.3763C12.1584 11.2479 12.3323 11.1758 12.5135 11.1758H13.2513C13.4326 11.1758 13.6064 11.2479 13.7346 11.3763C13.8628 11.5046 13.9348 11.6787 13.9348 11.8603C13.9348 12.0418 13.8628 12.216 13.7346 12.3443C13.6064 12.4727 13.4326 12.5448 13.2513 12.5448H12.5135Z" fill="#3D4550"/>
<path opacity="0.8" d="M15.41 12.5448C15.2288 12.5448 15.0549 12.4727 14.9267 12.3443C14.7986 12.216 14.7266 12.0418 14.7266 11.8603C14.7266 11.6787 14.7986 11.5046 14.9267 11.3763C15.0549 11.2479 15.2288 11.1758 15.41 11.1758H16.1478C16.329 11.1758 16.5029 11.2479 16.6311 11.3763C16.7593 11.5046 16.8313 11.6787 16.8313 11.8603C16.8313 12.0418 16.7593 12.216 16.6311 12.3443C16.5029 12.4727 16.329 12.5448 16.1478 12.5448H15.41Z" fill="#3D4550"/>
</svg>
