<svg width="16" height="16" viewBox="0 0 16 16" fill="none" xmlns="http://www.w3.org/2000/svg">
<path d="M1.70688 14.4638C1.25479 14.4622 0.821634 14.2786 0.501884 13.9529C0.182134 13.6273 0.00172517 13.186 0 12.7253V2.79524C0.00134294 2.33439 0.181606 1.8928 0.501418 1.56692C0.82123 1.24105 1.2546 1.05737 1.70688 1.056H4.07703V0.589135C4.07798 0.433186 4.1392 0.283903 4.24742 0.173628C4.35565 0.0633542 4.50215 0.000971669 4.6552 0C4.80825 0.000971669 4.95475 0.0633542 5.06297 0.173628C5.1712 0.283903 5.23242 0.433186 5.23337 0.589135V1.056H8.14969V0.589135C8.15064 0.433186 8.21186 0.283903 8.32008 0.173628C8.42831 0.0633542 8.57481 0.000971669 8.72786 0C8.88091 0.000971669 9.02742 0.0633542 9.13564 0.173628C9.24386 0.283903 9.30508 0.433186 9.30603 0.589135V1.056H11.674C12.1262 1.05756 12.5595 1.2413 12.8792 1.56714C13.199 1.89297 13.3793 2.33445 13.3809 2.79524V6.18036C13.3799 6.3363 13.3187 6.48559 13.2105 6.59586C13.1023 6.70614 12.9558 6.76852 12.8027 6.76949C12.6497 6.76852 12.5032 6.70614 12.3949 6.59586C12.2867 6.48559 12.2255 6.3363 12.2245 6.18036V5.39558H1.15562V12.7253C1.15581 12.874 1.21387 13.0166 1.31708 13.1218C1.42028 13.2269 1.5602 13.2861 1.70615 13.2863H6.76135V13.2907C6.89005 13.3063 7.00977 13.3659 7.10098 13.4597C7.1547 13.5143 7.19728 13.5792 7.22624 13.6507C7.2552 13.7222 7.26997 13.7988 7.2697 13.8762C7.26856 14.032 7.20725 14.1811 7.09905 14.2912C6.99085 14.4013 6.84445 14.4636 6.69153 14.4646L1.70688 14.4638ZM12.2274 4.21509V2.79524C12.2272 2.64652 12.1692 2.50395 12.066 2.39879C11.9628 2.29363 11.8229 2.23446 11.6769 2.23427H9.30749V2.70113C9.30653 2.85707 9.24531 3.00636 9.13709 3.11663C9.02887 3.22691 8.88236 3.28929 8.72932 3.29026C8.57627 3.28929 8.42976 3.22691 8.32154 3.11663C8.21332 3.00636 8.1521 2.85707 8.15114 2.70113V2.23427H5.23192V2.70113C5.23096 2.85707 5.16974 3.00636 5.06152 3.11663C4.9533 3.22691 4.80679 3.28929 4.65375 3.29026C4.5007 3.28929 4.35419 3.22691 4.24597 3.11663C4.13774 3.00636 4.07652 2.85707 4.07557 2.70113V2.23427H1.70615C1.56027 2.23446 1.42043 2.29365 1.31734 2.39883C1.21425 2.50401 1.15635 2.64659 1.15635 2.79524V4.21731L12.2274 4.21509Z" fill="#3D4550"/>
<path d="M11.6982 16C10.8474 16 10.0157 15.7429 9.30832 15.2613C8.60091 14.7797 8.04953 14.0951 7.72394 13.2941C7.39835 12.4932 7.31316 11.6118 7.47914 10.7616C7.64513 9.91129 8.05482 9.13026 8.65643 8.51724C9.25805 7.90422 10.0246 7.48676 10.859 7.31763C11.6935 7.14849 12.5584 7.2353 13.3445 7.56706C14.1305 7.89882 14.8023 8.46065 15.275 9.18148C15.7477 9.90231 16 10.7498 16 11.6167C15.9988 12.7789 15.5453 13.8931 14.7388 14.7149C13.9323 15.5367 12.8388 15.9988 11.6982 16ZM11.6982 8.32052C11.0585 8.32052 10.433 8.51384 9.90104 8.87603C9.36907 9.23822 8.95445 9.75301 8.70961 10.3553C8.46477 10.9576 8.40072 11.6204 8.52553 12.2598C8.65035 12.8992 8.95846 13.4865 9.41086 13.9475C9.86326 14.4084 10.4397 14.7224 11.0672 14.8496C11.6947 14.9768 12.3451 14.9115 12.9362 14.662C13.5273 14.4125 14.0325 13.99 14.3879 13.448C14.7434 12.9059 14.9331 12.2686 14.9331 11.6167C14.9323 10.7427 14.5913 9.90466 13.9848 9.28656C13.3784 8.66846 12.556 8.32076 11.6982 8.31978V8.32052Z" fill="#3D4550"/>
<path d="M12.9829 13.2491C12.8706 13.2489 12.7612 13.212 12.6709 13.1438L11.3808 12.1671C11.3135 12.1165 11.2588 12.0505 11.2209 11.9744C11.183 11.8984 11.163 11.8144 11.1626 11.7292V9.38376C11.1626 9.23969 11.2188 9.10154 11.3187 8.99967C11.4187 8.89781 11.5543 8.84058 11.6957 8.84058C11.8371 8.84058 11.9727 8.89781 12.0726 8.99967C12.1726 9.10154 12.2288 9.23969 12.2288 9.38376V11.4587L13.3051 12.2739C13.4186 12.3598 13.494 12.4882 13.5147 12.6307C13.5355 12.7733 13.4998 12.9184 13.4156 13.0342C13.3656 13.1024 13.3008 13.158 13.2263 13.1966C13.1517 13.2351 13.0694 13.2556 12.9858 13.2565L12.9829 13.2491Z" fill="#3D4550"/>
</svg>
