<svg xmlns="http://www.w3.org/2000/svg" width="98.428" height="68.44" viewBox="0 0 98.428 68.44">
    <defs>
        <style>
            <!-- .prefix__cls-1{fill:#3d4550} -->
        </style>
    </defs>
    <g id="disable" data-name="Grupo 688" transform="translate(-664.955 -325.012)">
        <g id="programacion-2" transform="translate(667.044 325.012)">
            <path id="prefix__Trazado_2947" d="M50.923 79.094H29.676a2.646 2.646 0 0 1-2.648-2.648V45.473h47.79v3.59a2.164 2.164 0 0 0 4.328 0V34.894a6.987 6.987 0 0 0-6.976-6.976h-10.4v-2.254a2.164 2.164 0 0 0-4.328 0v2.253H44.405v-2.253a2.164 2.164 0 0 0-4.328 0v2.253h-10.4a6.987 6.987 0 0 0-6.977 6.977v41.552a6.987 6.987 0 0 0 6.976 6.976h21.247a2.164 2.164 0 0 0 0-4.328zm-23.895-44.2a2.646 2.646 0 0 1 2.648-2.648h10.4V34.5a2.164 2.164 0 1 0 4.328 0v-2.254h13.05V34.5a2.164 2.164 0 1 0 4.328 0v-2.254h10.4a2.646 2.646 0 0 1 2.648 2.648v6.251h-47.8z" class="prefix__cls-2" data-name="Trazado 2947" transform="translate(-22.7 -23.5)"/>
            <path id="prefix__Trazado_2948" d="M288.439 261.3a18.039 18.039 0 1 0 18.039 18.039 18.057 18.057 0 0 0-18.039-18.039zm0 32.132a14.093 14.093 0 1 1 14.092-14.092 14.107 14.107 0 0 1-14.092 14.091z" class="prefix__cls-2" data-name="Trazado 2948" transform="translate(-238.867 -231.027)"/>
            <path id="prefix__Trazado_2949" d="M405.257 328.384l-4.71-3.488v-8.822a1.973 1.973 0 1 0-3.946 0v9.815a1.984 1.984 0 0 0 .8 1.591l5.5 4.086a1.924 1.924 0 0 0 1.171.382 2 2 0 0 0 1.591-.8 1.972 1.972 0 0 0-.406-2.764z" class="prefix__cls-2" data-name="Trazado 2949" transform="translate(-349.001 -277.106)"/>
        </g>
        <g id="programacion-2-2" data-name="programacion-2" transform="translate(664.955 327.101)" style="opacity:.3">
            <path id="prefix__Trazado_2947-2" d="M50.923 79.094H29.676a2.646 2.646 0 0 1-2.648-2.648V45.473h47.79v3.59a2.164 2.164 0 0 0 4.328 0V34.894a6.987 6.987 0 0 0-6.976-6.976h-10.4v-2.254a2.164 2.164 0 0 0-4.328 0v2.253H44.405v-2.253a2.164 2.164 0 0 0-4.328 0v2.253h-10.4a6.987 6.987 0 0 0-6.977 6.977v41.552a6.987 6.987 0 0 0 6.976 6.976h21.247a2.164 2.164 0 0 0 0-4.328zm-23.895-44.2a2.646 2.646 0 0 1 2.648-2.648h10.4V34.5a2.164 2.164 0 1 0 4.328 0v-2.254h13.05V34.5a2.164 2.164 0 1 0 4.328 0v-2.254h10.4a2.646 2.646 0 0 1 2.648 2.648v6.251h-47.8z" class="prefix__cls-2" data-name="Trazado 2947" transform="translate(-22.7 -23.5)"/>
            <path id="prefix__Trazado_2948-2" d="M288.439 261.3a18.039 18.039 0 1 0 18.039 18.039 18.057 18.057 0 0 0-18.039-18.039zm0 32.132a14.093 14.093 0 1 1 14.092-14.092 14.107 14.107 0 0 1-14.092 14.091z" class="prefix__cls-2" data-name="Trazado 2948" transform="translate(-238.867 -231.027)"/>
            <path id="prefix__Trazado_2949-2" d="M405.257 328.384l-4.71-3.488v-8.822a1.973 1.973 0 1 0-3.946 0v9.815a1.984 1.984 0 0 0 .8 1.591l5.5 4.086a1.924 1.924 0 0 0 1.171.382 2 2 0 0 0 1.591-.8 1.972 1.972 0 0 0-.406-2.764z" class="prefix__cls-2" data-name="Trazado 2949" transform="translate(-349.001 -277.106)"/>
        </g>
    </g>
</svg>
