<svg xmlns="http://www.w3.org/2000/svg" width="20" height="19.987" viewBox="0 0 20 19.987">
    <defs>
        <style>
            .cls-1{fill:#3d4550}
        </style>
    </defs>
    <g id="calendar" transform="translate(-29 -27)">
        <path id="Trazado_3009" d="M31.081 46.988A2.083 2.083 0 0 1 29 44.906V30.947a2.081 2.081 0 0 1 2.081-2.081h1.4a.249.249 0 0 0 .249-.249v-.933a.684.684 0 0 1 1.368 0v.933a.249.249 0 0 0 .249.249h1.862a.249.249 0 0 0 .249-.249v-.933a.684.684 0 0 1 1.368 0v.933a.249.249 0 0 0 .249.249h1.862a.249.249 0 0 0 .249-.249v-.933a.684.684 0 1 1 1.368 0v.933a.249.249 0 0 0 .249.249h1.857a.249.249 0 0 0 .249-.249v-.933a.684.684 0 1 1 1.368 0v.933a.249.249 0 0 0 .249.249h1.393A2.083 2.083 0 0 1 49 30.947v13.959a2.081 2.081 0 0 1-2.081 2.081zm0-16.762a.717.717 0 0 0-.717.717v13.963a.724.724 0 0 0 .717.721h15.825a.717.717 0 0 0 .717-.717V30.947a.724.724 0 0 0-.717-.721h-1.4a.249.249 0 0 0-.249.249v.929a.684.684 0 1 1-1.368 0v-.933a.249.249 0 0 0-.249-.249h-1.858a.249.249 0 0 0-.249.249v.933a.684.684 0 0 1-1.368 0v-.933a.249.249 0 0 0-.249-.249h-1.861a.249.249 0 0 0-.249.249v.933a.684.684 0 0 1-1.368 0v-.933a.249.249 0 0 0-.249-.249h-1.861a.249.249 0 0 0-.249.249v.933a.684.684 0 0 1-1.368 0v-.933a.249.249 0 0 0-.249-.249z" class="cls-1" data-name="Trazado 3009"/>
        <path id="Trazado_3010" d="M105.484 219.168a.684.684 0 0 1 0-1.368h.738a.684.684 0 1 1 0 1.368z" class="cls-1" data-name="Trazado 3010" transform="translate(-72.657 -182.89)"/>
        <path id="Trazado_3011" d="M175.384 219.168a.684.684 0 0 1 0-1.368h.738a.684.684 0 1 1 0 1.368z" class="cls-1" data-name="Trazado 3011" transform="translate(-139.659 -182.89)"/>
        <path id="Trazado_3012" d="M245.284 219.168a.684.684 0 0 1 0-1.368h.742a.684.684 0 0 1 0 1.368z" class="cls-1" data-name="Trazado 3012" transform="translate(-206.661 -182.89)"/>
        <path id="Trazado_3013" d="M315.284 219.168a.684.684 0 0 1 0-1.368h.738a.684.684 0 0 1 0 1.368z" class="cls-1" data-name="Trazado 3013" transform="translate(-273.759 -182.89)"/>
        <path id="Trazado_3014" d="M385.184 219.168a.684.684 0 0 1 0-1.368h.738a.684.684 0 0 1 0 1.368z" class="cls-1" data-name="Trazado 3014" transform="translate(-340.761 -182.89)"/>
        <path id="Trazado_3015" d="M105.484 297.768a.684.684 0 1 1 0-1.368h.738a.684.684 0 1 1 0 1.368z" class="cls-1" data-name="Trazado 3015" transform="translate(-72.657 -258.231)"/>
        <path id="Trazado_3016" d="M105.484 376.368a.684.684 0 1 1 0-1.368h.738a.684.684 0 1 1 0 1.368z" class="cls-1" data-name="Trazado 3016" transform="translate(-72.657 -333.572)"/>
        <path id="Trazado_3017" d="M175.384 376.368a.684.684 0 1 1 0-1.368h.738a.684.684 0 1 1 0 1.368z" class="cls-1" data-name="Trazado 3017" transform="translate(-139.659 -333.572)"/>
        <path id="Trazado_3018" d="M175.384 297.768a.684.684 0 1 1 0-1.368h.738a.684.684 0 1 1 0 1.368z" class="cls-1" data-name="Trazado 3018" transform="translate(-139.659 -258.231)"/>
        <path id="Trazado_3019" d="M245.284 297.768a.684.684 0 1 1 0-1.368h.742a.684.684 0 1 1 0 1.368z" class="cls-1" data-name="Trazado 3019" transform="translate(-206.661 -258.231)"/>
        <path id="Trazado_3020" d="M315.284 297.768a.684.684 0 1 1 0-1.368h.738a.684.684 0 0 1 0 1.368z" class="cls-1" data-name="Trazado 3020" transform="translate(-273.759 -258.231)"/>
        <path id="Trazado_3021" d="M385.184 297.768a.684.684 0 1 1 0-1.368h.738a.684.684 0 1 1 0 1.368z" class="cls-1" data-name="Trazado 3021" transform="translate(-340.761 -258.231)"/>
    </g>
</svg>
