
<svg xmlns="http://www.w3.org/2000/svg" width="69.7" height="68.44" viewBox="0 0 69.7 68.44">
  <defs>
    <style>
        <!-- .prefix__cls-1{fill:#3d4550} -->
    </style>
  </defs>
  <g id="disable" transform="translate(-131 -44.336)">
    <g id="programacion-2" transform="translate(131 46.425)">
      <path id="Trazado_2947" data-name="Trazado 2947" d="M50.923,79.094H29.676a2.646,2.646,0,0,1-2.648-2.648V45.473h47.79v3.59a2.164,2.164,0,0,0,4.328,0V34.894a6.987,6.987,0,0,0-6.976-6.976H61.77V25.664a2.164,2.164,0,0,0-4.328,0v2.253H44.405V25.664a2.164,2.164,0,0,0-4.328,0v2.253h-10.4A6.987,6.987,0,0,0,22.7,34.894V76.446a6.987,6.987,0,0,0,6.976,6.976H50.923a2.164,2.164,0,0,0,0-4.328Zm-23.895-44.2a2.646,2.646,0,0,1,2.648-2.648h10.4V34.5a2.164,2.164,0,1,0,4.328,0V32.246H57.454V34.5a2.164,2.164,0,1,0,4.328,0V32.246h10.4a2.646,2.646,0,0,1,2.648,2.648v6.251h-47.8Z" transform="translate(-22.7 -23.5)" fill="#c3c6c9"/>
      <path id="Trazado_2948" data-name="Trazado 2948" d="M288.439,261.3a18.039,18.039,0,1,0,18.039,18.039A18.057,18.057,0,0,0,288.439,261.3Zm0,32.132a14.093,14.093,0,1,1,14.092-14.092A14.107,14.107,0,0,1,288.439,293.431Z" transform="translate(-238.867 -231.027)" fill="#c3c6c9"/>
      <path id="Trazado_2949" data-name="Trazado 2949" d="M405.257,328.384l-4.71-3.488v-8.822a1.973,1.973,0,1,0-3.946,0v9.815a1.984,1.984,0,0,0,.8,1.591l5.5,4.086a1.924,1.924,0,0,0,1.171.382,2,2,0,0,0,1.591-.8A1.972,1.972,0,0,0,405.257,328.384Z" transform="translate(-349.001 -277.106)" fill="#c3c6c9"/>
    </g>
    <g id="programacion-2-2" data-name="programacion-2" transform="translate(133.089 44.336)">
      <path id="Trazado_2947-2" data-name="Trazado 2947" d="M50.923,79.094H29.676a2.646,2.646,0,0,1-2.648-2.648V45.473h47.79v3.59a2.164,2.164,0,0,0,4.328,0V34.894a6.987,6.987,0,0,0-6.976-6.976H61.77V25.664a2.164,2.164,0,0,0-4.328,0v2.253H44.405V25.664a2.164,2.164,0,0,0-4.328,0v2.253h-10.4A6.987,6.987,0,0,0,22.7,34.894V76.446a6.987,6.987,0,0,0,6.976,6.976H50.923a2.164,2.164,0,0,0,0-4.328Zm-23.895-44.2a2.646,2.646,0,0,1,2.648-2.648h10.4V34.5a2.164,2.164,0,1,0,4.328,0V32.246H57.454V34.5a2.164,2.164,0,1,0,4.328,0V32.246h10.4a2.646,2.646,0,0,1,2.648,2.648v6.251h-47.8Z" transform="translate(-22.7 -23.5)" fill="#3d4550"/>
      <path id="Trazado_2948-2" data-name="Trazado 2948" d="M288.439,261.3a18.039,18.039,0,1,0,18.039,18.039A18.057,18.057,0,0,0,288.439,261.3Zm0,32.132a14.093,14.093,0,1,1,14.092-14.092A14.107,14.107,0,0,1,288.439,293.431Z" transform="translate(-238.867 -231.027)" fill="#3d4550"/>
      <path id="Trazado_2949-2" data-name="Trazado 2949" d="M405.257,328.384l-4.71-3.488v-8.822a1.973,1.973,0,1,0-3.946,0v9.815a1.984,1.984,0,0,0,.8,1.591l5.5,4.086a1.924,1.924,0,0,0,1.171.382,2,2,0,0,0,1.591-.8A1.972,1.972,0,0,0,405.257,328.384Z" transform="translate(-349.001 -277.106)" fill="#3d4550"/>
    </g>
  </g>
</svg>
