<svg xmlns="http://www.w3.org/2000/svg" width="19.444" height="19.444" viewBox="0 0 19.444 19.444">
    <defs>
        <style>
            .cls-1{fill:#3d4550;fill-rule:evenodd}
        </style>
    </defs>
    <path id="Trazado_2938" d="M2.431 6.076v10.938h14.583V6.076zM15.8 2.431h2.431a1.148 1.148 0 0 1 1.215 1.215v14.583a1.148 1.148 0 0 1-1.215 1.215H1.215A1.148 1.148 0 0 1 0 18.229V3.646a1.148 1.148 0 0 1 1.215-1.215h2.431V1.215A1.148 1.148 0 0 1 4.861 0a1.148 1.148 0 0 1 1.215 1.215v1.216h7.292V1.215a1.215 1.215 0 1 1 2.431 0zm-1.217 12.152h-2.43v-2.43h2.431zm-3.646 0h-2.43v-2.43h2.431zm3.646-3.646h-2.43v-2.43h2.431zm-3.646 0h-2.43v-2.43h2.431zm-3.645 3.646H4.861v-2.43h2.431z" class="cls-1" data-name="Trazado 2938"/>
</svg>
