<svg width="24" height="24" viewBox="0 0 24 24" fill="none" xmlns="http://www.w3.org/2000/svg">
<path d="M0.758181 16.1407L0.752743 16.1406C0.719448 16.1403 0.686449 16.1465 0.655672 16.1589C0.624891 16.1713 0.597006 16.1897 0.573582 16.2127C0.550156 16.2358 0.531652 16.2632 0.519056 16.2933C0.50646 16.3234 0.499998 16.3556 0.5 16.3881V18.6278C0.5 18.6934 0.526087 18.7567 0.573099 18.8038C0.620026 18.8507 0.684015 18.8776 0.751205 18.878H3H3.5V19.378C3.5 20.0378 3.76298 20.6709 4.23163 21.1379C4.70034 21.6051 5.33641 21.8678 6 21.8678C6.66359 21.8678 7.29965 21.6051 7.76837 21.1379C8.23702 20.6709 8.5 20.0378 8.5 19.378V18.878H9H15H15.5V19.378C15.5 20.0378 15.763 20.6709 16.2316 21.1379C16.7003 21.6051 17.3364 21.8678 18 21.8678C18.6636 21.8678 19.2997 21.6051 19.7684 21.1379C20.237 20.6709 20.5 20.0378 20.5 19.378V18.878H21H23.2488C23.316 18.8776 23.38 18.8507 23.4269 18.8038C23.4739 18.7568 23.5 18.6934 23.5 18.6278V17.1383V14.8959V12.7748L21.2986 8.39498C21.2985 8.39473 21.2984 8.39448 21.2983 8.39423C21.2149 8.23015 21.1152 8.12821 20.9804 8.05865C20.8346 7.98343 20.6095 7.92676 20.2473 7.92676L17.2473 7.92676L17.2464 7.92676C17.1148 7.92652 16.9845 7.95211 16.863 8.00203C16.7414 8.05194 16.6311 8.12518 16.5381 8.21748C16.4452 8.30978 16.3715 8.41933 16.3211 8.53982C16.2709 8.66018 16.2448 8.78915 16.2445 8.91941V15.6407V16.1407H15.7445H4.38142L4.3814 16.1364C4.19685 16.1376 3.98575 16.139 3.74523 16.1407H3.74182H2.75896H2.5404L0.758181 16.1407Z" stroke="#3D4550"/>
<path d="M18.3138 13.1679H21.4714C21.6133 13.1679 21.7096 13.0243 21.6564 12.8928L20.5158 10.0746C20.4374 9.88104 20.2495 9.75439 20.0408 9.75439H18.3138C17.9684 9.75434 17.623 9.75445 17.623 10.1811V12.3145C17.623 12.6558 17.9684 13.1679 18.3138 13.1679Z" stroke="#3D4550"/>
<circle cx="5.99078" cy="19.2277" r="1.05426" stroke="#3D4550"/>
<circle cx="18.0152" cy="19.2277" r="1.05426" stroke="#3D4550"/>
<path d="M4.45843 3.75603V2.10426H6.25361C6.85202 1.94695 8.20272 1.63232 8.81823 1.63232C9.58762 1.63232 11.1264 1.86829 11.8958 2.10426C12.6652 2.34023 13.691 2.10426 13.691 2.34023C13.691 2.57619 13.691 5.40781 13.9475 7.53151C14.2039 9.65522 13.4345 11.7789 13.4345 12.4868C13.4345 13.0532 13.6055 13.824 13.691 14.1386C13.0926 14.06 11.6906 13.997 10.8699 14.3746C9.84408 14.8465 7.023 14.3746 6.51007 14.1386C6.09974 13.9498 4.97134 14.06 4.45843 14.1386C4.62941 13.9813 4.86877 13.1475 4.45843 11.071C3.94551 8.47538 4.45843 4.46394 4.45843 3.75603Z" stroke="#3D4550"/>
<mask id="path-6-inside-1" fill="white">
<path fill-rule="evenodd" clip-rule="evenodd" d="M8.1083 3.65186H5.74561V9.79498H9.99854V7.43224H12.3612V3.65186H9.99854H8.1083Z"/>
</mask>
<path d="M5.74561 3.65186V3.15186H5.24561V3.65186H5.74561ZM5.74561 9.79498H5.24561V10.295H5.74561V9.79498ZM9.99854 9.79498V10.295H10.4985V9.79498H9.99854ZM9.99854 7.43224V6.93224H9.49854V7.43224H9.99854ZM12.3612 7.43224V7.93224H12.8612V7.43224H12.3612ZM12.3612 3.65186H12.8612V3.15186H12.3612V3.65186ZM5.74561 4.15186H8.1083V3.15186H5.74561V4.15186ZM6.24561 9.79498V3.65186H5.24561V9.79498H6.24561ZM9.99854 9.29498H5.74561V10.295H9.99854V9.29498ZM9.49854 7.43224V9.79498H10.4985V7.43224H9.49854ZM12.3612 6.93224H9.99854V7.93224H12.3612V6.93224ZM11.8612 3.65186V7.43224H12.8612V3.65186H11.8612ZM9.99854 4.15186H12.3612V3.15186H9.99854V4.15186ZM8.1083 4.15186H9.99854V3.15186H8.1083V4.15186Z" fill="#3D4550" mask="url(#path-6-inside-1)"/>
</svg>
