<svg width="24" height="24" viewBox="0 0 24 24" fill="none" xmlns="http://www.w3.org/2000/svg">
<path d="M2.40137 6.0782C2.40137 4.04574 4.04708 2.40002 6.07954 2.40002H17.9232C19.9557 2.40002 21.6014 4.04574 21.6014 6.0782V17.9219C21.6014 19.9543 19.9557 21.6 17.9232 21.6H6.07954C5.10403 21.6 4.16847 21.2125 3.47868 20.5227C2.78889 19.8329 2.40137 18.8974 2.40137 17.9219V6.0782ZM17.2869 9.05694C17.4156 8.92818 17.4879 8.75355 17.4879 8.57145C17.4879 8.38936 17.4156 8.21473 17.2869 8.08597C17.1581 7.95721 16.9835 7.88487 16.8014 7.88487C16.6193 7.88487 16.4446 7.95721 16.3159 8.08597L9.94422 14.459L7.68685 12.2003C7.55809 12.0715 7.38346 11.9992 7.20137 11.9992C7.01927 11.9992 6.84464 12.0715 6.71588 12.2003C6.58712 12.329 6.51479 12.5036 6.51479 12.6857C6.51479 12.8678 6.58712 13.0425 6.71588 13.1712L9.45874 15.9141C9.52244 15.9779 9.59811 16.0286 9.68141 16.0632C9.76472 16.0977 9.85403 16.1155 9.94422 16.1155C10.0344 16.1155 10.1237 16.0977 10.207 16.0632C10.2903 16.0286 10.366 15.9779 10.4297 15.9141L17.2869 9.05694Z" fill="#5585c1"/>
<rect x="2.90137" y="2.90002" width="18.2" height="18.2" rx="3.5" stroke="#5585c1"/>
</svg>
