<svg width="21" height="17" viewBox="0 0 21 17" fill="none" xmlns="http://www.w3.org/2000/svg">
<path d="M11.7083 0.303467C7.12285 0.303467 3.4047 4.02162 3.4047 8.60704H0.636841L4.22583 12.196L4.29041 12.3252L8.01779 8.60704H5.24994C5.24994 5.0365 8.13773 2.14871 11.7083 2.14871C15.2788 2.14871 18.1666 5.0365 18.1666 8.60704C18.1666 12.1776 15.2788 15.0654 11.7083 15.0654C9.92761 15.0654 8.31303 14.3365 7.15053 13.1648L5.84041 14.4749C7.34428 15.9788 9.41095 16.9106 11.7083 16.9106C16.2937 16.9106 20.0118 13.1925 20.0118 8.60704C20.0118 4.02162 16.2937 0.303467 11.7083 0.303467ZM10.7856 4.91656V9.52966L14.7345 11.8731L15.3987 10.7567L12.1696 8.83769V4.91656H10.7856Z" fill="white"/>
</svg>
