<svg width="24" height="24" viewBox="0 0 24 24" fill="none" xmlns="http://www.w3.org/2000/svg">
<path d="M13.0908 16.1402V17.6408V20.0093C13.0908 20.208 13.1093 20.4131 13.0838 20.6117C13.0954 20.5361 13.107 20.4584 13.1163 20.3829C13.107 20.4325 13.0931 20.4779 13.0746 20.5232C13.1047 20.4541 13.1371 20.385 13.1672 20.3159C13.1418 20.3699 13.1116 20.4174 13.0746 20.4649C13.1232 20.4066 13.1719 20.3483 13.2205 20.29C13.1811 20.3354 13.1394 20.3742 13.0908 20.4088C13.1533 20.3634 13.2159 20.3181 13.2784 20.2727C13.2367 20.3008 13.1927 20.3246 13.1464 20.344C13.2205 20.3159 13.2946 20.2857 13.3688 20.2576C13.3201 20.2749 13.2715 20.2879 13.2205 20.2965C13.3016 20.2857 13.385 20.2749 13.466 20.2663C13.3549 20.2792 13.239 20.2727 13.1279 20.2727H12.4237H10.0749H7.2096H4.74964C4.3605 20.2727 3.97135 20.2792 3.58222 20.2727C3.54748 20.2727 3.51042 20.2706 3.47567 20.2663C3.55675 20.2771 3.64013 20.2879 3.72121 20.2965C3.67025 20.2879 3.6216 20.2749 3.57296 20.2576C3.64708 20.2857 3.72121 20.3159 3.79533 20.344C3.749 20.3246 3.70499 20.3008 3.6633 20.2727C3.72584 20.3181 3.78838 20.3634 3.85092 20.4088C3.80228 20.3742 3.75827 20.3354 3.72121 20.29C3.76985 20.3483 3.81849 20.4066 3.86714 20.4649C3.83008 20.4174 3.79996 20.3699 3.77448 20.3159C3.8046 20.385 3.83703 20.4541 3.86714 20.5232C3.84861 20.4779 3.83471 20.4304 3.82544 20.3829C3.83702 20.4584 3.84861 20.5361 3.85787 20.6117C3.83702 20.4476 3.85092 20.2771 3.85092 20.1108V18.9492V17.2197V15.1038V12.7828V10.438V8.25301V6.41132V5.09212C3.85092 4.887 3.84861 4.68405 3.85092 4.47894C3.85092 4.44224 3.85324 4.40553 3.85787 4.36883C3.84629 4.4444 3.83471 4.52212 3.82544 4.59769C3.83471 4.5502 3.84861 4.50485 3.86714 4.45951C3.83702 4.5286 3.80459 4.59769 3.77448 4.66679C3.79996 4.61497 3.83008 4.56747 3.86714 4.52212C3.81849 4.58042 3.76985 4.63871 3.72121 4.69701C3.75364 4.66031 3.78838 4.63008 3.82776 4.59985C3.76522 4.64519 3.70268 4.69054 3.64013 4.73588C3.68878 4.70133 3.73974 4.67542 3.79765 4.65167C3.72352 4.67974 3.6494 4.70997 3.57528 4.73804C3.62392 4.72076 3.67257 4.70997 3.72352 4.70133C3.64245 4.71213 3.55906 4.72292 3.47799 4.73156C3.58917 4.7186 3.70268 4.72508 3.81618 4.72508H4.52035H6.86912H9.73443H12.1944C12.5835 4.72508 12.9727 4.7186 13.3618 4.72508C13.3966 4.72508 13.4336 4.72724 13.4684 4.73156C13.3873 4.72076 13.3039 4.70997 13.2228 4.70133C13.2738 4.70997 13.3224 4.72076 13.3711 4.73804C13.297 4.70997 13.2228 4.67974 13.1487 4.65167C13.2043 4.67326 13.2553 4.70133 13.3062 4.73588C13.2437 4.69054 13.1811 4.64519 13.1186 4.59985C13.158 4.63008 13.1927 4.66031 13.2251 4.69701C13.1765 4.63871 13.1279 4.58042 13.0792 4.52212C13.1163 4.56746 13.1464 4.61281 13.1719 4.66679C13.1418 4.59769 13.1093 4.5286 13.0792 4.45951C13.0977 4.50485 13.1116 4.5502 13.1209 4.59769C13.1093 4.52212 13.0977 4.4444 13.0885 4.36883C13.1093 4.53076 13.0954 4.70133 13.0954 4.86542V5.90608V8.30484V8.85974C13.0954 9.311 13.5216 9.74497 14.022 9.72338C14.5246 9.70179 14.9485 9.34338 14.9485 8.85974V6.63588V5.12018C14.9485 4.88053 14.9647 4.63438 14.9462 4.3969C14.9138 4.01906 14.7632 3.65419 14.4551 3.39725C14.1517 3.14464 13.7834 3.00861 13.3757 3H13.2645H12.5001H9.54447H6.08152H3.79065H3.59839C3.16521 3.00216 2.72975 3.15545 2.43097 3.45557C2.15301 3.73625 2.00245 4.09033 2.00012 4.47251V4.58694V5.9817V8.51647V11.6795V14.9571V17.8632V19.8819V20.4001V20.5081C2.00707 20.9053 2.16458 21.294 2.47265 21.5747C2.77609 21.8532 3.17915 21.9979 3.60305 22H3.80689H4.7172H7.81882H11.2308H13.2762H13.3781C14.249 21.9806 14.9347 21.3307 14.9532 20.521C14.9578 20.2878 14.9532 20.0568 14.9532 19.8236V16.7858V16.1359C14.9532 15.6847 14.527 15.2507 14.0267 15.2723C13.5148 15.2982 13.0909 15.6566 13.0909 16.1402L13.0908 16.1402Z" fill="#9B9B9B"/>
<path d="M7.54273 13.3659H8.88851H12.1198H16.0275H19.4071C19.9537 13.3659 20.5027 13.3723 21.0493 13.3659H21.0725C21.5566 13.3659 22.0222 12.9686 21.999 12.5022C21.9759 12.0337 21.5914 11.6386 21.0725 11.6386H19.7267H16.4954H12.5877H9.20817C8.66152 11.6386 8.11254 11.6321 7.56589 11.6386H7.54273C7.0586 11.6386 6.59302 12.0359 6.61619 12.5022C6.63703 12.9708 7.02155 13.3659 7.54273 13.3659H7.54273Z" fill="#9B9B9B"/>
<path d="M17.1 10.0029C17.4729 10.3505 17.8459 10.6981 18.2188 11.0457C18.8141 11.6006 19.4071 12.1534 20.0024 12.7082C20.139 12.8356 20.278 12.9651 20.4147 13.0925V11.8705C20.0418 12.2181 19.6688 12.5657 19.2959 12.9133C18.7006 13.4682 18.1076 14.0209 17.5123 14.5758C17.3757 14.7032 17.2367 14.8327 17.1 14.9601C16.7572 15.2797 16.7317 15.8669 17.1 16.1821C17.4706 16.4995 18.0451 16.5233 18.4111 16.1821C18.784 15.8345 19.1569 15.4869 19.5299 15.1393C20.1252 14.5844 20.7182 14.0317 21.3134 13.4768C21.4501 13.3495 21.5891 13.2199 21.7257 13.0925C22.0801 12.7622 22.0801 12.2008 21.7257 11.8705C21.3528 11.5229 20.9799 11.1753 20.6069 10.8277C20.0116 10.2728 19.4186 9.72004 18.8234 9.16519C18.6867 9.0378 18.5477 8.90826 18.4111 8.78087C18.0682 8.46133 17.4382 8.43758 17.1 8.78087C16.7595 9.12632 16.734 9.66175 17.1 10.0029Z" fill="#9B9B9B"/>
</svg>
