<svg xmlns="http://www.w3.org/2000/svg" width="98.428" height="68.44" viewBox="0 0 98.428 68.44">
    <defs>
        <style>
            <!-- .prefix__cls-2{fill:#3d4550} -->
        </style>
    </defs>
    <g id="concrete_mixer2">
        <path id="prefix__Trazado_2915" d="M102.228 153.325l-5.809-18.835a1.961 1.961 0 0 0-1.888-1.39H70.988a1.983 1.983 0 0 0-1.971 1.971v24.871H6.871a1.983 1.983 0 0 0-1.971 1.97v10.849a1.983 1.983 0 0 0 1.971 1.971h3.589v.1a9.415 9.415 0 0 0 16.408 6.306.666.666 0 0 1 .456-.207.628.628 0 0 1 .456.207 9.423 9.423 0 0 0 16.408-5.829.616.616 0 0 1 .622-.581h26.282a.632.632 0 0 1 .622.581 9.43 9.43 0 0 0 18.835 0 .616.616 0 0 1 .622-.581h9.169a1.983 1.983 0 0 0 1.971-1.971v-18.851a1.875 1.875 0 0 0-.083-.581zm-82.351 26.987a5.476 5.476 0 1 1 5.476-5.476 5.484 5.484 0 0 1-5.476 5.476zm14.914 0a5.476 5.476 0 1 1 5.476-5.476 5.484 5.484 0 0 1-5.476 5.476zm33.6-9.521H43.669a.654.654 0 0 1-.56-.332 9.414 9.414 0 0 0-15.329-1.929.666.666 0 0 1-.456.207.628.628 0 0 1-.456-.207 9.414 9.414 0 0 0-15.5 2.261H9.464a.611.611 0 0 1-.622-.622v-5.663a.611.611 0 0 1 .622-.622h59.554v6.285a.624.624 0 0 1-.618.622zm15.723-33.127a.611.611 0 0 1 .622-.622h7.9a.649.649 0 0 1 .6.436l4.19 13.649a.612.612 0 0 1-.1.56.619.619 0 0 1-.5.249H84.741a.611.611 0 0 1-.622-.622zm-3.008 42.648a5.476 5.476 0 1 1 5.476-5.476 5.484 5.484 0 0 1-5.471 5.476zm17.258-10.144a.611.611 0 0 1-.622.622H90.01a.654.654 0 0 1-.56-.332 9.423 9.423 0 0 0-15.412-1.846.6.6 0 0 1-.477.207.882.882 0 0 1-.228-.041.605.605 0 0 1-.394-.581v-30.533a.611.611 0 0 1 .622-.622h5.974a.611.611 0 0 1 .622.622v16.242a1.983 1.983 0 0 0 1.971 1.971h15.6a.611.611 0 0 1 .622.622v13.67z" class="prefix__cls-2" data-name="Trazado 2915" transform="translate(-3.882 -115.813)"/>
        <path id="prefix__Trazado_2916" d="M15.864 84.723L43.6 92.128a2.119 2.119 0 0 0 .954.021l12.091-2.759a1.993 1.993 0 0 0 1.473-1.411l5.31-19.914a1.958 1.958 0 0 0-.56-1.95l-9.127-8.422a2.033 2.033 0 0 0-.83-.456l-27.733-7.404a1.768 1.768 0 0 0-.664-.062L7.131 51.1a1.993 1.993 0 0 0-1.763 1.45L.058 72.463A2 2 0 0 0 .846 74.6l14.4 9.853a2.1 2.1 0 0 0 .618.27zM53.2 63.813a.655.655 0 0 1 .436-.436.458.458 0 0 1 .332 0 .683.683 0 0 1 .27.145l4.812 4.439a.639.639 0 0 1 .187.622l-4.5 16.885a.636.636 0 0 1-.456.456l-6.368 1.452a.683.683 0 0 1-.29 0 .591.591 0 0 1-.29-.166.631.631 0 0 1-.145-.6zm-27.3-9.064a.611.611 0 0 1 .768-.436l22.735 6.078a.612.612 0 0 1 .436.768l-6.97 26.074a.611.611 0 0 1-.767.436L19.37 81.59a.611.611 0 0 1-.436-.767zM14.64 79.226a.737.737 0 0 1-.187-.083L4.6 72.422a.62.62 0 0 1-.249-.685l4.357-16.366a.623.623 0 0 1 .56-.456L21.174 54a.706.706 0 0 1 .207.021.637.637 0 0 1 .311.207.674.674 0 0 1 .124.56l-6.41 23.979a.607.607 0 0 1-.394.415.586.586 0 0 1-.372.044z" class="prefix__cls-2" data-name="Trazado 2916" transform="translate(.006 -49.762)"/>
    </g>
</svg>
