<svg width="19" height="20" viewBox="0 0 19 20" fill="none" xmlns="http://www.w3.org/2000/svg">
<path d="M18.1338 10.2772L16.2298 4.35246C16.1896 4.22532 16.1076 4.11407 15.9961 4.03525C15.8846 3.95643 15.7496 3.91427 15.6111 3.91505H7.89321C7.72221 3.91613 7.55853 3.98179 7.4376 4.09782C7.31668 4.21384 7.24825 4.3709 7.24713 4.53498V12.3582H0.00390625V13.598H7.24626V15.5713C7.24673 15.5971 7.24177 15.6228 7.23169 15.6467C7.2216 15.6707 7.2066 15.6924 7.18757 15.7107C7.16854 15.7289 7.14587 15.7433 7.12091 15.753C7.09596 15.7627 7.06924 15.7674 7.04233 15.767H0.00390625V17.0069H7.92577C7.97733 17.0075 8.02679 17.0266 8.0645 17.0603C8.1022 17.0941 8.12546 17.1401 8.12971 17.1894C8.17138 17.9481 8.51483 18.6625 9.08925 19.1854C9.66367 19.7083 10.4253 19.9998 11.2171 19.9998C12.0088 19.9998 12.7704 19.7083 13.3449 19.1854C13.9193 18.6625 14.2627 17.9481 14.3044 17.1894C14.3075 17.1397 14.3304 17.093 14.3683 17.059C14.4063 17.025 14.4564 17.0063 14.5083 17.0069H17.5143C17.6853 17.0058 17.849 16.9401 17.9699 16.8241C18.0908 16.7081 18.1592 16.551 18.1604 16.3869V10.4597C18.1615 10.3979 18.1526 10.3363 18.1338 10.2772ZM12.1973 5.35059C12.1969 5.32477 12.2018 5.29913 12.2119 5.27519C12.222 5.25125 12.237 5.22949 12.256 5.21123C12.2751 5.19297 12.2977 5.17858 12.3227 5.16891C12.3476 5.15923 12.3744 5.15447 12.4013 5.15492H14.9925C15.036 5.15566 15.0783 5.16922 15.1136 5.19378C15.1488 5.21834 15.1753 5.25271 15.1896 5.29222L16.5606 9.58572C16.5701 9.61552 16.572 9.64711 16.5661 9.67776C16.5601 9.70841 16.5464 9.73721 16.5263 9.76167C16.5078 9.78671 16.4834 9.80721 16.4551 9.82149C16.4269 9.83578 16.3954 9.84346 16.3635 9.8439H12.3987C12.3718 9.84434 12.3451 9.83959 12.3201 9.82991C12.2952 9.82023 12.2725 9.80583 12.2535 9.78757C12.2344 9.76931 12.2194 9.74757 12.2093 9.72362C12.1993 9.69968 12.1943 9.67403 12.1948 9.64821L12.1973 5.35059ZM11.2111 18.7664C10.8552 18.7664 10.5073 18.6651 10.2113 18.4754C9.91542 18.2856 9.68478 18.016 9.54858 17.7005C9.41239 17.385 9.37675 17.0378 9.44618 16.7029C9.51561 16.368 9.68699 16.0603 9.93865 15.8189C10.1903 15.5774 10.5109 15.4129 10.86 15.3463C11.2091 15.2797 11.5709 15.3139 11.8997 15.4446C12.2285 15.5752 12.5095 15.7966 12.7072 16.0805C12.905 16.3644 13.0105 16.6983 13.0105 17.0398C13.0105 17.4977 12.8209 17.9368 12.4835 18.2607C12.146 18.5845 11.6883 18.7664 11.2111 18.7664ZM16.8665 14.0034V15.5762C16.8669 15.6021 16.862 15.6277 16.8519 15.6516C16.8418 15.6756 16.8268 15.6973 16.8078 15.7156C16.7887 15.7339 16.7661 15.7483 16.7411 15.7579C16.7162 15.7676 16.6894 15.7724 16.6625 15.7719H14.1262C14.0888 15.7714 14.0521 15.7615 14.02 15.7432C13.9878 15.7248 13.9612 15.6988 13.9428 15.6675C13.7108 15.2409 13.3738 14.875 12.9611 14.6015C12.5485 14.328 12.0725 14.1551 11.5745 14.098C11.0766 14.0408 10.5715 14.101 10.1033 14.2733C9.635 14.4457 9.21759 14.725 8.8872 15.087C8.8679 15.1083 8.84388 15.1252 8.81689 15.1365C8.78991 15.1477 8.76064 15.153 8.73124 15.152C8.7059 15.1508 8.68084 15.1463 8.6567 15.1388C8.618 15.1251 8.58473 15.1002 8.56153 15.0675C8.53833 15.0347 8.52637 14.9959 8.52731 14.9563V5.35059C8.52685 5.32477 8.5318 5.29913 8.54189 5.27519C8.55197 5.25125 8.56697 5.22949 8.586 5.21123C8.60503 5.19297 8.62769 5.17858 8.65265 5.16891C8.6776 5.15923 8.70433 5.15447 8.73124 5.15492H10.6901C10.717 5.15447 10.7437 5.15923 10.7687 5.16891C10.7936 5.17858 10.8163 5.19297 10.8353 5.21123C10.8543 5.22949 10.8693 5.25125 10.8794 5.27519C10.8895 5.29913 10.8945 5.32477 10.894 5.35059V10.4597C10.8951 10.6238 10.9636 10.7809 11.0845 10.8969C11.2054 11.0129 11.3691 11.0786 11.5401 11.0797H16.654C16.6809 11.0792 16.7076 11.084 16.7326 11.0936C16.7575 11.1033 16.7802 11.1177 16.7992 11.136C16.8182 11.1542 16.8332 11.176 16.8433 11.1999C16.8534 11.2239 16.8584 11.2495 16.8579 11.2753V14.0026L16.8665 14.0034Z" fill="white"/>
<path d="M6.50544 3.61766L3.51064 0.971834C3.43315 0.904042 3.34009 0.854749 3.23901 0.827954L0.00428859 0V1.28509L2.08479 1.82034C2.11104 1.82669 2.13568 1.83807 2.15723 1.8538C2.17877 1.86954 2.19677 1.88929 2.21014 1.91188C2.22351 1.93447 2.23199 1.95942 2.23504 1.98523C2.23809 2.01104 2.23566 2.03718 2.2279 2.06207L0 10.0686V11.7648L0.183376 11.8108C0.285754 11.8358 0.39271 11.8381 0.49613 11.8174L4.46092 10.9492C4.57552 10.9237 4.68084 10.869 4.76575 10.7908C4.85065 10.7127 4.912 10.614 4.94335 10.5052L6.68453 4.24089C6.71893 4.13137 6.72037 4.01475 6.68868 3.90448C6.657 3.79421 6.59347 3.69478 6.50544 3.61766ZM5.30581 4.38723L3.83026 9.69862C3.82099 9.73329 3.80218 9.76494 3.7758 9.79025C3.74942 9.81556 3.71644 9.83361 3.6803 9.8425L1.59294 10.2996C1.5616 10.3062 1.52917 10.3062 1.49783 10.2996C1.4616 10.2915 1.42857 10.2735 1.40271 10.2478C1.37843 10.223 1.36126 10.1925 1.35285 10.1593C1.34445 10.1262 1.34509 10.0916 1.35472 10.0587L3.34698 2.89413C3.3572 2.8617 3.3756 2.83219 3.40056 2.80824C3.42553 2.78428 3.45628 2.76662 3.49008 2.75682C3.52507 2.74375 3.5639 2.74375 3.5989 2.75682C3.63065 2.76592 3.65992 2.78164 3.68459 2.80287L5.26211 4.2006C5.28572 4.22622 5.30243 4.25701 5.31079 4.29026C5.31916 4.3235 5.31892 4.35821 5.3101 4.39135L5.30581 4.38723Z" fill="white"/>
</svg>
