<svg width="19" height="21" viewBox="0 0 19 21" fill="none" xmlns="http://www.w3.org/2000/svg">
<path d="M18.1343 11.0293L16.2303 5.18081C16.1901 5.05531 16.1081 4.94549 15.9966 4.86769C15.8851 4.78988 15.7501 4.74827 15.6116 4.74903H7.8937C7.72269 4.7501 7.55901 4.81491 7.43809 4.92945C7.31717 5.04398 7.24874 5.19901 7.24761 5.36099V13.0834H0.00439453V14.3073H7.24675V16.2552C7.24722 16.2807 7.24226 16.306 7.23217 16.3296C7.22209 16.3533 7.20709 16.3748 7.18806 16.3928C7.16903 16.4108 7.14635 16.425 7.1214 16.4346C7.09645 16.4441 7.06973 16.4488 7.04282 16.4484H0.00439453V17.6723H7.92626C7.97782 17.6729 8.02728 17.6917 8.06498 17.725C8.10269 17.7584 8.12594 17.8038 8.1302 17.8525C8.17187 18.6014 8.51532 19.3066 9.08973 19.8228C9.66415 20.3389 10.4258 20.6266 11.2175 20.6266C12.0093 20.6266 12.7709 20.3389 13.3454 19.8228C13.9198 19.3066 14.2632 18.6014 14.3049 17.8525C14.308 17.8034 14.3309 17.7573 14.3688 17.7237C14.4068 17.6902 14.4569 17.6718 14.5088 17.6723H17.5148C17.6858 17.6712 17.8495 17.6064 17.9704 17.4919C18.0913 17.3773 18.1597 17.2223 18.1608 17.0603V11.2094C18.162 11.1484 18.1531 11.0876 18.1343 11.0293ZM12.1978 6.16609C12.1973 6.14061 12.2023 6.1153 12.2124 6.09166C12.2225 6.06803 12.2375 6.04655 12.2565 6.02853C12.2755 6.0105 12.2982 5.9963 12.3232 5.98675C12.3481 5.97719 12.3748 5.9725 12.4018 5.97294H14.993C15.0365 5.97367 15.0788 5.98706 15.114 6.0113C15.1493 6.03555 15.1758 6.06947 15.19 6.10847L16.5611 10.3467C16.5706 10.3761 16.5725 10.4073 16.5665 10.4375C16.5606 10.4678 16.5469 10.4962 16.5268 10.5204C16.5083 10.5451 16.4839 10.5653 16.4556 10.5794C16.4273 10.5935 16.3959 10.6011 16.364 10.6015H12.3992C12.3723 10.602 12.3456 10.5973 12.3206 10.5877C12.2956 10.5782 12.273 10.564 12.2539 10.5459C12.2349 10.5279 12.2199 10.5065 12.2098 10.4828C12.1997 10.4592 12.1948 10.4339 12.1952 10.4084L12.1978 6.16609ZM11.2115 19.4091C10.8556 19.4091 10.5077 19.3092 10.2118 19.1219C9.91591 18.9346 9.68527 18.6684 9.54907 18.357C9.41288 18.0456 9.37724 17.7029 9.44667 17.3722C9.5161 17.0416 9.68748 16.7379 9.93914 16.4996C10.1908 16.2612 10.5114 16.0989 10.8605 16.0331C11.2095 15.9674 11.5714 16.0011 11.9002 16.1301C12.229 16.2591 12.51 16.4776 12.7077 16.7578C12.9055 17.0381 13.011 17.3677 13.011 17.7047C13.011 18.1568 12.8214 18.5903 12.4839 18.9099C12.1465 19.2296 11.6888 19.4091 11.2115 19.4091ZM16.867 14.7075V16.2601C16.8674 16.2856 16.8625 16.3109 16.8524 16.3345C16.8423 16.3581 16.8273 16.3796 16.8083 16.3976C16.7892 16.4157 16.7666 16.4299 16.7416 16.4394C16.7167 16.449 16.6899 16.4537 16.663 16.4532H14.1267C14.0893 16.4527 14.0526 16.4429 14.0205 16.4249C13.9883 16.4068 13.9617 16.381 13.9433 16.3502C13.7112 15.929 13.3743 15.5678 12.9616 15.2979C12.549 15.0279 12.073 14.8573 11.575 14.8008C11.077 14.7444 10.572 14.8038 10.1038 14.974C9.63549 15.1441 9.21808 15.4198 8.88769 15.7772C8.86839 15.7982 8.84437 15.8149 8.81738 15.826C8.7904 15.8371 8.76113 15.8423 8.73173 15.8413C8.70639 15.8401 8.68133 15.8357 8.65719 15.8283C8.61849 15.8148 8.58521 15.7901 8.56202 15.7578C8.53882 15.7255 8.52686 15.6872 8.5278 15.6481V6.16609C8.52733 6.14061 8.53229 6.1153 8.54238 6.09166C8.55246 6.06803 8.56746 6.04655 8.58649 6.02853C8.60552 6.0105 8.62818 5.9963 8.65314 5.98675C8.67809 5.97719 8.70482 5.9725 8.73173 5.97294H10.6906C10.7175 5.9725 10.7442 5.97719 10.7691 5.98675C10.7941 5.9963 10.8168 6.0105 10.8358 6.02853C10.8548 6.04655 10.8698 6.06803 10.8799 6.09166C10.89 6.1153 10.895 6.14061 10.8945 6.16609V11.2094C10.8956 11.3714 10.9641 11.5264 11.085 11.641C11.2059 11.7555 11.3696 11.8203 11.5406 11.8214H16.6545C16.6814 11.8209 16.7081 11.8256 16.733 11.8352C16.758 11.8447 16.7807 11.859 16.7997 11.877C16.8187 11.895 16.8337 11.9165 16.8438 11.9401C16.8539 11.9637 16.8589 11.9891 16.8584 12.0146V14.7067L16.867 14.7075Z" fill="#5585c1"/>
<path d="M6.50544 4.45536L3.51064 1.8436C3.43315 1.77668 3.34009 1.72802 3.23901 1.70157L0.00428859 0.884277V2.15283L2.08479 2.68118C2.11104 2.68745 2.13568 2.69868 2.15723 2.71421C2.17877 2.72974 2.19677 2.74924 2.21014 2.77154C2.22351 2.79384 2.23199 2.81847 2.23504 2.84395C2.23809 2.86943 2.23566 2.89523 2.2279 2.9198L0 10.8232V12.4976L0.183376 12.543C0.285754 12.5677 0.39271 12.5699 0.49613 12.5495L4.46092 11.6925C4.57552 11.6673 4.68084 11.6133 4.76575 11.5362C4.85065 11.459 4.912 11.3616 4.94335 11.2542L6.68453 5.07056C6.71893 4.96245 6.72037 4.84733 6.68868 4.73849C6.657 4.62964 6.59347 4.53149 6.50544 4.45536ZM5.30581 5.21502L3.83026 10.458C3.82099 10.4923 3.80218 10.5235 3.7758 10.5485C3.74942 10.5735 3.71644 10.5913 3.6803 10.6001L1.59294 11.0513C1.5616 11.0578 1.52917 11.0578 1.49783 11.0513C1.4616 11.0433 1.42857 11.0255 1.40271 11.0002C1.37843 10.9756 1.36126 10.9455 1.35285 10.9128C1.34445 10.8801 1.34509 10.8459 1.35472 10.8135L3.34698 3.74115C3.3572 3.70913 3.3756 3.68 3.40056 3.65636C3.42553 3.63271 3.45628 3.61528 3.49008 3.60561C3.52507 3.5927 3.5639 3.5927 3.5989 3.60561C3.63065 3.61458 3.65992 3.6301 3.68459 3.65106L5.26211 5.03079C5.28572 5.05609 5.30243 5.08647 5.31079 5.11929C5.31916 5.15211 5.31892 5.18637 5.3101 5.21908L5.30581 5.21502Z" fill="#5585c1"/>
</svg>
