<svg width="24" height="24" viewBox="0 0 24 24" fill="none" xmlns="http://www.w3.org/2000/svg">
<path d="M0.758181 14.4887L0.752743 14.4887C0.719448 14.4883 0.686449 14.4945 0.655672 14.5069C0.624891 14.5193 0.597006 14.5377 0.573582 14.5608C0.550156 14.5839 0.531652 14.6113 0.519056 14.6413C0.50646 14.6714 0.499998 14.7036 0.5 14.7361V16.9758C0.5 17.0415 0.526087 17.1048 0.573099 17.1518C0.620026 17.1987 0.684015 17.2256 0.751205 17.226H3H3.5V17.726C3.5 18.3858 3.76298 19.0189 4.23163 19.486C4.70034 19.9531 5.33641 20.2158 6 20.2158C6.66359 20.2158 7.29965 19.9531 7.76837 19.486C8.23702 19.0189 8.5 18.3858 8.5 17.726V17.226H9H15H15.5V17.726C15.5 18.3858 15.763 19.0189 16.2316 19.486C16.7003 19.9531 17.3364 20.2158 18 20.2158C18.6636 20.2158 19.2997 19.9531 19.7684 19.486C20.237 19.0189 20.5 18.3858 20.5 17.726V17.226H21H23.2488C23.316 17.2256 23.38 17.1987 23.4269 17.1518C23.4739 17.1048 23.5 17.0415 23.5 16.9758V15.4863V13.2439V11.1229L21.2986 6.743C21.2985 6.74275 21.2984 6.7425 21.2983 6.74225C21.2149 6.57818 21.1152 6.47623 20.9804 6.40667C20.8346 6.33146 20.6095 6.27478 20.2473 6.27478L17.2473 6.27478L17.2464 6.27478C17.1148 6.27454 16.9845 6.30013 16.863 6.35005C16.7414 6.39997 16.6311 6.47321 16.5381 6.56551C16.4452 6.6578 16.3715 6.76735 16.3211 6.88785C16.2709 7.0082 16.2448 7.13717 16.2445 7.26743V13.9887V14.4887H15.7445H4.38142L4.3814 14.4844C4.19685 14.4856 3.98575 14.487 3.74523 14.4887H3.74182H2.75896H2.5404L0.758181 14.4887Z" stroke="#3D4550"/>
<path d="M3.73459 11.4413L10.2601 13.2295C10.3336 13.2488 10.4104 13.2505 10.4847 13.2347L13.3291 12.5686C13.4115 12.5492 13.4872 12.5072 13.5482 12.4473C13.6093 12.3873 13.6533 12.3115 13.6758 12.228L14.9254 7.42097C14.9474 7.33763 14.9467 7.2497 14.9235 7.16671C14.9003 7.08373 14.8553 7.00885 14.7935 6.95022L12.6481 4.91515C12.5925 4.86317 12.5256 4.82541 12.453 4.80493L5.92516 3.01707C5.87448 3.0019 5.82144 2.99677 5.76888 3.00196L1.67955 3.32197C1.58368 3.32964 1.49243 3.3674 1.4182 3.43012C1.34396 3.49284 1.29033 3.57747 1.26459 3.67254L0.0150357 8.47954C-0.00900442 8.57454 -0.00412558 8.67481 0.0290165 8.76688C0.0621586 8.85895 0.121976 8.93841 0.200428 8.99457L3.58835 11.3737C3.63318 11.4043 3.68258 11.4271 3.73459 11.4413ZM12.5213 6.39398C12.5287 6.3692 12.5419 6.34665 12.5597 6.32832C12.5776 6.31 12.5996 6.29647 12.6237 6.28892C12.6488 6.27893 12.6766 6.27893 12.7017 6.28892C12.7251 6.29529 12.7469 6.30703 12.7653 6.32325L13.8977 7.39521C13.9174 7.41398 13.9319 7.43782 13.9396 7.46427C13.9473 7.49072 13.948 7.5188 13.9415 7.5456L12.8827 11.6219C12.876 11.6485 12.8626 11.6727 12.8437 11.6921C12.8248 11.7115 12.8012 11.7253 12.7753 11.7322L11.2768 12.0827C11.2547 12.0875 11.2319 12.0875 11.2098 12.0827C11.1843 12.0761 11.1611 12.0622 11.1429 12.0426C11.1257 12.0233 11.1135 11.9999 11.1077 11.9744C11.1018 11.949 11.1024 11.9224 11.1095 11.8973L12.5213 6.39398ZM6.09617 4.20508C6.10095 4.18579 6.10948 4.16769 6.12126 4.15186C6.13303 4.13604 6.1478 4.12282 6.16468 4.11301C6.18156 4.1032 6.2002 4.09698 6.21948 4.09475C6.23876 4.09252 6.25828 4.09431 6.27687 4.10002L11.6271 5.56752C11.6459 5.57243 11.6636 5.58119 11.679 5.59327C11.6944 5.60535 11.7073 5.62051 11.7169 5.63783C11.7264 5.65515 11.7325 5.67427 11.7347 5.69405C11.7369 5.71384 11.7351 5.73386 11.7295 5.75294L10.0898 12.0487C10.085 12.068 10.0765 12.0861 10.0647 12.102C10.0529 12.1178 10.0382 12.131 10.0213 12.1408C10.0044 12.1506 9.98575 12.1568 9.96648 12.1591C9.9472 12.1613 9.92767 12.1595 9.90909 12.1538L4.55949 10.6853C4.54068 10.6804 4.52304 10.6716 4.50762 10.6595C4.4922 10.6474 4.47932 10.6323 4.46975 10.615C4.46018 10.5976 4.45413 10.5785 4.45195 10.5587C4.44978 10.539 4.45152 10.5189 4.45709 10.4998L6.09617 4.20508ZM3.4468 10.1143C3.43136 10.1097 3.4166 10.103 3.40296 10.0943L1.08389 8.47232C1.0584 8.45464 1.03902 8.42915 1.0285 8.39949C1.01798 8.36983 1.01687 8.33752 1.02532 8.30717L2.05067 4.35444C2.05875 4.32429 2.07579 4.29746 2.09942 4.27771C2.12305 4.25795 2.1521 4.24625 2.18252 4.24423L4.98448 4.02379C5.00093 4.02303 5.01739 4.02477 5.03334 4.02894C5.06211 4.03774 5.08764 4.05521 5.10663 4.07907C5.12094 4.09801 5.131 4.11995 5.13609 4.14333C5.14118 4.16672 5.14118 4.19097 5.13608 4.21435L3.62717 10.004C3.62094 10.0273 3.60923 10.0486 3.59306 10.0661C3.57689 10.0836 3.55677 10.0967 3.53447 10.1043C3.5071 10.1174 3.4763 10.1209 3.4468 10.1143Z" fill="#3D4550"/>
<path d="M18.3133 11.5159H21.471C21.6128 11.5159 21.7092 11.3724 21.6559 11.2409L20.5153 8.42264C20.4369 8.22913 20.2491 8.10248 20.0403 8.10248H18.3133C17.9679 8.10243 17.6226 8.10253 17.6226 8.52916V10.6626C17.6226 11.0039 17.9679 11.5159 18.3133 11.5159Z" stroke="#3D4550"/>
<circle cx="5.99078" cy="17.5757" r="1.05426" stroke="#3D4550"/>
<circle cx="18.0152" cy="17.5757" r="1.05426" stroke="#3D4550"/>
</svg>
