<svg width="488" height="234" viewBox="0 0 488 234" fill="none" xmlns="http://www.w3.org/2000/svg">
<path d="M391.447 124.586C387.162 156.414 321.485 223.047 232.918 223.047C199.303 223.047 206.598 198.501 142.33 204.654C78.0615 210.806 72.5527 153.845 72.5527 117.769C72.5527 88.2383 91.0742 61.547 120.907 42.4288C149.811 23.9057 178.443 27.098 232.918 12.4917C287.393 -2.1147 317.997 46.7682 342.357 59.0098C366.717 71.2514 395.731 92.7577 391.447 124.586Z" fill="#FFF5F6"/>
<path d="M347.105 155.523C348.498 158.389 354.584 161.031 357.627 164.59C361.974 169.673 369.718 174.045 385.753 173.656C419.83 172.83 419.652 143.274 441.124 140.148C462.596 137.023 474.693 154.233 484.39 157.099" stroke="#959595" stroke-width="6" stroke-linecap="round" stroke-linejoin="round"/>
<path d="M347.105 154.524C348.498 157.39 355.262 160.138 358.306 163.697C362.653 168.78 369.722 173.046 385.758 172.657C419.835 171.831 419.656 142.275 441.128 139.149C462.601 136.024 474.697 153.234 484.395 156.101" stroke="#C4C4C4" stroke-width="6" stroke-linecap="round" stroke-linejoin="round"/>
<path d="M304.805 170.34C315.927 173.273 325.082 166.284 327.033 164.022C326.072 179.521 308.422 188.587 297.309 186.979L254.081 174.443L260.036 155.833C269.614 159.116 293.684 167.408 304.805 170.34Z" fill="#707070"/>
<path d="M144.082 120.591C133.573 116.423 129.107 107.192 128.864 104.215C120.69 117.316 133.357 133.246 140.544 137.712L182.785 151.856L187.251 135.479C177.764 132.502 154.591 124.76 144.082 120.591Z" fill="#707070"/>
<rect x="221.344" y="126.547" width="52.1074" height="10.4215" rx="5.21074" transform="rotate(17.8167 221.344 126.547)" fill="#C9C3B7"/>
<rect x="233.258" y="93.7939" width="52.1074" height="10.4215" rx="5.21074" transform="rotate(17.8167 233.258 93.7939)" fill="#C9C3B7"/>
<path d="M140.437 135.368L182.868 151.001L211.154 63.1624C203.214 61.1773 183.909 55.8674 170.212 50.5077C156.515 45.1481 144.655 56.711 140.437 63.1624C138.452 69.3657 133.291 85.9408 128.527 102.615C123.763 119.29 134.482 131.398 140.437 135.368Z" fill="#D7D7D7"/>
<path d="M3.69812 49.9518C2.89179 51.3993 3.4115 53.2263 4.85892 54.0326C6.30633 54.8389 8.13335 54.3192 8.93967 52.8718L3.69812 49.9518ZM43.5157 29.4003L42.4597 32.2083L43.5157 29.4003ZM8.93967 52.8718C11.4717 48.3265 16.0589 41.5078 22.0349 36.6792C27.9663 31.8867 34.8443 29.3445 42.4597 32.2083L44.5716 26.5923C34.2316 22.7038 25.1319 26.4631 18.264 32.0123C11.4408 37.5254 6.40734 45.0886 3.69812 49.9518L8.93967 52.8718ZM42.4597 32.2083C52.7466 36.0768 59.0668 43.9118 64.5681 52.3958C67.2089 56.4685 69.9098 61.1059 72.5147 64.9123C75.1946 68.8283 78.1698 72.4975 81.873 75.087L85.3113 70.1698C82.5008 68.2046 80.015 65.2481 77.4662 61.5237C74.8424 57.6897 72.5466 53.672 69.6023 49.1314C63.9333 40.3887 56.729 31.1642 44.5716 26.5923L42.4597 32.2083ZM81.873 75.087C96.2406 85.1331 113.313 79.7174 120.722 77.6886L119.138 71.9016C111.118 74.0977 96.9987 78.3419 85.3113 70.1698L81.873 75.087Z" fill="#959595"/>
<path d="M4.81353 49.5476C10.2748 39.4516 25.7321 20.9916 43.8715 27.9201C66.5458 36.5807 69.8938 61.5027 82.9933 71.0131C96.0928 80.5234 112.004 75.152 119.871 72.7897" stroke="#C4C4C4" stroke-width="6" stroke-linecap="round" stroke-linejoin="round"/>
<path d="M144.344 118.359C133.625 114.19 129.069 104.96 128.821 101.982C120.484 115.083 133.404 131.013 140.736 135.48L183.166 151.112L188.377 133.246C178.7 130.269 155.063 122.527 144.344 118.359Z" fill="#959595"/>
<rect x="221.344" y="123.569" width="52.1074" height="10.4215" rx="5.21074" transform="rotate(17.8167 221.344 123.569)" fill="#EAEAEA"/>
<rect x="233.258" y="90.8164" width="52.1074" height="10.4215" rx="5.21074" transform="rotate(17.8167 233.258 90.8164)" fill="#EAEAEA"/>
<path d="M323.507 99.3485L280.674 84.8548L254.744 173.417C262.734 175.189 282.173 179.982 296.009 184.974C309.844 189.966 321.391 178.09 325.435 171.529C327.254 165.275 331.97 148.568 336.287 131.772C340.605 114.976 329.566 103.158 323.507 99.3485Z" fill="#D7D7D7"/>
<path d="M305.351 169.34C316.472 172.273 325.627 165.284 327.579 163.022C326.617 178.521 308.582 189.076 297.855 185.979L254.626 173.443L260.581 154.834C270.159 158.116 294.23 166.408 305.351 169.34Z" fill="#959595"/>
<path d="M350.778 168.011C349.024 169.249 334.576 165.465 327.571 163.418L336.51 135.627C342.803 138.934 355.704 146.135 356.959 148.485C358.526 151.421 352.971 166.463 350.778 168.011Z" fill="#C4C4C4"/>
<path d="M353.218 163.419L329.397 157.464L327.164 163.419C334.112 165.156 348.454 168.63 350.24 168.63C352.027 168.63 352.97 165.156 353.218 163.419Z" fill="#959595"/>
<path d="M357.686 155.975C356.941 155.975 356.941 152.253 356.941 152.253L350.986 162.675L352.475 166.397C354.212 163.171 358.281 155.975 357.686 155.975Z" fill="#B4B4B4"/>
<path d="M336.514 135.48C335.858 135.48 335.77 133.991 335.77 133.991L329.07 157.811H330.559C332.09 151.699 337.039 135.48 336.514 135.48Z" fill="#B4B4B4"/>
<path d="M116.41 65.7167C118.197 64.5257 132.539 68.6943 139.486 70.9274L129.809 98.4698C123.606 94.996 110.902 87.4528 109.711 85.0707C108.222 82.0932 114.177 67.2055 116.41 65.7167Z" fill="#C4C4C4"/>
<path d="M131.805 91.5604L110.207 80.3945C108.878 80.3945 109.276 85.109 109.83 87.0941L130.143 98.2599L131.805 91.5604Z" fill="#959595"/>
<path d="M137.401 70.2507C137.401 70.2507 138.555 70.7567 138.831 70.4354C138.869 70.3145 138.89 70.2507 138.89 70.2507C138.89 70.3305 138.869 70.3909 138.831 70.4354C138.27 72.2023 133.836 86.1752 132.19 91.8378L130.7 91.0767L137.401 70.2507Z" fill="#B4B4B4"/>
<path d="M112.806 70.251C112.806 70.251 113.336 70.2867 113.502 70.109C113.534 70.0205 113.552 69.9733 113.552 69.9733C113.555 70.0286 113.536 70.0731 113.502 70.109C113.112 71.1862 110.516 78.3878 109.829 81.1393L109.085 81.1393L112.806 70.251Z" fill="#B4B4B4"/>
<rect x="222.289" width="41.6095" height="8.53529" rx="4.26764" transform="rotate(78.6607 222.289 0)" fill="#3D4550"/>
<rect x="232.254" y="233.62" width="41.6095" height="8.53529" rx="4.26764" transform="rotate(-94.4292 232.254 233.62)" fill="#3D4550"/>
<rect width="41.6095" height="8.53529" rx="4.26764" transform="matrix(0.196619 -0.98048 -0.98048 -0.196619 259.635 42.4756)" fill="#3D4550"/>
<rect width="41.6095" height="8.53529" rx="4.26764" transform="matrix(-0.313153 0.949703 0.949703 0.313153 200.289 186.959)" fill="#3D4550"/>
<rect width="41.6095" height="8.53529" rx="4.26764" transform="matrix(-0.732736 0.680513 0.680513 0.732736 306.293 25.606)" fill="#3D4550"/>
<rect width="41.6095" height="8.53529" rx="4.26764" transform="matrix(0.809287 -0.587414 -0.587414 -0.809287 151.938 198.093)" fill="#3D4550"/>
<path d="M280.916 153.345C289.849 156.819 305.481 162.277 310.692 163.022C312.902 163.338 321.858 160.789 321.858 157.067" stroke="#F5F5F5" stroke-width="0.5" stroke-linecap="round"/>
<path d="M186.379 62.5288C177.283 59.5072 170.766 57.0864 165.524 56.6042C163.301 56.3996 156.603 56.6042 152.881 61.7844" stroke="#F5F5F5" stroke-width="0.5" stroke-linecap="round"/>
<path d="M113.426 78.9058C112.682 79.8983 111.342 82.1811 111.937 83.3721" stroke="#929292" stroke-width="0.5" stroke-linecap="round"/>
<path d="M117.299 80.3945C116.555 81.3871 115.215 83.6699 115.811 84.8609" stroke="#929292" stroke-width="0.5" stroke-linecap="round"/>
<path d="M121.768 83.3721C121.024 84.3646 119.684 86.6474 120.279 87.8384" stroke="#929292" stroke-width="0.5" stroke-linecap="round"/>
<path d="M126.231 86.3491C125.487 87.3416 124.147 89.6244 124.742 90.8155" stroke="#929292" stroke-width="0.5" stroke-linecap="round"/>
<path d="M332.279 160.789C333.024 159.796 334.364 157.513 333.768 156.322" stroke="#929292" stroke-width="0.5" stroke-linecap="round"/>
<path d="M337.49 162.277C338.235 161.285 339.575 159.002 338.979 157.811" stroke="#929292" stroke-width="0.5" stroke-linecap="round"/>
<path d="M343.447 163.766C344.192 162.774 345.532 160.491 344.936 159.3" stroke="#929292" stroke-width="0.5" stroke-linecap="round"/>
<rect x="231.869" y="95.0762" width="43.8003" height="0.539557" transform="rotate(17.8895 231.869 95.0762)" fill="white"/>
<rect x="219.756" y="128.95" width="45.6684" height="0.539557" transform="rotate(17.8895 219.756 128.95)" fill="white"/>
</svg>
