<svg width="200" height="164" viewBox="0 0 200 164" fill="none" xmlns="http://www.w3.org/2000/svg">
<ellipse cx="107.5" cy="152.5" rx="92.5" ry="11.5" fill="#D2D2D2"/>
<path opacity="0.2" d="M53.5145 48.0723L56.3804 124.281C56.6284 130.812 51.5579 136.061 45.7159 135.407L44.338 135.917L48.258 143.936C50.3969 146.464 53.0661 148.489 56.0761 149.869C59.086 151.249 62.3629 151.949 65.674 151.92L171.616 150.04C171.341 150.04 171.052 150.088 170.762 150.088L65.5568 152.279C55.5261 152.499 46.3772 145.954 42.4159 135.745L1.21837 29.4094C-2.59138 19.5647 2.91312 8.37655 12.4478 6.58536L46.3221 0.205935C51.8335 -0.827449 57.3449 2.09358 60.1006 7.50162C60.6785 8.70766 61.568 9.73749 62.6771 10.4847C63.7496 11.2009 65.0046 11.5953 66.294 11.6214L159.919 12.8683C166.587 12.9579 172.319 17.9939 173.959 25.1449L175.158 30.4703H182.736C186.204 30.4722 190.091 31.8338 192.8 33.9994C190.755 32.7576 187.884 31.9213 185.491 31.9239H67.4996C59.5494 31.9239 53.1838 39.2678 53.5145 48.0723Z" fill="#5585c1"/>
<path d="M191.851 48.2265L183.209 128.349C182.04 139.143 174.248 147.415 164.722 148.103H164.641L60.0829 149.999C56.814 150.027 53.5793 149.319 50.6086 147.925C47.638 146.531 47.5636 145.551 45.4539 143L42 135L42.9868 133C48.7865 133.66 51.1692 128.703 50.9244 122.118L48.0823 45.2814C47.756 36.4044 54.0384 29 61.8847 29H178.355C180.716 28.9973 183.033 29.6581 185.052 30.9102C185.052 30.9102 185.093 30.9102 185.106 30.9102C187.571 32.979 189.483 35.6523 190.663 38.6806C191.842 41.7088 192.251 44.9931 191.851 48.2265Z" fill="#D2D2D2"/>
<path d="M196.849 50.2265L188.092 130.349C186.907 141.143 179.011 149.415 169.359 150.103H169.276L63.3241 151.999C60.0116 152.027 56.7338 151.319 53.7235 149.925C50.7132 148.531 48.0443 146.486 45.9065 143.935L42 135.85L43.378 135.336C49.255 135.996 54.2915 130.703 54.0434 124.118L51.1635 47.2814C50.8328 38.4044 57.199 31 65.1499 31H183.173C185.566 30.9973 187.914 31.6581 189.959 32.9102C189.959 32.9102 190.001 32.9102 190.014 32.9102C192.512 34.979 194.45 37.6523 195.645 40.6806C196.84 43.7088 197.254 46.9931 196.849 50.2265Z" fill="#EFEFEF" stroke="#EFEFEF" stroke-width="2" stroke-miterlimit="10"/>
<path d="M114.354 89.3316C116.115 89.3316 117.543 87.9035 117.543 86.1419C117.543 84.3802 116.115 82.9521 114.354 82.9521C112.592 82.9521 111.164 84.3802 111.164 86.1419C111.164 87.9035 112.592 89.3316 114.354 89.3316Z" fill="#3D4550"/>
<path d="M148.033 86.8443C149.795 86.8443 151.223 85.4162 151.223 83.6546C151.223 81.8929 149.795 80.4648 148.033 80.4648C146.272 80.4648 144.844 81.8929 144.844 83.6546C144.844 85.4162 146.272 86.8443 148.033 86.8443Z" fill="#3D4550"/>
<path d="M117.055 103.709L117.117 103.882C117.486 104.803 118.153 105.574 119.011 106.072C124.867 109.82 134.657 109.82 142.662 105.383C143.303 104.981 143.84 104.433 144.231 103.785C144.621 103.136 144.853 102.404 144.908 101.649C144.929 100.92 144.745 100.199 144.378 99.5678C144.01 98.937 143.474 98.4215 142.829 98.0796C142.184 97.7377 141.456 97.5831 140.728 97.6333C139.999 97.6834 139.3 97.9362 138.708 98.3632C135.614 100.63 129.572 103.64 122.862 99.3071C122.194 98.8762 121.409 98.6613 120.614 98.6916C119.819 98.7219 119.052 98.9959 118.418 99.4765C117.785 99.957 117.314 100.621 117.07 101.378C116.826 102.135 116.821 102.949 117.055 103.709V103.709Z" stroke="#3D4550" stroke-width="2" stroke-miterlimit="10"/>
<path d="M114.874 69.5812L100.223 80.8941C99.9014 81.1424 99.8419 81.6045 100.09 81.9261L100.355 82.269C100.603 82.5906 101.065 82.65 101.387 82.4017L116.038 71.0887C116.36 70.8404 116.419 70.3783 116.171 70.0567L115.906 69.7139C115.658 69.3922 115.196 69.3328 114.874 69.5812Z" fill="#3D4550"/>
<path d="M158.739 76.9208L142.677 67.6479C142.325 67.4443 141.874 67.5651 141.67 67.9177L141.453 68.2936C141.25 68.6461 141.371 69.097 141.723 69.3005L157.784 78.5734C158.137 78.777 158.588 78.6562 158.791 78.3036L159.008 77.9277C159.212 77.5752 159.091 77.1243 158.739 76.9208Z" fill="#3D4550"/>
<path d="M94.3209 77.9369L99.0951 86.8929C99.5023 87.6207 99.6556 88.4633 99.5309 89.2878C99.4061 90.1124 99.0104 90.8719 98.4062 91.4467C97.9223 91.8827 97.3175 92.1617 96.6717 92.2465C96.0258 92.3314 95.3695 92.2183 94.7894 91.9221C94.0487 91.597 93.432 91.0426 93.0301 90.3406C92.6283 89.6386 92.4625 88.8261 92.5573 88.0227L93.57 78.0954C93.5764 78.0091 93.6107 77.9272 93.6677 77.8621C93.7247 77.7969 93.8013 77.7521 93.8859 77.7342C93.9706 77.7163 94.0588 77.7264 94.1372 77.763C94.2157 77.7996 94.2801 77.8606 94.3209 77.9369Z" fill="#3D96FF"/>
<path d="M90.1465 74.4165L89.4575 79.6592C89.4126 80.0922 89.224 80.4977 88.9219 80.811C88.6197 81.1244 88.2214 81.3277 87.7903 81.3884C87.4534 81.4262 87.113 81.3608 86.8141 81.2009C86.5151 81.041 86.2718 80.794 86.1163 80.4928C85.8993 80.1317 85.8043 79.7103 85.8452 79.291C85.8862 78.8717 86.0609 78.4766 86.3436 78.1642L89.7882 74.2512C89.8178 74.2185 89.857 74.1961 89.9001 74.1873C89.9433 74.1785 89.9881 74.1837 90.0281 74.2021C90.0681 74.2206 90.1012 74.2513 90.1225 74.2899C90.1437 74.3285 90.1522 74.3728 90.1465 74.4165Z" fill="#3D96FF"/>
</svg>
