<svg width="18" height="21" viewBox="0 0 18 21" fill="none" xmlns="http://www.w3.org/2000/svg">
<path d="M1.07256 20.0003C0.788174 20.0001 0.515497 19.887 0.314403 19.6859C0.11331 19.4848 0.000233202 19.2121 0 18.9277V5.81573C0.000233202 5.53134 0.11331 5.25866 0.314403 5.05757C0.515497 4.85648 0.788174 4.7434 1.07256 4.74316H7.31596C7.62947 4.75077 7.93836 4.82051 8.22473 4.94834C8.51682 5.06206 8.78394 5.23166 9.0111 5.44764L12.0562 8.49272C12.2722 8.71988 12.4418 8.987 12.5555 9.27909C12.6833 9.56546 12.753 9.87435 12.7607 10.1879V18.9286C12.7604 19.213 12.6473 19.4857 12.4463 19.6868C12.2452 19.8879 11.9725 20.0009 11.6881 20.0012L1.07256 20.0003ZM11.239 18.4804V11.2595H7.31596C7.03157 11.2593 6.75889 11.1462 6.5578 10.9451C6.35671 10.7441 6.24363 10.4714 6.2434 10.187V6.26395H1.52078V18.4804H11.239ZM11.0955 9.73964C11.0669 9.67913 11.0301 9.62283 10.9863 9.57232L7.93149 6.51756C7.8816 6.47285 7.82518 6.43604 7.76418 6.40837V9.73964H11.0955Z" fill="#FFFFFF"/>
<path d="M13.6475 15.2607C13.6114 15.2604 13.5768 15.246 13.5512 15.2204C13.5257 15.1949 13.5112 15.1603 13.511 15.1242V13.8772C13.5112 13.8411 13.5257 13.8065 13.5512 13.781C13.5768 13.7554 13.6114 13.741 13.6475 13.7408H16.0911V6.51638H12.1681C11.8837 6.51615 11.611 6.40307 11.41 6.20198C11.2089 6.00088 11.0958 5.72821 11.0955 5.44382V1.5243H6.37293V3.9019C6.3727 3.93803 6.35824 3.97261 6.3327 3.99816C6.30715 4.02371 6.27256 4.03816 6.23644 4.03839H4.98952C4.95339 4.03816 4.9188 4.02371 4.89326 3.99816C4.86771 3.97261 4.85326 3.93803 4.85303 3.9019V1.07256C4.85326 0.78817 4.96634 0.515497 5.16743 0.314403C5.36853 0.11331 5.6412 0.000233202 5.92559 0H12.169C12.4825 0.00760775 12.7914 0.0773468 13.0778 0.205178C13.3698 0.318891 13.637 0.48849 13.8641 0.704473L16.9092 3.74956C17.3332 4.21603 17.5822 4.81514 17.6137 5.4447V14.189C17.6134 14.4734 17.5004 14.746 17.2993 14.9471C17.0982 15.1482 16.8255 15.2613 16.5411 15.2615L13.6475 15.2607ZM15.9476 4.99912C15.919 4.93862 15.8823 4.88232 15.8384 4.83181L12.7836 1.77703C12.7337 1.73233 12.6773 1.69551 12.6163 1.66784V4.99912H15.9476Z" fill="#FFFFFF"/>
</svg>
