<svg width="16" height="16" viewBox="0 0 16 16" fill="none" xmlns="http://www.w3.org/2000/svg">
<path d="M7.46805 5.7645C7.77115 6.11803 8.25948 6.11803 8.56258 5.7645C8.86568 5.41097 8.86568 4.84139 8.56258 4.48786L4.94222 0.265147C4.63912 -0.0883824 4.15079 -0.0883824 3.84769 0.265147L0.227325 4.48786C-0.0757751 4.84139 -0.0757751 5.41097 0.227325 5.7645C0.378875 5.94126 0.580942 6.01982 0.76617 6.01982C0.951398 6.01982 1.15347 5.94126 1.30502 5.7645L3.62878 3.07374V14.9759C3.62878 15.4669 3.96556 15.8794 4.40337 15.8794C4.84119 15.8794 5.17796 15.4866 5.17796 14.9759V3.07374L7.46805 5.7645Z" fill="#9B9B9B"/>
<path d="M15.7872 10.2452C15.4841 9.89172 14.9958 9.89172 14.6927 10.2452L12.3857 12.936V1.03384C12.3857 0.542822 12.049 0.130371 11.6111 0.130371C11.1733 0.130371 10.8366 0.523182 10.8366 1.03384V12.936L8.54646 10.2452C8.24336 9.89172 7.75503 9.89172 7.45193 10.2452C7.14883 10.5988 7.14883 11.1684 7.45193 11.5219L11.0723 15.7446C11.2238 15.9214 11.4259 15.9999 11.6111 15.9999C11.7964 15.9999 11.9984 15.9214 12.15 15.7446L15.7704 11.5219C16.0735 11.1684 16.0735 10.5988 15.7872 10.2452Z" fill="#9B9B9B"/>
</svg>
