<svg xmlns="http://www.w3.org/2000/svg" width="22.799" height="21.172" viewBox="0 0 22.799 21.172">
    <g data-name="Grupo 105">
        <path d="M4.413 21.172A4.417 4.417 0 0 1 .001 16.76v-5.889a.92.92 0 0 1 1.84 0v5.889a2.572 2.572 0 0 0 2.572 2.572h13.976a2.572 2.572 0 0 0 2.572-2.572v-5.794a.92.92 0 0 1 1.84 0v5.794a4.414 4.414 0 0 1-4.412 4.412z" data-name="Trazado 2894"/>
        <path d="M11.401 16.3a.907.907 0 0 1-.646-.274l-4.053-4.049a.921.921 0 0 1 1.3-1.3l2.482 2.482V.92a.92.92 0 0 1 1.84 0v12.24l2.477-2.477a.921.921 0 0 1 1.3 1.3l-4.053 4.044a.93.93 0 0 1-.647.273z" data-name="Trazado 2895"/>
    </g>
</svg>
