<svg xmlns="http://www.w3.org/2000/svg" id="edit" width="18.087" height="18" viewBox="0 0 18.087 18">
    <defs>
        <style>
            .cls-1{fill:#3d4550}
        </style>
    </defs>
    <path id="Trazado_2951" d="M32.523 83.9a.757.757 0 0 0-.755.755v3.857a.982.982 0 0 1-.981.981H18.6a.982.982 0 0 1-.981-.981v-11.32a.982.982 0 0 1 .981-.981h3.857a.755.755 0 1 0 0-1.511H18.6a2.5 2.5 0 0 0-2.5 2.5v11.317a2.5 2.5 0 0 0 2.5 2.492h12.187a2.5 2.5 0 0 0 2.492-2.5v-3.853a.757.757 0 0 0-.756-.756z" class="cls-1" data-name="Trazado 2951" transform="translate(-16.1 -73.009)"/>
    <path id="Trazado_2952" d="M164.423 27.075l-.509-.509a2.284 2.284 0 0 0-3.223 0l-7.749 7.752a.754.754 0 0 0-.194.333l-1.019 3.68a.757.757 0 0 0 .728.96.781.781 0 0 0 .2-.028l3.684-1.022a.755.755 0 0 0 .333-.194l7.752-7.752a2.283 2.283 0 0 0-.003-3.22zm-10.878 10.372l.329-1.182.856.856zm2.62-1.029l-1.591-1.591 5.888-5.888 1.591 1.591zm7.191-7.191l-.232.232-1.591-1.591.232-.232a.761.761 0 0 1 1.081 0l.509.509a.766.766 0 0 1 .001 1.082z" class="cls-1" data-name="Trazado 2952" transform="translate(-147.002 -25.9)"/>
</svg>
