<svg width="194" height="215" viewBox="0 0 194 215" fill="none" xmlns="http://www.w3.org/2000/svg">
<path d="M194.001 12.0478V170.685C193.988 173.869 192.716 176.919 190.462 179.167C188.209 181.416 185.157 182.68 181.974 182.684H148.926V58.3519C148.921 54.8414 147.526 51.4759 145.044 48.9936C142.563 46.5113 139.199 45.1149 135.69 45.1106H20.375V12.0478C20.3729 10.4651 20.6829 8.89746 21.2874 7.43479C21.8918 5.97213 22.7788 4.64315 23.8975 3.52399C25.0161 2.40483 26.3445 1.51748 27.8066 0.912773C29.2686 0.308067 30.8355 -0.00211223 32.4176 1.08252e-05H181.974C183.555 9.40441e-06 185.12 0.31175 186.58 0.917405C188.04 1.52306 189.367 2.41075 190.484 3.5297C191.601 4.64865 192.486 5.97691 193.09 7.43852C193.693 8.90013 194.003 10.4664 194.001 12.0478Z" fill="#EFEFEF"/>
<g filter="url(#filter0_d_2318_3591)">
<path d="M160.39 13.791H13.2355C5.92575 13.791 0 19.7178 0 27.0288V183.238C0 190.549 5.92575 196.475 13.2355 196.475H160.39C167.7 196.475 173.626 190.549 173.626 183.238V27.0288C173.626 19.7178 167.7 13.791 160.39 13.791Z" fill="white"/>
</g>
<path d="M148.22 33.418H23.8949C20.704 33.418 18.1172 36.0135 18.1172 39.2152V171.051C18.1172 174.252 20.704 176.848 23.8949 176.848H148.22C151.411 176.848 153.998 174.252 153.998 171.051V39.2152C153.998 36.0135 151.411 33.418 148.22 33.418Z" fill="white" stroke="#5585c1" stroke-width="1.50979" stroke-miterlimit="10"/>
<path d="M112.42 64.8752C111.241 64.2846 109.906 64.0797 108.604 64.2895C107.302 64.4994 106.099 65.1133 105.166 66.0444L42.7564 131.898L18.409 97.6345V169.79C18.409 173.124 18.2379 172.899 20.5955 175.257C22.9532 177.614 26.5541 176.35 29.8884 176.35H145.229C145.229 176.35 151.242 176.896 152.881 175.257C155.068 173.07 155.068 169.79 155.068 169.79V100.914L112.42 64.8752Z" fill="#5585c1" fill-opacity="0.2"/>
<path d="M102.106 114.63C103.614 114.63 104.836 113.407 104.836 111.899C104.836 110.391 103.614 109.169 102.106 109.169C100.597 109.169 99.375 110.391 99.375 111.899C99.375 113.407 100.597 114.63 102.106 114.63Z" fill="#5585c1"/>
<path d="M103.574 127.08V127.23C103.842 128.038 104.376 128.732 105.09 129.196C109.925 132.691 118.304 133.154 125.381 129.735C125.951 129.422 126.439 128.978 126.804 128.441C127.17 127.903 127.403 127.286 127.485 126.641C127.536 126.018 127.412 125.394 127.128 124.838C126.843 124.281 126.409 123.816 125.874 123.493C125.339 123.17 124.724 123.003 124.1 123.01C123.475 123.018 122.864 123.199 122.337 123.535C119.582 125.326 114.258 127.606 108.735 123.535C108.178 123.138 107.513 122.922 106.83 122.916C106.146 122.91 105.477 123.114 104.914 123.501C104.351 123.888 103.92 124.439 103.68 125.079C103.441 125.719 103.404 126.418 103.574 127.08Z" stroke="#5585c1" stroke-width="1.50979" stroke-miterlimit="10"/>
<path d="M95.128 105.643C96.9791 104.505 98.8311 100.867 106.051 103.868" stroke="#5585c1" stroke-width="1.58838" stroke-linecap="round"/>
<path d="M121 106C123.63 103.69 127.61 102.259 132 103.402" stroke="#5585c1" stroke-width="1.58838" stroke-linecap="round"/>
<path d="M120.049 114.009C122.163 113.133 127.128 111.954 130.082 114.238" stroke="#5585c1" stroke-width="1.58838" stroke-linecap="round"/>
<path d="M120.051 113.454C121.572 112.32 125.697 110.325 130.032 111.416" stroke="#5585c1" stroke-width="1.2" stroke-linecap="round"/>
<defs>
<filter id="filter0_d_2318_3591" x="0" y="13.791" width="185.703" height="200.802" filterUnits="userSpaceOnUse" color-interpolation-filters="sRGB">
<feFlood flood-opacity="0" result="BackgroundImageFix"/>
<feColorMatrix in="SourceAlpha" type="matrix" values="0 0 0 0 0 0 0 0 0 0 0 0 0 0 0 0 0 0 127 0" result="hardAlpha"/>
<feOffset dx="6.03915" dy="12.0783"/>
<feGaussianBlur stdDeviation="3.01958"/>
<feComposite in2="hardAlpha" operator="out"/>
<feColorMatrix type="matrix" values="0 0 0 0 0 0 0 0 0 0 0 0 0 0 0 0 0 0 0.1 0"/>
<feBlend mode="normal" in2="BackgroundImageFix" result="effect1_dropShadow_2318_3591"/>
<feBlend mode="normal" in="SourceGraphic" in2="effect1_dropShadow_2318_3591" result="shape"/>
</filter>
</defs>
</svg>
