<svg width="160" height="163" viewBox="0 0 160 163" fill="none" xmlns="http://www.w3.org/2000/svg">
<ellipse cx="76.3969" cy="129.556" rx="47.5766" ry="7.34922" fill="#9B9B9B"/>
<path d="M16.4153 160.594C16.4153 160.594 54.4998 128.876 54.786 128.876C60.8279 129.998 80.4619 132.334 98.1542 128.497C98.5023 128.497 130.39 154.652 137.778 160.795M16.4153 160.594L156.445 126.253C157.639 126.856 158.552 127.898 158.994 129.16C159.435 130.423 159.37 131.807 158.812 133.022L158.186 134.778M16.4153 160.594C14.4581 161.576 11.5262 161.986 10.3039 160.16L16.4153 160.594ZM137.778 160.795C138.779 161.615 140.034 162.064 141.329 162.063C142.411 162.065 143.477 161.791 144.424 161.268C145.372 160.744 146.17 159.987 146.744 159.07M137.778 160.795L138.33 160.121C138.33 160.122 138.331 160.122 138.331 160.123M137.778 160.795L138.335 160.125C138.334 160.124 138.333 160.123 138.331 160.123M146.744 159.07C151.303 151.345 155.134 143.213 158.186 134.778M146.744 159.07L145.994 158.627C145.996 158.624 145.998 158.62 146 158.617M146.744 159.07L146.006 158.608C146.004 158.611 146.002 158.614 146 158.617M158.186 134.778L157.366 134.486L157.366 134.485C154.334 142.864 150.529 150.943 146 158.617M158.186 134.778L157.367 134.482L157.992 132.73L158.005 132.694L158.021 132.659C158.485 131.649 158.539 130.497 158.172 129.448C157.805 128.399 157.046 127.533 156.054 127.031M156.054 127.031C155.454 126.731 154.793 126.572 154.122 126.567C153.376 126.567 152.644 126.761 151.996 127.13C151.353 127.496 150.815 128.021 150.434 128.655L150.214 129.065C150.214 129.066 150.213 129.067 150.213 129.068C147.295 134.606 145.447 139.655 143.226 145.722C142.405 147.961 141.535 150.34 140.54 152.933C140.375 153.426 140.06 153.854 139.638 154.158C139.211 154.465 138.698 154.629 138.172 154.626C138.17 154.626 138.167 154.626 138.164 154.626L138.173 153.755C137.823 153.759 137.482 153.645 137.206 153.43L156.054 127.031ZM156.054 127.031L136.676 154.121C132.91 151.269 123.798 144.364 115.623 138.144C111.534 135.033 107.679 132.092 104.844 129.915C103.427 128.827 102.263 127.928 101.452 127.293C101.047 126.977 100.726 126.723 100.505 126.544C100.396 126.455 100.304 126.38 100.238 126.322C100.206 126.294 100.169 126.262 100.136 126.229C100.121 126.215 100.093 126.186 100.062 126.15C100.047 126.133 100.018 126.097 99.9879 126.049C99.9761 126.03 99.8786 125.884 99.8565 125.67C99.1357 118.819 97.4541 100.872 97.2681 82.2673L97.2681 82.265C97.2598 81.1404 97.6903 80.0568 98.4682 79.2445C99.2461 78.4323 100.31 77.9553 101.434 77.915L101.439 77.9148L143.082 76.6539L143.083 76.6538C143.732 76.6353 144.349 76.371 144.809 75.9145C145.27 75.4585 145.54 74.8446 145.565 74.1971C145.761 68.6825 146 56.626 145.066 42.9998C144.131 29.3587 142.024 14.218 137.562 2.49691C137.379 2.03018 137.06 1.62922 136.647 1.34629C136.232 1.06289 135.742 0.911103 135.24 0.910767L135.23 0.91076V0.910701C129.248 0.83733 112.183 0.756197 92.6396 1.73936C73.0793 2.72336 51.1045 4.77073 35.2729 8.93532L35.2706 8.93594C34.7229 9.07838 34.241 9.40502 33.9058 9.86094C33.5707 10.3169 33.4027 10.8743 33.4301 11.4395C34.1277 25.0725 38.0732 87.5291 52.9996 126.437L53.0574 126.587V126.748C53.0574 126.946 52.99 127.089 52.9691 127.132C52.9398 127.192 52.9095 127.237 52.8926 127.261C52.8583 127.31 52.8251 127.347 52.8086 127.365C52.7874 127.388 52.7653 127.41 52.7446 127.43C52.7298 127.444 52.7157 127.457 52.7032 127.469C52.6391 127.528 52.554 127.602 52.4559 127.684C52.2568 127.852 51.9695 128.086 51.6085 128.375C50.8848 128.955 49.8461 129.772 48.5817 130.76C46.0521 132.735 42.609 135.398 38.9529 138.215C31.6402 143.851 23.4701 150.11 20.039 152.737C19.7499 152.959 19.4085 153.104 19.0475 153.156C18.6853 153.209 18.3156 153.168 17.974 153.037C17.6324 152.905 17.3303 152.688 17.097 152.406L17.7677 151.851L17.097 152.406C16.8697 152.131 16.715 151.804 16.6469 151.455C16.6253 151.364 16.5754 151.145 16.5037 150.829C16.1255 149.166 15.1396 144.828 14.4813 142.581L14.4805 142.579C13.1948 138.137 11.897 134.009 10.4565 130.999C9.73557 129.493 9.00411 128.321 8.26025 127.537C7.51955 126.756 6.84174 126.436 6.20378 126.436C4.32704 126.436 2.78954 127.093 1.87 128.287C0.955262 129.475 0.519732 131.366 1.20763 134.11C1.91078 136.915 3.72025 142.351 5.69296 147.596C6.67734 150.213 7.69732 152.77 8.63358 154.913C9.57775 157.074 10.4135 158.761 11.027 159.675L11.0274 159.676C11.4173 160.258 12.1178 160.557 13.0862 160.559C14.0223 160.562 15.0711 160.278 15.9375 159.858L15.9674 159.834L16.286 159.568L17.4953 158.562C18.5373 157.694 20.0262 156.455 21.8137 154.968C25.3888 151.995 30.1586 148.03 34.9374 144.065C39.716 140.1 44.5044 136.134 48.1163 133.16C49.9221 131.673 51.4352 130.432 52.5065 129.563C53.0416 129.128 53.4693 128.785 53.7689 128.548C53.9178 128.431 54.0402 128.336 54.1302 128.269C54.1483 128.255 54.1667 128.242 54.1848 128.229C54.2103 128.21 54.2354 128.192 54.2589 128.177C54.2773 128.164 54.3084 128.144 54.3448 128.123C54.362 128.114 54.3961 128.095 54.4402 128.076L54.442 128.075C54.4622 128.066 54.6016 128.005 54.786 128.005H54.8662L54.9449 128.02C60.9328 129.132 80.4375 131.448 97.9696 127.646L98.0608 127.626H98.1542C98.3 127.626 98.41 127.663 98.4422 127.674C98.4894 127.691 98.5266 127.708 98.5478 127.718C98.5677 127.728 98.5861 127.737 98.6021 127.746C98.6206 127.757 98.636 127.766 98.6471 127.773C98.6914 127.8 98.7372 127.831 98.7777 127.859C98.8619 127.918 98.972 128 99.1016 128.098C99.3632 128.297 99.7327 128.585 100.194 128.95C101.117 129.68 102.423 130.728 104.001 132.002C107.156 134.552 111.407 138.015 115.877 141.668C124.814 148.973 134.632 157.047 138.331 160.123M138.331 160.123C139.177 160.815 140.236 161.193 141.329 161.193H141.33C142.265 161.194 143.185 160.958 144.003 160.506C144.818 160.055 145.505 159.405 146 158.617" fill="white" stroke="#D2D2D2" stroke-width="1.74135"/>
<path d="M71.4177 45.7381C73.8359 45.7381 75.7962 43.7778 75.7962 41.3595C75.7962 38.9413 73.8359 36.981 71.4177 36.981C68.9994 36.981 67.0391 38.9413 67.0391 41.3595C67.0391 43.7778 68.9994 45.7381 71.4177 45.7381Z" fill="#9B9B9B"/>
<path d="M111.558 43.5492C113.977 43.5492 115.937 41.5888 115.937 39.1706C115.937 36.7524 113.977 34.792 111.558 34.792C109.14 34.792 107.18 36.7524 107.18 39.1706C107.18 41.5888 109.14 43.5492 111.558 43.5492Z" fill="#9B9B9B"/>
<path d="M73.5336 23.9383C73.256 23.5751 72.7365 23.5057 72.3733 23.7833C72.3733 23.7833 69.9207 27.6406 67.7049 29.4695C65.0668 31.6471 59.853 33.3523 59.853 33.3523C59.4898 33.6299 59.4204 34.1494 59.698 34.5126L59.7027 34.5188C59.9803 34.882 60.4997 34.9514 60.863 34.6738C60.863 34.6738 66.1888 32.8874 68.8653 30.6299C70.9959 28.8329 73.3832 25.1048 73.3832 25.1048C73.7465 24.8272 73.8159 24.3077 73.5383 23.9445L73.5336 23.9383Z" fill="#9B9B9B"/>
<path d="M123.482 33.4158C123.751 33.0461 123.669 32.5284 123.299 32.2596C123.299 32.2596 118.902 31.0109 116.516 29.4098C113.676 27.5035 110.552 22.994 110.552 22.994C110.183 22.7252 109.665 22.8071 109.396 23.1769L109.392 23.1831C109.123 23.5529 109.205 24.0706 109.574 24.3394C109.574 24.3394 112.808 28.9331 115.736 30.8533C118.066 32.3819 122.321 33.6049 122.321 33.6049C122.691 33.8737 123.208 33.7919 123.477 33.4221L123.482 33.4158Z" fill="#9B9B9B"/>
<path d="M105.123 56.5273L105.078 56.3799C104.766 55.5723 104.187 54.8959 103.438 54.4636C98.3737 51.1581 89.8644 51.0894 82.871 54.9012C82.31 55.2468 81.8381 55.7195 81.4936 56.2812C81.149 56.8429 80.9415 57.4777 80.8876 58.1344C80.8619 58.7723 81.016 59.4046 81.3325 59.959C81.6489 60.5134 82.1149 60.9677 82.6772 61.2699C83.2395 61.5722 83.8755 61.7102 84.5125 61.6682C85.1495 61.6263 85.7619 61.406 86.2797 61.0326C88.9798 59.0894 94.2613 56.5093 100.048 60.37C100.63 60.7562 101.319 60.9519 102.017 60.93C102.716 60.9081 103.39 60.6697 103.948 60.2478C104.505 59.8259 104.917 59.2412 105.128 58.5747C105.338 57.9082 105.337 57.1928 105.123 56.5273Z" fill="#9B9B9B" stroke="#9B9B9B" stroke-width="1.54721" stroke-miterlimit="10"/>
</svg>
