<svg width="322" height="322" viewBox="0 0 322 322" fill="none" xmlns="http://www.w3.org/2000/svg">
<circle cx="161" cy="161" r="161" fill="#F4F5F7"/>
<ellipse cx="156.772" cy="188.193" rx="59.663" ry="9.21624" fill="#333333" fill-opacity="0.4"/>
<path d="M237.741 219.421L237.734 219.426C236.756 220.065 235.595 220.365 234.43 220.28C233.271 220.196 232.172 219.735 231.3 218.968L184.916 184.017L184.898 184.004L184.882 183.989C184.254 183.423 183.85 182.651 183.743 181.813L183.742 181.81L177.033 127.159L177.033 127.156C176.919 126.172 177.033 125.176 177.364 124.243C177.696 123.311 178.236 122.466 178.945 121.775C179.653 121.083 180.51 120.563 181.451 120.255C182.392 119.946 183.39 119.857 184.371 119.994L184.301 120.49L184.371 119.994L225.917 125.813L237.741 219.421ZM237.741 219.421L237.749 219.415M237.741 219.421L237.749 219.415M237.749 219.415C240.51 217.464 243.494 215.847 246.636 214.599C246.923 214.502 247.311 214.359 247.777 214.189C248.797 213.814 250.186 213.305 251.68 212.847C252.761 212.515 253.87 212.22 254.883 212.037C255.906 211.854 256.791 211.793 257.442 211.901C258.486 212.075 259.197 212.408 259.661 212.804C260.118 213.194 260.357 213.664 260.434 214.167C260.592 215.198 260.072 216.449 259.116 217.398L259.116 217.398L259.108 217.406C258.034 218.522 255.648 220.109 252.662 221.604C249.69 223.093 246.182 224.461 242.898 225.165L242.898 225.165C240.049 225.777 238.017 226.138 236.588 226.35C235.763 226.46 234.923 226.391 234.127 226.146C233.33 225.901 232.596 225.486 231.975 224.93L231.961 224.918L231.946 224.906L184.383 188.287C183.746 187.719 183.003 187.283 182.198 187.003C181.386 186.72 180.526 186.602 179.668 186.655L179.657 186.656L134.988 190.417C134.986 190.418 134.984 190.418 134.982 190.418C133.574 190.501 132.232 191.04 131.157 191.952L131.155 191.954L86.7495 230.09L86.7199 230.115L86.6947 230.145C85.8213 231.17 84.6366 231.881 83.3213 232.17C82.0102 232.458 80.641 232.311 79.4213 231.751C75.0985 229.47 70.7737 226.129 67.5687 222.88C65.9648 221.255 64.653 219.664 63.7637 218.254C62.8599 216.82 62.4461 215.655 62.5056 214.856L62.5056 214.856C62.5746 213.923 63.2349 213.215 64.2353 212.803C65.2379 212.389 66.4905 212.321 67.5205 212.627L67.5223 212.627C70.151 213.397 73.2602 215.349 76.0504 217.507C78.8327 219.659 81.2421 221.972 82.469 223.408L82.472 223.411C83.1107 224.145 84.0138 224.596 84.9841 224.667C85.9544 224.738 86.9134 224.422 87.6517 223.788L87.6529 223.787L127.87 189.05L127.873 189.047C128.396 188.588 128.769 187.984 128.947 187.312C129.124 186.639 129.097 185.93 128.869 185.273C109.725 129.845 117.605 67.6398 121.692 41.185C121.931 39.6465 122.481 38.1729 123.309 36.8546C124.137 35.5361 125.226 34.4005 126.508 33.5175C127.79 32.6345 129.239 32.0226 130.767 31.7192C132.294 31.4159 133.867 31.4275 135.389 31.7533L135.389 31.7534L238.07 53.6866L238.071 53.6867C240.957 54.2997 243.496 56.002 245.159 58.4393C246.822 60.8767 247.481 63.8615 246.999 66.7725L246.999 66.7727M237.749 219.415L246.999 66.7727M246.999 66.7727L238.823 116.32C238.334 119.273 236.712 121.918 234.3 123.691C231.89 125.465 228.881 126.226 225.917 125.813L246.999 66.7727ZM130.472 181.88C130.858 183.31 131.724 184.563 132.923 185.431C134.122 186.299 135.583 186.729 137.06 186.651C137.061 186.651 137.062 186.651 137.063 186.65L176.322 184.933L176.326 184.933C178.243 184.835 179.554 183.853 180.297 182.431C181.026 181.038 181.2 179.249 180.96 177.485C180.96 177.484 180.959 177.482 180.959 177.481L174.841 125.79C174.841 125.789 174.841 125.789 174.841 125.788C174.534 122.963 175.252 120.839 176.655 119.513C178.06 118.184 180.246 117.569 183.053 117.962L183.057 117.963L227.584 123.794C227.585 123.794 227.586 123.794 227.587 123.794C229.377 124.044 231.524 123.227 233.256 121.996C234.986 120.765 236.455 119.011 236.75 117.223L245.277 65.544C245.572 63.7655 244.733 61.6407 243.488 59.9236C242.241 58.2044 240.475 56.7381 238.728 56.3823C238.727 56.3822 238.726 56.3821 238.726 56.382L134.643 34.65L134.641 34.6496C132.874 34.2875 130.732 35.1442 129.009 36.4036C127.279 37.667 125.797 39.4619 125.448 41.1983L125.448 41.199C111.375 111.793 125.166 162.406 130.122 180.594C130.244 181.042 130.361 181.471 130.472 181.88ZM130.472 181.88L130.954 181.75L130.472 181.88C130.472 181.88 130.472 181.88 130.472 181.88Z" fill="white" stroke="#D2D2D2"/>
<path d="M244.735 65.4248L236.208 117.104C235.681 120.302 230.828 123.713 227.605 123.261L183.074 117.43C177.255 116.615 173.656 119.938 174.296 125.807L180.415 177.511C180.817 180.947 179.713 184.245 176.252 184.433L137.038 186.151C135.674 186.225 134.325 185.828 133.218 185.026C132.111 184.225 131.313 183.069 130.956 181.75C126.354 164.783 111.543 113.517 125.94 41.297C126.567 38.1744 131.42 34.5001 134.542 35.1396L238.628 56.8722C241.725 57.4741 245.262 62.252 244.735 65.4248Z" fill="white"/>
<path d="M204.37 66.0263C210.001 66.9668 221.099 65.7629 221.614 81.0748C221.79 81.4394 222.091 81.7287 222.463 81.8901C222.834 82.0515 223.252 82.0743 223.638 81.9544C224.025 81.8346 224.357 81.5799 224.572 81.2368C224.787 80.8936 224.872 80.4846 224.811 80.0841C225.075 73.5505 221.588 62.8661 204.86 63.142C204.107 63.0918 202.891 65.788 204.37 66.0263Z" fill="#9B9B9B"/>
<path d="M174.12 57.9381C170.772 62.5529 166.884 72.9866 153.014 66.7164C152.613 66.7161 152.224 66.8588 151.917 67.1189C151.611 67.379 151.407 67.7396 151.342 68.1361C151.278 68.5327 151.356 68.9394 151.564 69.2836C151.771 69.6277 152.094 69.8868 152.475 70.0145C158.206 73.1747 169.317 74.83 176.553 59.7439C176.866 59.0165 174.998 56.7216 174.12 57.9381Z" fill="#9B9B9B"/>
<path d="M167.854 82.7302C169.094 82.7302 170.099 81.7252 170.099 80.4855C170.099 79.2457 169.094 78.2407 167.854 78.2407C166.614 78.2407 165.609 79.2457 165.609 80.4855C165.609 81.7252 166.614 82.7302 167.854 82.7302Z" fill="#9B9B9B"/>
<path d="M203.901 89.4397C205.141 89.4397 206.146 88.4347 206.146 87.1949C206.146 85.9552 205.141 84.9502 203.901 84.9502C202.661 84.9502 201.656 85.9552 201.656 87.1949C201.656 88.4347 202.661 89.4397 203.901 89.4397Z" fill="#9B9B9B"/>
<path d="M158.745 94.3302C157.976 94.7749 157.39 95.477 157.089 96.3124C156.789 97.1478 156.793 98.0625 157.102 98.8949C157.58 100.624 158.69 102.11 160.212 103.058C164.104 105.631 168.493 107.356 173.095 108.121C177.697 108.886 182.409 108.673 186.923 107.498C187.933 107.249 188.851 106.719 189.57 105.968C190.29 105.218 190.781 104.278 190.986 103.259C191.151 102.501 191.044 101.708 190.684 101.021C190.325 100.333 189.735 99.7937 189.017 99.4969C187.608 98.812 186.009 98.6221 184.478 98.9576C181.058 99.6306 177.538 99.6076 174.127 98.8901C170.716 98.1727 167.485 96.7754 164.626 94.7817C163.801 94.1327 162.801 93.7434 161.754 93.663C160.707 93.5827 159.66 93.8149 158.745 94.3302Z" stroke="#9B9B9B" stroke-width="2" stroke-miterlimit="10"/>
<path d="M112.469 237.302L112.471 237.303C113.208 237.601 113.802 238.173 114.128 238.898C114.454 239.623 114.489 240.446 114.223 241.196L114.215 241.218L114.209 241.239L106.29 267.288C106.148 267.682 105.928 268.044 105.642 268.351C105.352 268.662 105.001 268.911 104.61 269.081C104.219 269.251 103.798 269.338 103.372 269.338C102.946 269.338 102.525 269.25 102.134 269.08L102.124 269.076L102.114 269.072L82.6498 261.088C82.2548 260.914 81.9005 260.66 81.6099 260.34C81.317 260.019 81.0953 259.639 80.9594 259.226C80.8234 258.813 80.7763 258.376 80.8211 257.943C80.8659 257.51 81.0014 257.092 81.2189 256.716C81.219 256.716 81.2191 256.716 81.2192 256.715L94.9377 233.065L94.9377 233.065L94.9401 233.061C95.3114 232.414 95.9046 231.923 96.6098 231.679C97.3148 231.436 98.0842 231.455 98.7758 231.735C98.7761 231.735 98.7763 231.735 98.7766 231.735L112.469 237.302Z" fill="#D2D2D2" stroke="#9B9B9B" stroke-width="2"/>
<path d="M208.355 236.532L208.355 236.532L208.362 236.527L220.605 228.256C221.223 227.858 221.963 227.693 222.692 227.792C223.424 227.891 224.096 228.249 224.586 228.801L224.586 228.801L224.591 228.806L242.898 249.12C242.899 249.12 242.899 249.121 242.899 249.121C243.189 249.444 243.407 249.825 243.54 250.238C243.673 250.651 243.718 251.088 243.67 251.52C243.623 251.952 243.485 252.369 243.265 252.744C243.046 253.119 242.75 253.443 242.396 253.696L242.38 253.707L242.365 253.719L227.46 265.292C227.116 265.533 226.726 265.7 226.315 265.785C225.897 265.871 225.465 265.87 225.048 265.781C224.63 265.692 224.236 265.517 223.889 265.268C223.542 265.019 223.251 264.701 223.034 264.333L223.021 264.312L223.007 264.291L207.396 240.685C206.996 240.005 206.871 239.198 207.046 238.428C207.222 237.651 207.691 236.972 208.355 236.532Z" fill="#D2D2D2" stroke="#9B9B9B" stroke-width="2"/>
<path d="M148.009 244.194L148.012 244.194C148.81 244.26 149.551 244.631 150.081 245.23C150.611 245.829 150.889 246.609 150.857 247.409L150.856 247.43L150.856 247.451L150.919 275.016C150.898 275.434 150.793 275.843 150.61 276.219C150.424 276.601 150.16 276.941 149.837 277.216C149.513 277.492 149.136 277.698 148.729 277.821C148.322 277.944 147.894 277.982 147.472 277.932C147.472 277.932 147.472 277.932 147.472 277.932L127.698 275.587C127.697 275.587 127.697 275.587 127.696 275.587C127.263 275.535 126.846 275.391 126.473 275.167C126.099 274.942 125.776 274.641 125.526 274.283C125.277 273.925 125.105 273.518 125.024 273.089C124.942 272.66 124.952 272.219 125.052 271.794L125.058 271.772L125.062 271.749L130.07 245.179C130.263 244.497 130.685 243.901 131.265 243.493C131.854 243.078 132.57 242.882 133.289 242.94C133.29 242.94 133.29 242.94 133.291 242.94L148.009 244.194Z" fill="#D2D2D2" stroke="#9B9B9B" stroke-width="2"/>
<path d="M189.92 240.903L175.223 242.52C174.177 242.637 173.217 243.152 172.54 243.957C171.863 244.762 171.521 245.797 171.586 246.847L174.558 274.436C174.595 274.995 174.748 275.541 175.006 276.038C175.264 276.536 175.622 276.975 176.058 277.328C176.493 277.682 176.997 277.941 177.537 278.091C178.077 278.24 178.643 278.277 179.198 278.198L198.924 275.477C199.488 275.395 200.029 275.196 200.512 274.893C200.996 274.591 201.41 274.19 201.73 273.718C202.05 273.246 202.268 272.713 202.37 272.152C202.472 271.591 202.456 271.015 202.322 270.46L194.334 243.975C194.094 243.016 193.515 242.176 192.703 241.611C191.892 241.046 190.903 240.794 189.92 240.903V240.903Z" fill="#EFEFEF" stroke="#D2D2D2" stroke-width="2" stroke-miterlimit="10" stroke-dasharray="4 4"/>
<path d="M185.1 253.408L185.784 258.156C185.91 259.031 185.432 259.871 184.723 260.399C182.83 261.81 180.937 264.514 182.643 268.05C184.54 271.979 190.778 270.618 191.645 267.546" stroke="#3D96FF" stroke-width="2" stroke-linecap="round"/>
<circle cx="183.985" cy="248.289" r="1.54832" transform="rotate(1.72282 183.985 248.289)" fill="#3D96FF"/>
<path d="M214.581 279.552L208.778 275.692C208.65 275.607 208.427 275.719 208.279 275.941L208.121 276.179C207.972 276.402 207.956 276.651 208.083 276.736L213.886 280.597C214.013 280.681 214.237 280.569 214.385 280.347L214.543 280.109C214.691 279.886 214.708 279.637 214.581 279.552Z" fill="#3D96FF"/>
<path opacity="0.8" d="M205.355 286.68L201.467 280.895C201.382 280.768 201.133 280.787 200.91 280.936L200.674 281.095C200.452 281.244 200.341 281.468 200.426 281.595L204.314 287.38C204.4 287.507 204.649 287.489 204.871 287.34L205.108 287.181C205.33 287.031 205.441 286.807 205.355 286.68Z" fill="#3D96FF"/>
<path d="M193.837 291.049L192.762 284.162C192.738 284.011 192.504 283.922 192.24 283.963L191.958 284.007C191.694 284.049 191.499 284.205 191.522 284.356L192.598 291.243C192.622 291.394 192.855 291.483 193.119 291.442L193.401 291.398C193.666 291.356 193.861 291.2 193.837 291.049Z" fill="#3D96FF"/>
<path d="M181.09 291.724L181.717 284.782C181.731 284.63 181.526 284.487 181.26 284.463L180.976 284.437C180.709 284.413 180.482 284.517 180.468 284.669L179.841 291.611C179.827 291.764 180.032 291.907 180.299 291.931L180.583 291.956C180.849 291.981 181.076 291.877 181.09 291.724Z" fill="#3D96FF"/>
<path d="M168.721 289.943L171.424 283.518C171.483 283.377 171.331 283.179 171.085 283.075L170.822 282.964C170.575 282.861 170.327 282.891 170.268 283.032L167.565 289.457C167.506 289.598 167.658 289.796 167.905 289.9L168.167 290.011C168.414 290.114 168.662 290.084 168.721 289.943Z" fill="#3D96FF"/>
<path d="M145.053 62.5211L142.473 72.3368C142.277 73.1475 141.818 73.8701 141.166 74.3905C140.514 74.9109 139.708 75.1995 138.874 75.2109C138.223 75.2022 137.589 74.996 137.058 74.6197C136.526 74.2433 136.121 73.7144 135.897 73.1029C135.574 72.3612 135.498 71.5355 135.68 70.7473C135.862 69.9592 136.292 69.2503 136.907 68.7251L144.394 62.1273C144.457 62.0684 144.538 62.0316 144.624 62.0225C144.71 62.0134 144.797 62.0325 144.871 62.0769C144.945 62.1213 145.003 62.1886 145.036 62.2687C145.069 62.3488 145.075 62.4374 145.053 62.5211Z" fill="#3D96FF"/>
<path d="M144.38 57.0993L140.313 60.4789C139.986 60.7661 139.572 60.9356 139.138 60.9604C138.703 60.9851 138.273 60.8637 137.915 60.6155C137.642 60.4144 137.437 60.1351 137.326 59.8147C137.215 59.4943 137.204 59.1478 137.295 58.8211C137.381 58.4086 137.597 58.0349 137.912 57.7549C138.227 57.475 138.624 57.3038 139.043 57.2666L144.229 56.7346C144.273 56.7307 144.317 56.7409 144.355 56.7637C144.393 56.7866 144.422 56.8209 144.439 56.8616C144.456 56.9023 144.459 56.9473 144.448 56.9901C144.438 57.0328 144.414 57.0711 144.38 57.0993V57.0993Z" fill="#3D96FF"/>
</svg>
