<svg width="99" height="108" viewBox="0 0 99 108" fill="none" xmlns="http://www.w3.org/2000/svg">
<path d="M99.0012 6.16665V87.1207C98.9947 88.7455 98.3455 90.3018 97.1954 91.4492C96.0454 92.5966 94.4882 93.2419 92.864 93.2441H75.999V29.7961C75.9968 28.0046 75.2845 26.2872 74.0184 25.0205C72.7522 23.7537 71.0355 23.0411 69.2448 23.0389H10.3984V6.16665C10.3974 5.35897 10.5556 4.55901 10.864 3.8126C11.1725 3.06619 11.6251 2.388 12.196 1.81688C12.7669 1.24576 13.4447 0.792938 14.1908 0.484351C14.9369 0.175764 15.7365 0.0174768 16.5439 0.0185602H92.864C93.6706 0.0185595 94.4694 0.177644 95.2145 0.486715C95.9596 0.795787 96.6365 1.24878 97.2065 1.81979C97.7765 2.39081 98.2284 3.06863 98.5364 3.8145C98.8443 4.56037 99.0023 5.35966 99.0012 6.16665Z" fill="#EFEFEF"/>
<g filter="url(#filter0_d_2289_3603)">
<path d="M81.8485 7.05664H6.75421C3.02396 7.05664 0 10.0811 0 13.812V93.5268C0 97.2577 3.02396 100.282 6.75421 100.282H81.8485C85.5788 100.282 88.6028 97.2577 88.6028 93.5268V13.812C88.6028 10.0811 85.5788 7.05664 81.8485 7.05664Z" fill="white"/>
</g>
<path d="M75.6351 17.0723H12.1906C10.5622 17.0723 9.24219 18.3968 9.24219 20.0307V87.3075C9.24219 88.9413 10.5622 90.2659 12.1906 90.2659H75.6351C77.2634 90.2659 78.5835 88.9413 78.5835 87.3075V20.0307C78.5835 18.3968 77.2634 17.0723 75.6351 17.0723Z" fill="white" stroke="#5585c1" stroke-width="0.570313" stroke-miterlimit="10"/>
<path d="M57.3665 33.1258C56.7648 32.8245 56.0836 32.7199 55.4193 32.827C54.755 32.9341 54.1412 33.2473 53.6647 33.7225L21.8167 67.328L9.39203 49.8432V86.665C9.39203 88.3665 9.30469 88.2513 10.5078 89.4545C11.711 90.6576 13.5485 90.0124 15.25 90.0124H74.1092C74.1092 90.0124 77.1777 90.2913 78.0145 89.4545C79.1303 88.3387 79.1303 86.665 79.1303 86.665V51.5169L57.3665 33.1258Z" fill="#5585c1" fill-opacity="0.2"/>
<defs>
<filter id="filter0_d_2289_3603" x="0" y="7.05664" width="93.1641" height="100.069" filterUnits="userSpaceOnUse" color-interpolation-filters="sRGB">
<feFlood flood-opacity="0" result="BackgroundImageFix"/>
<feColorMatrix in="SourceAlpha" type="matrix" values="0 0 0 0 0 0 0 0 0 0 0 0 0 0 0 0 0 0 127 0" result="hardAlpha"/>
<feOffset dx="2.28125" dy="4.5625"/>
<feGaussianBlur stdDeviation="1.14063"/>
<feComposite in2="hardAlpha" operator="out"/>
<feColorMatrix type="matrix" values="0 0 0 0 0 0 0 0 0 0 0 0 0 0 0 0 0 0 0.1 0"/>
<feBlend mode="normal" in2="BackgroundImageFix" result="effect1_dropShadow_2289_3603"/>
<feBlend mode="normal" in="SourceGraphic" in2="effect1_dropShadow_2289_3603" result="shape"/>
</filter>
</defs>
</svg>
