<svg width="16" height="16" viewBox="0 0 16 16" fill="none" xmlns="http://www.w3.org/2000/svg">
<path d="M3.83323 1.76398C5.06659 0.939867 6.51664 0.5 8 0.5C9.98913 0.5 11.8968 1.29018 13.3033 2.6967C14.7098 4.10322 15.5 6.01088 15.5 8C15.5 9.48336 15.0601 10.9334 14.236 12.1668C13.4119 13.4001 12.2406 14.3614 10.8701 14.9291C9.49968 15.4968 7.99168 15.6453 6.53683 15.3559C5.08197 15.0665 3.7456 14.3522 2.6967 13.3033C1.64781 12.2544 0.933503 10.918 0.644114 9.46318C0.354725 8.00832 0.50325 6.50032 1.07091 5.12987C1.63856 3.75943 2.59986 2.58809 3.83323 1.76398Z" stroke="#5585c1"/>
<path d="M7.47313 4.92682C7.47313 4.56223 7.7687 4.26666 8.13329 4.26666C8.49789 4.26666 8.79346 4.56223 8.79346 4.92682V9.45365C8.79346 9.81825 8.49789 10.1138 8.13329 10.1138C7.7687 10.1138 7.47313 9.81825 7.47313 9.45365V4.92682Z" fill="#5585c1"/>
<path d="M7.47313 11.3399C7.47313 10.9753 7.7687 10.6797 8.13329 10.6797C8.49789 10.6797 8.79346 10.9753 8.79346 11.3399C8.79346 11.7044 8.49789 12 8.13329 12C7.7687 12 7.47313 11.7044 7.47313 11.3399Z" fill="#5585c1"/>
</svg>
