<svg xmlns="http://www.w3.org/2000/svg" width="23.917" height="17.947" viewBox="0 0 23.917 17.947">
    <defs>
        <style>
            .cls-2{fill:#3d4550}.cls-3{fill:#fff}
        </style>
    </defs>
    <g id="filter" opacity="0.8">
        <path id="Trazado_2966" d="M31.773 135.488H9.344a.744.744 0 0 1 0-1.488h22.429a.744.744 0 0 1 0 1.488z" class="cls-2" transform="translate(-8.6 -131.443)"/>
        <path id="Trazado_2967" d="M31.773 257.488H9.344a.744.744 0 1 1 0-1.488h22.429a.744.744 0 1 1 0 1.488z" class="cls-2" transform="translate(-8.6 -247.77)"/>
        <path id="Trazado_2968" d="M31.773 379.488H9.344a.744.744 0 1 1 0-1.488h22.429a.744.744 0 1 1 0 1.488z" class="cls-2" transform="translate(-8.6 -364.098)"/>
        <path id="Trazado_2969" d="M74.3 85.6a3.3 3.3 0 1 1 3.3-3.3 3.308 3.308 0 0 1-3.3 3.3zm0-5.114a1.813 1.813 0 1 0 1.814 1.814 1.816 1.816 0 0 0-1.814-1.812z" class="cls-2" transform="translate(-68.099 -79)"/>
        <path id="Trazado_2970" d="M331.2 207.6a3.3 3.3 0 1 1 3.3-3.3 3.308 3.308 0 0 1-3.3 3.3zm0-5.114a1.813 1.813 0 1 0 1.813 1.813 1.816 1.816 0 0 0-1.813-1.811z" class="cls-2" transform="translate(-313.054 -195.328)"/>
        <path id="Trazado_2971" d="M74.3 329.6a3.3 3.3 0 1 1 3.3-3.3 3.308 3.308 0 0 1-3.3 3.3zm0-5.114a1.813 1.813 0 1 0 1.813 1.813 1.816 1.816 0 0 0-1.813-1.811z" class="cls-2" transform="translate(-68.099 -311.655)"/>
        <circle id="Elipse_350" cx="1.813" cy="1.813" r="1.813" class="cls-3" transform="translate(16.334 7.16)"/>
        <circle id="Elipse_351" cx="1.813" cy="1.813" r="1.813" class="cls-3" transform="translate(4.389 1.488)"/>
        <circle id="Elipse_352" cx="1.813" cy="1.813" r="1.813" class="cls-3" transform="translate(4.389 12.833)"/>
    </g>
</svg>
