<svg width="13" height="13" viewBox="0 0 13 13" fill="none" xmlns="http://www.w3.org/2000/svg">
<path d="M5.47971 13C5.20906 12.9998 4.94954 12.8862 4.75818 12.6841C4.56682 12.482 4.45926 12.208 4.45914 11.9223V6.67262L0.265506 1.80229C0.132483 1.64786 0.044816 1.45595 0.0131629 1.24989C-0.0184902 1.04383 0.00723371 0.832507 0.0872076 0.641598C0.167182 0.450689 0.297961 0.28842 0.463648 0.174519C0.629335 0.0606167 0.822793 -1.29316e-05 1.02051 2.06884e-09H11.9795C12.1772 -2.25137e-06 12.3707 0.0606261 12.5364 0.174516C12.702 0.288406 12.8328 0.450654 12.9128 0.64154C12.9927 0.832425 13.0185 1.04373 12.9869 1.24977C12.9552 1.45581 12.8676 1.64771 12.7346 1.80216L8.54091 6.67269V10.4857C8.54109 10.6632 8.49969 10.8379 8.42041 10.9943C8.34112 11.1507 8.22641 11.284 8.0865 11.3822L6.04561 12.8187C5.8781 12.9368 5.68117 12.9999 5.47971 13ZM1.02089 1.0774L5.21421 5.94793C5.38516 6.14613 5.47981 6.40462 5.47958 6.67269V11.9223L7.52047 10.4857V6.67269C7.52025 6.40455 7.61495 6.14601 7.78597 5.9478L11.9793 1.07767L1.02089 1.0774Z" fill="#3D4550"/>
</svg>
