<svg xmlns="http://www.w3.org/2000/svg" width="23.987" height="18" viewBox="0 0 23.987 18">
    <defs>
        <style>
            .cls-1{fill:#3d4550}.cls-2{fill:#fff}
        </style>
    </defs>
    <g id="filter" transform="translate(-8.6 -79)">
        <path id="Trazado_2925" d="M31.841 135.492H9.346a.746.746 0 0 1 0-1.492h22.5a.746.746 0 0 1 0 1.492z" class="cls-1" data-name="Trazado 2925" transform="translate(0 -52.435)"/>
        <path id="Trazado_2926" d="M31.841 257.492H9.346a.746.746 0 0 1 0-1.492h22.5a.746.746 0 0 1 0 1.492z" class="cls-1" data-name="Trazado 2926" transform="translate(0 -168.746)"/>
        <path id="Trazado_2927" d="M31.841 379.492H9.346a.746.746 0 1 1 0-1.492h22.5a.746.746 0 1 1 0 1.492z" class="cls-1" data-name="Trazado 2927" transform="translate(0 -285.057)"/>
        <path id="Trazado_2928" d="M74.311 85.622a3.311 3.311 0 1 1 3.311-3.311 3.318 3.318 0 0 1-3.311 3.311zm0-5.13a1.819 1.819 0 1 0 1.819 1.819 1.821 1.821 0 0 0-1.819-1.819z" class="cls-1" data-name="Trazado 2928" transform="translate(-59.49)"/>
        <path id="Trazado_2929" d="M331.211 207.622a3.311 3.311 0 1 1 3.311-3.311 3.318 3.318 0 0 1-3.311 3.311zm0-5.13a1.819 1.819 0 1 0 1.819 1.819 1.821 1.821 0 0 0-1.819-1.819z" class="cls-1" data-name="Trazado 2929" transform="translate(-304.41 -116.311)"/>
        <path id="Trazado_2930" d="M74.311 329.622a3.311 3.311 0 1 1 3.311-3.311 3.318 3.318 0 0 1-3.311 3.311zm0-5.13a1.819 1.819 0 1 0 1.819 1.819 1.821 1.821 0 0 0-1.819-1.819z" class="cls-1" data-name="Trazado 2930" transform="translate(-59.49 -232.622)"/>
        <circle id="Elipse_3" cx="1.819" cy="1.819" r="1.819" class="cls-2" data-name="Elipse 3" transform="translate(24.982 86.181)"/>
        <circle id="Elipse_4" cx="1.819" cy="1.819" r="1.819" class="cls-2" data-name="Elipse 4" transform="translate(13.002 80.492)"/>
        <circle id="Elipse_5" cx="1.819" cy="1.819" r="1.819" class="cls-2" data-name="Elipse 5" transform="translate(13.002 91.87)"/>
    </g>
</svg>
