<svg width="16" height="16" viewBox="0 0 16 16" fill="none" xmlns="http://www.w3.org/2000/svg">
<path d="M6.74426 16C6.41115 15.9998 6.09174 15.86 5.85622 15.6112C5.6207 15.3625 5.48832 15.0253 5.48817 14.6736V8.21245L0.326777 2.2182C0.163056 2.02813 0.0551581 1.79193 0.0162005 1.53833C-0.0227572 1.28472 0.00890303 1.02462 0.107332 0.789659C0.205762 0.554694 0.366721 0.354979 0.570644 0.214792C0.774566 0.0746052 1.01267 -1.59158e-05 1.25601 2.54626e-09H14.7441C14.9874 -2.77091e-06 15.2255 0.0746167 15.4294 0.214789C15.6333 0.354962 15.7942 0.554651 15.8926 0.789587C15.9911 1.02452 16.0227 1.28459 15.9838 1.53818C15.9449 1.79176 15.837 2.02795 15.6734 2.21804L10.5119 8.21254V12.9055C10.5121 13.1239 10.4612 13.3389 10.3636 13.5314C10.266 13.7239 10.1248 13.888 9.95261 14.0089L7.44075 15.7768C7.23458 15.9223 6.99221 15.9999 6.74426 16ZM1.25648 1.32603L6.41748 7.32053C6.62789 7.56447 6.74438 7.88261 6.7441 8.21254V14.6736L9.25596 12.9055V8.21254C9.2557 7.88253 9.37224 7.56432 9.58274 7.32037L14.7437 1.32636L1.25648 1.32603Z" fill="#A8A8A8"/>
</svg>
