<svg width="25" height="25" viewBox="0 0 25 25" fill="none" xmlns="http://www.w3.org/2000/svg">
<path d="M6.22533 15.8973C6.4768 15.6545 6.81361 15.5201 7.1632 15.5231C7.5128 15.5261 7.84721 15.6664 8.09443 15.9136C8.34164 16.1608 8.48186 16.4952 8.4849 16.8448C8.48794 17.1944 8.35354 17.5312 8.11067 17.7827L4.55333 21.3387H6.66667C6.99345 21.3387 7.30882 21.4588 7.5529 21.6761C7.79698 21.8934 7.95276 22.1928 7.99067 22.5173L8 22.672C8 23.0256 7.85952 23.3648 7.60948 23.6148C7.35943 23.8649 7.02029 24.0053 6.66667 24.0053H1.33333C0.979711 24.0053 0.640573 23.8649 0.390524 23.6148C0.140476 23.3648 0 23.0256 0 22.672V17.3387C0 16.985 0.140476 16.6459 0.390524 16.3959C0.640573 16.1458 0.979711 16.0053 1.33333 16.0053C1.68696 16.0053 2.02609 16.1458 2.27614 16.3959C2.52619 16.6459 2.66667 16.985 2.66667 17.3387V19.4547L6.22533 15.8973ZM17.34 24.0053C16.9864 24.0053 16.6472 23.8649 16.3972 23.6148C16.1471 23.3648 16.0067 23.0256 16.0067 22.672C16.0067 22.3184 16.1471 21.9792 16.3972 21.7292C16.6472 21.4791 16.9864 21.3387 17.34 21.3387H19.4507L15.8973 17.7827C15.6678 17.5531 15.5299 17.2476 15.5095 16.9236C15.4891 16.5995 15.5877 16.2792 15.7867 16.0227L15.8973 15.8973C16.1474 15.6474 16.4864 15.507 16.84 15.507C17.1936 15.507 17.5326 15.6474 17.7827 15.8973L21.34 19.4573V17.3387C21.34 17.0121 21.4599 16.6969 21.677 16.4528C21.894 16.2088 22.193 16.0529 22.5173 16.0147L22.6733 16.0053C23.027 16.0053 23.3661 16.1458 23.6161 16.3959C23.8662 16.6459 24.0067 16.985 24.0067 17.3387V22.672C24.0067 23.0256 23.8662 23.3648 23.6161 23.6148C23.3661 23.8649 23.027 24.0053 22.6733 24.0053H17.34ZM6.66667 0C7.02029 0 7.35943 0.140476 7.60948 0.390524C7.85952 0.640573 8 0.979711 8 1.33333C8 1.68696 7.85952 2.02609 7.60948 2.27614C7.35943 2.52619 7.02029 2.66667 6.66667 2.66667H4.556L8.10933 6.224C8.3389 6.45359 8.47681 6.75906 8.49718 7.08309C8.51756 7.40713 8.419 7.72746 8.22 7.984L8.10933 8.10933C7.8593 8.35929 7.52022 8.49972 7.16667 8.49972C6.81311 8.49972 6.47404 8.35929 6.224 8.10933L2.66667 4.54933V6.66667C2.66662 6.99324 2.54673 7.30845 2.32971 7.5525C2.1127 7.79654 1.81367 7.95246 1.48933 7.99067L1.33333 8C0.979711 8 0.640573 7.85952 0.390524 7.60948C0.140476 7.35943 0 7.02029 0 6.66667V1.33333C0 0.979711 0.140476 0.640573 0.390524 0.390524C0.640573 0.140476 0.979711 0 1.33333 0H6.66667ZM22.6733 0C23.027 0 23.3661 0.140476 23.6161 0.390524C23.8662 0.640573 24.0067 0.979711 24.0067 1.33333V6.66667C24.0067 7.02029 23.8662 7.35943 23.6161 7.60948C23.3661 7.85952 23.027 8 22.6733 8C22.3197 8 21.9806 7.85952 21.7305 7.60948C21.4805 7.35943 21.34 7.02029 21.34 6.66667V4.54933L17.7827 8.10933C17.5531 8.3389 17.2476 8.47681 16.9236 8.49718C16.5995 8.51756 16.2792 8.419 16.0227 8.22L15.8973 8.10933C15.6474 7.8593 15.507 7.52022 15.507 7.16667C15.507 6.81311 15.6474 6.47404 15.8973 6.224L19.452 2.66667H17.34C17.0134 2.66662 16.6982 2.54673 16.4542 2.32971C16.2101 2.1127 16.0542 1.81367 16.016 1.48933L16.0067 1.33333C16.0067 0.979711 16.1471 0.640573 16.3972 0.390524C16.6472 0.140476 16.9864 0 17.34 0H22.6733Z" fill="#5585c1"/>
</svg>
