<svg width="28" height="21" viewBox="0 0 28 21" fill="none" xmlns="http://www.w3.org/2000/svg">
<path d="M5.07007 9.83199L12.4539 11.9148C12.5371 11.9371 12.624 11.9392 12.708 11.9208L15.9266 11.1449C16.0198 11.1223 16.1055 11.0735 16.1746 11.0036C16.2436 10.9338 16.2935 10.8455 16.3189 10.7482L17.7329 5.14936C17.7578 5.0523 17.757 4.94988 17.7307 4.85323C17.7044 4.75657 17.6536 4.66937 17.5837 4.60108L15.1561 2.23077C15.0931 2.17024 15.0174 2.12626 14.9353 2.1024L7.54878 0.0200317C7.49142 0.00236669 7.43141 -0.00360456 7.37194 0.00243588L2.74471 0.375158C2.63623 0.384098 2.53298 0.428076 2.44898 0.501124C2.36498 0.574171 2.3043 0.672748 2.27517 0.783473L0.861252 6.38231C0.834049 6.49296 0.83957 6.60975 0.877072 6.71699C0.914573 6.82423 0.982258 6.91677 1.07103 6.98218L4.90459 9.75321C4.95531 9.78882 5.01121 9.81543 5.07007 9.83199ZM15.0126 3.95321C15.0209 3.92434 15.0358 3.89808 15.056 3.87674C15.0762 3.8554 15.1011 3.83963 15.1284 3.83084C15.1568 3.81921 15.1883 3.81921 15.2167 3.83084C15.2432 3.83826 15.2678 3.85193 15.2886 3.87083L16.57 5.11937C16.5923 5.14123 16.6087 5.169 16.6174 5.1998C16.6261 5.23061 16.6269 5.26332 16.6196 5.29453L15.4215 10.0423C15.414 10.0733 15.3987 10.1015 15.3773 10.124C15.3559 10.1466 15.3292 10.1627 15.3 10.1707L13.6043 10.579C13.5794 10.5846 13.5536 10.5846 13.5286 10.579C13.4997 10.5713 13.4734 10.5551 13.4529 10.5322C13.4333 10.5098 13.4196 10.4825 13.413 10.4529C13.4064 10.4233 13.407 10.3923 13.415 10.3631L15.0126 3.95321ZM7.74227 1.40374C7.74768 1.38127 7.75734 1.36019 7.77066 1.34176C7.78399 1.32333 7.8007 1.30794 7.8198 1.2965C7.8389 1.28507 7.86 1.27784 7.88181 1.27524C7.90363 1.27264 7.92572 1.27472 7.94675 1.28137L14.0008 2.99061C14.0221 2.99633 14.042 3.00653 14.0595 3.0206C14.0769 3.03467 14.0915 3.05232 14.1023 3.0725C14.1131 3.09267 14.12 3.11494 14.1225 3.13799C14.1249 3.16103 14.1229 3.18435 14.1166 3.20657L12.2612 10.5394C12.2558 10.5619 12.2461 10.583 12.2328 10.6014C12.2195 10.6199 12.2028 10.6353 12.1837 10.6467C12.1646 10.6581 12.1435 10.6653 12.1217 10.6679C12.0999 10.6706 12.0778 10.6685 12.0567 10.6618L6.00346 8.95137C5.98219 8.94566 5.96222 8.93546 5.94477 8.92139C5.92732 8.90732 5.91275 8.88967 5.90192 8.86949C5.8911 8.84932 5.88425 8.82704 5.88179 8.804C5.87933 8.78096 5.8813 8.75763 5.88759 8.73542L7.74227 1.40374ZM4.74442 8.28631C4.72694 8.28104 4.71025 8.27324 4.69481 8.26312L2.07069 6.37391C2.04186 6.35332 2.01992 6.32363 2.00802 6.28908C1.99612 6.25453 1.99486 6.2169 2.00443 6.18155L3.16464 1.57771C3.17379 1.54258 3.19307 1.51134 3.21981 1.48833C3.24655 1.46532 3.27942 1.45169 3.31384 1.44933L6.48436 1.19259C6.50297 1.1917 6.5216 1.19373 6.53965 1.19859C6.5722 1.20884 6.60109 1.22918 6.62257 1.25697C6.63877 1.27903 6.65015 1.30459 6.65591 1.33182C6.66167 1.35906 6.66167 1.38731 6.6559 1.41454L4.94851 8.15794C4.94147 8.18501 4.92821 8.20983 4.90992 8.2302C4.89162 8.25057 4.86885 8.26586 4.84363 8.27472C4.81265 8.28995 4.7778 8.29403 4.74442 8.28631Z" fill="#05C65D"/>
<path d="M1.80273 6.40019L5.00324 8.9606L12.6845 11.521L15.885 9.92075L16.8451 5.11999L14.6048 2.55959L7.56365 0.639282L3.08294 1.27938L1.80273 6.40019Z" fill="#05C65D"/>
<mask id="path-3-inside-1" fill="white">
<path fill-rule="evenodd" clip-rule="evenodd" d="M3.71782 12.7974H3.96512H5.07727C9.13537 12.7689 5.801 12.7974 5.801 12.7974H18.6588V4.96842C18.6592 4.73976 18.7035 4.51343 18.7892 4.30234C18.8748 4.09125 19.0002 3.89954 19.1581 3.73815C19.316 3.57676 19.5033 3.44885 19.7094 3.36174C19.9155 3.27462 20.1363 3.22999 20.3592 3.23041H23.7538C24.6796 3.23041 25.1672 3.52483 25.448 4.09466L28.0001 9.32134V11.9299V14.5417V16.2765C28.0001 16.5077 27.9108 16.7295 27.7518 16.8932C27.5927 17.057 27.3768 17.1494 27.1515 17.1503H24.6055C24.6055 18.0739 24.2479 18.9596 23.6113 19.6127C22.9747 20.2657 22.1112 20.6326 21.2109 20.6326C20.3106 20.6326 19.4472 20.2657 18.8106 19.6127C18.174 18.9596 17.8163 18.0739 17.8163 17.1503H11.0271C11.0271 18.0739 10.6694 18.9596 10.0328 19.6127C9.39622 20.2657 8.53279 20.6326 7.63248 20.6326C6.73218 20.6326 5.86874 20.2657 5.23213 19.6127C4.59552 18.9596 4.23787 18.0739 4.23787 17.1503H1.69192C1.46656 17.1494 1.25071 17.057 1.09164 16.8932C0.932575 16.7295 0.843262 16.5077 0.843262 16.2765V13.6679C0.843256 13.5528 0.865511 13.4388 0.908737 13.3326C0.951963 13.2263 1.0153 13.1299 1.09509 13.049C1.17488 12.968 1.26953 12.9041 1.37356 12.8609C1.4776 12.8177 1.58895 12.7961 1.70117 12.7974H3.71782ZM25.1818 9.91686H21.5655C21.1747 9.91686 20.7839 9.3205 20.7839 8.92292V6.43809C20.7839 5.94118 21.1747 5.94106 21.5655 5.94112H23.5196C23.7554 5.94112 23.9672 6.0854 24.0535 6.30483L25.3663 9.64367C25.4179 9.77488 25.3228 9.91686 25.1818 9.91686ZM9.3807 16.9743C9.3807 17.9741 8.5933 18.7846 7.622 18.7846C6.65069 18.7846 5.86329 17.9741 5.86329 16.9743C5.86329 15.9745 6.65069 15.164 7.622 15.164C8.5933 15.164 9.3807 15.9745 9.3807 16.9743ZM21.2277 18.7846C22.199 18.7846 22.9864 17.9741 22.9864 16.9743C22.9864 15.9745 22.199 15.164 21.2277 15.164C20.2564 15.164 19.469 15.9745 19.469 16.9743C19.469 17.9741 20.2564 18.7846 21.2277 18.7846Z"/>
</mask>
<path fill-rule="evenodd" clip-rule="evenodd" d="M3.71782 12.7974H3.96512H5.07727C9.13537 12.7689 5.801 12.7974 5.801 12.7974H18.6588V4.96842C18.6592 4.73976 18.7035 4.51343 18.7892 4.30234C18.8748 4.09125 19.0002 3.89954 19.1581 3.73815C19.316 3.57676 19.5033 3.44885 19.7094 3.36174C19.9155 3.27462 20.1363 3.22999 20.3592 3.23041H23.7538C24.6796 3.23041 25.1672 3.52483 25.448 4.09466L28.0001 9.32134V11.9299V14.5417V16.2765C28.0001 16.5077 27.9108 16.7295 27.7518 16.8932C27.5927 17.057 27.3768 17.1494 27.1515 17.1503H24.6055C24.6055 18.0739 24.2479 18.9596 23.6113 19.6127C22.9747 20.2657 22.1112 20.6326 21.2109 20.6326C20.3106 20.6326 19.4472 20.2657 18.8106 19.6127C18.174 18.9596 17.8163 18.0739 17.8163 17.1503H11.0271C11.0271 18.0739 10.6694 18.9596 10.0328 19.6127C9.39622 20.2657 8.53279 20.6326 7.63248 20.6326C6.73218 20.6326 5.86874 20.2657 5.23213 19.6127C4.59552 18.9596 4.23787 18.0739 4.23787 17.1503H1.69192C1.46656 17.1494 1.25071 17.057 1.09164 16.8932C0.932575 16.7295 0.843262 16.5077 0.843262 16.2765V13.6679C0.843256 13.5528 0.865511 13.4388 0.908737 13.3326C0.951963 13.2263 1.0153 13.1299 1.09509 13.049C1.17488 12.968 1.26953 12.9041 1.37356 12.8609C1.4776 12.8177 1.58895 12.7961 1.70117 12.7974H3.71782ZM25.1818 9.91686H21.5655C21.1747 9.91686 20.7839 9.3205 20.7839 8.92292V6.43809C20.7839 5.94118 21.1747 5.94106 21.5655 5.94112H23.5196C23.7554 5.94112 23.9672 6.0854 24.0535 6.30483L25.3663 9.64367C25.4179 9.77488 25.3228 9.91686 25.1818 9.91686ZM9.3807 16.9743C9.3807 17.9741 8.5933 18.7846 7.622 18.7846C6.65069 18.7846 5.86329 17.9741 5.86329 16.9743C5.86329 15.9745 6.65069 15.164 7.622 15.164C8.5933 15.164 9.3807 15.9745 9.3807 16.9743ZM21.2277 18.7846C22.199 18.7846 22.9864 17.9741 22.9864 16.9743C22.9864 15.9745 22.199 15.164 21.2277 15.164C20.2564 15.164 19.469 15.9745 19.469 16.9743C19.469 17.9741 20.2564 18.7846 21.2277 18.7846Z" fill="#05C65D"/>
<path d="M1.84278 12.7986L1.79281 13.2961L1.79282 13.2961L1.84278 12.7986ZM1.98361 12.8049L1.96823 13.3047L2.02516 13.3064L2.08103 13.2953L1.98361 12.8049ZM1.70117 13.2974C1.76753 13.2974 1.79689 13.2974 1.81183 13.2975C1.81961 13.2976 1.81708 13.2976 1.81103 13.2973C1.80055 13.2969 1.79167 13.2959 1.79281 13.2961L1.89275 12.3011C1.8879 12.3006 1.87452 12.2992 1.85662 12.2984C1.84315 12.2978 1.83027 12.2976 1.82035 12.2975C1.79989 12.2973 1.76443 12.2974 1.70117 12.2974V13.2974ZM1.79282 13.2961C1.82184 13.299 1.8558 13.3012 1.96823 13.3047L1.99899 12.3051C1.94424 12.3034 1.91551 12.3022 1.90064 12.3015C1.89347 12.3011 1.89086 12.3009 1.89099 12.3009C1.8921 12.301 1.89375 12.3012 1.89273 12.3011L1.79282 13.2961ZM1.98361 12.8049C2.08103 13.2953 2.07906 13.2957 2.07709 13.2961C2.07647 13.2962 2.07464 13.2965 2.07344 13.2968C2.07111 13.2972 2.06892 13.2976 2.0669 13.2979C2.06288 13.2986 2.05928 13.2991 2.05618 13.2996C2.05011 13.3005 2.04495 13.3011 2.04111 13.3016C2.03361 13.3024 2.02764 13.303 2.02422 13.3032C2.01744 13.3038 2.01277 13.304 2.01222 13.304C2.01077 13.3041 2.01434 13.3039 2.0278 13.3036C2.0541 13.303 2.10891 13.302 2.21887 13.3011C2.43822 13.2992 2.87008 13.2974 3.71782 13.2974V12.2974C2.8693 12.2974 2.43405 12.2992 2.21036 12.3011C2.0988 12.3021 2.03811 12.3031 2.00429 12.3039C1.98768 12.3042 1.97504 12.3046 1.96489 12.3051C1.95998 12.3054 1.95285 12.3057 1.94468 12.3064C1.94057 12.3067 1.93417 12.3073 1.92643 12.3082C1.92246 12.3086 1.91723 12.3093 1.9111 12.3102C1.90798 12.3106 1.90436 12.3112 1.90033 12.3119C1.89831 12.3122 1.89611 12.3126 1.89378 12.313C1.89257 12.3133 1.89075 12.3136 1.89013 12.3137C1.88816 12.3141 1.88619 12.3145 1.98361 12.8049ZM5.07727 13.2974H5.801V12.2974H5.07727V13.2974ZM5.07727 12.7974V13.7974L5.08429 13.7973L5.07727 12.7974ZM5.801 12.7974L5.79245 11.7974L5.801 13.7974V12.7974ZM18.6588 12.7974V13.7974H19.6588V12.7974H18.6588ZM18.6588 4.96842L17.6588 4.96664V4.96842H18.6588ZM18.7892 4.30234L19.7158 4.6784V4.6784L18.7892 4.30234ZM19.1581 3.73815L18.4433 3.03882L18.4433 3.03882L19.1581 3.73815ZM19.7094 3.36174L19.32 2.44066L19.7094 3.36174ZM20.3592 3.23041L20.3573 4.23041H20.3592V3.23041ZM25.448 4.09466L26.3466 3.65589L26.345 3.65261L25.448 4.09466ZM28.0001 9.32134H29.0001V9.09024L28.8987 8.88257L28.0001 9.32134ZM27.7518 16.8932L27.0344 16.1965L27.0344 16.1965L27.7518 16.8932ZM27.1515 17.1503V18.1503L27.1552 18.1503L27.1515 17.1503ZM24.6055 17.1503V16.1503H23.6055V17.1503H24.6055ZM23.6113 19.6127L24.3273 20.3107L23.6113 19.6127ZM18.8106 19.6127L19.5266 18.9146L19.5266 18.9146L18.8106 19.6127ZM17.8163 17.1503H18.8163V16.1503H17.8163V17.1503ZM11.0271 17.1503V16.1503H10.0271V17.1503H11.0271ZM10.0328 19.6127L10.7489 20.3107H10.7489L10.0328 19.6127ZM5.23213 19.6127L4.51606 20.3107H4.51606L5.23213 19.6127ZM4.23787 17.1503H5.23787V16.1503H4.23787V17.1503ZM1.69192 17.1503L1.6882 18.1503H1.69192V17.1503ZM1.09164 16.8932L1.80898 16.1965L1.80897 16.1965L1.09164 16.8932ZM0.843262 13.6679H1.84326V13.6679L0.843262 13.6679ZM0.908737 13.3326L-0.0175377 12.9557L0.908737 13.3326ZM1.09509 13.049L1.80736 13.7509L1.80736 13.7509L1.09509 13.049ZM1.70117 12.7974L1.68998 13.7974H1.70117V12.7974ZM21.5655 5.94112L21.5654 6.94112H21.5655V5.94112ZM24.0535 6.30483L24.9841 5.9389L24.9841 5.9389L24.0535 6.30483ZM25.3663 9.64367L26.297 9.27774V9.27774L25.3663 9.64367ZM3.96512 11.7974H3.71782V13.7974H3.96512V11.7974ZM5.07727 11.7974H3.96512V13.7974H5.07727V11.7974ZM5.801 12.7974C5.80954 13.7973 5.80956 13.7973 5.80958 13.7973C5.80961 13.7973 5.80965 13.7973 5.8097 13.7973C5.8098 13.7973 5.80995 13.7973 5.81015 13.7973C5.81056 13.7973 5.81116 13.7973 5.81196 13.7973C5.81355 13.7973 5.81592 13.7973 5.81901 13.7972C5.82521 13.7972 5.83433 13.7971 5.84606 13.797C5.86952 13.7968 5.90338 13.7965 5.94503 13.7961C6.02834 13.7954 6.14282 13.7944 6.26752 13.7933C6.51653 13.7911 6.80751 13.7884 6.97183 13.7866C7.01282 13.7862 7.04697 13.7858 7.07092 13.7854C7.08243 13.7853 7.09379 13.7851 7.10293 13.7849C7.10611 13.7848 7.11521 13.7846 7.12527 13.7843C7.12823 13.7842 7.13331 13.784 7.13956 13.7836C7.14352 13.7834 7.15819 13.7827 7.1768 13.7811C7.18772 13.7801 7.21769 13.7766 7.23674 13.774C7.27825 13.7669 7.47028 13.7096 7.6116 13.6379C8.08468 12.8851 7.56926 11.9073 7.33738 11.816C7.28581 11.8043 7.21156 11.7923 7.18933 11.7898C7.15829 11.7867 7.13345 11.7858 7.13083 11.7857C7.12264 11.7853 7.11607 11.7852 7.1127 11.7851C7.10568 11.7849 7.09986 11.7848 7.09701 11.7848C7.0907 11.7847 7.08447 11.7847 7.07972 11.7847C7.06962 11.7847 7.05644 11.7847 7.04081 11.7847C7.00911 11.7848 6.96193 11.785 6.89719 11.7853C6.63804 11.7867 6.08463 11.7903 5.07025 11.7974L5.08429 13.7973C6.09895 13.7902 6.65054 13.7867 6.90754 13.7853C6.97183 13.785 7.01688 13.7848 7.04585 13.7847C7.06056 13.7847 7.06982 13.7847 7.07492 13.7847C7.07778 13.7847 7.07734 13.7847 7.0751 13.7847C7.07429 13.7847 7.07006 13.7846 7.06422 13.7845C7.06144 13.7844 7.05536 13.7843 7.04755 13.7839C7.04531 13.7838 7.02074 13.7829 6.98988 13.7798C6.96774 13.7774 6.89354 13.7654 6.84201 13.7537C6.61017 13.6624 6.09476 12.6846 6.56782 11.9318C6.70913 11.8601 6.90112 11.8028 6.94256 11.7958C6.96155 11.7931 6.99142 11.7897 7.00223 11.7887C7.02061 11.7871 7.03494 11.7864 7.03847 11.7862C7.04428 11.7859 7.04884 11.7857 7.05117 11.7856C7.05872 11.7854 7.06373 11.7853 7.06135 11.7853C7.05937 11.7854 7.05369 11.7855 7.04287 11.7856C7.02218 11.7859 6.9906 11.7863 6.95001 11.7867C6.788 11.7885 6.49902 11.7912 6.24965 11.7934C6.12516 11.7945 6.01085 11.7955 5.92765 11.7962C5.88606 11.7966 5.85225 11.7969 5.82884 11.7971C5.81714 11.7972 5.80804 11.7973 5.80186 11.7973C5.79878 11.7973 5.79642 11.7974 5.79484 11.7974C5.79405 11.7974 5.79345 11.7974 5.79305 11.7974C5.79285 11.7974 5.7927 11.7974 5.7926 11.7974C5.79255 11.7974 5.79251 11.7974 5.79249 11.7974C5.79246 11.7974 5.79245 11.7974 5.801 12.7974ZM18.6588 11.7974H5.801V13.7974H18.6588V11.7974ZM17.6588 4.96842V12.7974H19.6588V4.96842H17.6588ZM17.8626 3.92627C17.7285 4.25672 17.6594 4.61016 17.6588 4.96664L19.6588 4.97019C19.659 4.86936 19.6785 4.77014 19.7158 4.6784L17.8626 3.92627ZM18.4433 3.03882C18.1936 3.29402 17.9967 3.5958 17.8626 3.92627L19.7158 4.6784C19.753 4.5867 19.8068 4.50505 19.8729 4.43747L18.4433 3.03882ZM19.32 2.44066C18.9907 2.57987 18.693 2.78356 18.4433 3.03882L19.8729 4.43748C19.939 4.36996 20.0159 4.31784 20.0988 4.28282L19.32 2.44066ZM20.361 2.23041C20.0032 2.22974 19.6494 2.30141 19.32 2.44066L20.0988 4.28282C20.1816 4.24782 20.2693 4.23024 20.3573 4.23041L20.361 2.23041ZM23.7538 2.23041H20.3592V4.23041H23.7538V2.23041ZM26.345 3.65261C26.127 3.21028 25.7982 2.82399 25.3118 2.56566C24.8457 2.31812 24.3139 2.23041 23.7538 2.23041V4.23041C24.1194 4.23041 24.2944 4.28991 24.3737 4.33203C24.4328 4.36338 24.4882 4.40921 24.551 4.53672L26.345 3.65261ZM28.8987 8.88257L26.3466 3.65589L24.5494 4.53344L27.1015 9.76012L28.8987 8.88257ZM29.0001 11.9299V9.32134H27.0001V11.9299H29.0001ZM29.0001 14.5417V11.9299H27.0001V14.5417H29.0001ZM29.0001 16.2765V14.5417H27.0001V16.2765H29.0001ZM28.4691 17.59C28.812 17.237 29.0001 16.7642 29.0001 16.2765H27.0001C27.0001 16.2512 27.0097 16.222 27.0344 16.1965L28.4691 17.59ZM27.1552 18.1503C27.6535 18.1484 28.1254 17.9439 28.4691 17.59L27.0344 16.1965C27.06 16.1702 27.1002 16.1505 27.1478 16.1503L27.1552 18.1503ZM24.6055 18.1503H27.1515V16.1503H24.6055V18.1503ZM24.3273 20.3107C25.1486 19.4682 25.6055 18.331 25.6055 17.1503H23.6055C23.6055 17.8168 23.3472 18.451 22.8952 18.9146L24.3273 20.3107ZM21.2109 21.6326C22.3848 21.6326 23.5053 21.154 24.3273 20.3107L22.8952 18.9146C22.444 19.3775 21.8377 19.6326 21.2109 19.6326V21.6326ZM18.0945 20.3107C18.9166 21.154 20.037 21.6326 21.2109 21.6326V19.6326C20.5842 19.6326 19.9778 19.3775 19.5266 18.9146L18.0945 20.3107ZM16.8163 17.1503C16.8163 18.331 17.2733 19.4682 18.0945 20.3107L19.5266 18.9146C19.0746 18.451 18.8163 17.8168 18.8163 17.1503H16.8163ZM11.0271 18.1503H17.8163V16.1503H11.0271V18.1503ZM10.7489 20.3107C11.5701 19.4682 12.0271 18.331 12.0271 17.1503H10.0271C10.0271 17.8168 9.76877 18.451 9.31676 18.9146L10.7489 20.3107ZM7.63248 21.6326C8.80636 21.6326 9.92683 21.154 10.7489 20.3107L9.31676 18.9146C8.86561 19.3775 8.25922 19.6326 7.63248 19.6326V21.6326ZM4.51606 20.3107C5.33813 21.154 6.45861 21.6326 7.63248 21.6326V19.6326C7.00575 19.6326 6.39936 19.3775 5.9482 18.9146L4.51606 20.3107ZM3.23787 17.1503C3.23787 18.331 3.69484 19.4682 4.51606 20.3107L5.9482 18.9146C5.4962 18.451 5.23787 17.8168 5.23787 17.1503H3.23787ZM1.69192 18.1503H4.23787V16.1503H1.69192V18.1503ZM0.374306 17.59C0.718019 17.9439 1.18993 18.1484 1.6882 18.1503L1.69563 16.1503C1.74318 16.1505 1.78339 16.1702 1.80898 16.1965L0.374306 17.59ZM-0.156738 16.2765C-0.156738 16.7642 0.0314294 17.237 0.374308 17.59L1.80897 16.1965C1.83372 16.222 1.84326 16.2512 1.84326 16.2765H-0.156738ZM-0.156738 13.6679V16.2765H1.84326V13.6679H-0.156738ZM-0.0175377 12.9557C-0.109643 13.1821 -0.15675 13.4241 -0.156738 13.668L1.84326 13.6679C1.84326 13.6815 1.84067 13.6955 1.83501 13.7094L-0.0175377 12.9557ZM0.382822 12.3471C0.210239 12.5222 0.0745838 12.7293 -0.0175377 12.9557L1.83501 13.7094C1.82934 13.7234 1.82037 13.7377 1.80736 13.7509L0.382822 12.3471ZM0.990156 11.9373C0.761647 12.0322 0.555449 12.1719 0.382818 12.3471L1.80736 13.7509C1.79431 13.7641 1.77741 13.776 1.75697 13.7845L0.990156 11.9373ZM1.71236 11.7974C1.46428 11.7946 1.21872 11.8424 0.990156 11.9373L1.75697 13.7845C1.73647 13.793 1.71362 13.7976 1.68998 13.7973L1.71236 11.7974ZM3.71782 11.7974H1.70117V13.7974H3.71782V11.7974ZM21.5655 10.9169H25.1818V8.91686H21.5655V10.9169ZM19.7839 8.92292C19.7839 9.3971 19.9924 9.84922 20.2233 10.1624C20.4306 10.4436 20.8858 10.9169 21.5655 10.9169V8.91686C21.7242 8.91686 21.8194 8.97597 21.8398 8.98984C21.8623 9.00508 21.8552 9.00555 21.833 8.97556C21.8126 8.94785 21.7953 8.91539 21.7851 8.88887C21.7805 8.87666 21.7795 8.87126 21.78 8.87365C21.7803 8.87535 21.7839 8.89232 21.7839 8.92292H19.7839ZM19.7839 6.43809V8.92292H21.7839V6.43809H19.7839ZM21.5657 4.94112C21.4382 4.9411 21.0114 4.92419 20.6378 5.08257C20.4094 5.17941 20.1688 5.34974 19.998 5.62901C19.8334 5.89806 19.7839 6.18623 19.7839 6.43809H21.7839C21.7839 6.44149 21.7832 6.5433 21.7041 6.67257C21.6188 6.81207 21.5004 6.8892 21.4185 6.92391C21.3533 6.95156 21.3202 6.94892 21.363 6.94529C21.4047 6.94175 21.4588 6.9411 21.5654 6.94112L21.5657 4.94112ZM23.5196 4.94112H21.5655V6.94112H23.5196V4.94112ZM24.9841 5.9389C24.7474 5.33693 24.1665 4.94112 23.5196 4.94112V6.94112C23.3444 6.94112 23.187 6.83387 23.1229 6.67077L24.9841 5.9389ZM26.297 9.27774L24.9841 5.9389L23.1228 6.67077L24.4357 10.0096L26.297 9.27774ZM25.1818 10.9169C26.0401 10.9169 26.602 10.0535 26.297 9.27774L24.4357 10.0096C24.2339 9.49631 24.6055 8.91686 25.1818 8.91686V10.9169ZM7.622 19.7846C9.17264 19.7846 10.3807 18.4989 10.3807 16.9743H8.3807C8.3807 17.4493 8.01396 17.7846 7.622 17.7846V19.7846ZM4.86329 16.9743C4.86329 18.4989 6.07135 19.7846 7.622 19.7846V17.7846C7.23003 17.7846 6.86329 17.4493 6.86329 16.9743H4.86329ZM7.622 14.164C6.07135 14.164 4.86329 15.4497 4.86329 16.9743H6.86329C6.86329 16.4993 7.23003 16.164 7.622 16.164V14.164ZM10.3807 16.9743C10.3807 15.4497 9.17264 14.164 7.622 14.164V16.164C8.01396 16.164 8.3807 16.4993 8.3807 16.9743H10.3807ZM21.9864 16.9743C21.9864 17.4493 21.6197 17.7846 21.2277 17.7846V19.7846C22.7784 19.7846 23.9864 18.4989 23.9864 16.9743H21.9864ZM21.2277 16.164C21.6197 16.164 21.9864 16.4993 21.9864 16.9743H23.9864C23.9864 15.4497 22.7784 14.164 21.2277 14.164V16.164ZM20.469 16.9743C20.469 16.4993 20.8358 16.164 21.2277 16.164V14.164C19.6771 14.164 18.469 15.4497 18.469 16.9743H20.469ZM21.2277 17.7846C20.8358 17.7846 20.469 17.4493 20.469 16.9743H18.469C18.469 18.4989 19.6771 19.7846 21.2277 19.7846V17.7846Z" fill="#05C65D" mask="url(#path-3-inside-1)"/>
</svg>
