<svg width="34" height="32" viewBox="0 0 34 32" fill="none" xmlns="http://www.w3.org/2000/svg">
<mask id="path-1-inside-1_4753_1919" fill="white">
<path fill-rule="evenodd" clip-rule="evenodd" d="M3.52966 21.4617H3.83333H5.19893C10.1819 21.426 6.0876 21.4617 6.0876 21.4617H21.8757V11.6439C21.8762 11.3571 21.9306 11.0733 22.0358 10.8086C22.141 10.5439 22.2949 10.3035 22.4888 10.1011C22.6827 9.89869 22.9127 9.7383 23.1657 9.62905C23.4188 9.5198 23.6899 9.46384 23.9636 9.46436H28.1318C29.2686 9.46436 29.8673 9.83357 30.2121 10.5482L33.3459 17.1026V20.3739V23.6492V25.8247C33.3459 26.1146 33.2362 26.3927 33.0409 26.5981C32.8456 26.8035 32.5806 26.9194 32.3038 26.9205H29.1777C29.1777 28.0786 28.7385 29.1894 27.9568 30.0084C27.1751 30.8274 26.1149 31.2875 25.0094 31.2875C23.9039 31.2875 22.8437 30.8274 22.062 30.0084C21.2803 29.1894 20.8412 28.0786 20.8412 26.9205H12.5047C12.5047 28.0786 12.0656 29.1894 11.2839 30.0084C10.5022 30.8274 9.44196 31.2875 8.33648 31.2875C7.23099 31.2875 6.17078 30.8274 5.38909 30.0084C4.60739 29.1894 4.16824 28.0786 4.16824 26.9205H1.04206C0.765343 26.9194 0.500298 26.8035 0.304985 26.5981C0.109669 26.3927 1.59633e-09 26.1146 1.59633e-09 25.8247V22.5534C-7.6262e-06 22.4091 0.0273209 22.2661 0.0803986 22.1329C0.133476 21.9996 0.21125 21.8788 0.309219 21.7772C0.407192 21.6757 0.523415 21.5955 0.651157 21.5414C0.7789 21.4872 0.91563 21.4601 1.05343 21.4617H3.52966ZM29.9551 17.8493H25.4471C24.9672 17.8493 24.4873 17.1014 24.4873 16.6028V13.4867C24.4873 12.8636 24.9672 12.8635 25.4471 12.8635H27.8465C28.1357 12.8635 28.395 13.0415 28.4989 13.3114L30.1413 17.5774C30.1918 17.7084 30.0955 17.8493 29.9551 17.8493ZM10.4841 26.7004C10.4841 27.9541 9.51721 28.9705 8.32455 28.9705C7.13188 28.9705 6.16504 27.9541 6.16504 26.7004C6.16504 25.4466 7.13188 24.4302 8.32455 24.4302C9.51721 24.4302 10.4841 25.4466 10.4841 26.7004ZM25.0326 28.9705C26.2252 28.9705 27.1921 27.9541 27.1921 26.7004C27.1921 25.4466 26.2252 24.4302 25.0326 24.4302C23.8399 24.4302 22.873 25.4466 22.873 26.7004C22.873 27.9541 23.8399 28.9705 25.0326 28.9705Z"/>
</mask>
<path fill-rule="evenodd" clip-rule="evenodd" d="M3.52966 21.4617H3.83333H5.19893C10.1819 21.426 6.0876 21.4617 6.0876 21.4617H21.8757V11.6439C21.8762 11.3571 21.9306 11.0733 22.0358 10.8086C22.141 10.5439 22.2949 10.3035 22.4888 10.1011C22.6827 9.89869 22.9127 9.7383 23.1657 9.62905C23.4188 9.5198 23.6899 9.46384 23.9636 9.46436H28.1318C29.2686 9.46436 29.8673 9.83357 30.2121 10.5482L33.3459 17.1026V20.3739V23.6492V25.8247C33.3459 26.1146 33.2362 26.3927 33.0409 26.5981C32.8456 26.8035 32.5806 26.9194 32.3038 26.9205H29.1777C29.1777 28.0786 28.7385 29.1894 27.9568 30.0084C27.1751 30.8274 26.1149 31.2875 25.0094 31.2875C23.9039 31.2875 22.8437 30.8274 22.062 30.0084C21.2803 29.1894 20.8412 28.0786 20.8412 26.9205H12.5047C12.5047 28.0786 12.0656 29.1894 11.2839 30.0084C10.5022 30.8274 9.44196 31.2875 8.33648 31.2875C7.23099 31.2875 6.17078 30.8274 5.38909 30.0084C4.60739 29.1894 4.16824 28.0786 4.16824 26.9205H1.04206C0.765343 26.9194 0.500298 26.8035 0.304985 26.5981C0.109669 26.3927 1.59633e-09 26.1146 1.59633e-09 25.8247V22.5534C-7.6262e-06 22.4091 0.0273209 22.2661 0.0803986 22.1329C0.133476 21.9996 0.21125 21.8788 0.309219 21.7772C0.407192 21.6757 0.523415 21.5955 0.651157 21.5414C0.7789 21.4872 0.91563 21.4601 1.05343 21.4617H3.52966ZM29.9551 17.8493H25.4471C24.9672 17.8493 24.4873 17.1014 24.4873 16.6028V13.4867C24.4873 12.8636 24.9672 12.8635 25.4471 12.8635H27.8465C28.1357 12.8635 28.395 13.0415 28.4989 13.3114L30.1413 17.5774C30.1918 17.7084 30.0955 17.8493 29.9551 17.8493ZM10.4841 26.7004C10.4841 27.9541 9.51721 28.9705 8.32455 28.9705C7.13188 28.9705 6.16504 27.9541 6.16504 26.7004C6.16504 25.4466 7.13188 24.4302 8.32455 24.4302C9.51721 24.4302 10.4841 25.4466 10.4841 26.7004ZM25.0326 28.9705C26.2252 28.9705 27.1921 27.9541 27.1921 26.7004C27.1921 25.4466 26.2252 24.4302 25.0326 24.4302C23.8399 24.4302 22.873 25.4466 22.873 26.7004C22.873 27.9541 23.8399 28.9705 25.0326 28.9705Z" fill="#05C65D"/>
<path d="M1.22375 21.4629L1.27341 20.9653L1.27042 20.965L1.22375 21.4629ZM1.22731 21.4632L1.27834 20.9658L1.27697 20.9657L1.22731 21.4632ZM1.40023 21.4712L1.38452 21.9709L1.44265 21.9727L1.49964 21.9612L1.40023 21.4712ZM1.05343 21.9617C1.12729 21.9617 1.16459 21.9617 1.1854 21.9618C1.20869 21.962 1.19507 21.9624 1.17708 21.9607L1.27042 20.965C1.22734 20.961 1.17597 20.9617 1.05343 20.9617V21.9617ZM1.17409 21.9604L1.17765 21.9607L1.27697 20.9657L1.27341 20.9653L1.17409 21.9604ZM1.17627 21.9606C1.208 21.9639 1.24655 21.9666 1.38452 21.9709L1.41594 20.9714C1.34844 20.9693 1.31236 20.9677 1.29305 20.9667C1.28367 20.9662 1.2796 20.9659 1.27872 20.9659C1.2784 20.9658 1.27861 20.9659 1.27916 20.9659C1.27957 20.9659 1.27988 20.966 1.27834 20.9658L1.17627 21.9606ZM1.40023 21.4712C1.49964 21.9612 1.49764 21.9616 1.49563 21.962C1.495 21.9621 1.49314 21.9624 1.49192 21.9627C1.48954 21.9631 1.48731 21.9635 1.48525 21.9639C1.48115 21.9646 1.47748 21.9652 1.47433 21.9656C1.46813 21.9666 1.46288 21.9672 1.45897 21.9677C1.45135 21.9686 1.4453 21.9691 1.44187 21.9694C1.43509 21.97 1.43059 21.9702 1.43047 21.9702C1.42989 21.9702 1.43521 21.9699 1.45206 21.9695C1.48513 21.9687 1.55305 21.9676 1.68823 21.9664C1.95802 21.9641 2.48865 21.9617 3.52966 21.9617V20.9617C2.48785 20.9617 1.95376 20.9641 1.67954 20.9664C1.54272 20.9676 1.46881 20.9688 1.42805 20.9698C1.40799 20.9703 1.3934 20.9708 1.38213 20.9713C1.37667 20.9716 1.36913 20.972 1.36065 20.9727C1.35638 20.9731 1.34981 20.9736 1.34188 20.9746C1.33782 20.975 1.33247 20.9757 1.32622 20.9767C1.32304 20.9771 1.31934 20.9777 1.31523 20.9784C1.31316 20.9788 1.31093 20.9792 1.30855 20.9796C1.30732 20.9799 1.30546 20.9802 1.30483 20.9803C1.30282 20.9807 1.30082 20.9811 1.40023 21.4712ZM5.19893 21.9617H6.0876V20.9617H5.19893V21.9617ZM5.19893 21.4617V22.4617L5.2061 22.4617L5.19893 21.4617ZM6.0876 21.4617L6.07887 20.4617L6.0876 22.4617V21.4617ZM21.8757 21.4617V22.4617H22.8757V21.4617H21.8757ZM21.8757 11.6439L20.8757 11.6422V11.6439H21.8757ZM22.0358 10.8086L21.1065 10.4393L21.1065 10.4393L22.0358 10.8086ZM22.4888 10.1011L23.2109 10.7928V10.7928L22.4888 10.1011ZM23.1657 9.62905L23.5621 10.5471L23.5621 10.5471L23.1657 9.62905ZM23.9636 9.46436L23.9617 10.4644H23.9636V9.46436ZM30.2121 10.5482L31.1143 10.1168L31.1128 10.1136L30.2121 10.5482ZM33.3459 17.1026H34.3459V16.8759L34.2481 16.6713L33.3459 17.1026ZM32.3038 26.9205V27.9205L32.3076 27.9204L32.3038 26.9205ZM29.1777 26.9205V25.9205H28.1777V26.9205H29.1777ZM27.9568 30.0084L28.6802 30.6988V30.6988L27.9568 30.0084ZM22.062 30.0084L22.7854 29.3179L22.062 30.0084ZM20.8412 26.9205H21.8412V25.9205H20.8412V26.9205ZM12.5047 26.9205V25.9205H11.5047V26.9205H12.5047ZM11.2839 30.0084L12.0072 30.6988L12.0072 30.6988L11.2839 30.0084ZM5.38909 30.0084L4.66571 30.6988L4.66571 30.6988L5.38909 30.0084ZM4.16824 26.9205H5.16824V25.9205H4.16824V26.9205ZM1.04206 26.9205L1.03826 27.9205H1.04206V26.9205ZM0.304985 26.5981L1.02962 25.909L1.02961 25.909L0.304985 26.5981ZM1.59633e-09 22.5534H1V22.5534L1.59633e-09 22.5534ZM0.0803986 22.1329L1.0094 22.503L1.0094 22.503L0.0803986 22.1329ZM0.309219 21.7772L-0.410397 21.0829L-0.410414 21.0829L0.309219 21.7772ZM0.651157 21.5414L0.26082 20.6207L0.260814 20.6207L0.651157 21.5414ZM1.05343 21.4617L1.042 22.4617H1.05343V21.4617ZM25.4471 12.8635L25.4469 13.8635H25.4471V12.8635ZM28.4989 13.3114L29.4321 12.9521L29.4321 12.9521L28.4989 13.3114ZM30.1413 17.5774L31.0746 17.2181L31.0746 17.2181L30.1413 17.5774ZM3.83333 20.4617H3.52966V22.4617H3.83333V20.4617ZM5.19893 20.4617H3.83333V22.4617H5.19893V20.4617ZM6.0876 21.4617C6.09633 22.4617 6.09634 22.4617 6.09637 22.4617C6.09641 22.4617 6.09645 22.4617 6.09652 22.4617C6.09664 22.4617 6.09683 22.4617 6.09708 22.4617C6.09757 22.4617 6.09831 22.4616 6.09929 22.4616C6.10124 22.4616 6.10415 22.4616 6.10795 22.4616C6.11556 22.4615 6.12676 22.4614 6.14116 22.4613C6.16995 22.461 6.21153 22.4607 6.26267 22.4602C6.36494 22.4593 6.5055 22.458 6.65859 22.4566C6.96439 22.4538 7.32148 22.4505 7.52301 22.4482C7.5733 22.4477 7.61497 22.4472 7.64404 22.4468C7.6581 22.4466 7.67146 22.4463 7.68195 22.4461C7.68577 22.446 7.69548 22.4458 7.70602 22.4454C7.7091 22.4453 7.71435 22.4451 7.72077 22.4448C7.72486 22.4446 7.73987 22.4438 7.7589 22.4421C7.77006 22.441 7.80064 22.4375 7.82009 22.4347C7.8624 22.4274 8.05715 22.3681 8.19995 22.2941C8.66493 21.5468 8.15636 20.5723 7.92261 20.4785C7.87009 20.4662 7.79439 20.4538 7.7717 20.4512C7.74 20.448 7.71461 20.447 7.7119 20.4469C7.70349 20.4465 7.69673 20.4463 7.69323 20.4462C7.68594 20.4461 7.67983 20.446 7.67671 20.446C7.66985 20.4459 7.66288 20.4458 7.65725 20.4458C7.64536 20.4458 7.62958 20.4458 7.61048 20.4459C7.57184 20.446 7.51413 20.4462 7.43468 20.4466C7.11669 20.4483 6.43735 20.4528 5.19176 20.4617L5.2061 22.4617C6.45198 22.4527 7.12945 22.4483 7.44525 22.4466C7.52424 22.4462 7.57978 22.446 7.61563 22.4459C7.63379 22.4458 7.64557 22.4458 7.65234 22.4458C7.65605 22.4458 7.6562 22.4459 7.65433 22.4458C7.65371 22.4458 7.64956 22.4458 7.64372 22.4456C7.64094 22.4456 7.63478 22.4454 7.62684 22.4451C7.62459 22.445 7.59954 22.444 7.56805 22.4408C7.54547 22.4382 7.46985 22.4258 7.41737 22.4136C7.18366 22.3198 6.67511 21.3453 7.14006 20.598C7.28285 20.524 7.47755 20.4647 7.51978 20.4574C7.53914 20.4546 7.56962 20.4511 7.58064 20.4501C7.59938 20.4484 7.61397 20.4476 7.61754 20.4474C7.62343 20.4471 7.62802 20.447 7.63033 20.4469C7.63779 20.4466 7.64249 20.4465 7.63948 20.4466C7.63631 20.4466 7.62874 20.4468 7.61539 20.447C7.58965 20.4473 7.55061 20.4478 7.50072 20.4484C7.30156 20.4506 6.94651 20.4539 6.64035 20.4567C6.48746 20.4581 6.34708 20.4594 6.24492 20.4603C6.19384 20.4607 6.15232 20.4611 6.12357 20.4613C6.1092 20.4615 6.09802 20.4616 6.09043 20.4616C6.08664 20.4617 6.08375 20.4617 6.08181 20.4617C6.08083 20.4617 6.0801 20.4617 6.07961 20.4617C6.07936 20.4617 6.07918 20.4617 6.07906 20.4617C6.07899 20.4617 6.07895 20.4617 6.07892 20.4617C6.07889 20.4617 6.07887 20.4617 6.0876 21.4617ZM21.8757 20.4617H6.0876V22.4617H21.8757V20.4617ZM20.8757 11.6439V21.4617H22.8757V11.6439H20.8757ZM21.1065 10.4393C20.9545 10.8218 20.8764 11.2304 20.8757 11.6422L22.8757 11.6456C22.8759 11.4839 22.9067 11.3248 22.9651 11.1779L21.1065 10.4393ZM21.7666 9.40932C21.4821 9.70638 21.2585 10.0568 21.1065 10.4393L22.9651 11.1779C23.0234 11.031 23.1077 10.9006 23.2109 10.7928L21.7666 9.40932ZM22.7694 8.71096C22.3916 8.87405 22.0513 9.11216 21.7666 9.40932L23.2109 10.7928C23.314 10.6852 23.4338 10.6025 23.5621 10.5471L22.7694 8.71096ZM23.9655 8.46436C23.5538 8.46358 23.1472 8.54781 22.7694 8.71096L23.5621 10.5471C23.6903 10.4918 23.8259 10.4641 23.9617 10.4644L23.9655 8.46436ZM28.1318 8.46436H23.9636V10.4644H28.1318V8.46436ZM31.1128 10.1136C30.8654 9.60102 30.4954 9.15737 29.9457 8.85925C29.4153 8.57159 28.8001 8.46436 28.1318 8.46436V10.4644C28.6004 10.4644 28.8528 10.5417 28.9922 10.6173C29.1123 10.6825 29.214 10.7807 29.3115 10.9828L31.1128 10.1136ZM34.2481 16.6713L31.1143 10.1168L29.31 10.9795L32.4437 17.534L34.2481 16.6713ZM34.3459 20.3739V17.1026H32.3459V20.3739H34.3459ZM34.3459 23.6492V20.3739H32.3459V23.6492H34.3459ZM34.3459 25.8247V23.6492H32.3459V25.8247H34.3459ZM33.7655 27.2873C34.1421 26.8913 34.3459 26.3646 34.3459 25.8247H32.3459C32.3459 25.8647 32.3304 25.8942 32.3163 25.909L33.7655 27.2873ZM32.3076 27.9204C32.8643 27.9183 33.3875 27.6848 33.7655 27.2873L32.3163 25.909C32.3097 25.9159 32.3046 25.9187 32.3022 25.9197C32.3 25.9207 32.2994 25.9205 32.3 25.9205L32.3076 27.9204ZM29.1777 27.9205H32.3038V25.9205H29.1777V27.9205ZM28.6802 30.6988C29.6439 29.6891 30.1777 28.3292 30.1777 26.9205H28.1777C28.1777 27.8281 27.8331 28.6897 27.2334 29.3179L28.6802 30.6988ZM25.0094 32.2875C26.3956 32.2875 27.7149 31.7101 28.6802 30.6988L27.2334 29.3179C26.6353 29.9446 25.8343 30.2875 25.0094 30.2875V32.2875ZM21.3387 30.6988C22.3039 31.7101 23.6233 32.2875 25.0094 32.2875V30.2875C24.1846 30.2875 23.3836 29.9446 22.7854 29.3179L21.3387 30.6988ZM19.8412 26.9205C19.8412 28.3292 20.3749 29.6891 21.3387 30.6988L22.7854 29.3179C22.1858 28.6897 21.8412 27.8281 21.8412 26.9205H19.8412ZM12.5047 27.9205H20.8412V25.9205H12.5047V27.9205ZM12.0072 30.6988C12.971 29.6891 13.5047 28.3292 13.5047 26.9205H11.5047C11.5047 27.8281 11.1601 28.6897 10.5605 29.3179L12.0072 30.6988ZM8.33648 32.2875C9.72261 32.2875 11.042 31.7101 12.0072 30.6988L10.5605 29.3179C9.96235 29.9446 9.16132 30.2875 8.33648 30.2875V32.2875ZM4.66571 30.6988C5.63097 31.7101 6.95035 32.2875 8.33648 32.2875V30.2875C7.51164 30.2875 6.7106 29.9446 6.11246 29.3179L4.66571 30.6988ZM3.16824 26.9205C3.16824 28.3292 3.70196 29.6891 4.66571 30.6988L6.11246 29.3179C5.51282 28.6897 5.16824 27.8281 5.16824 26.9205H3.16824ZM1.04206 27.9205H4.16824V25.9205H1.04206V27.9205ZM-0.419649 27.2873C-0.0415979 27.6848 0.481591 27.9183 1.03826 27.9204L1.04586 25.9205C1.04646 25.9205 1.04591 25.9207 1.04367 25.9197C1.04135 25.9187 1.03618 25.9159 1.02962 25.909L-0.419649 27.2873ZM-1 25.8247C-1 26.3646 -0.796197 26.8913 -0.419642 27.2873L1.02961 25.909C1.01553 25.8942 1 25.8647 1 25.8247H-1ZM-1 22.5534V25.8247H1V22.5534H-1ZM-0.848601 21.7628C-0.948907 22.0146 -1.00001 22.2832 -1 22.5535L1 22.5534C0.999999 22.5349 1.00355 22.5177 1.0094 22.503L-0.848601 21.7628ZM-0.410414 21.0829C-0.600083 21.2794 -0.74827 21.5109 -0.848602 21.7628L1.0094 22.503C1.01522 22.4883 1.02258 22.4781 1.02885 22.4716L-0.410414 21.0829ZM0.260814 20.6207C0.00708163 20.7283 -0.220624 20.8862 -0.410397 21.0829L1.02884 22.4716C1.03501 22.4652 1.03975 22.4628 1.0415 22.462L0.260814 20.6207ZM1.06485 20.4618C0.788135 20.4586 0.51469 20.5131 0.26082 20.6207L1.0415 22.462L1.042 22.4616L1.06485 20.4618ZM3.52966 20.4617H1.05343V22.4617H3.52966V20.4617ZM25.4471 18.8493H29.9551V16.8493H25.4471V18.8493ZM23.4873 16.6028C23.4873 17.1216 23.7134 17.634 23.9764 17.9983C24.213 18.3261 24.7132 18.8493 25.4471 18.8493V16.8493C25.5181 16.8493 25.5736 16.8632 25.6091 16.8761C25.6436 16.8886 25.6616 16.9008 25.6641 16.9026C25.6655 16.9036 25.638 16.8831 25.598 16.8277C25.5598 16.7748 25.5273 16.7134 25.5063 16.6574C25.4835 16.5963 25.4873 16.577 25.4873 16.6028H23.4873ZM23.4873 13.4867V16.6028H25.4873V13.4867H23.4873ZM25.4472 11.8635C25.2762 11.8635 24.8004 11.846 24.3899 12.0238C24.1421 12.131 23.8896 12.316 23.7119 12.6127C23.5411 12.8979 23.4873 13.2066 23.4873 13.4867H25.4873C25.4873 13.4553 25.4935 13.5304 25.4277 13.6403C25.395 13.6949 25.3525 13.7441 25.3043 13.7842C25.2574 13.8232 25.2141 13.8463 25.1846 13.8591C25.1342 13.8809 25.1185 13.8749 25.1809 13.8695C25.2425 13.8642 25.3179 13.8635 25.4469 13.8635L25.4472 11.8635ZM27.8465 11.8635H25.4471V13.8635H27.8465V11.8635ZM29.4321 12.9521C29.1796 12.2962 28.5493 11.8635 27.8465 11.8635V13.8635C27.722 13.8635 27.6104 13.7869 27.5656 13.6707L29.4321 12.9521ZM31.0746 17.2181L29.4321 12.9521L27.5656 13.6707L29.2081 17.9367L31.0746 17.2181ZM29.9551 18.8493C30.8008 18.8493 31.376 18.0011 31.0746 17.2181L29.2081 17.9367C29.0075 17.4158 29.3902 16.8493 29.9551 16.8493V18.8493ZM8.32455 29.9705C10.116 29.9705 11.4841 28.4587 11.4841 26.7004H9.48406C9.48406 27.4495 8.91842 27.9705 8.32455 27.9705V29.9705ZM5.16504 26.7004C5.16504 28.4587 6.53309 29.9705 8.32455 29.9705V27.9705C7.73067 27.9705 7.16504 27.4495 7.16504 26.7004H5.16504ZM8.32455 23.4302C6.53309 23.4302 5.16504 24.942 5.16504 26.7004H7.16504C7.16504 25.9512 7.73067 25.4302 8.32455 25.4302V23.4302ZM11.4841 26.7004C11.4841 24.942 10.116 23.4302 8.32455 23.4302V25.4302C8.91842 25.4302 9.48406 25.9512 9.48406 26.7004H11.4841ZM26.1921 26.7004C26.1921 27.4495 25.6264 27.9705 25.0326 27.9705V29.9705C26.824 29.9705 28.1921 28.4587 28.1921 26.7004H26.1921ZM25.0326 25.4302C25.6264 25.4302 26.1921 25.9512 26.1921 26.7004H28.1921C28.1921 24.942 26.824 23.4302 25.0326 23.4302V25.4302ZM23.873 26.7004C23.873 25.9512 24.4387 25.4302 25.0326 25.4302V23.4302C23.2411 23.4302 21.873 24.942 21.873 26.7004H23.873ZM25.0326 27.9705C24.4387 27.9705 23.873 27.4495 23.873 26.7004H21.873C21.873 28.4587 23.2411 29.9705 25.0326 29.9705V27.9705Z" fill="#05C65D" mask="url(#path-1-inside-1_4753_1919)"/>
<path fill-rule="evenodd" clip-rule="evenodd" d="M6.19467 1.68932V4.10192C6.19467 4.32691 6.16093 4.78035 6.11547 5.39125C5.95201 7.58783 5.63708 11.82 6.19467 14.7863C6.7648 17.8193 6.43222 19.0371 6.19467 19.2669C6.90731 19.152 8.47511 18.9911 9.04524 19.2669C9.75791 19.6115 13.6775 20.3008 15.1029 19.6115C16.2431 19.0601 18.1911 19.152 19.0225 19.2669C18.9037 18.8073 18.6662 17.6814 18.6662 16.8542C18.6662 16.5284 18.7723 15.9973 18.9066 15.3256C19.1984 13.8654 19.6229 11.7409 19.3789 9.61644C19.0225 6.51452 19.0225 2.37863 19.0225 2.03397C19.0225 1.86164 18.6662 1.86164 18.1762 1.86164C17.6863 1.86164 17.0627 1.86164 16.5282 1.68932C15.4592 1.34466 13.3212 1 12.2522 1C11.397 1 9.52035 1.45954 8.68891 1.68932H6.19467ZM11.2663 3.94849H17.1754V9.47017H13.8915V12.9217H7.98242V3.94895H11.2663V3.94849Z" fill="#05C65D"/>
<path d="M6.19467 1.68932V1.18932H5.69467V1.68932H6.19467ZM6.11547 5.39125L5.61685 5.35414L6.11547 5.39125ZM6.19467 14.7863L5.70328 14.8787L6.19467 14.7863ZM6.19467 19.2669L5.84705 18.9075L4.7033 20.0137L6.27425 19.7605L6.19467 19.2669ZM9.04524 19.2669L9.26293 18.8167H9.26293L9.04524 19.2669ZM15.1029 19.6115L14.8852 19.1614L15.1029 19.6115ZM19.0225 19.2669L18.9541 19.7621L19.6934 19.8643L19.5066 19.1417L19.0225 19.2669ZM18.9066 15.3256L18.4163 15.2276V15.2276L18.9066 15.3256ZM19.3789 9.61644L18.8821 9.6735L19.3789 9.61644ZM16.5282 1.68932L16.6816 1.21344V1.21344L16.5282 1.68932ZM8.68891 1.68932V2.18932H8.75673L8.8221 2.17125L8.68891 1.68932ZM17.1754 3.94849H17.6754V3.44849H17.1754V3.94849ZM11.2663 3.94849V3.44849H10.7663V3.94849H11.2663ZM17.1754 9.47017V9.97017H17.6754V9.47017H17.1754ZM13.8915 9.47017V8.97017H13.3915V9.47017H13.8915ZM13.8915 12.9217V13.4217H14.3915V12.9217H13.8915ZM7.98242 12.9217H7.48242V13.4217H7.98242V12.9217ZM7.98242 3.94895V3.44895H7.48242V3.94895H7.98242ZM11.2663 3.94895V4.44895H11.7663V3.94895H11.2663ZM6.69467 4.10192V1.68932H5.69467V4.10192H6.69467ZM6.61409 5.42835C6.65859 4.83027 6.69467 4.35086 6.69467 4.10192H5.69467C5.69467 4.30296 5.66326 4.73044 5.61685 5.35414L6.61409 5.42835ZM6.68606 14.6939C6.14302 11.8051 6.44919 7.64427 6.61409 5.42835L5.61685 5.35414C5.45483 7.5314 5.13113 11.835 5.70328 14.8787L6.68606 14.6939ZM6.54229 19.6262C6.69684 19.4768 6.79226 19.255 6.85564 19.0344C6.92413 18.7959 6.9744 18.4891 6.9967 18.1069C7.04134 17.3421 6.97608 16.2368 6.68606 14.6939L5.70328 14.8787C5.98339 16.3688 6.0369 17.3889 5.9984 18.0487C5.97913 18.3788 5.93735 18.6091 5.89449 18.7583C5.84651 18.9254 5.81127 18.9421 5.84705 18.9075L6.54229 19.6262ZM9.26293 18.8167C9.03828 18.7081 8.76122 18.66 8.50529 18.6365C8.23831 18.6119 7.94364 18.6102 7.65521 18.6207C7.07815 18.6417 6.48711 18.7133 6.11509 18.7732L6.27425 19.7605C6.61486 19.7056 7.16405 19.6392 7.69158 19.62C7.95545 19.6104 8.20417 19.613 8.41377 19.6323C8.63443 19.6526 8.76714 19.6878 8.82755 19.717L9.26293 18.8167ZM14.8852 19.1614C14.6215 19.2889 14.1913 19.3715 13.6321 19.3975C13.0857 19.4229 12.4662 19.3926 11.8584 19.3296C11.2518 19.2667 10.6674 19.1724 10.1942 19.0736C9.70274 18.971 9.37956 18.8731 9.26293 18.8167L8.82755 19.717C9.06725 19.8329 9.50128 19.9505 9.98975 20.0525C10.4965 20.1583 11.1147 20.2579 11.7553 20.3243C12.3946 20.3905 13.0668 20.4248 13.6785 20.3964C14.2773 20.3685 14.8716 20.2788 15.3206 20.0616L14.8852 19.1614ZM19.091 18.7716C18.648 18.7103 17.9229 18.6568 17.157 18.6898C16.4025 18.7223 15.5482 18.8407 14.8852 19.1614L15.3206 20.0616C15.7978 19.8308 16.4876 19.7195 17.2 19.6888C17.901 19.6586 18.5656 19.7085 18.9541 19.7621L19.091 18.7716ZM18.1662 16.8542C18.1662 17.7462 18.4168 18.9215 18.5384 19.392L19.5066 19.1417C19.3907 18.6931 19.1662 17.6167 19.1662 16.8542H18.1662ZM18.4163 15.2276C18.2876 15.8716 18.1662 16.4657 18.1662 16.8542H19.1662C19.1662 16.5912 19.2571 16.1231 19.3969 15.4235L18.4163 15.2276ZM18.8821 9.6735C19.1159 11.7089 18.7097 13.7594 18.4163 15.2276L19.3969 15.4235C19.6871 13.9715 20.1299 11.773 19.8756 9.55938L18.8821 9.6735ZM18.5225 2.03397C18.5225 2.37563 18.522 6.53903 18.8821 9.6735L19.8756 9.55938C19.523 6.49001 19.5225 2.38163 19.5225 2.03397H18.5225ZM18.1762 2.36164C18.4369 2.36164 18.6057 2.36287 18.7122 2.37813C18.769 2.38626 18.75 2.39145 18.7051 2.36495C18.6771 2.34846 18.6283 2.31327 18.5868 2.24923C18.5423 2.18063 18.5225 2.10406 18.5225 2.03397H19.5225C19.5225 1.77261 19.3674 1.59468 19.2133 1.50374C19.0863 1.42877 18.9476 1.40165 18.854 1.38824C18.6599 1.36042 18.4055 1.36164 18.1762 1.36164V2.36164ZM16.3748 2.16519C16.9972 2.36586 17.7021 2.36164 18.1762 2.36164V1.36164C17.6705 1.36164 17.1282 1.35742 16.6816 1.21344L16.3748 2.16519ZM12.2522 1.5C13.2665 1.5 15.3528 1.8357 16.3748 2.16519L16.6816 1.21344C15.5656 0.853611 13.3759 0.5 12.2522 0.5V1.5ZM8.8221 2.17125C9.22963 2.05863 9.89659 1.88886 10.565 1.7477C11.2476 1.60355 11.8833 1.5 12.2522 1.5V0.5C11.766 0.5 11.0357 0.626225 10.3583 0.769284C9.66673 0.915343 8.97963 1.09023 8.55573 1.20738L8.8221 2.17125ZM6.19467 2.18932H8.68891V1.18932H6.19467V2.18932ZM17.1754 3.44849H11.2663V4.44849H17.1754V3.44849ZM17.6754 9.47017V3.94849H16.6754V9.47017H17.6754ZM13.8915 9.97017H17.1754V8.97017H13.8915V9.97017ZM14.3915 12.9217V9.47017H13.3915V12.9217H14.3915ZM7.98242 13.4217H13.8915V12.4217H7.98242V13.4217ZM7.48242 3.94895V12.9217H8.48242V3.94895H7.48242ZM11.2663 3.44895H7.98242V4.44895H11.2663V3.44895ZM10.7663 3.94849V3.94895H11.7663V3.94849H10.7663Z" fill="#05C65D"/>
</svg>
