<svg width="34" height="28" viewBox="0 0 34 28" fill="none" xmlns="http://www.w3.org/2000/svg">
<mask id="path-1-inside-1_4753_1959" fill="white">
<path fill-rule="evenodd" clip-rule="evenodd" d="M3.52966 17.732H3.83333H5.19893C10.1819 17.6962 6.0876 17.732 6.0876 17.732H21.8757V7.91415C21.8762 7.62741 21.9306 7.34358 22.0358 7.07886C22.141 6.81415 22.2949 6.57373 22.4888 6.37135C22.6827 6.16896 22.9127 6.00856 23.1657 5.89931C23.4188 5.79006 23.6899 5.7341 23.9636 5.73462H28.1318C29.2686 5.73462 29.8673 6.10383 30.2121 6.81843L33.3459 13.3729V16.6442V19.9194V22.095C33.3459 22.3849 33.2362 22.663 33.0409 22.8684C32.8456 23.0738 32.5806 23.1897 32.3038 23.1907H29.1777C29.1777 24.3489 28.7385 25.4597 27.9568 26.2787C27.1751 27.0976 26.1149 27.5577 25.0094 27.5577C23.9039 27.5577 22.8437 27.0976 22.062 26.2787C21.2803 25.4597 20.8412 24.3489 20.8412 23.1907H12.5047C12.5047 24.3489 12.0656 25.4597 11.2839 26.2787C10.5022 27.0976 9.44196 27.5577 8.33648 27.5577C7.23099 27.5577 6.17078 27.0976 5.38909 26.2787C4.60739 25.4597 4.16824 24.3489 4.16824 23.1907H1.04206C0.765343 23.1897 0.500298 23.0738 0.304985 22.8684C0.109669 22.663 1.597e-09 22.3849 1.597e-09 22.095V18.8237C-7.6278e-06 18.6793 0.0273209 18.5364 0.0803986 18.4031C0.133476 18.2699 0.21125 18.149 0.309219 18.0475C0.407192 17.946 0.523415 17.8658 0.651157 17.8116C0.7789 17.7575 0.91563 17.7304 1.05343 17.732H3.52966ZM29.9551 14.1195H25.4471C24.9672 14.1195 24.4873 13.3717 24.4873 12.8731V9.75701C24.4873 9.13387 24.9672 9.13371 25.4471 9.13379H27.8465C28.1357 9.13379 28.395 9.31181 28.4989 9.58164L30.1413 13.8477C30.1918 13.9787 30.0955 14.1195 29.9551 14.1195ZM10.4841 22.9706C10.4841 24.2244 9.51721 25.2408 8.32455 25.2408C7.13188 25.2408 6.16504 24.2244 6.16504 22.9706C6.16504 21.7168 7.13188 20.7004 8.32455 20.7004C9.51721 20.7004 10.4841 21.7168 10.4841 22.9706ZM25.0326 25.2408C26.2252 25.2408 27.1921 24.2244 27.1921 22.9706C27.1921 21.7168 26.2252 20.7004 25.0326 20.7004C23.8399 20.7004 22.873 21.7168 22.873 22.9706C22.873 24.2244 23.8399 25.2408 25.0326 25.2408Z"/>
</mask>
<path fill-rule="evenodd" clip-rule="evenodd" d="M3.52966 17.732H3.83333H5.19893C10.1819 17.6962 6.0876 17.732 6.0876 17.732H21.8757V7.91415C21.8762 7.62741 21.9306 7.34358 22.0358 7.07886C22.141 6.81415 22.2949 6.57373 22.4888 6.37135C22.6827 6.16896 22.9127 6.00856 23.1657 5.89931C23.4188 5.79006 23.6899 5.7341 23.9636 5.73462H28.1318C29.2686 5.73462 29.8673 6.10383 30.2121 6.81843L33.3459 13.3729V16.6442V19.9194V22.095C33.3459 22.3849 33.2362 22.663 33.0409 22.8684C32.8456 23.0738 32.5806 23.1897 32.3038 23.1907H29.1777C29.1777 24.3489 28.7385 25.4597 27.9568 26.2787C27.1751 27.0976 26.1149 27.5577 25.0094 27.5577C23.9039 27.5577 22.8437 27.0976 22.062 26.2787C21.2803 25.4597 20.8412 24.3489 20.8412 23.1907H12.5047C12.5047 24.3489 12.0656 25.4597 11.2839 26.2787C10.5022 27.0976 9.44196 27.5577 8.33648 27.5577C7.23099 27.5577 6.17078 27.0976 5.38909 26.2787C4.60739 25.4597 4.16824 24.3489 4.16824 23.1907H1.04206C0.765343 23.1897 0.500298 23.0738 0.304985 22.8684C0.109669 22.663 1.597e-09 22.3849 1.597e-09 22.095V18.8237C-7.6278e-06 18.6793 0.0273209 18.5364 0.0803986 18.4031C0.133476 18.2699 0.21125 18.149 0.309219 18.0475C0.407192 17.946 0.523415 17.8658 0.651157 17.8116C0.7789 17.7575 0.91563 17.7304 1.05343 17.732H3.52966ZM29.9551 14.1195H25.4471C24.9672 14.1195 24.4873 13.3717 24.4873 12.8731V9.75701C24.4873 9.13387 24.9672 9.13371 25.4471 9.13379H27.8465C28.1357 9.13379 28.395 9.31181 28.4989 9.58164L30.1413 13.8477C30.1918 13.9787 30.0955 14.1195 29.9551 14.1195ZM10.4841 22.9706C10.4841 24.2244 9.51721 25.2408 8.32455 25.2408C7.13188 25.2408 6.16504 24.2244 6.16504 22.9706C6.16504 21.7168 7.13188 20.7004 8.32455 20.7004C9.51721 20.7004 10.4841 21.7168 10.4841 22.9706ZM25.0326 25.2408C26.2252 25.2408 27.1921 24.2244 27.1921 22.9706C27.1921 21.7168 26.2252 20.7004 25.0326 20.7004C23.8399 20.7004 22.873 21.7168 22.873 22.9706C22.873 24.2244 23.8399 25.2408 25.0326 25.2408Z" fill="#05C65D"/>
<path d="M1.22375 17.7331L1.27341 17.2356L1.27042 17.2353L1.22375 17.7331ZM1.22731 17.7335L1.27834 17.2361L1.27697 17.2359L1.22731 17.7335ZM1.40023 17.7414L1.38452 18.2412L1.44265 18.243L1.49964 18.2314L1.40023 17.7414ZM1.05343 18.232C1.12729 18.232 1.16459 18.232 1.1854 18.2321C1.20869 18.2322 1.19507 18.2326 1.17708 18.2309L1.27042 17.2353C1.22734 17.2313 1.17597 17.232 1.05343 17.232V18.232ZM1.17409 18.2306L1.17765 18.231L1.27697 17.2359L1.27341 17.2356L1.17409 18.2306ZM1.17627 18.2309C1.208 18.2341 1.24655 18.2368 1.38452 18.2412L1.41594 17.2417C1.34844 17.2395 1.31236 17.238 1.29305 17.237C1.28367 17.2365 1.2796 17.2362 1.27872 17.2361C1.2784 17.2361 1.27861 17.2361 1.27916 17.2362C1.27957 17.2362 1.27988 17.2362 1.27834 17.2361L1.17627 18.2309ZM1.40023 17.7414C1.49964 18.2314 1.49764 18.2318 1.49563 18.2322C1.495 18.2324 1.49314 18.2327 1.49192 18.2329C1.48954 18.2334 1.48731 18.2338 1.48525 18.2341C1.48115 18.2348 1.47748 18.2354 1.47433 18.2359C1.46813 18.2368 1.46288 18.2375 1.45897 18.238C1.45135 18.2389 1.4453 18.2394 1.44187 18.2397C1.43509 18.2402 1.43059 18.2404 1.43047 18.2404C1.42989 18.2405 1.43521 18.2402 1.45206 18.2398C1.48513 18.239 1.55305 18.2378 1.68823 18.2367C1.95802 18.2343 2.48865 18.232 3.52966 18.232V17.232C2.48785 17.232 1.95376 17.2343 1.67954 17.2367C1.54272 17.2379 1.46881 17.2391 1.42805 17.2401C1.40799 17.2406 1.3934 17.2411 1.38213 17.2416C1.37667 17.2419 1.36913 17.2423 1.36065 17.243C1.35638 17.2433 1.34981 17.2439 1.34188 17.2448C1.33782 17.2453 1.33247 17.246 1.32622 17.2469C1.32304 17.2474 1.31934 17.248 1.31523 17.2487C1.31316 17.2491 1.31093 17.2495 1.30855 17.2499C1.30732 17.2501 1.30546 17.2505 1.30483 17.2506C1.30282 17.251 1.30082 17.2514 1.40023 17.7414ZM5.19893 18.232H6.0876V17.232H5.19893V18.232ZM5.19893 17.732V18.732L5.2061 18.7319L5.19893 17.732ZM6.0876 17.732L6.07887 16.732L6.0876 18.732V17.732ZM21.8757 17.732V18.732H22.8757V17.732H21.8757ZM21.8757 7.91415L20.8757 7.91242V7.91415H21.8757ZM22.0358 7.07886L21.1065 6.70956L21.1065 6.70956L22.0358 7.07886ZM22.4888 6.37135L23.2109 7.06311V7.06311L22.4888 6.37135ZM23.1657 5.89931L23.5621 6.8174L23.5621 6.8174L23.1657 5.89931ZM23.9636 5.73462L23.9617 6.73462H23.9636V5.73462ZM30.2121 6.81843L31.1143 6.38709L31.1128 6.38384L30.2121 6.81843ZM33.3459 13.3729H34.3459V13.1461L34.2481 12.9416L33.3459 13.3729ZM32.3038 23.1907V24.1907L32.3076 24.1907L32.3038 23.1907ZM29.1777 23.1907V22.1907H28.1777V23.1907H29.1777ZM27.9568 26.2787L28.6802 26.9691V26.9691L27.9568 26.2787ZM22.062 26.2787L22.7854 25.5882L22.062 26.2787ZM20.8412 23.1907H21.8412V22.1907H20.8412V23.1907ZM12.5047 23.1907V22.1907H11.5047V23.1907H12.5047ZM11.2839 26.2787L12.0072 26.9691L12.0072 26.9691L11.2839 26.2787ZM5.38909 26.2787L4.66571 26.9691L4.66571 26.9691L5.38909 26.2787ZM4.16824 23.1907H5.16824V22.1907H4.16824V23.1907ZM1.04206 23.1907L1.03826 24.1907H1.04206V23.1907ZM0.304985 22.8684L1.02962 22.1792L1.02961 22.1792L0.304985 22.8684ZM1.597e-09 18.8237H1V18.8237L1.597e-09 18.8237ZM0.0803986 18.4031L1.0094 18.7732L1.0094 18.7732L0.0803986 18.4031ZM0.309219 18.0475L-0.410397 17.3531L-0.410414 17.3531L0.309219 18.0475ZM0.651157 17.8116L0.26082 16.891L0.260814 16.891L0.651157 17.8116ZM1.05343 17.732L1.042 18.732H1.05343V17.732ZM25.4471 9.13379L25.4469 10.1338H25.4471V9.13379ZM28.4989 9.58164L29.4321 9.22234L29.4321 9.22233L28.4989 9.58164ZM30.1413 13.8477L31.0746 13.4884L31.0746 13.4884L30.1413 13.8477ZM3.83333 16.732H3.52966V18.732H3.83333V16.732ZM5.19893 16.732H3.83333V18.732H5.19893V16.732ZM6.0876 17.732C6.09633 18.7319 6.09634 18.7319 6.09637 18.7319C6.09641 18.7319 6.09645 18.7319 6.09652 18.7319C6.09664 18.7319 6.09683 18.7319 6.09708 18.7319C6.09757 18.7319 6.09831 18.7319 6.09929 18.7319C6.10124 18.7319 6.10415 18.7319 6.10795 18.7318C6.11556 18.7318 6.12676 18.7317 6.14116 18.7315C6.16995 18.7313 6.21153 18.7309 6.26267 18.7305C6.36494 18.7296 6.5055 18.7283 6.65859 18.7269C6.96439 18.7241 7.32148 18.7208 7.52301 18.7185C7.5733 18.7179 7.61497 18.7174 7.64404 18.717C7.6581 18.7168 7.67146 18.7166 7.68195 18.7164C7.68577 18.7163 7.69548 18.7161 7.70602 18.7157C7.7091 18.7156 7.71435 18.7154 7.72077 18.715C7.72486 18.7148 7.73987 18.7141 7.7589 18.7124C7.77006 18.7113 7.80064 18.7077 7.82009 18.705C7.8624 18.6976 8.05715 18.6383 8.19995 18.5643C8.66493 17.8171 8.15636 16.8425 7.92261 16.7487C7.87009 16.7365 7.79439 16.724 7.7717 16.7215C7.74 16.7182 7.71461 16.7173 7.7119 16.7171C7.70349 16.7168 7.69673 16.7166 7.69323 16.7165C7.68594 16.7163 7.67983 16.7163 7.67671 16.7162C7.66985 16.7161 7.66288 16.7161 7.65725 16.7161C7.64536 16.7161 7.62958 16.7161 7.61048 16.7161C7.57184 16.7162 7.51413 16.7165 7.43468 16.7169C7.11669 16.7186 6.43735 16.7231 5.19176 16.732L5.2061 18.7319C6.45198 18.723 7.12945 18.7185 7.44525 18.7169C7.52424 18.7165 7.57978 18.7162 7.61563 18.7161C7.63379 18.7161 7.64557 18.7161 7.65234 18.7161C7.65605 18.7161 7.6562 18.7161 7.65433 18.7161C7.65371 18.7161 7.64956 18.716 7.64372 18.7159C7.64094 18.7158 7.63478 18.7157 7.62684 18.7153C7.62459 18.7152 7.59954 18.7143 7.56805 18.7111C7.54547 18.7085 7.46985 18.696 7.41737 18.6838C7.18366 18.5901 6.67511 17.6155 7.14006 16.8683C7.28285 16.7943 7.47755 16.735 7.51978 16.7277C7.53914 16.7249 7.56962 16.7214 7.58064 16.7203C7.59938 16.7186 7.61397 16.7179 7.61754 16.7177C7.62343 16.7174 7.62802 16.7172 7.63033 16.7171C7.63779 16.7169 7.64249 16.7168 7.63948 16.7168C7.63631 16.7169 7.62874 16.717 7.61539 16.7172C7.58965 16.7176 7.55061 16.7181 7.50072 16.7186C7.30156 16.7208 6.94651 16.7242 6.64035 16.727C6.48746 16.7284 6.34708 16.7296 6.24492 16.7305C6.19384 16.731 6.15232 16.7314 6.12357 16.7316C6.1092 16.7317 6.09802 16.7318 6.09043 16.7319C6.08664 16.7319 6.08375 16.732 6.08181 16.732C6.08083 16.732 6.0801 16.732 6.07961 16.732C6.07936 16.732 6.07918 16.732 6.07906 16.732C6.07899 16.732 6.07895 16.732 6.07892 16.732C6.07889 16.732 6.07887 16.732 6.0876 17.732ZM21.8757 16.732H6.0876V18.732H21.8757V16.732ZM20.8757 7.91415V17.732H22.8757V7.91415H20.8757ZM21.1065 6.70956C20.9545 7.09205 20.8764 7.50065 20.8757 7.91242L22.8757 7.91589C22.8759 7.75417 22.9067 7.59511 22.9651 7.44817L21.1065 6.70956ZM21.7666 5.67958C21.4821 5.97664 21.2585 6.32702 21.1065 6.70956L22.9651 7.44817C23.0234 7.30128 23.1077 7.17083 23.2109 7.06311L21.7666 5.67958ZM22.7694 4.98122C22.3916 5.14431 22.0513 5.38242 21.7666 5.67958L23.2109 7.06311C23.314 6.9555 23.4338 6.87281 23.5621 6.8174L22.7694 4.98122ZM23.9655 4.73462C23.5538 4.73384 23.1472 4.81808 22.7694 4.98122L23.5621 6.8174C23.6903 6.76205 23.8259 6.73436 23.9617 6.73462L23.9655 4.73462ZM28.1318 4.73462H23.9636V6.73462H28.1318V4.73462ZM31.1128 6.38384C30.8654 5.87128 30.4954 5.42763 29.9457 5.12952C29.4153 4.84185 28.8001 4.73462 28.1318 4.73462V6.73462C28.6004 6.73462 28.8528 6.812 28.9922 6.88759C29.1123 6.95273 29.214 7.05098 29.3115 7.25303L31.1128 6.38384ZM34.2481 12.9416L31.1143 6.38709L29.31 7.24978L32.4437 13.8042L34.2481 12.9416ZM34.3459 16.6442V13.3729H32.3459V16.6442H34.3459ZM34.3459 19.9194V16.6442H32.3459V19.9194H34.3459ZM34.3459 22.095V19.9194H32.3459V22.095H34.3459ZM33.7655 23.5575C34.1421 23.1616 34.3459 22.6349 34.3459 22.095H32.3459C32.3459 22.1349 32.3304 22.1644 32.3163 22.1792L33.7655 23.5575ZM32.3076 24.1907C32.8643 24.1886 33.3875 23.955 33.7655 23.5575L32.3163 22.1792C32.3097 22.1861 32.3046 22.1889 32.3022 22.1899C32.3 22.1909 32.2994 22.1907 32.3 22.1907L32.3076 24.1907ZM29.1777 24.1907H32.3038V22.1907H29.1777V24.1907ZM28.6802 26.9691C29.6439 25.9594 30.1777 24.5995 30.1777 23.1907H28.1777C28.1777 24.0983 27.8331 24.96 27.2334 25.5882L28.6802 26.9691ZM25.0094 28.5577C26.3956 28.5577 27.7149 27.9804 28.6802 26.9691L27.2334 25.5882C26.6353 26.2149 25.8343 26.5577 25.0094 26.5577V28.5577ZM21.3387 26.9691C22.3039 27.9804 23.6233 28.5577 25.0094 28.5577V26.5577C24.1846 26.5577 23.3836 26.2149 22.7854 25.5882L21.3387 26.9691ZM19.8412 23.1907C19.8412 24.5995 20.3749 25.9594 21.3387 26.9691L22.7854 25.5882C22.1858 24.96 21.8412 24.0983 21.8412 23.1907H19.8412ZM12.5047 24.1907H20.8412V22.1907H12.5047V24.1907ZM12.0072 26.9691C12.971 25.9594 13.5047 24.5995 13.5047 23.1907H11.5047C11.5047 24.0983 11.1601 24.96 10.5605 25.5882L12.0072 26.9691ZM8.33648 28.5577C9.72261 28.5577 11.042 27.9804 12.0072 26.9691L10.5605 25.5882C9.96235 26.2149 9.16132 26.5577 8.33648 26.5577V28.5577ZM4.66571 26.9691C5.63097 27.9804 6.95035 28.5577 8.33648 28.5577V26.5577C7.51164 26.5577 6.7106 26.2149 6.11246 25.5882L4.66571 26.9691ZM3.16824 23.1907C3.16824 24.5995 3.70196 25.9594 4.66571 26.9691L6.11246 25.5882C5.51282 24.96 5.16824 24.0983 5.16824 23.1907H3.16824ZM1.04206 24.1907H4.16824V22.1907H1.04206V24.1907ZM-0.419649 23.5575C-0.0415979 23.955 0.481591 24.1886 1.03826 24.1907L1.04586 22.1907C1.04646 22.1907 1.04591 22.1909 1.04367 22.1899C1.04135 22.1889 1.03618 22.1861 1.02962 22.1792L-0.419649 23.5575ZM-1 22.095C-1 22.6349 -0.796197 23.1616 -0.419642 23.5575L1.02961 22.1792C1.01553 22.1644 1 22.1349 1 22.095H-1ZM-1 18.8237V22.095H1V18.8237H-1ZM-0.848601 18.0331C-0.948907 18.2849 -1.00001 18.5535 -1 18.8238L1 18.8237C0.999999 18.8052 1.00355 18.7879 1.0094 18.7732L-0.848601 18.0331ZM-0.410414 17.3531C-0.600083 17.5497 -0.74827 17.7812 -0.848602 18.0331L1.0094 18.7732C1.01522 18.7586 1.02258 18.7483 1.02885 18.7418L-0.410414 17.3531ZM0.260814 16.891C0.00708163 16.9985 -0.220624 17.1564 -0.410397 17.3531L1.02884 18.7419C1.03501 18.7355 1.03975 18.733 1.0415 18.7323L0.260814 16.891ZM1.06485 16.732C0.788135 16.7289 0.51469 16.7833 0.26082 16.891L1.0415 18.7323L1.042 18.7319L1.06485 16.732ZM3.52966 16.732H1.05343V18.732H3.52966V16.732ZM25.4471 15.1195H29.9551V13.1195H25.4471V15.1195ZM23.4873 12.8731C23.4873 13.3918 23.7134 13.9043 23.9764 14.2686C24.213 14.5963 24.7132 15.1195 25.4471 15.1195V13.1195C25.5181 13.1195 25.5736 13.1335 25.6091 13.1464C25.6436 13.1589 25.6616 13.1711 25.6641 13.1728C25.6655 13.1738 25.638 13.1534 25.598 13.098C25.5598 13.0451 25.5273 12.9837 25.5063 12.9276C25.4835 12.8666 25.4873 12.8473 25.4873 12.8731H23.4873ZM23.4873 9.75701V12.8731H25.4873V9.75701H23.4873ZM25.4472 8.13379C25.2762 8.13376 24.8004 8.11626 24.3899 8.29402C24.1421 8.4013 23.8896 8.58626 23.7119 8.88294C23.5411 9.16812 23.4873 9.47689 23.4873 9.75701H25.4873C25.4873 9.72556 25.4935 9.80062 25.4277 9.91053C25.395 9.96521 25.3525 10.0143 25.3043 10.0545C25.2574 10.0935 25.2141 10.1166 25.1846 10.1294C25.1342 10.1512 25.1185 10.1452 25.1809 10.1398C25.2425 10.1344 25.3179 10.1338 25.4469 10.1338L25.4472 8.13379ZM27.8465 8.13379H25.4471V10.1338H27.8465V8.13379ZM29.4321 9.22233C29.1796 8.56649 28.5493 8.13379 27.8465 8.13379V10.1338C27.722 10.1338 27.6104 10.0571 27.5656 9.94094L29.4321 9.22233ZM31.0746 13.4884L29.4321 9.22234L27.5656 9.94094L29.2081 14.207L31.0746 13.4884ZM29.9551 15.1195C30.8008 15.1195 31.376 14.2713 31.0746 13.4884L29.2081 14.207C29.0075 13.686 29.3902 13.1195 29.9551 13.1195V15.1195ZM8.32455 26.2408C10.116 26.2408 11.4841 24.729 11.4841 22.9706H9.48406C9.48406 23.7198 8.91842 24.2408 8.32455 24.2408V26.2408ZM5.16504 22.9706C5.16504 24.729 6.53309 26.2408 8.32455 26.2408V24.2408C7.73067 24.2408 7.16504 23.7198 7.16504 22.9706H5.16504ZM8.32455 19.7004C6.53309 19.7004 5.16504 21.2122 5.16504 22.9706H7.16504C7.16504 22.2214 7.73067 21.7004 8.32455 21.7004V19.7004ZM11.4841 22.9706C11.4841 21.2122 10.116 19.7004 8.32455 19.7004V21.7004C8.91842 21.7004 9.48406 22.2214 9.48406 22.9706H11.4841ZM26.1921 22.9706C26.1921 23.7198 25.6264 24.2408 25.0326 24.2408V26.2408C26.824 26.2408 28.1921 24.729 28.1921 22.9706H26.1921ZM25.0326 21.7004C25.6264 21.7004 26.1921 22.2214 26.1921 22.9706H28.1921C28.1921 21.2122 26.824 19.7004 25.0326 19.7004V21.7004ZM23.873 22.9706C23.873 22.2214 24.4387 21.7004 25.0326 21.7004V19.7004C23.2411 19.7004 21.873 21.2122 21.873 22.9706H23.873ZM25.0326 24.2408C24.4387 24.2408 23.873 23.7198 23.873 22.9706H21.873C21.873 24.729 23.2411 26.2408 25.0326 26.2408V24.2408Z" fill="#05C65D" mask="url(#path-1-inside-1_4753_1959)"/>
<rect x="0.857143" y="11.1623" width="6.36263" height="4.62768" stroke="#05C65D" stroke-width="1.71429"/>
<rect x="7.31906" y="11.1623" width="6.36263" height="4.62768" stroke="#05C65D" stroke-width="1.71429"/>
<rect x="4.08761" y="5.85128" width="6.36263" height="4.62768" stroke="#05C65D" stroke-width="1.71429"/>
<rect x="13.78" y="11.1623" width="6.36263" height="4.62768" stroke="#05C65D" stroke-width="1.71429"/>
<rect x="10.5495" y="5.85128" width="6.36263" height="4.62768" stroke="#05C65D" stroke-width="1.71429"/>
<rect x="7.31906" y="0.857143" width="6.36263" height="4.62768" stroke="#05C65D" stroke-width="1.71429"/>
</svg>
