<svg width="120" height="44" viewBox="0 0 120 44" fill="none" xmlns="http://www.w3.org/2000/svg">
<path d="M25.376 38.8832C25.886 38.8832 26.113 38.8311 26.276 38.6829C26.439 38.5346 26.65 38.182 26.65 36.96C26.65 35.738 26.45 35.4004 26.276 35.2401C26.102 35.0799 25.887 35.0398 25.376 35.0398H22.202V38.8862L25.376 38.8832ZM27.045 39.4211C26.8434 39.5759 26.613 39.689 26.3673 39.7538C26.1217 39.8186 25.8656 39.8339 25.614 39.7987H22.202V43.5379H21.143V34.1223H25.612C25.8634 34.0857 26.1196 34.1001 26.3654 34.1644C26.6112 34.2287 26.8416 34.3418 27.043 34.4969C27.432 34.8595 27.727 35.3854 27.727 36.986C27.727 38.5316 27.427 39.0545 27.043 39.4181" fill="#3D4550"/>
<path d="M35.0797 38.5607C35.5567 38.5607 35.7637 38.4676 35.8997 38.3223C36.0357 38.1771 36.2737 37.8446 36.2737 36.7768C36.2737 35.709 36.0737 35.3745 35.9117 35.2172C35.7497 35.06 35.5497 35.0289 35.1057 35.0289H31.6597V38.5527L35.0797 38.5607ZM35.8597 39.7046C35.6597 39.5163 35.3827 39.4492 34.8107 39.4492H31.6607V43.537H30.5997V34.1214H35.3497C35.8441 34.0655 36.3407 34.2062 36.7327 34.513C37.0947 34.8767 37.3237 35.3584 37.3237 36.7297C37.3237 38.3594 36.8657 38.8332 35.9237 39.0335V39.0475C36.8517 39.2629 37.1877 39.5253 37.2547 41.0379C37.2957 42.1397 37.3337 42.9751 37.4007 43.542H36.3557C36.2515 42.7209 36.1928 41.8946 36.1797 41.0669C36.1537 40.1254 36.0457 39.8839 35.8457 39.7097" fill="#3D4550"/>
<path d="M41.8899 42.4216C42.0239 42.5408 42.1829 42.622 42.7479 42.622H45.4349C45.9979 42.636 46.1499 42.5408 46.2939 42.4216C46.5319 42.2063 46.7229 41.7205 46.7229 38.8377C46.7229 35.9549 46.5229 35.4621 46.2939 35.2537C46.1599 35.1315 45.9939 35.0534 45.4349 35.0534H42.7499C42.1849 35.0534 42.0349 35.1345 41.8919 35.2537C41.6769 35.4691 41.4599 35.9549 41.4599 38.8377C41.4599 41.7205 41.6769 42.2133 41.8919 42.4216H41.8899ZM45.5429 34.1249C46.4009 34.1249 46.7349 34.232 47.0189 34.4995C47.5189 34.9563 47.7959 35.6434 47.7959 38.8307C47.7959 42.018 47.5149 42.7031 47.0189 43.1599C46.7379 43.4303 46.4009 43.5375 45.5429 43.5375H42.6429C41.7959 43.5375 41.4509 43.4303 41.1639 43.1599C40.6869 42.7031 40.3869 42.018 40.3869 38.8307C40.3869 35.6434 40.6869 34.9552 41.1639 34.4995C41.4639 34.232 41.7959 34.1249 42.6429 34.1249H45.5429Z" fill="#3D4550"/>
<path d="M52.11 35.0389V38.3855H56.21V39.287H52.11V43.535H51.051V34.1194H57.025V35.0339L52.11 35.0389Z" fill="#3D4550"/>
<path d="M66.1492 43.5368H59.9492V34.1212H66.1922V35.0357H61.0102V38.196H65.4532V39.0975H61.0102V42.6213H66.1512L66.1492 43.5368Z" fill="#3D4550"/>
<path d="M75.2971 43.1179C75.1097 43.2784 74.8911 43.3983 74.6552 43.4702C74.4192 43.5421 74.171 43.5643 73.9261 43.5355H70.7191C70.4764 43.5714 70.2288 43.5551 69.9928 43.488C69.7568 43.4208 69.5377 43.3042 69.3501 43.1459C68.9881 42.7823 68.8501 42.4057 68.8401 40.6968H69.8691C69.8981 42.016 69.9691 42.2564 70.1241 42.4197C70.2791 42.583 70.4341 42.62 70.8781 42.62H73.7691C74.2131 42.62 74.3991 42.5679 74.5461 42.4047C74.6931 42.2414 74.8011 41.8528 74.8011 40.9523C74.8011 40.0518 74.7601 39.8364 74.5631 39.6331C74.4151 39.4988 74.2411 39.4327 73.7311 39.3937L70.7911 39.1262C70.2877 39.1389 69.7967 38.9692 69.4081 38.6484C69.0741 38.3119 68.9671 37.8811 68.9671 36.6701C68.9671 35.5142 69.1011 34.9353 69.5151 34.5196C69.7001 34.3598 69.9163 34.2403 70.1499 34.1688C70.3836 34.0972 70.6295 34.0751 70.8721 34.1039H73.7841C74.029 34.0678 74.2788 34.0838 74.5171 34.1509C74.7554 34.2181 74.9769 34.3348 75.1671 34.4936C75.5441 34.8682 75.6441 35.2608 75.6771 36.8825H74.6301C74.6161 35.6715 74.5491 35.404 74.3921 35.2298C74.2872 35.1467 74.1665 35.0861 74.0373 35.0517C73.9081 35.0172 73.7733 35.0096 73.6411 35.0294H71.0321C70.5881 35.0294 70.4141 35.0845 70.2521 35.2468C70.0901 35.4091 70.0141 35.8478 70.0141 36.6591C70.0141 37.5045 70.0661 37.7339 70.2521 37.9232C70.4001 38.0715 70.5741 38.1095 71.0841 38.1616L74.0241 38.4321C74.5229 38.4213 75.0089 38.5909 75.3931 38.9099C75.7291 39.2464 75.8491 39.7032 75.8491 40.9553C75.8491 42.2073 75.7011 42.7422 75.3011 43.1319" fill="#3D4550"/>
<path d="M80.1871 34.1249H79.1261V43.5375H80.1871V34.1249Z" fill="#3D4550"/>
<path d="M84.9611 42.4216C85.0951 42.5408 85.2611 42.622 85.8191 42.622H88.4951C89.0581 42.636 89.2101 42.5408 89.3531 42.4216C89.5911 42.2063 89.7821 41.7205 89.7821 38.8377C89.7821 35.9549 89.5821 35.4621 89.3531 35.2537C89.2191 35.1315 89.0531 35.0534 88.4941 35.0534H85.8181C85.2551 35.0534 85.1031 35.1345 84.9601 35.2537C84.7451 35.4691 84.5311 35.9549 84.5311 38.8377C84.5311 41.7205 84.7461 42.2133 84.9601 42.4216H84.9611ZM88.6111 34.1249C89.4691 34.1249 89.8031 34.232 90.0871 34.4995C90.5871 34.9563 90.8671 35.6434 90.8671 38.8307C90.8671 42.018 90.5861 42.7031 90.0871 43.1599C89.8061 43.4303 89.4691 43.5375 88.6111 43.5375H85.7111C84.8671 43.5375 84.5311 43.4303 84.2351 43.1599C83.7581 42.7031 83.4581 42.018 83.4581 38.8307C83.4581 35.6434 83.7511 34.9552 84.2351 34.4995C84.5351 34.232 84.8671 34.1249 85.7111 34.1249H88.6111Z" fill="#3D4550"/>
<path d="M101.135 43.5373H100.035C99.9079 43.5588 99.7775 43.5339 99.6674 43.4672C99.5573 43.4004 99.4748 43.2963 99.4349 43.1737L95.1259 35.495H94.9659V43.5363H93.9308V34.1207H95.0989C95.2257 34.1009 95.3554 34.128 95.4637 34.1969C95.5721 34.2659 95.6518 34.3719 95.6879 34.4953L99.9178 41.9727H100.092V34.1197H101.134L101.135 43.5373Z" fill="#3D4550"/>
<path d="M105.98 39.7576H109.319L107.79 35.0248H107.509L105.98 39.7576ZM109.617 40.6591H105.685L104.76 43.5379H103.698L106.758 34.4478C106.839 34.1663 106.92 34.0992 107.268 34.0992H108.115C108.451 34.0992 108.53 34.1663 108.625 34.4478L111.685 43.5519H110.548L109.617 40.6591Z" fill="#3D4550"/>
<path d="M115.032 42.6243H119.811V43.5368H113.971V34.1212H115.032V42.6243Z" fill="#3D4550"/>
<path d="M21.121 0H0V21.1571H14.07V14.1034H21.11L21.121 0ZM18.7671 2.3579V11.7495H11.725V18.8022H2.35302V2.3579H18.7671Z" fill="#3D4550"/>
<path d="M25.9809 26.0829C26.5699 26.0829 26.7369 26.0519 26.8279 25.9607C26.9929 25.8105 27.0659 25.5971 27.0659 24.8259C27.0659 24.0546 26.9749 23.8563 26.8279 23.724C26.7209 23.6329 26.5699 23.6018 25.9809 23.6018H24.3809V26.0839L25.9809 26.0829ZM29.4559 28.0181C28.877 28.4031 28.1816 28.5722 27.4909 28.4959H24.3789V31.7924H21.1329V21.1828H27.4909C28.1818 21.1026 28.8786 21.272 29.4559 21.6606C29.9689 22.1144 30.4219 22.8125 30.4219 24.8379C30.4219 26.8632 29.9689 27.5614 29.4559 28.0152" fill="#3D4550"/>
<path d="M34.6981 27.2201H36.6771L35.7671 24.1029H35.6021L34.6981 27.2201ZM37.3211 29.4899H34.0671L33.4141 31.7737H30.1671L33.3671 22.1367C33.6391 21.3353 33.7601 21.135 34.4851 21.135H37.0851C37.8001 21.135 37.9481 21.3454 38.2031 22.1367L41.4031 31.7737H37.9741L37.3211 29.4899Z" fill="#3D4550"/>
<path d="M50.7081 31.1695C50.4238 31.4083 50.0928 31.5852 49.7364 31.6886C49.38 31.7921 49.006 31.82 48.6382 31.7705H45.0942C44.7242 31.8195 44.3481 31.7914 43.9895 31.6879C43.6309 31.5845 43.2975 31.408 43.0101 31.1695C42.3901 30.5685 41.8611 29.3996 41.8611 26.4798C41.8611 23.5599 42.3901 22.395 43.0101 21.788C43.2972 21.5489 43.6306 21.3721 43.9893 21.2687C44.348 21.1652 44.7242 21.1374 45.0942 21.187H48.6282C48.996 21.1366 49.3702 21.1641 49.7268 21.2676C50.0833 21.3711 50.4143 21.5484 50.6982 21.788C51.2252 22.3178 51.4832 23.2404 51.5112 25.3719H48.4872C48.4422 24.0557 48.3202 23.8594 48.2292 23.7692C48.1382 23.6791 47.9912 23.6471 47.5292 23.6471H46.1862C45.7332 23.6471 45.5802 23.6781 45.4922 23.7692C45.4042 23.8604 45.2032 24.1639 45.2032 26.4738C45.2032 28.7836 45.3842 29.0781 45.4922 29.1782C45.6002 29.2784 45.7302 29.3004 46.1862 29.3004H47.5292C47.9842 29.3004 48.1352 29.2694 48.2292 29.1782C48.3232 29.0871 48.4412 28.8917 48.4872 27.5295H51.5322C51.5032 29.6941 51.2602 30.6346 50.7192 31.1605" fill="#3D4550"/>
<path d="M56.6799 27.2201H58.659L57.7529 24.1029H57.586L56.6799 27.2201ZM59.303 29.4899H56.045L55.3959 31.7737H52.1489L55.3489 22.1367C55.6209 21.3353 55.742 21.135 56.467 21.135H59.0669C59.7819 21.135 59.928 21.3454 60.185 22.1367L63.385 31.7737H59.959L59.303 29.4899Z" fill="#3D4550"/>
<path d="M72.7019 31.2596C72.4727 31.4535 72.2066 31.5989 71.9198 31.6873C71.633 31.7756 71.3314 31.8049 71.0329 31.7734H66.6759C66.3463 31.8215 66.0103 31.8019 65.6885 31.7158C65.3667 31.6297 65.0657 31.4789 64.8039 31.2726C64.3649 30.8359 64.1549 30.0636 64.1549 28.2025H67.1249C67.1559 28.9888 67.2159 29.2042 67.2919 29.2753C67.3679 29.3464 67.5639 29.3975 68.0069 29.3975H69.5309C69.9699 29.3975 70.2309 29.3664 70.3009 29.2973C70.4163 29.0902 70.4639 28.8519 70.4369 28.6162C70.4622 28.4042 70.4142 28.19 70.3009 28.0092C70.0559 27.8922 69.7883 27.8304 69.5169 27.8279L66.3909 27.4643C65.8607 27.4516 65.3527 27.2483 64.9599 26.8913C64.6812 26.5412 64.4771 26.1375 64.3601 25.7053C64.2432 25.273 64.2159 24.8214 64.2799 24.3782C64.1898 23.4126 64.4829 22.4504 65.0959 21.6997C65.3201 21.51 65.5798 21.3668 65.8598 21.2786C66.1399 21.1903 66.4346 21.1588 66.7269 21.1859H70.7809C71.4431 21.0968 72.114 21.2681 72.6529 21.6637C73.1089 22.1174 73.3529 22.7845 73.3679 24.6145H70.3869C70.3579 23.9504 70.3129 23.7691 70.2229 23.678C70.1329 23.5868 69.9839 23.5558 69.5889 23.5558H68.0769C67.7149 23.5558 67.5329 23.5728 67.4769 23.6319C67.3748 23.8219 67.3323 24.0384 67.3549 24.2529C67.3549 24.6015 67.3999 24.7668 67.4909 24.8539C67.5819 24.9411 67.7629 24.9541 68.2779 25.0212L71.4329 25.3818C71.9624 25.4009 72.4685 25.6046 72.8639 25.9578C73.136 26.3081 73.335 26.7095 73.4492 27.1383C73.5635 27.5671 73.5906 28.0144 73.5289 28.4539C73.6302 29.4597 73.3368 30.4656 72.7109 31.2586" fill="#3D4550"/>
<path d="M87.7091 31.7741H84.6421V25.3634H84.4921L82.5841 31.1731C82.4311 31.6268 82.2951 31.7741 81.9021 31.7741H80.8171C80.4241 31.7741 80.2711 31.6088 80.1371 31.1731L78.2371 25.3634H78.0871V31.7741H75.1131V21.1835H79.1671C79.6441 21.1835 79.8011 21.3337 79.9371 21.8045L81.4011 26.6125H81.5371L82.9111 21.8045C83.0491 21.3267 83.2111 21.1835 83.6811 21.1835H87.7091V31.7741Z" fill="#3D4550"/>
<path d="M93.3527 27.2201H95.3297L94.4237 24.1029H94.2567L93.3527 27.2201ZM95.9757 29.4899H92.7157L92.0697 31.7737H88.8197L92.0197 22.1367C92.2917 21.3353 92.4127 21.135 93.1377 21.135H95.7377C96.4527 21.135 96.5987 21.3454 96.8557 22.1367L100.056 31.7737H96.6327L95.9757 29.4899Z" fill="#3D4550"/>
<path d="M105.937 28.2362V31.7771H102.837V28.2362L99.017 21.1835H102.401L104.44 25.2232H104.5L106.553 21.1835H109.753L105.937 28.2362Z" fill="#3D4550"/>
<path d="M113.638 29.1896C113.729 29.2808 113.877 29.3118 114.332 29.3118H115.682C116.135 29.3118 116.282 29.2808 116.382 29.1896C116.482 29.0985 116.668 28.798 116.668 26.4851C116.668 24.1723 116.487 23.8808 116.382 23.7806C116.277 23.6805 116.143 23.6584 115.682 23.6584H114.337C113.884 23.6584 113.737 23.6895 113.643 23.7806C113.549 23.8718 113.357 24.1753 113.357 26.4851C113.357 28.795 113.538 29.0894 113.643 29.1896H113.638ZM116.769 21.1863C117.139 21.1374 117.515 21.1655 117.874 21.2689C118.232 21.3724 118.566 21.5488 118.853 21.7873C119.473 22.3943 120 23.5573 120 26.4791C120 29.401 119.473 30.5639 118.853 31.1689C118.566 31.4079 118.233 31.5848 117.874 31.6882C117.515 31.7916 117.139 31.8195 116.769 31.7699H113.244C112.874 31.8186 112.498 31.7904 112.139 31.687C111.781 31.5835 111.447 31.4072 111.16 31.1689C110.542 30.5679 110.013 29.399 110.013 26.4791C110.013 23.5593 110.542 22.3943 111.16 21.7873C111.447 21.5483 111.78 21.3715 112.139 21.268C112.498 21.1646 112.874 21.1368 113.244 21.1863H116.769Z" fill="#3D4550"/>
</svg>
