<svg width="28" height="26" viewBox="0 0 28 26" fill="none" xmlns="http://www.w3.org/2000/svg">
<g filter="url(#filter0_d)">
<path d="M16.1694 11.8101H17.1391V14.0531H16.1694V11.8101Z" fill="#5585c1"/>
<path d="M10.1089 5.92285H11.0786V8.16588H10.1089V5.92285Z" fill="#5585c1"/>
<path d="M10.1089 9.49463H11.0786V11.7023H10.1089V9.49463Z" fill="#5585c1"/>
<path d="M22.1814 7.19406V15.1594L17.1391 16.6901V15.3419H16.1694V16.5194L11.0786 13.982V12.9871H10.109V13.9997L5.2121 15.9601V5.17474L10.109 3.2143V4.5978H11.0786V3.22019L16.1694 5.75169V6.988H17.1391V5.88709L17.4906 5.78113C17.2099 5.45712 16.9773 5.09644 16.7997 4.70965L10.9453 1.83081C10.8655 1.79494 10.7787 1.77637 10.6908 1.77637C10.6029 1.77637 10.516 1.79494 10.4362 1.83081L4.37576 4.23868C4.26413 4.28322 4.16873 4.35913 4.10179 4.45668C4.03484 4.55422 3.9994 4.66896 4.00001 4.78619V16.8432C4.0005 16.9396 4.02537 17.0344 4.07242 17.1193C4.11948 17.2042 4.18728 17.2766 4.26987 17.3301C4.35246 17.3836 4.44731 17.4165 4.54609 17.4261C4.64486 17.4356 4.74454 17.4215 4.83635 17.3848L10.6665 15.0299L16.4785 17.9264C16.5648 17.9694 16.6604 17.9916 16.7573 17.9912C16.8173 18.0029 16.8791 18.0029 16.9391 17.9912L22.9996 16.1544C23.1273 16.1155 23.2382 16.0367 23.3149 15.9302C23.3917 15.8237 23.43 15.6955 23.4238 15.5657V6.65832C23.0395 6.89599 22.6207 7.07656 22.1814 7.19406Z" fill="#5585c1"/>
<path d="M20.9697 5.88721C22.6432 5.88721 23.9999 4.56931 23.9999 2.9436C23.9999 1.3179 22.6432 0 20.9697 0C19.2961 0 17.9395 1.3179 17.9395 2.9436C17.9395 4.56931 19.2961 5.88721 20.9697 5.88721Z" fill="#5585c1"/>
</g>
<defs>
<filter id="filter0_d" x="0" y="0" width="27.9999" height="26" filterUnits="userSpaceOnUse" color-interpolation-filters="sRGB">
<feFlood flood-opacity="0" result="BackgroundImageFix"/>
<feColorMatrix in="SourceAlpha" type="matrix" values="0 0 0 0 0 0 0 0 0 0 0 0 0 0 0 0 0 0 127 0" result="hardAlpha"/>
<feOffset dy="4"/>
<feGaussianBlur stdDeviation="2"/>
<feColorMatrix type="matrix" values="0 0 0 0 0.704167 0 0 0 0 0.698299 0 0 0 0 0.698299 0 0 0 0.25 0"/>
<feBlend mode="normal" in2="BackgroundImageFix" result="effect1_dropShadow"/>
<feBlend mode="normal" in="SourceGraphic" in2="effect1_dropShadow" result="shape"/>
</filter>
</defs>
</svg>
