<svg width="28" height="27" viewBox="0 0 28 27" fill="none" xmlns="http://www.w3.org/2000/svg">
<g filter="url(#filter0_d)">
<path d="M16.1699 12.5156H17.1396V14.7298H16.1699V12.5156Z" fill="white"/>
<path d="M10.1094 6.70508H11.0791V8.91922H10.1094V6.70508Z" fill="white"/>
<path d="M10.1094 10.231H11.0791V12.4102H10.1094V10.231Z" fill="white"/>
<path d="M22.1814 7.95975V15.8226L17.1391 17.3335V16.0027H16.1694V17.165L11.0786 14.6603V13.6782H10.109V14.6777L5.2121 16.6129V5.96644L10.109 4.03124V5.39692H11.0786V4.03705L16.1694 6.53595V7.75635H17.1391V6.66962L17.4906 6.56501C17.2099 6.24518 16.9773 5.88915 16.7997 5.50734L10.9453 2.66556C10.8655 2.63015 10.7787 2.61182 10.6908 2.61182C10.6029 2.61182 10.516 2.63015 10.4362 2.66556L4.37576 5.04242C4.26413 5.0864 4.16873 5.16133 4.10179 5.25761C4.03484 5.3539 3.9994 5.46716 4.00001 5.58288V17.4846C4.0005 17.5798 4.02537 17.6734 4.07242 17.7572C4.11948 17.841 4.18728 17.9125 4.26987 17.9653C4.35246 18.0181 4.44731 18.0506 4.54609 18.06C4.64486 18.0695 4.74454 18.0555 4.83635 18.0193L10.6665 15.6947L16.4785 18.5539C16.5648 18.5963 16.6604 18.6182 16.7573 18.6179C16.8173 18.6294 16.8791 18.6294 16.9391 18.6179L22.9996 16.8047C23.1273 16.7663 23.2382 16.6885 23.3149 16.5834C23.3917 16.4783 23.43 16.3518 23.4238 16.2236V7.43091C23.0395 7.66552 22.6207 7.84377 22.1814 7.95975Z" fill="white"/>
<path d="M20.9697 6.6698C22.6432 6.6698 23.9999 5.36888 23.9999 3.7641C23.9999 2.15933 22.6432 0.858398 20.9697 0.858398C19.2961 0.858398 17.9395 2.15933 17.9395 3.7641C17.9395 5.36888 19.2961 6.6698 20.9697 6.6698Z" fill="white"/>
</g>
<defs>
<filter id="filter0_d" x="0" y="0.858398" width="27.9999" height="25.7682" filterUnits="userSpaceOnUse" color-interpolation-filters="sRGB">
<feFlood flood-opacity="0" result="BackgroundImageFix"/>
<feColorMatrix in="SourceAlpha" type="matrix" values="0 0 0 0 0 0 0 0 0 0 0 0 0 0 0 0 0 0 127 0" result="hardAlpha"/>
<feOffset dy="4"/>
<feGaussianBlur stdDeviation="2"/>
<feColorMatrix type="matrix" values="0 0 0 0 0.704167 0 0 0 0 0.698299 0 0 0 0 0.698299 0 0 0 0.25 0"/>
<feBlend mode="normal" in2="BackgroundImageFix" result="effect1_dropShadow"/>
<feBlend mode="normal" in="SourceGraphic" in2="effect1_dropShadow" result="shape"/>
</filter>
</defs>
</svg>
