<svg width="12" height="6" viewBox="0 0 12 6" fill="none" xmlns="http://www.w3.org/2000/svg">
<path d="M5.41469 5.78514L0.255587 1.26516C0.175525 1.19719 0.111699 1.11594 0.0678239 1.02615C0.0239482 0.936355 0.000901662 0.839813 2.42863e-05 0.742142C-0.000852136 0.644471 0.0204587 0.547625 0.0627169 0.45724C0.104975 0.366855 0.167335 0.284741 0.246167 0.215675C0.324998 0.146609 0.418725 0.0919728 0.52189 0.0549499C0.625055 0.0179269 0.735598 -0.000745804 0.847079 2.22803e-05C0.95856 0.000790365 1.06875 0.0209849 1.17124 0.0594248C1.27373 0.0978647 1.36646 0.153784 1.44404 0.223928L6.00892 4.22405L10.5746 0.223179C10.7331 0.0886712 10.9455 0.0141335 11.1661 0.0156535C11.3867 0.0171734 11.5978 0.0946259 11.7538 0.2313C11.9098 0.367975 11.9982 0.552908 12 0.746189C12.0017 0.93947 11.9166 1.1256 11.7631 1.26441L6.604 5.78439C6.44639 5.92245 6.23264 6 6.00977 6C5.7869 6 5.57316 5.92245 5.41554 5.78439L5.41469 5.78514Z" fill="#9B9B9B"/>
</svg>
