<svg width="40" height="40" viewBox="0 0 40 40" fill="none" xmlns="http://www.w3.org/2000/svg">
<path d="M8.04579 12.7998H31.9542C32.4735 12.7833 32.9669 12.5232 33.3293 12.0749C33.6918 11.6266 33.8946 11.0256 33.8946 10.3999C33.8946 9.77419 33.6918 9.17319 33.3293 8.72493C32.9669 8.27666 32.4735 8.01655 31.9542 8H8.04579C7.5265 8.01655 7.0331 8.27666 6.67068 8.72493C6.30825 9.17319 6.10544 9.77419 6.10544 10.3999C6.10544 11.0256 6.30825 11.6266 6.67068 12.0749C7.0331 12.5232 7.5265 12.7833 8.04579 12.7998ZM31.9556 17.5997H8.04579C7.5265 17.6162 7.0331 17.8763 6.67068 18.3246C6.30825 18.7729 6.10544 19.3739 6.10544 19.9996C6.10544 20.6253 6.30825 21.2263 6.67068 21.6746C7.0331 22.1228 7.5265 22.3829 8.04579 22.3995H31.9542C32.4735 22.3829 32.9669 22.1228 33.3293 21.6746C33.6918 21.2263 33.8946 20.6253 33.8946 19.9996C33.8946 19.3739 33.6918 18.7729 33.3293 18.3246C32.9669 17.8763 32.4735 17.6162 31.9542 17.5997H31.9556ZM31.9556 27.1993H8.04579C7.77971 27.1908 7.51492 27.2467 7.26703 27.3634C7.01915 27.4802 6.7932 27.6557 6.60252 27.8793C6.41184 28.103 6.26028 28.3705 6.1568 28.6659C6.05331 28.9613 6 29.2786 6 29.5992C6 29.9199 6.05331 30.2372 6.1568 30.5326C6.26028 30.828 6.41184 31.0954 6.60252 31.3191C6.7932 31.5428 7.01915 31.7183 7.26703 31.835C7.51492 31.9518 7.77971 32.0076 8.04579 31.9992H31.9542C32.2203 32.0076 32.4851 31.9518 32.733 31.835C32.9808 31.7183 33.2068 31.5428 33.3975 31.3191C33.5882 31.0954 33.7397 30.828 33.8432 30.5326C33.9467 30.2372 34 29.9199 34 29.5992C34 29.2786 33.9467 28.9613 33.8432 28.6659C33.7397 28.3705 33.5882 28.103 33.3975 27.8793C33.2068 27.6557 32.9808 27.4802 32.733 27.3634C32.4851 27.2467 32.2203 27.1908 31.9542 27.1993H31.9556Z" fill="#3D4550"/>
</svg>
