<svg xmlns="http://www.w3.org/2000/svg" width="10" height="10" viewBox="0 0 14 14">
    <path id="minicalendar" d="M1.75 4.375v7.875h10.5V4.375zm9.625-2.625h1.75a.827.827 0 0 1 .875.875v10.5a.827.827 0 0 1-.875.875H.875A.827.827 0 0 1 0 13.125v-10.5a.827.827 0 0 1 .875-.875h1.75V.875A.827.827 0 0 1 3.5 0a.827.827 0 0 1 .875.875v.875h5.25V.875a.875.875 0 0 1 1.75 0zM10.5 10.5H8.75V8.75h1.75zm-2.625 0h-1.75V8.75h1.75zM10.5 7.875H8.75v-1.75h1.75zm-2.625 0h-1.75v-1.75h1.75zM5.25 10.5H3.5V8.75h1.75z" data-name="Trazado 2834" style="fill:#35393c;fill-rule:evenodd;opacity:.2"/>
</svg>
