<svg width="292" height="235" viewBox="0 0 292 235" fill="none" xmlns="http://www.w3.org/2000/svg">
<g clip-path="url(#clip0_1174_652)">
<path d="M124.745 231.793C178.825 221.207 309.025 227.998 283.072 84.0473C260.454 -41.5175 183.646 47.7637 142.18 13.1864C82.1909 -36.8514 11.1468 78.6152 2.55623 113.61C-11.8701 172.458 44.494 179.004 52.8671 214.174C56.673 230.365 89.549 238.688 124.745 231.793Z" fill="#EAF4FF"/>
</g>
<mask id="mask0_1174_652" style="mask-type:alpha" maskUnits="userSpaceOnUse" x="17" y="1" width="275" height="234">
<path d="M136.915 231.989C188.78 221.42 313.646 228.234 288.756 84.4735C267.064 -40.8956 193.403 48.2812 153.635 13.723C96.1384 -36.2369 27.9696 79.0499 19.731 113.99C5.89559 172.746 59.9509 179.283 67.981 214.397C71.6658 230.564 103.16 238.873 136.915 231.989Z" fill="#D3DAE2"/>
</mask>
<g mask="url(#mask0_1174_652)">
<path d="M187.076 61.8749C187.076 61.8749 181.132 55.9298 184.713 53.3571C188.293 50.8191 190.448 51.6535 191.109 53.1832C191.735 54.7477 191.804 61.562 191.804 61.562L187.076 61.8749Z" fill="#FFB27D"/>
<path d="M202.824 106.203C195.941 109.54 189.44 111.974 183.461 113.782C177.795 115.485 172.58 116.633 167.957 117.363C166.706 117.571 165.524 117.71 164.342 117.85C152.105 119.344 144.736 117.989 144.736 117.989C144.736 117.989 146.057 90.5923 155.06 90.5576C165.385 90.5228 188.328 93.5127 189.301 90.488C190.413 87.0809 185.164 61.9097 185.164 61.9097C189.023 58.9545 192.395 60.0671 192.395 60.0671C192.395 60.0671 213.356 101.092 202.824 106.203Z" fill="#FFE2D9"/>
<path d="M202.823 106.203C195.94 109.541 189.439 111.974 183.46 113.782C177.794 115.486 172.58 116.633 167.956 117.363C162.846 109.506 158.466 101.266 165.384 105.056C177.586 111.731 202.823 106.203 202.823 106.203Z" fill="#FFC6BB"/>
<path d="M157.494 196.805C157.355 202.785 157.077 208.939 156.521 214.502C153.844 240.82 152.905 272.597 152.523 278.716C151.863 289.355 149.742 306.356 149.742 306.356C149.742 306.356 145.571 310.319 137.436 308.442C137.436 308.442 130.692 283.966 129.198 258.203C129.163 257.786 129.163 257.369 129.128 256.917C128.954 253.51 128.78 249.616 128.572 245.409C127.32 217.283 126 175.458 126 175.458L157.042 168.157C157.077 168.157 157.807 181.89 157.494 196.805Z" fill="#2A4E96"/>
<path d="M157.494 196.805C149.637 210.399 134.62 235.396 128.606 245.409C127.355 217.283 126.034 175.458 126.034 175.458L157.076 168.157C157.076 168.157 157.806 181.89 157.494 196.805Z" fill="#233862"/>
<path d="M78.8615 170.521C78.8615 170.521 73.821 176.466 73.3691 178.1C72.9172 179.734 72.1177 185.68 72.5348 187.453C72.952 189.226 76.3239 182.481 77.5406 181.751C78.7572 181.021 76.6368 184.428 77.0539 185.019C77.471 185.575 79.8696 183.037 80.8082 182.168C81.7468 181.299 81.6425 176.64 82.7897 173.894C83.9368 171.147 78.8615 170.521 78.8615 170.521Z" fill="#FFB27D"/>
<path d="M152.175 176.084C152.175 176.084 123.113 238.282 107.644 265.574C92.1751 292.866 87.3431 300.48 87.3431 300.48C87.3431 300.48 78.4787 297.003 77.6792 294.604C77.6792 294.604 83.5888 241.932 93.9479 229.069C99.788 221.802 106.671 200.038 106.984 192.424C107.297 184.81 114.11 166.627 114.11 166.627L152.175 176.084Z" fill="#2A4E96"/>
<path d="M160.692 179.004C160.692 179.004 149.151 186.723 132.778 186.027C125.582 185.714 111.365 183.663 109.07 177.961C108.514 176.606 108.931 174.937 109.731 172.294C111.816 165.515 116.718 152.582 115.258 123.934C115.119 121.257 115.188 118.754 115.467 116.424C116.996 102.309 125.096 93.9648 132.917 91.2182C151.967 84.543 158.328 93.791 158.328 93.791C158.328 93.791 166.741 100.466 168.027 114.408C170.53 142.291 160.692 179.004 160.692 179.004Z" fill="#FFE2D9"/>
<path d="M138.826 95.0777C138.826 95.0777 148.733 97.6157 157.389 93.3742C157.389 93.3742 159.058 92.3659 157.528 90.5233C157.563 88.6459 157.528 88.8197 157.459 87.4638C157.354 84.3 157.076 82.5617 157.076 82.5617L150.263 78.7373L142.963 75.2954C143.345 76.8947 143.519 78.633 143.658 80.0237C144.736 90.8362 138.826 95.0777 138.826 95.0777Z" fill="#FFB27D"/>
<path d="M144.493 79.9888C144.493 79.9888 149.603 86.6292 157.459 87.4636C157.355 84.2999 156.938 81.1013 156.938 81.1013L150.263 78.7024L144.493 79.9888Z" fill="#ED985F"/>
<path d="M162.778 80.5447C162.778 80.5447 147.413 87.4285 143.311 77.9719C139.174 68.5153 134.412 63.0222 144.041 58.2244C153.67 53.4265 157.146 56.2079 159.336 59.024C161.492 61.8401 166.671 78.5282 162.778 80.5447Z" fill="#FFB27D"/>
<path d="M132.291 60.0673C132.117 59.9282 131.735 59.8935 130.97 60.0673C130.97 60.0673 131.457 59.5458 132.256 59.3024C132.152 58.2247 132.187 56.2429 133.855 55.3042C133.855 55.3042 133.021 56.0691 133.195 57.2164C134.69 54.5394 138.722 51.7928 151.306 49.4982C167.853 46.4735 165.281 58.2594 163.508 60.0673C161.735 61.8752 155.547 59.8587 151.723 61.2146C147.899 62.5705 148.664 68.4113 147.517 69.5239C146.405 70.6364 146.544 69.1414 144.527 68.7938C142.511 68.4461 143.137 71.4708 144.18 73.2787C145.223 75.0865 143.415 78.2851 143.415 78.2851C143.415 78.2851 143.415 78.2851 140.217 76.2686C137.019 74.2521 131.631 63.5092 132.117 60.7626C132.222 60.554 132.256 60.3107 132.291 60.0673Z" fill="#564D4F"/>
<path d="M183.774 59.9632L157.911 68.1334L156.521 64.2743L181.758 54.3657L183.774 59.9632Z" fill="#2A4E96"/>
<path d="M203.554 54.6094L175.431 63.6835L172.928 56.6606L200.425 45.8481L203.554 54.6094Z" fill="#2A4E96"/>
<path d="M222.778 49.3248L198.966 56.6606L195.594 47.204L218.641 37.7822L222.778 49.3248Z" fill="#233862"/>
<path d="M223.611 50.8197C224.341 50.5763 224.723 49.7767 224.445 49.0466L220.1 36.9129C219.857 36.1828 219.057 35.8004 218.327 36.0785C217.597 36.3219 217.215 37.1215 217.493 37.8517L221.838 49.9853C222.081 50.7154 222.881 51.0978 223.611 50.8197Z" fill="#233862"/>
<path d="M158.085 69.0024C157.424 69.2458 156.729 68.8981 156.486 68.2376L155.373 65.0738C155.13 64.4132 155.477 63.7179 156.138 63.4745C156.798 63.2311 157.494 63.5788 157.737 64.2394L158.849 67.4032C159.058 68.0637 158.71 68.7591 158.085 69.0024Z" fill="#2A4E96"/>
<path d="M109.73 172.329C111.816 165.55 116.718 152.617 115.258 123.969C115.119 121.292 115.188 118.788 115.466 116.459C121.723 115.903 131.318 122.717 131.318 122.717C131.318 122.717 125.373 158.701 109.73 172.329Z" fill="#FFC6BB"/>
<path d="M138.444 89.6191C138.444 89.6191 122.349 92.4005 113.971 102.622C105.594 112.878 92.0711 127.306 88.9077 132.382C85.7096 137.423 76.8452 171.877 76.8452 171.877C76.8452 171.877 77.4362 172.99 79.8695 173.616C82.1986 174.242 83.902 173.268 83.902 173.268C83.902 173.268 95.6516 153.173 100.066 143.125C101.909 138.953 133.647 122.439 145.57 124.143C150.263 124.838 138.444 89.6191 138.444 89.6191Z" fill="#FFE2D9"/>
<path d="M183.356 52.5577C183.356 52.5577 186.833 52.9749 188.675 51.8276C190.448 50.7151 189.996 49.9502 189.996 49.9502C189.996 49.9502 183.53 50.6108 183.356 52.5577Z" fill="#FFB27D"/>
<path d="M154.087 100.849C154.087 100.849 147.03 145.42 96.9377 158.423L91.48 169.2L101.074 170.834C101.074 170.834 158.119 154.32 157.32 100.084L154.087 100.849Z" fill="#BC3F3F"/>
<path d="M152.975 93.7219L150.681 93.9653V97.3029L154.087 100.849L157.32 100.049V95.4255L154.991 93.7219H152.975Z" fill="#A02E2E"/>
<path d="M143.658 85.1345C143.658 85.1345 141.086 86.0385 136.532 89.6194C136.532 89.6194 141.608 100.432 152.349 101.718C152.349 101.718 152.175 96.7119 152.94 93.7219C152.975 93.7219 144.249 90.9753 143.658 85.1345Z" fill="#FFC6BB"/>
<path d="M152.974 93.7216C152.974 93.7216 158.223 96.503 158.606 100.849C158.606 100.849 160.552 97.6851 160.031 95.4947C159.301 92.331 157.528 90.5579 157.528 90.5579C157.528 90.5579 157.841 93.4087 152.974 93.7216Z" fill="#FFC6BB"/>
</g>
<defs>
<clipPath id="clip0_1174_652">
<rect width="286.242" height="233.44" fill="white" transform="translate(0.199219 0.787354)"/>
</clipPath>
</defs>
</svg>
