<svg width="18" height="18" viewBox="0 0 18 18" fill="none" xmlns="http://www.w3.org/2000/svg">
<path fill-rule="evenodd" clip-rule="evenodd" d="M0 9C0 4.02944 4.02944 0 9 0C13.9706 0 18 4.02944 18 9C18 13.9706 13.9706 18 9 18C4.02944 18 0 13.9706 0 9ZM7.875 4.5C7.875 3.87868 8.37868 3.375 9 3.375C9.62132 3.375 10.125 3.87868 10.125 4.5C10.125 5.12132 9.62132 5.625 9 5.625C8.37868 5.625 7.875 5.12132 7.875 4.5ZM9 14.625C9.62132 14.625 10.125 14.1213 10.125 13.5V9C10.125 8.37868 9.62132 7.875 9 7.875C8.37868 7.875 7.875 8.37868 7.875 9V13.5C7.875 14.1213 8.37868 14.625 9 14.625Z" fill="#2D8DFF"/>
</svg>
