<svg width="136" height="40" viewBox="0 0 136 40" fill="none" xmlns="http://www.w3.org/2000/svg">
<path d="M34.1664 7H8V33.1618H25.4443V24.442H34.1664V7ZM10.1571 9.15483H26.6668V22.2849H17.9492V31.007H10.1571V9.15483ZM23.2871 31.007H20.104V24.4671H23.2871V31.007ZM32.0093 22.2849H28.8216V9.15483H32.0093V22.2849Z" fill="#3D4550"/>
<path d="M50.2305 24.3323C50.2305 26.0507 49.8786 27.2374 49.1748 27.8925C48.816 28.2147 48.1465 28.3746 47.1708 28.3746H42.7835V33.1596H40.7063V20.1758H47.1799C48.1557 20.1758 48.8252 20.338 49.184 20.6579C49.8878 21.2886 50.2396 22.5134 50.2396 24.3323H50.2305ZM42.7835 26.5946H46.6681C47.1982 26.5946 47.5318 26.5397 47.6689 26.4277C47.9736 26.181 48.1259 25.4634 48.1259 24.2752C48.1259 23.087 47.9736 22.3702 47.6689 22.125C47.5318 22.013 47.1982 21.9581 46.6681 21.9581H42.7835V26.5946Z" fill="#3D4550"/>
<path d="M51.6952 26.1854C51.7089 24.924 51.9131 24.0961 52.3076 23.7015C52.7022 23.307 53.2651 23.1211 53.9963 23.144H57.0743C58.0158 23.144 58.6655 23.3237 59.0235 23.6832C59.2585 23.9256 59.4174 24.2314 59.4805 24.563C59.5714 25.174 59.6081 25.7919 59.5902 26.4093V33.1595H57.6798V31.9369C57.2548 32.3178 56.7959 32.6589 56.3088 32.9561C55.9735 33.1175 55.6044 33.1959 55.2325 33.1846H53.6741C52.8217 33.1846 52.2208 33.0132 51.8758 32.6659C51.4781 32.2698 51.2801 31.5401 51.2816 30.4768C51.2816 29.316 51.4858 28.5307 51.8941 28.1209C52.1784 27.8484 52.5301 27.6568 52.9132 27.5656C53.3336 27.4529 54.1006 27.3973 55.2142 27.3988C56.0453 27.371 56.8759 27.4649 57.6798 27.6776V26.5647C57.6798 25.637 57.6037 25.0985 57.4513 24.9492C57.3393 24.8395 57.0492 24.7824 56.5785 24.7824H54.5767C54.1563 24.7824 53.8912 24.8395 53.7792 24.9492C53.6673 25.0589 53.5941 25.4747 53.5507 26.1923L51.6952 26.1854ZM55.5799 31.5279C56.3245 31.5034 57.0511 31.2929 57.6935 30.9155V28.8384H55.0977C54.1577 28.8384 53.601 28.9252 53.4273 29.0989C53.2537 29.2725 53.1737 29.6244 53.1874 30.1546C53.1874 30.8462 53.2491 31.2545 53.3725 31.3794C53.4707 31.4776 53.7312 31.5279 54.1517 31.5279H55.5799Z" fill="#3D4550"/>
<path d="M67.869 29.5054H69.7427C69.7665 30.22 69.7167 30.9352 69.5942 31.6397C69.5154 32.0218 69.3309 32.3741 69.0618 32.6565C68.7281 32.9902 68.1843 33.157 67.4302 33.157H64.3682C63.429 33.157 62.7687 32.965 62.3848 32.5834C62.0276 32.2052 61.7948 31.7268 61.7176 31.2124C61.5769 30.1958 61.5204 29.1694 61.5485 28.1435C61.5204 27.1169 61.5769 26.0897 61.7176 25.0724C61.7949 24.558 62.0277 24.0796 62.3848 23.7013C62.7664 23.3174 63.429 23.1255 64.3682 23.1255H67.4097C68.1637 23.1255 68.7098 23.2923 69.0435 23.6259C69.3081 23.9079 69.4879 24.2587 69.5622 24.6382C69.6805 25.3016 69.7303 25.9755 69.7107 26.6491H67.8369C67.8126 25.6848 67.7364 25.1409 67.6084 25.0175C67.4965 24.9056 67.268 24.8507 66.9229 24.8507H64.6059C64.1603 24.8507 63.8746 24.9124 63.7512 25.0358C63.614 25.2526 63.5404 25.5036 63.5388 25.7602C63.4961 26.1441 63.4748 26.9355 63.4748 28.1344C63.4748 29.3333 63.4961 30.1247 63.5388 30.5086C63.5408 30.7644 63.6144 31.0145 63.7512 31.2307C63.8746 31.354 64.1603 31.4157 64.6059 31.4157H66.9435C67.3137 31.4157 67.5536 31.3609 67.6656 31.2489C67.7775 31.137 67.869 30.5269 67.869 29.4871" fill="#3D4550"/>
<path d="M71.5228 26.1854C71.5366 24.924 71.7407 24.0961 72.1352 23.7015C72.5298 23.307 73.0927 23.1211 73.8239 23.144H76.9019C77.8434 23.144 78.4931 23.3237 78.8511 23.6832C79.0861 23.9256 79.245 24.2314 79.3081 24.563C79.399 25.174 79.4357 25.7919 79.4177 26.4093V33.1595H77.5166V31.9369C77.0916 32.3178 76.6327 32.6589 76.1456 32.9561C75.8103 33.1175 75.4412 33.1959 75.0693 33.1846H73.5109C72.6585 33.1846 72.0576 33.0132 71.7125 32.6659C71.3149 32.2698 71.1169 31.5401 71.1184 30.4768C71.1184 29.316 71.3225 28.5307 71.7308 28.1209C72.0151 27.8484 72.3669 27.6568 72.7499 27.5656C73.1704 27.4529 73.9374 27.3973 75.051 27.3988C75.8821 27.3711 76.7127 27.4651 77.5166 27.6776V26.5647C77.5166 25.637 77.4404 25.0985 77.2881 24.9492C77.1761 24.8395 76.8859 24.7824 76.4152 24.7824H74.4134C73.993 24.7824 73.7279 24.8395 73.616 24.9492C73.504 25.0589 73.4286 25.4747 73.3875 26.1923L71.5228 26.1854ZM75.4075 31.5279C76.1521 31.5034 76.8788 31.2929 77.5212 30.9155V28.8384H74.9253C73.9869 28.8384 73.4301 28.9252 73.255 29.0989C73.0798 29.2725 72.9998 29.6244 73.015 30.1546C73.015 30.8462 73.0767 31.2545 73.2001 31.3794C73.2984 31.4776 73.5589 31.5279 73.9793 31.5279H75.4075Z" fill="#3D4550"/>
<path d="M89.3991 30.2483C89.3991 31.4983 89.2025 32.3186 88.8049 32.7162C88.5102 33.011 88.0075 33.1595 87.3037 33.1595H83.4579C82.6794 33.1595 82.1462 33.0178 81.8583 32.7345C81.6262 32.4964 81.4676 32.1965 81.4013 31.8707C81.297 31.2549 81.2504 30.6306 81.2619 30.0061H83.042C83.0664 30.847 83.1281 31.317 83.2271 31.416C83.3262 31.515 83.5363 31.5584 83.8578 31.5463H86.7895C87.1232 31.5463 87.3379 31.4983 87.4385 31.3977C87.539 31.2972 87.6053 30.9407 87.6053 30.3603C87.6053 29.7799 87.5436 29.4623 87.4202 29.3389C87.2385 29.2027 87.0165 29.1311 86.7895 29.1355L83.3939 28.7836C82.6536 28.6968 82.1577 28.5299 81.9109 28.2832C81.7028 28.0643 81.561 27.7909 81.5018 27.4948C81.4148 26.9955 81.3781 26.4887 81.3922 25.9821C81.3922 24.8076 81.5955 24.0162 82.0023 23.6079C82.3069 23.3032 82.8081 23.1509 83.5059 23.1509H87.162C87.8795 23.1509 88.3799 23.2933 88.6632 23.5782C88.888 23.8154 89.0424 24.1105 89.1089 24.4305C89.2177 25.0236 89.2674 25.626 89.2574 26.2289H87.4773C87.4529 25.4672 87.3852 25.0284 87.274 24.9127C87.0939 24.7921 86.8768 24.7395 86.6616 24.7641H84.0063C83.7933 24.7364 83.5772 24.7824 83.3939 24.8944C83.2705 25.0178 83.2088 25.3514 83.2088 25.877C83.2088 26.4025 83.2591 26.7613 83.3573 26.8618C83.5602 27.0003 83.7976 27.0794 84.0429 27.0904L87.4934 27.4423C88.2002 27.5032 88.6824 27.6639 88.9398 27.9244C89.2445 28.2291 89.3968 29.0083 89.3968 30.262" fill="#3D4550"/>
<path d="M105.817 22.0952C106.028 22.6604 106.133 23.5112 106.133 24.6477C106.133 25.7902 106.028 26.6334 105.817 27.1978C105.638 27.7113 105.336 28.1733 104.938 28.5437C104.505 28.9276 103.701 29.1196 102.527 29.1196H98.7061V33.1596H94.7186V20.1758H102.527C103.701 20.1758 104.505 20.3677 104.938 20.7516C105.332 21.1224 105.631 21.5835 105.808 22.0952H105.817ZM98.7061 26.1673H100.671C101.265 26.1673 101.61 26.1193 101.711 26.0187C101.907 25.8344 102.006 25.3705 102.006 24.6271C102.006 23.8837 101.907 23.4328 101.711 23.2743C101.599 23.1761 101.254 23.1258 100.671 23.1258H98.7061V26.1673Z" fill="#3D4550"/>
<path d="M110.808 33.1596H107.042V22.7739H110.808V24.4603C111.235 23.9725 111.707 23.5258 112.218 23.1258C112.536 22.8955 112.919 22.7722 113.312 22.7739H114.306V26.3707H113.082C112.297 26.3611 111.52 26.5128 110.796 26.8162L110.808 33.1596Z" fill="#3D4550"/>
<path d="M117.949 33.1596C117.523 33.1757 117.098 33.1256 116.687 33.0111C116.378 32.9049 116.099 32.7272 115.872 32.4924C115.48 32.058 115.214 31.5258 115.102 30.9522C114.919 29.9677 114.842 28.9665 114.873 27.9656C114.843 26.9656 114.919 25.9651 115.102 24.9813C115.214 24.4078 115.48 23.8755 115.872 23.4412C116.092 23.2029 116.37 23.0244 116.678 22.9225C117.092 22.8085 117.52 22.7584 117.949 22.7739H121.918C122.344 22.7578 122.769 22.8079 123.179 22.9225C123.488 23.0286 123.768 23.2064 123.995 23.4412C124.386 23.8755 124.652 24.4078 124.765 24.9813C124.946 25.9653 125.023 26.9656 124.994 27.9656C125.024 28.9695 124.947 29.9737 124.765 30.9614C124.651 31.5317 124.385 32.0606 123.995 32.4924C123.768 32.7272 123.488 32.9049 123.179 33.0111C122.769 33.1256 122.344 33.1757 121.918 33.1596H117.949ZM118.58 27.9656C118.58 29.3275 118.641 30.0824 118.764 30.2301C118.851 30.3398 119.068 30.3969 119.414 30.3969H120.453C120.787 30.3969 121.002 30.3398 121.102 30.2301C121.226 30.0778 121.287 29.323 121.287 27.9656C121.287 26.6083 121.226 25.8542 121.102 25.7034C121.002 25.5937 120.787 25.5366 120.453 25.5366H119.414C119.068 25.5366 118.851 25.5937 118.764 25.7034C118.641 25.8557 118.58 26.6098 118.58 27.9656Z" fill="#3D4550"/>
</svg>
