<svg xmlns="http://www.w3.org/2000/svg" width="16" height="18.17" viewBox="0 0 16 18.17">
    <defs>
        <style>
            .cls-1{fill:#ffffff}
        </style>
    </defs>
    <g id="paper">
        <g id="Grupo_333" data-name="Grupo 333" transform="translate(0 4.309)">
            <path id="Trazado_3032" d="M33.575 171.861a.975.975 0 0 1-.975-.975v-11.911a.975.975 0 0 1 .975-.975h5.672a2.154 2.154 0 0 1 .826.186 2.19 2.19 0 0 1 .714.453l2.766 2.766a2.19 2.19 0 0 1 .453.714 2.154 2.154 0 0 1 .186.826v7.941a.975.975 0 0 1-.975.975zm9.236-1.381v-6.56h-3.565a.975.975 0 0 1-.975-.975v-3.564h-4.29v11.1zm-.13-7.941a.664.664 0 0 0-.1-.152l-2.775-2.775a.6.6 0 0 0-.152-.1v3.027z" class="cls-1" data-name="Trazado 3032" transform="translate(-32.6 -158)"/>
        </g>
        <path id="Trazado_3033" d="M182.591 33.064a.125.125 0 0 1-.124-.124v-1.133a.125.125 0 0 1 .124-.124h2.22v-6.56h-3.564a.975.975 0 0 1-.975-.975v-3.563h-4.29v2.158a.125.125 0 0 1-.124.124h-1.133a.125.125 0 0 1-.124-.124v-2.568a.975.975 0 0 1 .975-.975h5.672a2.154 2.154 0 0 1 .826.186 2.19 2.19 0 0 1 .714.453l2.766 2.766a2.473 2.473 0 0 1 .639 1.54v7.944a.975.975 0 0 1-.975.975zm2.089-9.322a.665.665 0 0 0-.1-.152l-2.775-2.775a.6.6 0 0 0-.152-.1v3.027z" class="cls-1" data-name="Trazado 3033" transform="translate(-170.192 -19.2)"/>
    </g>
</svg>
