<svg width="230" height="148" viewBox="0 0 230 148" fill="none" xmlns="http://www.w3.org/2000/svg">
<path d="M2.84244 126.37H8.10244C8.83578 126.37 9.52911 126.437 10.1824 126.57C10.8358 126.703 11.4024 126.937 11.8824 127.27C12.3758 127.59 12.7624 128.03 13.0424 128.59C13.3358 129.137 13.4824 129.83 13.4824 130.67C13.4824 131.497 13.3491 132.19 13.0824 132.75C12.8158 133.31 12.4491 133.757 11.9824 134.09C11.5158 134.423 10.9624 134.663 10.3224 134.81C9.68244 134.943 8.98911 135.01 8.24244 135.01H5.96244V140.53H2.84244V126.37ZM5.96244 132.37H8.04244C8.32244 132.37 8.58911 132.343 8.84244 132.29C9.10911 132.237 9.34244 132.15 9.54244 132.03C9.75578 131.897 9.92244 131.723 10.0424 131.51C10.1758 131.283 10.2424 131.003 10.2424 130.67C10.2424 130.31 10.1558 130.023 9.98244 129.81C9.82244 129.583 9.60911 129.41 9.34244 129.29C9.08911 129.17 8.80244 129.097 8.48244 129.07C8.16244 129.03 7.85578 129.01 7.56244 129.01H5.96244V132.37ZM16.7601 126.37H26.3801V129.25H19.8801V131.89H26.0201V134.77H19.8801V137.65H26.7401V140.53H16.7601V126.37ZM30.4378 126.37H35.1178C36.2511 126.37 37.3244 126.497 38.3378 126.75C39.3644 127.003 40.2578 127.417 41.0178 127.99C41.7778 128.55 42.3778 129.283 42.8178 130.19C43.2711 131.097 43.4978 132.197 43.4978 133.49C43.4978 134.637 43.2778 135.65 42.8378 136.53C42.4111 137.397 41.8311 138.13 41.0978 138.73C40.3644 139.317 39.5178 139.763 38.5578 140.07C37.5978 140.377 36.5911 140.53 35.5378 140.53H30.4378V126.37ZM33.5578 137.65H35.1778C35.8978 137.65 36.5644 137.577 37.1778 137.43C37.8044 137.283 38.3444 137.043 38.7978 136.71C39.2511 136.363 39.6044 135.917 39.8578 135.37C40.1244 134.81 40.2578 134.13 40.2578 133.33C40.2578 132.637 40.1244 132.037 39.8578 131.53C39.6044 131.01 39.2578 130.583 38.8178 130.25C38.3778 129.917 37.8578 129.67 37.2578 129.51C36.6711 129.337 36.0511 129.25 35.3978 129.25H33.5578V137.65ZM46.7735 126.37H49.8935V140.53H46.7735V126.37ZM53.9315 126.37H58.6115C59.7448 126.37 60.8182 126.497 61.8315 126.75C62.8582 127.003 63.7515 127.417 64.5115 127.99C65.2715 128.55 65.8715 129.283 66.3115 130.19C66.7648 131.097 66.9915 132.197 66.9915 133.49C66.9915 134.637 66.7715 135.65 66.3315 136.53C65.9048 137.397 65.3248 138.13 64.5915 138.73C63.8582 139.317 63.0115 139.763 62.0515 140.07C61.0915 140.377 60.0848 140.53 59.0315 140.53H53.9315V126.37ZM57.0515 137.65H58.6715C59.3915 137.65 60.0582 137.577 60.6715 137.43C61.2982 137.283 61.8382 137.043 62.2915 136.71C62.7448 136.363 63.0982 135.917 63.3515 135.37C63.6182 134.81 63.7515 134.13 63.7515 133.33C63.7515 132.637 63.6182 132.037 63.3515 131.53C63.0982 131.01 62.7515 130.583 62.3115 130.25C61.8715 129.917 61.3515 129.67 60.7515 129.51C60.1648 129.337 59.5448 129.25 58.8915 129.25H57.0515V137.65ZM69.5473 133.45C69.5473 132.317 69.734 131.29 70.1073 130.37C70.494 129.45 71.0273 128.67 71.7073 128.03C72.3873 127.377 73.194 126.877 74.1273 126.53C75.0606 126.183 76.0806 126.01 77.1873 126.01C78.294 126.01 79.314 126.183 80.2473 126.53C81.1806 126.877 81.9873 127.377 82.6673 128.03C83.3473 128.67 83.874 129.45 84.2473 130.37C84.634 131.29 84.8273 132.317 84.8273 133.45C84.8273 134.583 84.634 135.61 84.2473 136.53C83.874 137.45 83.3473 138.237 82.6673 138.89C81.9873 139.53 81.1806 140.023 80.2473 140.37C79.314 140.717 78.294 140.89 77.1873 140.89C76.0806 140.89 75.0606 140.717 74.1273 140.37C73.194 140.023 72.3873 139.53 71.7073 138.89C71.0273 138.237 70.494 137.45 70.1073 136.53C69.734 135.61 69.5473 134.583 69.5473 133.45ZM72.7873 133.45C72.7873 134.117 72.8873 134.73 73.0873 135.29C73.3006 135.837 73.6006 136.317 73.9873 136.73C74.374 137.13 74.834 137.443 75.3673 137.67C75.914 137.897 76.5206 138.01 77.1873 138.01C77.854 138.01 78.454 137.897 78.9873 137.67C79.534 137.443 80.0006 137.13 80.3873 136.73C80.774 136.317 81.0673 135.837 81.2673 135.29C81.4806 134.73 81.5873 134.117 81.5873 133.45C81.5873 132.797 81.4806 132.19 81.2673 131.63C81.0673 131.07 80.774 130.59 80.3873 130.19C80.0006 129.777 79.534 129.457 78.9873 129.23C78.454 129.003 77.854 128.89 77.1873 128.89C76.5206 128.89 75.914 129.003 75.3673 129.23C74.834 129.457 74.374 129.777 73.9873 130.19C73.6006 130.59 73.3006 131.07 73.0873 131.63C72.8873 132.19 72.7873 132.797 72.7873 133.45ZM95.3859 126.37H104.886V129.25H98.5059V132.13H104.406V135.01H98.5059V140.53H95.3859V126.37ZM108.281 126.37H111.401V140.53H108.281V126.37ZM115.439 126.37H119.679L125.699 136.21H125.739V126.37H128.859V140.53H124.779L118.599 130.45H118.559V140.53H115.439V126.37ZM137.608 126.37H140.188L146.348 140.53H142.828L141.608 137.53H136.108L134.928 140.53H131.488L137.608 126.37ZM138.808 130.49L137.088 134.89H140.548L138.808 130.49ZM149.092 126.37H152.212V137.65H157.992V140.53H149.092V126.37ZM160.874 126.37H163.994V140.53H160.874V126.37ZM167.292 137.65L174.472 129.13H167.552V126.37H178.252V129.13L171.212 137.65H178.492V140.53H167.292V137.65ZM186.49 126.37H189.07L195.23 140.53H191.71L190.49 137.53H184.99L183.81 140.53H180.37L186.49 126.37ZM187.69 130.49L185.97 134.89H189.43L187.69 130.49ZM197.854 126.37H202.534C203.667 126.37 204.741 126.497 205.754 126.75C206.781 127.003 207.674 127.417 208.434 127.99C209.194 128.55 209.794 129.283 210.234 130.19C210.687 131.097 210.914 132.197 210.914 133.49C210.914 134.637 210.694 135.65 210.254 136.53C209.827 137.397 209.247 138.13 208.514 138.73C207.781 139.317 206.934 139.763 205.974 140.07C205.014 140.377 204.007 140.53 202.954 140.53H197.854V126.37ZM200.974 137.65H202.594C203.314 137.65 203.981 137.577 204.594 137.43C205.221 137.283 205.761 137.043 206.214 136.71C206.667 136.363 207.021 135.917 207.274 135.37C207.541 134.81 207.674 134.13 207.674 133.33C207.674 132.637 207.541 132.037 207.274 131.53C207.021 131.01 206.674 130.583 206.234 130.25C205.794 129.917 205.274 129.67 204.674 129.51C204.087 129.337 203.467 129.25 202.814 129.25H200.974V137.65ZM213.47 133.45C213.47 132.317 213.657 131.29 214.03 130.37C214.417 129.45 214.95 128.67 215.63 128.03C216.31 127.377 217.117 126.877 218.05 126.53C218.983 126.183 220.003 126.01 221.11 126.01C222.217 126.01 223.237 126.183 224.17 126.53C225.103 126.877 225.91 127.377 226.59 128.03C227.27 128.67 227.797 129.45 228.17 130.37C228.557 131.29 228.75 132.317 228.75 133.45C228.75 134.583 228.557 135.61 228.17 136.53C227.797 137.45 227.27 138.237 226.59 138.89C225.91 139.53 225.103 140.023 224.17 140.37C223.237 140.717 222.217 140.89 221.11 140.89C220.003 140.89 218.983 140.717 218.05 140.37C217.117 140.023 216.31 139.53 215.63 138.89C214.95 138.237 214.417 137.45 214.03 136.53C213.657 135.61 213.47 134.583 213.47 133.45ZM216.71 133.45C216.71 134.117 216.81 134.73 217.01 135.29C217.223 135.837 217.523 136.317 217.91 136.73C218.297 137.13 218.757 137.443 219.29 137.67C219.837 137.897 220.443 138.01 221.11 138.01C221.777 138.01 222.377 137.897 222.91 137.67C223.457 137.443 223.923 137.13 224.31 136.73C224.697 136.317 224.99 135.837 225.19 135.29C225.403 134.73 225.51 134.117 225.51 133.45C225.51 132.797 225.403 132.19 225.19 131.63C224.99 131.07 224.697 130.59 224.31 130.19C223.923 129.777 223.457 129.457 222.91 129.23C222.377 129.003 221.777 128.89 221.11 128.89C220.443 128.89 219.837 129.003 219.29 129.23C218.757 129.457 218.297 129.777 217.91 130.19C217.523 130.59 217.223 131.07 217.01 131.63C216.81 132.19 216.71 132.797 216.71 133.45Z" fill="#3D96FF"/>
<path d="M97.2363 53.0367L109.078 64.8788L136.71 37.2472" stroke="#3D96FF" stroke-width="6.6823" stroke-linecap="round"/>
<path fill-rule="evenodd" clip-rule="evenodd" d="M116.711 100.406C89.0972 100.406 66.7114 78.0205 66.7114 50.4062C66.7114 22.792 89.0972 0.40625 116.711 0.40625C144.326 0.40625 166.711 22.792 166.711 50.4062C166.711 78.0205 144.326 100.406 116.711 100.406ZM116.711 87.4636C96.2444 87.4636 79.6526 70.8718 79.6526 50.4048C79.6526 29.9378 96.2444 13.346 116.711 13.346C137.178 13.346 153.77 29.9378 153.77 50.4048C153.77 70.8718 137.178 87.4636 116.711 87.4636Z" fill="#3D96FF"/>
<g clip-path="url(#clip0)">
<path d="M64.9298 84.6003C65.832 84.6003 66.5633 83.869 66.5633 82.9668C66.5633 82.0647 65.832 81.3334 64.9298 81.3334C64.0277 81.3334 63.2964 82.0647 63.2964 82.9668C63.2964 83.869 64.0277 84.6003 64.9298 84.6003Z" fill="#FFC041"/>
</g>
<path d="M167.094 26.5474C168.078 26.5474 168.876 25.7496 168.876 24.7655C168.876 23.7813 168.078 22.9835 167.094 22.9835C166.11 22.9835 165.312 23.7813 165.312 24.7655C165.312 25.7496 166.11 26.5474 167.094 26.5474Z" fill="#FFC041"/>
<path d="M71.6038 98.9861C71.4697 99.0808 71.3162 99.1445 71.1545 99.1727C70.9927 99.2008 70.8268 99.1926 70.6686 99.1486C70.5104 99.1047 70.364 99.0261 70.2399 98.9186C70.1158 98.8111 70.0172 98.6774 69.9512 98.5271L69.4276 96.9357C69.3 96.553 69.0852 96.2051 68.8 95.9197C68.5149 95.6344 68.1672 95.4192 67.7846 95.2914L66.2626 94.797C66.0463 94.7215 65.8593 94.5793 65.7281 94.3923C65.6268 94.25 65.5609 94.0856 65.5357 93.9127C65.5105 93.7398 65.5267 93.5634 65.5831 93.3981C65.6395 93.2327 65.7344 93.0832 65.86 92.9617C65.9856 92.8403 66.1383 92.7505 66.3054 92.6997L67.8118 92.21C68.1947 92.083 68.5428 91.8685 68.8285 91.5836C69.1142 91.2986 69.3295 90.951 69.4575 90.5684L69.9519 89.0471C70.028 88.8316 70.1691 88.6451 70.3559 88.5133C70.5437 88.3837 70.7666 88.3143 70.9948 88.3143C71.223 88.3143 71.4458 88.3837 71.6337 88.5133C71.8234 88.6473 71.9662 88.8376 72.0417 89.0573L72.5422 90.5976C72.6699 90.9704 72.8808 91.3091 73.1589 91.5883C73.437 91.8674 73.7749 92.0795 74.1472 92.2087L75.6705 92.7031C75.8872 92.7797 76.0747 92.922 76.2069 93.1101C76.339 93.2983 76.4092 93.5229 76.4077 93.7528C76.4062 93.9827 76.3331 94.2064 76.1985 94.3928C76.0639 94.5793 75.8746 94.7191 75.6569 94.7929L74.1499 95.2818C73.6611 95.4457 73.2315 95.7502 72.9149 96.1571C72.734 96.3903 72.5946 96.6521 72.5028 96.9323L72.0077 98.4516C71.9315 98.6671 71.7908 98.8535 71.6038 98.9861Z" fill="#FFC041"/>
<path d="M84.4604 104.523C84.353 104.53 84.2455 104.512 84.1456 104.472C84.0458 104.432 83.9561 104.37 83.883 104.291C83.81 104.212 83.7554 104.118 83.7233 104.015C83.6912 103.913 83.6823 103.804 83.6973 103.698L83.9539 102.63C84.0147 102.373 84.0148 102.105 83.9542 101.847C83.8936 101.59 83.7739 101.35 83.6046 101.147L82.9265 100.347C82.832 100.23 82.7767 100.086 82.768 99.9369C82.7606 99.8227 82.7805 99.7083 82.826 99.6032C82.8716 99.4982 82.9414 99.4054 83.0299 99.3327C83.1183 99.2599 83.2228 99.2093 83.3347 99.1849C83.4465 99.1604 83.5626 99.163 83.6733 99.1923L84.6819 99.4385C84.9391 99.4997 85.2071 99.5001 85.4646 99.4397C85.7221 99.3792 85.962 99.2597 86.1652 99.0905L86.9652 98.4128C87.0819 98.3189 87.2249 98.2635 87.3744 98.2544C87.5238 98.2469 87.6719 98.285 87.7991 98.3637C87.9264 98.4423 88.0267 98.5578 88.0868 98.6948C88.1464 98.8349 88.1603 98.9902 88.1267 99.1387L87.8749 100.17C87.8176 100.422 87.8184 100.683 87.8772 100.935C87.936 101.186 88.0513 101.421 88.2144 101.621L88.8932 102.422C88.9876 102.539 89.0431 102.683 89.0519 102.834C89.0608 102.984 89.0225 103.134 88.9424 103.261C88.8623 103.389 88.7444 103.489 88.6052 103.546C88.4659 103.604 88.3122 103.616 88.1653 103.582L87.1566 103.336C86.8276 103.258 86.4832 103.28 86.1665 103.398C85.9852 103.466 85.8172 103.563 85.6695 103.688L84.8698 104.364C84.7531 104.458 84.6104 104.514 84.4604 104.523Z" fill="#FFC041"/>
<path d="M165.549 14.2012C165.465 14.2604 165.37 14.3003 165.268 14.3178C165.167 14.3354 165.064 14.3303 164.965 14.3028C164.866 14.2753 164.774 14.2262 164.697 14.159C164.619 14.0919 164.558 14.0083 164.516 13.9143L164.189 12.9197C164.109 12.6805 163.975 12.4631 163.797 12.2848C163.619 12.1064 163.401 11.9719 163.162 11.892L162.211 11.583C162.076 11.5358 161.959 11.447 161.877 11.3301C161.814 11.2411 161.772 11.1384 161.757 11.0303C161.741 10.9223 161.751 10.8121 161.786 10.7087C161.822 10.6054 161.881 10.5119 161.959 10.436C162.038 10.3601 162.133 10.304 162.238 10.2722L163.179 9.96619C163.419 9.88679 163.636 9.75273 163.815 9.57464C163.993 9.39654 164.128 9.17931 164.208 8.94015L164.517 7.98935C164.564 7.85467 164.653 7.73808 164.769 7.6557C164.887 7.57473 165.026 7.53137 165.169 7.53137C165.311 7.53137 165.451 7.57473 165.568 7.6557C165.687 7.73946 165.776 7.85842 165.823 7.99573L166.136 8.95843C166.216 9.19139 166.347 9.40312 166.521 9.57757C166.695 9.75203 166.906 9.88463 167.139 9.96534L168.091 10.2743C168.226 10.3222 168.344 10.4112 168.426 10.5287C168.509 10.6463 168.553 10.7867 168.552 10.9304C168.551 11.0741 168.505 11.2139 168.421 11.3304C168.337 11.4469 168.219 11.5343 168.082 11.5805L167.141 11.8861C166.835 11.9885 166.567 12.1788 166.369 12.4331C166.256 12.5789 166.169 12.7425 166.111 12.9176L165.802 13.8671C165.754 14.0019 165.666 14.1183 165.549 14.2012Z" fill="#FFC041"/>
<path d="M155.645 6.78352C155.614 6.84238 155.569 6.89351 155.516 6.9332C155.462 6.97289 155.4 7.00015 155.335 7.01301C155.269 7.02587 155.202 7.02401 155.137 7.00756C155.073 6.99111 155.012 6.96048 154.961 6.91789L154.481 6.43508C154.365 6.31924 154.223 6.232 154.067 6.18026C153.912 6.12853 153.746 6.11371 153.584 6.13699L152.941 6.23471C152.848 6.24669 152.755 6.22913 152.673 6.18509C152.61 6.15182 152.556 6.1041 152.515 6.04588C152.475 5.98765 152.449 5.92059 152.439 5.85023C152.429 5.77987 152.437 5.70822 152.46 5.64121C152.484 5.57419 152.523 5.51372 152.574 5.4648L153.032 5.01235C153.148 4.8964 153.236 4.75501 153.288 4.59941C153.339 4.4438 153.354 4.27825 153.331 4.11588L153.233 3.47298C153.222 3.38081 153.239 3.2873 153.283 3.20538C153.328 3.12406 153.396 3.05825 153.479 3.01665C153.562 2.97506 153.655 2.95966 153.747 2.9725C153.841 2.98661 153.927 3.02976 153.995 3.09583L154.457 3.56432C154.572 3.67649 154.71 3.76116 154.862 3.81191C155.014 3.86266 155.175 3.87816 155.334 3.85724L155.978 3.75927C156.07 3.74761 156.165 3.76514 156.247 3.80943C156.329 3.85372 156.396 3.92256 156.437 4.00637C156.478 4.09018 156.493 4.1848 156.478 4.27706C156.463 4.36932 156.419 4.45464 156.354 4.52114L155.895 4.97346C155.747 5.1221 155.647 5.31102 155.606 5.51657C155.583 5.6343 155.58 5.75485 155.597 5.87339L155.694 6.51567C155.706 6.60789 155.689 6.70125 155.645 6.78352Z" fill="#FFC041"/>
<defs>
<clipPath id="clip0">
<rect width="3.5639" height="3.5639" fill="white" transform="translate(63.147 81.1879)"/>
</clipPath>
</defs>
</svg>
