<svg width="153" height="125" viewBox="0 0 153 125" fill="none" xmlns="http://www.w3.org/2000/svg">
<path d="M1.29095 3.53991H4.80507C5.295 3.53991 5.75821 3.58445 6.19469 3.67353C6.63117 3.76261 7.00975 3.9185 7.33044 4.14119C7.66002 4.35498 7.91835 4.64894 8.10541 5.02306C8.30139 5.38828 8.39937 5.85149 8.39937 6.41268C8.39937 6.96496 8.31029 7.42817 8.13214 7.8023C7.95398 8.17643 7.70902 8.47484 7.39724 8.69753C7.08547 8.92023 6.7158 9.08057 6.28822 9.17855C5.86065 9.26763 5.39744 9.31217 4.89861 9.31217H3.37537V13H1.29095V3.53991ZM3.37537 7.54843H4.76499C4.95205 7.54843 5.13021 7.53061 5.29946 7.49498C5.47761 7.45935 5.6335 7.40145 5.76712 7.32128C5.90964 7.2322 6.02099 7.1164 6.10116 6.97387C6.19024 6.82244 6.23478 6.63538 6.23478 6.41268C6.23478 6.17217 6.17688 5.98065 6.06107 5.83813C5.95418 5.68669 5.81166 5.57089 5.6335 5.49072C5.46425 5.41055 5.27273 5.36156 5.05895 5.34374C4.84516 5.31702 4.64028 5.30366 4.44431 5.30366H3.37537V7.54843ZM10.5891 3.53991H17.0161V5.464H12.6736V7.22774H16.7756V9.15183H12.6736V11.0759H17.2566V13H10.5891V3.53991ZM19.727 3.53991H22.8536C23.6108 3.53991 24.3278 3.62454 25.0048 3.79379C25.6907 3.96304 26.2876 4.23918 26.7953 4.62221C27.303 4.99634 27.7039 5.48627 27.9979 6.092C28.3007 6.69773 28.4522 7.43262 28.4522 8.29668C28.4522 9.06275 28.3052 9.73974 28.0112 10.3277C27.7262 10.9067 27.3387 11.3966 26.8488 11.7974C26.3588 12.1894 25.7932 12.4878 25.1518 12.6927C24.5105 12.8976 23.8379 13 23.1342 13H19.727V3.53991ZM21.8114 11.0759H22.8937C23.3747 11.0759 23.8201 11.0269 24.2299 10.9289C24.6485 10.831 25.0093 10.6706 25.3122 10.4479C25.615 10.2163 25.8511 9.9179 26.0203 9.55268C26.1985 9.17855 26.2876 8.72426 26.2876 8.18979C26.2876 7.72658 26.1985 7.32573 26.0203 6.98723C25.8511 6.63983 25.6195 6.35478 25.3255 6.13209C25.0316 5.90939 24.6842 5.7446 24.2833 5.6377C23.8914 5.5219 23.4771 5.464 23.0407 5.464H21.8114V11.0759ZM30.6407 3.53991H32.7251V13H30.6407V3.53991ZM35.4228 3.53991H38.5494C39.3066 3.53991 40.0237 3.62454 40.7007 3.79379C41.3866 3.96304 41.9834 4.23918 42.4911 4.62221C42.9989 4.99634 43.3997 5.48627 43.6937 6.092C43.9965 6.69773 44.148 7.43262 44.148 8.29668C44.148 9.06275 44.001 9.73974 43.707 10.3277C43.422 10.9067 43.0345 11.3966 42.5446 11.7974C42.0546 12.1894 41.489 12.4878 40.8476 12.6927C40.2063 12.8976 39.5337 13 38.83 13H35.4228V3.53991ZM37.5072 11.0759H38.5895C39.0705 11.0759 39.5159 11.0269 39.9257 10.9289C40.3443 10.831 40.7051 10.6706 41.008 10.4479C41.3108 10.2163 41.5469 9.9179 41.7161 9.55268C41.8943 9.17855 41.9834 8.72426 41.9834 8.18979C41.9834 7.72658 41.8943 7.32573 41.7161 6.98723C41.5469 6.63983 41.3153 6.35478 41.0213 6.13209C40.7274 5.90939 40.38 5.7446 39.9791 5.6377C39.5872 5.5219 39.173 5.464 38.7365 5.464H37.5072V11.0759ZM45.8555 8.26996C45.8555 7.51279 45.9802 6.82689 46.2296 6.21226C46.4879 5.59762 46.8442 5.07651 47.2985 4.64894C47.7528 4.21245 48.2917 3.87841 48.9153 3.64681C49.5388 3.41521 50.2203 3.2994 50.9596 3.2994C51.699 3.2994 52.3804 3.41521 53.004 3.64681C53.6275 3.87841 54.1664 4.21245 54.6207 4.64894C55.075 5.07651 55.4269 5.59762 55.6763 6.21226C55.9346 6.82689 56.0638 7.51279 56.0638 8.26996C56.0638 9.02712 55.9346 9.71302 55.6763 10.3277C55.4269 10.9423 55.075 11.4679 54.6207 11.9043C54.1664 12.3319 53.6275 12.6615 53.004 12.8931C52.3804 13.1247 51.699 13.2405 50.9596 13.2405C50.2203 13.2405 49.5388 13.1247 48.9153 12.8931C48.2917 12.6615 47.7528 12.3319 47.2985 11.9043C46.8442 11.4679 46.4879 10.9423 46.2296 10.3277C45.9802 9.71302 45.8555 9.02712 45.8555 8.26996ZM48.0201 8.26996C48.0201 8.71535 48.0869 9.12511 48.2205 9.49923C48.363 9.86445 48.5634 10.1851 48.8218 10.4613C49.0801 10.7285 49.3874 10.9378 49.7437 11.0893C50.1089 11.2407 50.5142 11.3164 50.9596 11.3164C51.405 11.3164 51.8059 11.2407 52.1622 11.0893C52.5274 10.9378 52.8392 10.7285 53.0975 10.4613C53.3558 10.1851 53.5518 9.86445 53.6854 9.49923C53.8279 9.12511 53.8992 8.71535 53.8992 8.26996C53.8992 7.83347 53.8279 7.42817 53.6854 7.05404C53.5518 6.67991 53.3558 6.35923 53.0975 6.092C52.8392 5.81586 52.5274 5.60207 52.1622 5.45064C51.8059 5.29921 51.405 5.22349 50.9596 5.22349C50.5142 5.22349 50.1089 5.29921 49.7437 5.45064C49.3874 5.60207 49.0801 5.81586 48.8218 6.092C48.5634 6.35923 48.363 6.67991 48.2205 7.05404C48.0869 7.42817 48.0201 7.83347 48.0201 8.26996ZM63.1178 3.53991H69.4646V5.464H65.2023V7.38808H69.144V9.31217H65.2023V13H63.1178V3.53991ZM71.7331 3.53991H73.8175V13H71.7331V3.53991ZM76.5152 3.53991H79.3479L83.3698 10.1139H83.3965V3.53991H85.4809V13H82.7552L78.6264 6.2657H78.5997V13H76.5152V3.53991ZM91.3257 3.53991H93.0494L97.1648 13H94.8132L93.9981 10.9957H90.3236L89.5353 13H87.2371L91.3257 3.53991ZM92.1274 6.29243L90.9783 9.232H93.2899L92.1274 6.29243ZM98.9982 3.53991H101.083V11.0759H104.944V13H98.9982V3.53991ZM106.87 3.53991H108.954V13H106.87V3.53991ZM111.157 11.0759L115.954 5.38383H111.331V3.53991H118.48V5.38383L113.776 11.0759H118.64V13H111.157V11.0759ZM123.983 3.53991H125.707L129.822 13H127.471L126.655 10.9957H122.981L122.193 13H119.894L123.983 3.53991ZM124.785 6.29243L123.636 9.232H125.947L124.785 6.29243ZM131.575 3.53991H134.702C135.459 3.53991 136.176 3.62454 136.853 3.79379C137.539 3.96304 138.136 4.23918 138.644 4.62221C139.151 4.99634 139.552 5.48627 139.846 6.092C140.149 6.69773 140.301 7.43262 140.301 8.29668C140.301 9.06275 140.154 9.73974 139.86 10.3277C139.575 10.9067 139.187 11.3966 138.697 11.7974C138.207 12.1894 137.642 12.4878 137 12.6927C136.359 12.8976 135.686 13 134.983 13H131.575V3.53991ZM133.66 11.0759H134.742C135.223 11.0759 135.669 11.0269 136.078 10.9289C136.497 10.831 136.858 10.6706 137.161 10.4479C137.463 10.2163 137.699 9.9179 137.869 9.55268C138.047 9.17855 138.136 8.72426 138.136 8.18979C138.136 7.72658 138.047 7.32573 137.869 6.98723C137.699 6.63983 137.468 6.35478 137.174 6.13209C136.88 5.90939 136.533 5.7446 136.132 5.6377C135.74 5.5219 135.326 5.464 134.889 5.464H133.66V11.0759ZM142.008 8.26996C142.008 7.51279 142.133 6.82689 142.382 6.21226C142.64 5.59762 142.997 5.07651 143.451 4.64894C143.905 4.21245 144.444 3.87841 145.068 3.64681C145.691 3.41521 146.373 3.2994 147.112 3.2994C147.852 3.2994 148.533 3.41521 149.157 3.64681C149.78 3.87841 150.319 4.21245 150.773 4.64894C151.228 5.07651 151.579 5.59762 151.829 6.21226C152.087 6.82689 152.216 7.51279 152.216 8.26996C152.216 9.02712 152.087 9.71302 151.829 10.3277C151.579 10.9423 151.228 11.4679 150.773 11.9043C150.319 12.3319 149.78 12.6615 149.157 12.8931C148.533 13.1247 147.852 13.2405 147.112 13.2405C146.373 13.2405 145.691 13.1247 145.068 12.8931C144.444 12.6615 143.905 12.3319 143.451 11.9043C142.997 11.4679 142.64 10.9423 142.382 10.3277C142.133 9.71302 142.008 9.02712 142.008 8.26996ZM144.173 8.26996C144.173 8.71535 144.239 9.12511 144.373 9.49923C144.516 9.86445 144.716 10.1851 144.974 10.4613C145.233 10.7285 145.54 10.9378 145.896 11.0893C146.262 11.2407 146.667 11.3164 147.112 11.3164C147.558 11.3164 147.958 11.2407 148.315 11.0893C148.68 10.9378 148.992 10.7285 149.25 10.4613C149.508 10.1851 149.704 9.86445 149.838 9.49923C149.981 9.12511 150.052 8.71535 150.052 8.26996C150.052 7.83347 149.981 7.42817 149.838 7.05404C149.704 6.67991 149.508 6.35923 149.25 6.092C148.992 5.81586 148.68 5.60207 148.315 5.45064C147.958 5.29921 147.558 5.22349 147.112 5.22349C146.667 5.22349 146.262 5.29921 145.896 5.45064C145.54 5.60207 145.233 5.81586 144.974 6.092C144.716 6.35923 144.516 6.67991 144.373 7.05404C144.239 7.42817 144.173 7.83347 144.173 8.26996Z" fill="#3D96FF"/>
<path d="M60.9471 79.7365L71.0129 89.8023L94.4998 66.3154" stroke="#3D96FF" stroke-width="5.625" stroke-linecap="round"/>
<path fill-rule="evenodd" clip-rule="evenodd" d="M77.5 120C54.0279 120 35 100.972 35 77.5C35 54.0279 54.0279 35 77.5 35C100.972 35 120 54.0279 120 77.5C120 100.972 100.972 120 77.5 120ZM77.5 109C60.103 109 46 94.897 46 77.5C46 60.103 60.103 46 77.5 46C94.897 46 109 60.103 109 77.5C109 94.897 94.897 109 77.5 109Z" fill="#3D96FF"/>
<path d="M33.5001 105.875C34.2595 105.875 34.8751 105.259 34.8751 104.5C34.8751 103.741 34.2595 103.125 33.5001 103.125C32.7407 103.125 32.1251 103.741 32.1251 104.5C32.1251 105.259 32.7407 105.875 33.5001 105.875Z" fill="#FFC041"/>
<path d="M119.5 57C120.328 57 121 56.3284 121 55.5C121 54.6716 120.328 54 119.5 54C118.672 54 118 54.6716 118 55.5C118 56.3284 118.672 57 119.5 57Z" fill="#FFC041"/>
<path d="M39.1183 117.983C39.0054 118.063 38.8762 118.117 38.7401 118.14C38.6039 118.164 38.4642 118.157 38.3311 118.12C38.1979 118.083 38.0746 118.017 37.9702 117.926C37.8658 117.836 37.7828 117.723 37.7272 117.597L37.2864 116.257C37.179 115.935 36.9982 115.642 36.7581 115.402C36.5181 115.162 36.2255 114.981 35.9034 114.873L34.6222 114.457C34.4402 114.393 34.2827 114.274 34.1723 114.116C34.087 113.996 34.0315 113.858 34.0103 113.713C33.9891 113.567 34.0028 113.419 34.0502 113.279C34.0977 113.14 34.1776 113.014 34.2833 112.912C34.389 112.81 34.5176 112.734 34.6583 112.691L35.9263 112.279C36.2486 112.172 36.5416 111.992 36.7821 111.752C37.0226 111.512 37.2039 111.22 37.3116 110.897L37.7278 109.617C37.7918 109.435 37.9106 109.278 38.0678 109.167C38.2259 109.058 38.4135 109 38.6056 109C38.7977 109 38.9853 109.058 39.1434 109.167C39.3032 109.28 39.4233 109.44 39.4869 109.625L39.9082 110.922C40.0157 111.236 40.1932 111.521 40.4273 111.756C40.6614 111.991 40.9459 112.169 41.2592 112.278L42.5415 112.694C42.724 112.759 42.8818 112.879 42.993 113.037C43.1043 113.195 43.1633 113.384 43.1621 113.578C43.1608 113.772 43.0993 113.96 42.986 114.117C42.8727 114.274 42.7134 114.391 42.5301 114.453L41.2615 114.865C40.8501 115.003 40.4884 115.259 40.2219 115.602C40.0697 115.798 39.9523 116.019 39.875 116.254L39.4583 117.533C39.3942 117.715 39.2757 117.872 39.1183 117.983Z" fill="#FFC041"/>
<path d="M49.9403 122.642C49.8499 122.647 49.7594 122.633 49.6753 122.599C49.5912 122.565 49.5157 122.513 49.4543 122.447C49.3928 122.38 49.3468 122.301 49.3198 122.214C49.2928 122.128 49.2853 122.037 49.2979 121.947L49.5139 121.048C49.5651 120.832 49.5652 120.606 49.5142 120.389C49.4631 120.173 49.3624 119.971 49.2199 119.8L48.6491 119.126C48.5695 119.028 48.523 118.907 48.5157 118.781C48.5094 118.685 48.5262 118.589 48.5645 118.5C48.6028 118.412 48.6617 118.334 48.7361 118.273C48.8105 118.211 48.8985 118.169 48.9926 118.148C49.0868 118.128 49.1845 118.13 49.2777 118.154L50.1267 118.362C50.3433 118.413 50.5689 118.413 50.7856 118.363C51.0023 118.312 51.2042 118.211 51.3753 118.069L52.0487 117.498C52.147 117.419 52.2673 117.373 52.3932 117.365C52.5189 117.359 52.6436 117.391 52.7507 117.457C52.8578 117.523 52.9423 117.62 52.9929 117.736C53.043 117.854 53.0548 117.984 53.0265 118.109L52.8145 118.977C52.7663 119.189 52.767 119.41 52.8165 119.621C52.866 119.833 52.963 120.03 53.1003 120.199L53.6717 120.873C53.7512 120.972 53.7979 121.093 53.8053 121.22C53.8127 121.346 53.7805 121.472 53.7131 121.58C53.6457 121.687 53.5465 121.771 53.4292 121.819C53.312 121.868 53.1826 121.878 53.059 121.85L52.2099 121.642C51.933 121.577 51.643 121.595 51.3764 121.695C51.2238 121.752 51.0824 121.834 50.9581 121.939L50.2849 122.508C50.1866 122.587 50.0665 122.634 49.9403 122.642Z" fill="#FFC041"/>
<path d="M118.199 46.6145C118.129 46.6644 118.048 46.6979 117.963 46.7127C117.878 46.7275 117.79 46.7231 117.707 46.7C117.624 46.6769 117.547 46.6356 117.482 46.579C117.416 46.5225 117.364 46.4521 117.33 46.373L117.054 45.5358C116.987 45.3344 116.874 45.1514 116.724 45.0013C116.574 44.8511 116.391 44.7379 116.19 44.6707L115.389 44.4106C115.275 44.3709 115.177 44.2961 115.108 44.1977C115.055 44.1228 115.02 44.0363 115.007 43.9454C114.993 43.8544 115.002 43.7616 115.032 43.6746C115.061 43.5876 115.111 43.5089 115.177 43.445C115.243 43.3812 115.324 43.3339 115.412 43.3072L116.204 43.0496C116.406 42.9827 116.589 42.8699 116.739 42.72C116.889 42.5701 117.003 42.3872 117.07 42.1859L117.33 41.3855C117.37 41.2721 117.444 41.174 117.543 41.1047C117.641 41.0365 117.759 41 117.879 41C117.999 41 118.116 41.0365 118.215 41.1047C118.315 41.1752 118.39 41.2753 118.43 41.3909L118.693 42.2013C118.76 42.3974 118.871 42.5756 119.017 42.7224C119.164 42.8693 119.341 42.9809 119.537 43.0489L120.339 43.309C120.453 43.3493 120.551 43.4241 120.621 43.5231C120.69 43.6221 120.727 43.7403 120.727 43.8612C120.726 43.9822 120.687 44.0999 120.616 44.198C120.546 44.296 120.446 44.3696 120.332 44.4084L119.539 44.6657C119.282 44.7519 119.056 44.9121 118.889 45.1261C118.794 45.2489 118.72 45.3866 118.672 45.534L118.412 46.3333C118.372 46.4467 118.298 46.5448 118.199 46.6145Z" fill="#FFC041"/>
<path d="M109.863 40.3636C109.837 40.4131 109.799 40.4562 109.754 40.4896C109.709 40.523 109.657 40.5459 109.602 40.5568C109.547 40.5676 109.49 40.566 109.436 40.5522C109.381 40.5383 109.33 40.5125 109.287 40.4767L108.883 40.0703C108.785 39.9728 108.666 39.8993 108.535 39.8558C108.404 39.8122 108.265 39.7997 108.128 39.8193L107.587 39.9016C107.509 39.9117 107.43 39.8969 107.361 39.8598C107.308 39.8318 107.263 39.7917 107.229 39.7426C107.194 39.6936 107.172 39.6372 107.164 39.578C107.156 39.5187 107.162 39.4584 107.182 39.402C107.202 39.3456 107.235 39.2947 107.278 39.2535L107.664 38.8726C107.761 38.775 107.835 38.656 107.879 38.525C107.922 38.3941 107.935 38.2547 107.915 38.118L107.833 37.5768C107.823 37.4993 107.838 37.4205 107.875 37.3516C107.912 37.2831 107.97 37.2277 108.04 37.1927C108.109 37.1577 108.188 37.1447 108.266 37.1555C108.344 37.1674 108.417 37.2038 108.474 37.2594L108.863 37.6537C108.959 37.7482 109.076 37.8194 109.204 37.8621C109.332 37.9049 109.468 37.9179 109.601 37.9003L110.143 37.8178C110.221 37.808 110.3 37.8228 110.37 37.8601C110.439 37.8973 110.495 37.9553 110.53 38.0258C110.564 38.0964 110.576 38.176 110.564 38.2537C110.551 38.3314 110.515 38.4032 110.46 38.4592L110.074 38.8399C109.949 38.965 109.865 39.1241 109.83 39.2971C109.811 39.3962 109.808 39.4977 109.823 39.5974L109.905 40.1381C109.914 40.2157 109.9 40.2943 109.863 40.3636Z" fill="#FFC041"/>
</svg>
