<svg xmlns="http://www.w3.org/2000/svg" id="auricular-phone-symbol-in-a-circle" width="28" height="28" viewBox="0 0 28 28">
    <defs>
        <style>
            .cls-1{fill:#d9d9d9}
        </style>
    </defs>
    <path id="Trazado_180" d="M14 1.75A12.25 12.25 0 1 1 1.75 14 12.265 12.265 0 0 1 14 1.75M14 0a14 14 0 1 0 14 14A14 14 0 0 0 14 0zm7.8 18.681l-.079-.239a2.217 2.217 0 0 0-1.354-1.278L18.3 16.6a2.028 2.028 0 0 0-1.772.465l-.749.749a7.95 7.95 0 0 1-5.59-5.592l.749-.749A2.029 2.029 0 0 0 11.4 9.7l-.564-2.07A2.215 2.215 0 0 0 9.56 6.275L9.324 6.2a1.873 1.873 0 0 0-1.75.414L6.453 7.731a2.087 2.087 0 0 0-.328.769 13.221 13.221 0 0 0 13.342 13.373 2.064 2.064 0 0 0 .8-.325l1.121-1.121a1.875 1.875 0 0 0 .412-1.746z" class="cls-1" data-name="Trazado 180"/>
</svg>
