<svg width="10" height="13" viewBox="0 0 10 13" fill="none" xmlns="http://www.w3.org/2000/svg">
<path d="M4.72727 0C3.47352 0 2.27112 0.51362 1.38459 1.42787C0.498051 2.34212 0 3.58211 0 4.87505C0 8.00639 3.40364 11.9138 3.93952 12.5109C4.16076 12.7586 4.34607 13 4.72727 13C5.10848 13 5.29455 12.7586 5.51503 12.5109C6.05091 11.9138 9.45455 8.00639 9.45455 4.87505C9.45455 4.23485 9.33227 3.60092 9.0947 3.00945C8.85714 2.41798 8.50893 1.88056 8.06996 1.42787C7.63099 0.975179 7.10986 0.616085 6.53632 0.371091C5.96278 0.126097 5.34807 0 4.72727 0V0ZM4.72727 8.12495C4.10399 8.12495 3.4947 7.93435 2.97645 7.57724C2.45821 7.22014 2.05429 6.71257 1.81577 6.11873C1.57725 5.52489 1.51484 4.87144 1.63644 4.24102C1.75803 3.6106 2.05817 3.03153 2.4989 2.57702C2.93963 2.12251 3.50116 1.81299 4.11247 1.68759C4.72378 1.56219 5.35742 1.62655 5.93326 1.87253C6.5091 2.11851 7.00128 2.53506 7.34756 3.0695C7.69384 3.60394 7.87866 4.23228 7.87866 4.87505C7.87856 5.73694 7.54651 6.56351 6.95553 7.17296C6.36455 7.78242 5.56304 8.12485 4.72727 8.12495ZM4.72727 3.2499C4.41559 3.2499 4.11091 3.34522 3.85176 3.52379C3.59261 3.70236 3.39062 3.95618 3.27135 4.25313C3.15207 4.55009 3.12086 4.87685 3.18167 5.1921C3.24248 5.50735 3.39256 5.79692 3.61295 6.0242C3.83335 6.25148 4.11414 6.40626 4.41983 6.46897C4.72552 6.53167 5.04238 6.49949 5.33034 6.37649C5.61829 6.25348 5.86441 6.04519 6.03757 5.77793C6.21073 5.51068 6.30316 5.19647 6.30316 4.87505C6.30306 4.44406 6.13699 4.03076 5.84148 3.72601C5.54597 3.42126 5.14519 3.25001 4.72727 3.2499Z" fill="#F23838"/>
</svg>
