<svg width="24" height="15" viewBox="0 0 24 15" fill="none" xmlns="http://www.w3.org/2000/svg">
<path d="M0.758181 8.71394L0.752743 8.71388C0.719448 8.71352 0.686449 8.71974 0.655672 8.73215C0.624891 8.74457 0.597006 8.7629 0.573582 8.78599C0.550156 8.80908 0.531652 8.83648 0.519056 8.86656C0.50646 8.89664 0.499998 8.92885 0.5 8.96134V11.201C0.5 11.2667 0.526087 11.33 0.573099 11.377C0.620026 11.424 0.684015 11.4508 0.751205 11.4512H3H3.5V11.9512C3.5 12.611 3.76298 13.2441 4.23163 13.7112C4.70034 14.1783 5.33641 14.441 6 14.441C6.66359 14.441 7.29965 14.1783 7.76837 13.7112C8.23702 13.2441 8.5 12.611 8.5 11.9512V11.4512H9H15H15.5V11.9512C15.5 12.611 15.763 13.2441 16.2316 13.7112C16.7003 14.1783 17.3364 14.441 18 14.441C18.6636 14.441 19.2997 14.1783 19.7684 13.7112C20.237 13.2441 20.5 12.611 20.5 11.9512V11.4512H21H23.2488C23.316 11.4508 23.38 11.424 23.4269 11.377C23.4739 11.33 23.5 11.2667 23.5 11.201V9.71154V7.46916V5.34809L21.2986 0.968224C21.2985 0.967971 21.2984 0.967719 21.2983 0.967467C21.2149 0.803395 21.1152 0.701449 20.9804 0.631894C20.8346 0.556676 20.6095 0.500003 20.2473 0.500003L17.2473 0.500003L17.2464 0.500002C17.1148 0.499763 16.9845 0.525353 16.863 0.57527C16.7414 0.625185 16.6311 0.698426 16.5381 0.790725C16.4452 0.883022 16.3715 0.992568 16.3211 1.11307C16.2709 1.23342 16.2448 1.36239 16.2445 1.49265V8.21391V8.71391H15.7445H4.38142L4.3814 8.70961C4.19685 8.71084 3.98575 8.71226 3.74523 8.71391H3.74182H2.75896H2.5404L0.758181 8.71394Z" stroke="#3D4550"/>
<path d="M18.3138 5.7411H21.4714C21.6133 5.7411 21.7096 5.59754 21.6564 5.46606L20.5158 2.6478C20.4374 2.45429 20.2495 2.32764 20.0408 2.32764H18.3138C17.9684 2.32759 17.623 2.32769 17.623 2.75432V4.88773C17.623 5.22908 17.9684 5.7411 18.3138 5.7411Z" stroke="#3D4550"/>
<circle cx="5.99078" cy="11.801" r="1.05426" stroke="#3D4550"/>
<circle cx="18.0152" cy="11.801" r="1.05426" stroke="#3D4550"/>
<rect x="1.95508" y="4.7251" width="4" height="2" stroke="#3D4550"/>
<rect x="5.95508" y="4.7251" width="4" height="2" stroke="#3D4550"/>
<rect x="3.95508" y="2.7251" width="4" height="2" stroke="#3D4550"/>
<rect x="9.95508" y="4.7251" width="4" height="2" stroke="#3D4550"/>
<rect x="7.95508" y="2.7251" width="4" height="2" stroke="#3D4550"/>
<rect x="5.95508" y="0.725098" width="4" height="2" stroke="#3D4550"/>
</svg>
