<svg xmlns="http://www.w3.org/2000/svg" width="21.037" height="21.037" viewBox="0 0 21.037 21.037">
    <defs>
        <style>
            .cls-1{fill:#5585c1}
        </style>
    </defs>
    <g id="icon" transform="translate(-1.287 -1.287)">
        <g id="perfil" transform="translate(1.287 1.287)">
            <path id="Trazado_2921" d="M39.619 46.337a10.514 10.514 0 1 1 7.439-3.08 10.466 10.466 0 0 1-7.439 3.08zm-5.244-5.6a4.06 4.06 0 0 0-.292 2.07.176.176 0 0 0 .064.116 8.946 8.946 0 0 0 10.927 0 .168.168 0 0 0 .064-.116 4.206 4.206 0 0 0-.326-2.148c0-.013-.009-.021-.013-.034a2.985 2.985 0 0 0-.73-.911l-.017-.013a5.36 5.36 0 0 0-1.117-.739h-.013l-.021-.009a.167.167 0 0 0-.129 0l-.021.009s-.013 0-.017.009a6.662 6.662 0 0 1-6.262 0s-.013 0-.017-.009l-.021-.009a.172.172 0 0 0-.064-.013.168.168 0 0 0-.077.017l-.072.043-.03.017-.1.052a.059.059 0 0 1-.017.013 3.848 3.848 0 0 0-1.692 1.628.133.133 0 0 1-.008.031zm11.678-.691a5.557 5.557 0 0 1 .382 1.16.177.177 0 0 0 .129.133.119.119 0 0 0 .039 0 .179.179 0 0 0 .137-.069 8.974 8.974 0 1 0-14.234 0 .173.173 0 0 0 .137.069.119.119 0 0 0 .039 0 .177.177 0 0 0 .129-.133 5.346 5.346 0 0 1 .361-1.1.022.022 0 0 0 .009-.017 5.3 5.3 0 0 1 2.306-2.246.209.209 0 0 1 .03-.013 7.131 7.131 0 0 1 .687-.309.63.63 0 0 1 .241-.043.676.676 0 0 1 .361.1 5.319 5.319 0 0 0 5.635 0 .7.7 0 0 1 .356-.1.594.594 0 0 1 .236.043 6.442 6.442 0 0 1 1.928 1.151 4.511 4.511 0 0 1 1.087 1.37z" class="cls-1" data-name="Trazado 2921" transform="translate(-29.1 -25.3)"/>
            <path id="Trazado_2922" d="M179.624 99.681a3.842 3.842 0 0 1-2.671-1.19l-.009-.009a5.354 5.354 0 0 1-1.546-3.689 4.008 4.008 0 0 1 1.267-2.946 4.4 4.4 0 0 1 5.919 0 4.012 4.012 0 0 1 1.28 2.972 5.4 5.4 0 0 1-1.22 3.307 3.924 3.924 0 0 1-3.015 1.563zm-1.724-2.148a2.486 2.486 0 0 0 1.705.8h.009a.119.119 0 0 0 .039 0 2.706 2.706 0 0 0 2.01-1.181 4.052 4.052 0 0 0 .837-2.352 2.656 2.656 0 0 0-.838-1.963 3.044 3.044 0 0 0-2-.782h-.039a3.052 3.052 0 0 0-2.049.79l-.009.009a2.625 2.625 0 0 0-.816 1.941 4.045 4.045 0 0 0 1.151 2.736z" class="cls-1" data-name="Trazado 2922" transform="translate(-169.114 -87.891)"/>
        </g>
    </g>
</svg>
