<svg xmlns="http://www.w3.org/2000/svg" width="353.67" height="128.089" viewBox="0 0 353.67 128.089"><g transform="translate(-139.899 -197.816)"><path d="M241.02,354.661c1.5,0,2.175-.158,2.651-.593.514-.476,1.108-1.464,1.108-5.065,0-3.639-.593-4.589-1.108-5.065-.476-.435-1.147-.594-2.651-.594h-9.377v11.317Zm4.906,1.582c-.87.87-2.175,1.108-4.233,1.108H231.644v11h-3.126V340.655h13.175c2.058,0,3.363.238,4.233,1.108,1.147,1.068,2.017,2.61,2.017,7.319,0,4.55-.87,6.093-2.017,7.161" transform="translate(-26.333 -42.445)" fill="#17100d"/><path d="M281.391,353.711a3.1,3.1,0,0,0,2.415-.673c.474-.474,1.106-1.423,1.106-4.55,0-3.163-.593-4.113-1.068-4.589-.4-.4-1.067-.553-2.374-.553H271.343v10.365Zm2.3,3.363c-.594-.553-1.423-.752-3.086-.752h-9.257V368.35h-3.126v-27.7h14c1.94,0,3.2.318,4.074,1.149,1.07,1.067,1.742,2.492,1.742,6.527,0,4.788-1.346,6.172-4.115,6.766v.04c2.731.633,3.719,1.423,3.916,5.854.119,3.244.238,5.7.435,7.36H285.19a65.605,65.605,0,0,1-.514-7.28c-.079-2.769-.4-3.481-.99-4" transform="translate(-38.13 -42.444)" fill="#17100d"/><path d="M313.682,365.066c.4.356.87.594,2.533.594h7.911c1.663.04,2.137-.238,2.533-.594.671-.633,1.265-2.057,1.265-10.562s-.594-9.932-1.265-10.564c-.4-.356-.87-.594-2.533-.594h-7.911c-1.663,0-2.137.238-2.533.594-.633.632-1.267,2.057-1.267,10.564s.634,9.93,1.267,10.562m10.761-24.41c2.533,0,3.522.317,4.353,1.108,1.462,1.345,2.293,3.363,2.293,12.74s-.831,11.394-2.293,12.738c-.831.792-1.82,1.108-4.353,1.108H315.9c-2.492,0-3.483-.316-4.353-1.108-1.423-1.345-2.293-3.363-2.293-12.738s.87-11.4,2.293-12.74c.87-.791,1.86-1.108,4.353-1.108Z" transform="translate(-50.323 -42.445)" fill="#17100d"/><path d="M357.1,343.346V353.2h12.072v2.651H357.1v12.5h-3.125V340.656h17.61v2.69Z" transform="translate(-63.613 -42.445)" fill="#17100d"/><path d="M409.563,368.35H391.284V340.656h18.4v2.69H394.409v9.3h13.1v2.651h-13.1V365.66h15.153Z" transform="translate(-74.699 -42.445)" fill="#17100d"/><path d="M447.6,367.124c-.791.791-1.938,1.226-4.036,1.226h-9.456c-2.058,0-3.2-.276-4.034-1.146-1.069-1.07-1.464-2.177-1.5-7.2h3.045c.079,3.877.278,4.59.752,5.065.4.4.911.593,2.216.593h8.507c1.306,0,1.859-.158,2.294-.634.515-.513.752-1.621.752-4.272,0-2.572-.118-3.284-.712-3.878-.437-.394-.95-.593-2.454-.711l-8.663-.791c-2.177-.2-3.324-.634-4.077-1.385-.988-.99-1.305-2.255-1.305-5.816,0-3.4.4-5.1,1.622-6.291.752-.791,1.94-1.226,4-1.226h8.586c2.057,0,3.244.276,4.074,1.147,1.108,1.108,1.425,2.256,1.5,7h-3.086c-.041-3.562-.238-4.353-.713-4.867a2.9,2.9,0,0,0-2.215-.594h-7.675c-1.305,0-1.82.159-2.295.634-.515.553-.712,1.78-.712,4.154,0,2.493.158,3.164.712,3.719.436.435.949.553,2.454.673l8.663.791c2.1.2,3.284.633,4.036,1.385.99.988,1.346,2.334,1.346,6.014s-.435,5.262-1.622,6.409" transform="translate(-85.779 -42.445)" fill="#17100d"/><rect width="3.125" height="27.694" transform="translate(373.112 298.21)" fill="#17100d"/><path d="M494.306,365.066c.4.356.87.594,2.531.594h7.913c1.661.04,2.137-.238,2.533-.594.671-.633,1.267-2.057,1.267-10.562s-.6-9.932-1.267-10.564c-.4-.356-.872-.594-2.533-.594h-7.913c-1.661,0-2.135.238-2.531.594-.633.632-1.265,2.057-1.265,10.564s.633,9.93,1.265,10.562m10.761-24.41c2.532,0,3.521.317,4.351,1.108,1.465,1.345,2.295,3.363,2.295,12.74s-.829,11.394-2.295,12.738c-.83.792-1.82,1.108-4.351,1.108h-8.545c-2.493,0-3.481-.316-4.353-1.108-1.424-1.345-2.294-3.363-2.294-12.738s.87-11.4,2.294-12.74c.872-.791,1.86-1.108,4.353-1.108Z" transform="translate(-103.996 -42.445)" fill="#17100d"/><path d="M555,368.35h-3.2a1.585,1.585,0,0,1-1.78-1.067l-12.7-22.591h-.474V368.35H533.79V340.656h3.443a1.569,1.569,0,0,1,1.74,1.108l12.463,22h.514v-23.1H555Z" transform="translate(-117.045 -42.445)" fill="#17100d"/><path d="M581.475,357.182h9.851l-4.51-13.925h-.832Zm10.721,2.651H580.6l-2.731,8.467h-3.126l9.021-26.784c.238-.831.475-1.028,1.5-1.028h2.491c.99,0,1.228.2,1.5,1.028l9.021,26.784h-3.362Z" transform="translate(-129.216 -42.395)" fill="#17100d"/><path d="M620.958,365.66h14.086v2.69H617.832V340.656h3.125Z" transform="translate(-142.018 -42.445)" fill="#17100d"/><path d="M202.151,197.816H139.9v62.249h41.5v-20.75h20.75Zm-6.938,6.938v27.623H174.462v20.75H146.838V204.754Z" fill="#5585c1"/><path d="M242.807,300.868c1.737,0,2.227-.089,2.494-.357.489-.446.712-1.068.712-3.338s-.268-2.85-.712-3.25c-.312-.266-.757-.356-2.494-.356h-4.718v7.3Zm10.239,5.7c-1.113.98-2.982,1.38-5.787,1.38h-9.171v9.7h-9.571V286.489h18.742c2.805,0,4.673.4,5.787,1.38,1.515,1.335,2.849,3.383,2.849,9.348s-1.334,8.013-2.849,9.349" transform="translate(-26.333 -26.349)" fill="#17100d"/><path d="M279.752,304.194h5.832l-2.671-9.171h-.491Zm7.7,6.677h-9.571l-1.914,6.722H266.4l9.438-28.356c.8-2.359,1.157-2.938,3.294-2.938h7.657c2.137,0,2.538.622,3.294,2.938l9.438,28.356H289.41Z" transform="translate(-37.589 -26.293)" fill="#17100d"/><path d="M341.525,315.869c-1.2,1.2-2.849,1.781-6.1,1.781H325.01c-3.25,0-4.94-.58-6.142-1.781-1.825-1.78-3.383-5.207-3.383-13.8s1.558-12.018,3.383-13.8c1.2-1.2,2.892-1.78,6.142-1.78h10.418c3.249,0,4.9.578,6.1,1.78,1.558,1.559,2.314,4.274,2.4,10.549h-8.947c-.133-3.872-.491-4.45-.757-4.717s-.712-.358-2.047-.358h-3.962c-1.335,0-1.781.089-2.047.358-.312.31-.846,1.157-.846,7.967,0,6.856.534,7.657.846,7.969.266.266.712.356,2.047.356h3.962c1.335,0,1.781-.089,2.047-.356s.624-.845.757-4.852h8.947c-.09,6.366-.8,9.125-2.4,10.683" transform="translate(-52.175 -26.349)" fill="#17100d"/><path d="M371.937,304.194h5.83l-2.669-9.171h-.491Zm7.7,6.677h-9.571l-1.914,6.722h-9.571l9.438-28.356c.8-2.359,1.157-2.938,3.294-2.938h7.657c2.137,0,2.538.622,3.294,2.938l9.438,28.356H381.6Z" transform="translate(-64.981 -26.293)" fill="#17100d"/><path d="M434.121,316.136c-.934.935-2.4,1.513-4.9,1.513H416.36c-2.805,0-4.407-.356-5.52-1.469-1.29-1.29-1.915-3.561-1.915-9.036h8.77c.089,2.314.268,2.938.489,3.161.268.268.8.356,2.093.356h4.5c1.29,0,2.047-.088,2.27-.31.268-.268.4-.893.4-2a2.725,2.725,0,0,0-.4-1.781,5.426,5.426,0,0,0-2.315-.535l-9.214-1.067a6.628,6.628,0,0,1-4.23-1.692c-1.2-1.2-2-3.073-2-7.391,0-3.961.978-6.454,2.4-7.879.935-.935,2.447-1.513,4.808-1.513h11.974c2.894,0,4.54.446,5.52,1.423,1.335,1.336,2.047,3.3,2.091,8.681h-8.768c-.089-1.958-.223-2.493-.491-2.759s-.712-.356-1.869-.356H420.5c-1.068,0-1.6.044-1.781.223a2.9,2.9,0,0,0-.356,1.825c0,.98.134,1.513.4,1.781.223.222.8.312,2.314.489l9.3,1.068c2.137.268,3.25.757,4.185,1.693,1.2,1.2,1.96,3.16,1.96,7.344,0,4.274-.98,6.811-2.405,8.235" transform="translate(-79.941 -26.349)" fill="#17100d"/><path d="M492,317.649h-9.036V298.774h-.446l-5.609,17.094c-.445,1.336-.846,1.781-2,1.781h-3.2c-1.157,0-1.6-.488-2-1.781l-5.609-17.094h-.445v18.875h-8.768V286.488H466.8c1.379,0,1.87.445,2.272,1.826l4.318,14.155h.4l4.051-14.155c.4-1.381.891-1.826,2.27-1.826H492Z" transform="translate(-93.596 -26.349)" fill="#17100d"/><path d="M525.729,304.194h5.832l-2.671-9.171H528.4Zm7.7,6.677h-9.571l-1.915,6.722h-9.571l9.438-28.356c.8-2.359,1.157-2.938,3.293-2.938h7.657c2.137,0,2.538.622,3.294,2.938l9.438,28.356h-10.1Z" transform="translate(-110.681 -26.293)" fill="#17100d"/><path d="M575.516,307.233v10.416H566.39V307.233l-11.262-20.744H565.1l6.009,11.885h.179l6.053-11.885h9.438Z" transform="translate(-123.385 -26.349)" fill="#17100d"/><path d="M611.913,310.037c.266.266.712.356,2.047.356h3.962c1.335,0,1.781-.089,2.049-.356.312-.311.845-1.157.845-7.969s-.533-7.657-.845-7.967c-.268-.268-.714-.358-2.049-.358H613.96c-1.336,0-1.781.089-2.047.358-.312.31-.845,1.157-.845,7.967,0,6.856.533,7.658.845,7.969m9.215-23.549c3.25,0,4.942.578,6.142,1.781,1.827,1.781,3.383,5.208,3.383,13.8s-1.557,12.019-3.383,13.8c-1.2,1.2-2.892,1.781-6.142,1.781H610.755c-3.249,0-4.94-.578-6.142-1.781-1.825-1.781-3.383-5.207-3.383-13.8s1.559-12.018,3.383-13.8c1.2-1.2,2.894-1.781,6.142-1.781Z" transform="translate(-137.084 -26.349)" fill="#17100d"/></g></svg>
