<svg width="85" height="85" viewBox="0 0 85 85" fill="none" xmlns="http://www.w3.org/2000/svg">
<path fill-rule="evenodd" clip-rule="evenodd" d="M42.5 85C65.9721 85 85 65.9721 85 42.5C85 19.0279 65.9721 0 42.5 0C19.0279 0 0 19.0279 0 42.5C0 65.9721 19.0279 85 42.5 85ZM62.194 35.6315C64.2687 33.5568 64.2687 30.1932 62.194 28.1185C60.1193 26.0438 56.7557 26.0438 54.681 28.1185L37.1875 45.612L30.319 38.7435C28.2443 36.6688 24.8807 36.6688 22.806 38.7435C20.7313 40.8182 20.7313 44.1818 22.806 46.2565L33.431 56.8815C35.5057 58.9562 38.8693 58.9562 40.944 56.8815L62.194 35.6315Z" fill="#5585c1"/>
</svg>
